<svg xmlns="http://www.w3.org/2000/svg" xmlns:xlink="http://www.w3.org/1999/xlink" width="45.835" height="52.618" viewBox="0 0 45.835 52.618">
  <defs>
    <clipPath id="clip-path">
      <rect id="長方形_1295" data-name="長方形 1295" width="30.03" height="44.054" fill="none"/>
    </clipPath>
  </defs>
  <g id="グループ_5665" data-name="グループ 5665" transform="translate(-5086.165 -2571.382)">
    <g id="グループ_1688" data-name="グループ 1688" transform="translate(5086.165 2584.073) rotate(-25)">
      <path id="パス_3583" data-name="パス 3583" d="M53.931,11.512l1.17,1.549,1.342,1,.964.482h1.342l.2-.008-.032-.075.429-.129.9-.343,1.2-.9.514-.943.6-1.329.6-2.015.3-2.572-.172-.772.257-1.115-.086-.9-.429-.257-1.2.429-.943.086-.943-.172-1.2-.514-.729-.643-1.072.557-.129.3-.257.6L54.283,5.542l-1.629.686-.343.514-.043.472-.6.943-2.058,2.53-.772.643.043.472h.557l1.886-1.158.067.786L53,10.067Z" transform="translate(-36.276 -1.76)" fill="#947864"/>
      <path id="パス_3584" data-name="パス 3584" d="M62.4,38.214l1.033-.172.62-.379.207-.895.03-.243-.478-.239-1.342-1L61.3,33.739l-.929-1.446-1.609,1.363.148,1.743.472,2.143.035.209.714.152Z" transform="translate(-43.649 -23.987)" fill="#f9c4ab"/>
      <path id="パス_3585" data-name="パス 3585" d="M87.562,51.245l-.21.094.392-.073-.017-.039Z" transform="translate(-64.882 -38.05)" fill="#e992bb"/>
      <path id="パス_3586" data-name="パス 3586" d="M68.007,49.5l.211-.094.165-.018-.175-.4-.2.008H66.669l-.486-.243-.03.243-.207.895-.619.379-1.033.172-2.272-.31-.714-.152.051.306,1.029.814.217.119.553-.227h1l1.48-.241.585-.448.269-.121.729-.533Z" transform="translate(-45.538 -36.207)" fill="#e86450"/>
      <path id="パス_3587" data-name="パス 3587" d="M69.379,54.873l-1.48.241h-1l-.553.227.641.352h.857l-.226,1.55.176.04L69.552,54.8l.683-.5-.27.121Z" transform="translate(-49.281 -40.336)" fill="#f9c4ab"/>
      <path id="パス_3588" data-name="パス 3588" d="M32.1,17.076l.265-.095-.291-4.365-.214-1.972,1.629-2.958.215-.557L33.656,6.4l.086-2.658.086-1.286h-.6l.043-.429-.214-.557-.472.086-.129-.214L32.284.87h-.472l-.3.514-.429-.257-.386.214L29.883,4.6,29.54,6.7l.086,3.173L29.2,13.131,28.571,15.8l.53.309Z" transform="translate(-21.222 -0.646)" fill="#f9c4ab"/>
      <g id="グループ_1366" data-name="グループ 1366">
        <g id="グループ_1365" data-name="グループ 1365" clip-path="url(#clip-path)">
          <path id="パス_3589" data-name="パス 3589" d="M24.892,72.4a10.135,10.135,0,0,0,.964,1.549l1.2.516,2.169-1.446-.069-.275-3.752-2.582-.387.194-.26.974-.373.68c.245.124.5.281.5.39" transform="translate(-18.115 -52.115)" fill="#f9c4ab"/>
          <path id="パス_3590" data-name="パス 3590" d="M14.2,41.978l.62.172-.138-.688-.31-2.341-.826-2,.018-.087-.154.041-1.758-.772-.009-.137-.265.095L8.379,35.3l-.53-.309-.017.071-.9-.343L5.9,30.9l-.386-3.13-.471-.3-.215.172-.257,1.415s-.343-1.543-.343-1.715-.3-.3-.3-.3l-.343.043-.214.557-.514-.772L2.3,26.7v1.158H1.788a.82.82,0,0,0-.343.172l.471,2.915L2.3,33.091l-1.286-.472-.343.514,1.115,1.8,1.029.343,1.2.943.943-.086,2.315,1.543.215.086-.083.312.388-.194,3.752,2.582.069.275,1.274.654Z" transform="translate(-0.5 -19.834)" fill="#f9c4ab"/>
          <path id="パス_3591" data-name="パス 3591" d="M73.215,54.9l.815-.435,1.2-.815,1.268-.217L75.6,51.378l-1.18.22-1.411,1.033-1.755,2.478-.176-.04-.074.508,1.123-.351Z" transform="translate(-52.741 -38.162)" fill="#a8b4bb"/>
          <path id="パス_3592" data-name="パス 3592" d="M24.519,79.734l-1.052-.451a10.144,10.144,0,0,1-.964-1.549c0-.109-.259-.266-.5-.39l-.827,1.507.557,2.272.662,1.655.282-.226Z" transform="translate(-15.726 -57.45)" fill="#e5f4fd"/>
          <path id="パス_3593" data-name="パス 3593" d="M61.024,124.969l1.684.38,4.672-.706,3.077-.989-.087-.276-.429-3.987-.366-1.032-3.989.472-1.141.543-2.553.326-1.412.6-2.01.815-1.219.079-.319,3.386.234.066Z" transform="translate(-42.289 -87.914)" fill="#003e92"/>
          <path id="パス_3594" data-name="パス 3594" d="M29.923,88.945,28.4,82.372l-.482-.425-.053-.024-1.274-.654-2.169,1.446-.153-.066-1.845,2.819-.282.226.11.274-1.029,1.458-.386,1.543.772,3.43,2.744-.6,2.486.986.986.086,2.143-.814Zm-6.1-3.591.806-.472,1,.194.278.778v.917l-.361.389-.695.028-.667-.222-.528-.695Zm1.917,4.224c-.083,0-.973-.361-.973-.361l-.333-.083-1,.25-.444.611-.223.584-.5-.333.25-.861.584-.639.667-.361,1.111-.139.667.056.473.667s.389.667.333.75-.25.334-.25.334-.278-.473-.361-.473m2.946,0-.083.75-.389.667-.389.278-.611.111-.917-.334a5.139,5.139,0,0,1,.667-.306c.084,0,.473-.5.473-.5l.333-.556-.278-.945-.333-.306-.889-.25.444-.25.723-.139.583.111.667,1.056Z" transform="translate(-15.479 -60.364)" fill="#e5f4fd"/>
          <path id="パス_3595" data-name="パス 3595" d="M32.976,97.619l.695-.028.361-.389v-.917l-.278-.778-1-.194-.806.472-.167.917.528.695Z" transform="translate(-23.606 -70.796)" fill="#0059ab"/>
          <path id="パス_3596" data-name="パス 3596" d="M30.13,109.107l-.473-.667-.667-.056-1.111.139-.667.361-.583.639-.25.861.5.334.222-.584.445-.611,1-.25.334.083s.889.361.973.361.361.472.361.472.194-.25.25-.333-.333-.75-.333-.75" transform="translate(-19.594 -80.505)" fill="#0059ab"/>
          <path id="パス_3597" data-name="パス 3597" d="M43.1,106.655l-.723.139-.444.25.889.25.333.306.278.945-.333.556s-.389.5-.472.5a5.144,5.144,0,0,0-.667.306l.917.333.611-.111.389-.278.389-.667.083-.75v-.611l-.667-1.056Z" transform="translate(-31.149 -79.22)" fill="#0059ab"/>
          <path id="パス_3598" data-name="パス 3598" d="M64.779,64.472l-.386-1.8-1.072-2.315-.772-.686-.9-.3H59.678l-1.268.217-1.2.815-.815.435-1.087.326-1.123.351-.343.215-4.2-.6-.66.174-.018.088.826,2,.31,2.341.138.688-.62-.172-1.255-.561.482.425,1.521,6.573.048,3.11.472,1.586,1.219-.079,2.01-.815,1.412-.6,2.553-.326,1.141-.543.351-.041L60.8,73.711l2.608-2.39.169-.135,0-.027.557-1.072.729-2.53.129-1.329ZM60.717,62l.445-.639h.945l.444.639.083.639-.417.723-.945-.056-.611-.25Zm-8.7,5.641.361-1.056L52.715,66l1.223-.139.556.139.361.778.028,1.195-.806.75-.834.306-.889-.389Zm6.085,4.39-1.223.222-1.278-.25-1.167-.194-.583.306-.417.667-.111,1.723-.472-.222-.25-.611.083-1.028.5-.806.695-.611.973-.167.5.139,1.473.444.806-.056.75-.194.389-.528L58.8,69.7l-.334-.472L57.8,69l-.473.056-.778.306.028-.334.778-.583.584-.25,1,.222.611.695.083,1.056-.472,1.111Zm3.279-.167-.834.584-.556.167-.778-.25.861-.25.861-.806.444-1.167-.25-1.084-.361-.473-.667-.167.722-.111.278.056.583.278.25.473.167.722.056.75Zm-.5-4.529.056-.389.472-.139.222.25-.111.472-.25.083Zm2.529.056-.528.5-.056-.945-.306-.861-.889-.528-.806-.083-.861.5.194-.5.778-.611.917-.084,1.084.167.445.556.25.778Z" transform="translate(-35.926 -44.098)" fill="#e5f4fd"/>
          <path id="パス_3599" data-name="パス 3599" d="M93.167,107.831l-1.224,1.262,3.637-.43-.106-.3.386-2.272.083-.788-.169.135Z" transform="translate(-68.293 -78.218)" fill="#a8b4bb"/>
          <path id="パス_3600" data-name="パス 3600" d="M71.784,94.609l-.611-.695-1-.222-.583.25-.778.584-.028.333.778-.306.472-.056.667.222.333.473-.028,1.167-.389.528-.75.194-.806.056-1.473-.444-.5-.139-.973.167-.695.611-.5.806-.083,1.028.25.611.472.222.111-1.723.417-.667.583-.306,1.167.194,1.278.25,1.223-.222,1.056-.75.472-1.111Z" transform="translate(-48.159 -69.592)" fill="#0059ab"/>
          <path id="パス_3601" data-name="パス 3601" d="M93.27,94.93l-.25-.472-.584-.278-.278-.056-.723.111.667.167.361.473.25,1.084-.444,1.167-.861.806-.861.25.778.25.556-.167.833-.583.778-1.278-.056-.75Z" transform="translate(-67.256 -69.913)" fill="#0059ab"/>
          <path id="パス_3602" data-name="パス 3602" d="M96.437,80.572l-1.084-.167-.917.083-.778.611-.194.5.861-.5.806.083.889.528.306.861.056.945.528-.5.222-1.111-.25-.778Z" transform="translate(-69.422 -59.723)" fill="#0059ab"/>
          <path id="パス_3603" data-name="パス 3603" d="M64.625,87.48l.806-.75L65.4,85.535l-.361-.778-.556-.139-1.223.139-.334.584L62.569,86.4l.333,1,.889.389Z" transform="translate(-46.474 -62.852)" fill="#0059ab"/>
          <path id="パス_3604" data-name="パス 3604" d="M83.353,100.973l-.222.083-.361-.167.111-.389.389-.111.139.278Z" transform="translate(-61.479 -74.566)" fill="#0059ab"/>
          <path id="パス_3605" data-name="パス 3605" d="M68.3,146.127a16.543,16.543,0,0,1-.172-2.487l-1.072-3.473-.385-1.224-3.077.989-4.672.706-1.684-.38-3.857-.326-.234-.066-.024.258-1.243,4.03-.009.366.809-2.5.869.188.658.681.023.963-.7.893-1.2.517-.476.055-.014.6a94.945,94.945,0,0,0,9.432,1.329,19.685,19.685,0,0,0,7.031-1.115m-10.076-.233-.587.094-1.691-.165v-.493l1.644-.235-.259-.986,1.057.282.117,1.01ZM56.3,143.075v-.4h.493v.188l-.211.305Zm2.02-.564-.752,1.315-.047-1.9-1.762-.188-.305,1.973-.376-2.467.728-.329,1.222.164,1.691.4Zm3.853,1.363H60.951l-.376.164-.4,1.057-.258-.141-.259-.775.446-1.01.775-.141.846.141.47-.235.023-.775-.517-.54.423-.07.658.165.352.94-.376.869Zm2.725.869-1.1.376-.564.094-.376-.305.141-.376.963-.376.447-.211s.094-.446.023-.446a7.048,7.048,0,0,1-.54-1.01l.54-.07.54.329.306.822Zm2.067.47-.352.376-.446.07-.8-.235.54-.376.634-.728.118-.564.352.211.141.587Z" transform="translate(-38.505 -103.204)" fill="#e5f4fd"/>
          <path id="パス_3606" data-name="パス 3606" d="M51.279,161.177l.023.259.135-.016.019-.793Z" transform="translate(-38.089 -119.309)" fill="#fff14c"/>
          <path id="パス_3607" data-name="パス 3607" d="M53.57,153.619l.7-.893-.024-.963-.658-.681-.869-.188-.809,2.5-.019.793.476-.055Z" transform="translate(-38.547 -112.08)" fill="#0059ab"/>
          <path id="パス_3608" data-name="パス 3608" d="M65.158,146.6l-.728.329.376,2.467.305-1.973,1.762.188.047,1.9.752-1.315.4-1.034-1.691-.4Z" transform="translate(-47.857 -108.892)" fill="#0059ab"/>
          <path id="パス_3609" data-name="パス 3609" d="M69.672,153.452h-.493v.4l.282.094.211-.305Z" transform="translate(-51.384 -113.98)" fill="#0059ab"/>
          <path id="パス_3610" data-name="パス 3610" d="M69.2,159.023l.259.987-1.644.235v.493l1.691.164.587-.094.282-.493-.117-1.01Z" transform="translate(-50.367 -118.118)" fill="#0059ab"/>
          <path id="パス_3611" data-name="パス 3611" d="M85.363,149.233l-.658-.164-.423.07.517.54-.023.775-.47.235-.846-.141-.775.141-.446,1.01.259.775.258.141.4-1.057.376-.164h1.222l.587-.352.376-.869Z" transform="translate(-61.084 -110.724)" fill="#0059ab"/>
          <path id="パス_3612" data-name="パス 3612" d="M96.232,152.447l-.54.07a7.046,7.046,0,0,0,.54,1.01c.07,0-.023.446-.023.446l-.447.211-.963.376-.141.376.376.306.564-.094,1.1-.376.376-1.174-.306-.822Z" transform="translate(-70.309 -113.233)" fill="#0059ab"/>
          <path id="パス_3613" data-name="パス 3613" d="M23.583,15.072a.466.466,0,0,1,.144-.046c.474.012.948.029,1.422.046a.969.969,0,0,0,.115.009,3.663,3.663,0,0,1,1.024.094.977.977,0,0,1,.45.2,4.385,4.385,0,0,1,1.127,1.3c.221.417.455.829.648,1.26a.225.225,0,0,1,.016.035,15.281,15.281,0,0,1,.595,2.261c.039.393.093.785.132,1.176a5.723,5.723,0,0,1-.007,1.264,10.368,10.368,0,0,1-.52,2.242c-.087.241-.177.481-.274.718a1.656,1.656,0,0,1-.324.486.719.719,0,0,1-.015-.175c.215-.872.387-1.753.557-2.634a7.9,7.9,0,0,0,.128-1.994,9.857,9.857,0,0,0-.508-2.6q-.075-.218-.142-.439a4.493,4.493,0,0,0-.433-1.026c-.164-.275-.32-.556-.462-.842a2.092,2.092,0,0,0-.439-.531.345.345,0,0,0-.128-.081,4.879,4.879,0,0,0-1.486-.36c-.475-.006-.949-.02-1.424-.021a1.229,1.229,0,0,0-.338.062c-.356.1-.712.213-1.065.33a.87.87,0,0,0-.231.136c-.268.2-.546.378-.8.6a3.139,3.139,0,0,1-1.09.551c-.351.12-.7.245-1.051.371a.878.878,0,0,0-.338.247.682.682,0,0,1-.959.106.553.553,0,0,0-.357-.107c-.205,0-.411,0-.616.007a4.854,4.854,0,0,1-1.413-.127,2.123,2.123,0,0,0-.3-.05,3.815,3.815,0,0,1-1.079-.268.9.9,0,0,0-.766.024,1.157,1.157,0,0,0,.052.16c.211.437.456.86.628,1.312a4.942,4.942,0,0,1,.212,1.014,4.263,4.263,0,0,0,.168.825,3.228,3.228,0,0,1,.137.675c.061.457.1.918.162,1.375s.131.939.2,1.408a26.337,26.337,0,0,1,.23,2.838c.007.179-.012.359-.02.539a.193.193,0,0,1-.008.076,7.579,7.579,0,0,0-.314,1.061c-.061.182-.1.371-.151.556a.342.342,0,0,0-.022.113,8.388,8.388,0,0,0,.118,1.523,2.75,2.75,0,0,1,.039,1.034,1.806,1.806,0,0,0,.1.864c.037.094.057.195.085.294a2.171,2.171,0,0,0,1.222-.009,4.341,4.341,0,0,0,1.114-.412.785.785,0,0,1,.253-.09,3.325,3.325,0,0,0,.881-.374,6.232,6.232,0,0,1,1.917-.665,4.958,4.958,0,0,1,.883-.049,2.348,2.348,0,0,0,.973-.188,6.006,6.006,0,0,0,1.153-.61c.187-.133.355-.292.536-.435a12.06,12.06,0,0,0,1.141-.972,10.132,10.132,0,0,1,1.092-.971,3.691,3.691,0,0,0,.387-.375c.126-.128.24-.268.371-.39a1.607,1.607,0,0,0,.4-.514c.045-.1.1-.174.227-.168.11,0,.14-.1.183-.173a.761.761,0,0,1,.342-.352.158.158,0,0,1,.138.02.17.17,0,0,1,.047.135.4.4,0,0,1-.084.168c-.1.129-.216.251-.327.379a.919.919,0,0,1,.069.277.753.753,0,0,1-.115.243.584.584,0,0,1,.083.464c-.091.371-.2.74-.293,1.11-.075.284-.148.568-.228.875a.953.953,0,0,1,.285.632c.02.213.117.418.159.63.126.629.215,1.264.284,1.9.04.369.131.731.185,1.1.046.317.081.636.1.956,0,.075-.065.155-.094.218.147.278.3.542.428.816a2.073,2.073,0,0,1,.3.864,3.424,3.424,0,0,1,.288.874c.135.508.276,1.015.394,1.527a7.591,7.591,0,0,1,.27,1.821,6.531,6.531,0,0,0,.043.724,1.222,1.222,0,0,1-.088.819c-.022.034,0,.1.006.148a1.085,1.085,0,0,1-.084.526.5.5,0,0,1-.166-.385c-.065-.431-.114-.865-.192-1.293-.177-.971-.342-1.945-.561-2.907a16.567,16.567,0,0,0-.6-2.225c-.077-.2-.149-.409-.218-.6a.229.229,0,0,0-.268-.022,12.254,12.254,0,0,1-1.887.647.973.973,0,0,0-.112.029,8.163,8.163,0,0,1-2.243.507c-.126.022-.257.008-.384.024-.458.057-.915.121-1.373.181a9.446,9.446,0,0,1-1.3.082,9.622,9.622,0,0,1-1.525-.162c-.428-.072-.867-.084-1.3-.123-.37-.034-.74-.081-1.11-.1-.524-.028-1.049-.036-1.567-.052a2.182,2.182,0,0,0-.261.741c-.078.228-.123.467-.188.719a.974.974,0,0,0,.139.057,2.623,2.623,0,0,1,1.237.8,1.218,1.218,0,0,1,.246.677.23.23,0,0,1-.019.111,3.4,3.4,0,0,1-.554,1.085,2.322,2.322,0,0,1-1.015.736,3.993,3.993,0,0,1-1.154.352v.331a.205.205,0,0,1-.283-.095,1.044,1.044,0,0,1-.145-.513,2.872,2.872,0,0,1,.145-1.134c.3-.968.577-1.943.859-2.916.068-.234.123-.471.177-.709a.662.662,0,0,0,.021-.378.443.443,0,0,1,0-.19c.094-.725.193-1.449.283-2.174.038-.305.056-.613.086-.92.01-.1.03-.2.049-.326a.763.763,0,0,1-.214-.533,8.543,8.543,0,0,0-.152-.844,2.423,2.423,0,0,0-.232.1c-.346.195-.7.382-1.034.594a.826.826,0,0,1-.665.112,15.218,15.218,0,0,1-1.818-.486,5.539,5.539,0,0,0-.619-.206c-.371-.1-.745-.188-1.118-.283a1.366,1.366,0,0,0-.864.075c-.166.066-.329.142-.5.2a1.372,1.372,0,0,1-.295.073c-.178.023-.358.026-.536.051a.514.514,0,0,0-.372.159.448.448,0,0,1-.351-.316c-.1-.252-.218-.493-.312-.745a1.89,1.89,0,0,1-.118-.484,17.276,17.276,0,0,0-.293-1.818c-.015-.076-.02-.153-.035-.228a.428.428,0,0,1,.177-.479.668.668,0,0,1-.022-.635,2.908,2.908,0,0,1,.466-.879,7.437,7.437,0,0,0,.467-.658,1.911,1.911,0,0,0,.134-.3c-.043-.173-.094-.33-.118-.492a.6.6,0,0,0-.168-.411.7.7,0,0,1-.15-.467,18.38,18.38,0,0,0-.394-2.156,4.411,4.411,0,0,0-.2-.622.6.6,0,0,1,0-.449c.031-.084.065-.167.1-.248.177-.37.353-.742.537-1.108a1.348,1.348,0,0,1,.232-.351A1.206,1.206,0,0,0,6.459,19c.08-.217.164-.432.251-.646.046-.113.1-.222.159-.352a1.71,1.71,0,0,0-.173-.128c-.222-.128-.456-.238-.669-.379a5.006,5.006,0,0,1-.524-.3,3.022,3.022,0,0,0-.542-.285.7.7,0,0,1-.394-.345c-.04-.106-.164-.115-.267-.11a1.184,1.184,0,0,0-.225.05.965.965,0,0,1-.806-.149l-.063-.045a6.43,6.43,0,0,0-1.676-.931.834.834,0,0,1-.508-.49,5.8,5.8,0,0,0-.7-1.058,2.856,2.856,0,0,1-.28-.455A.725.725,0,0,1,0,13.045a.376.376,0,0,1,.3-.355,1.052,1.052,0,0,1,.94.2c.116.076.208.193.387.192a.805.805,0,0,0-.011-.142,4.337,4.337,0,0,0-.138-.481,4.282,4.282,0,0,1-.232-1.317c0-.076-.014-.153-.018-.229a5.047,5.047,0,0,0-.209-1.053c-.053-.2-.065-.4-.1-.6C.9,9.171.882,9.085.861,9a3.4,3.4,0,0,1-.1-.447.624.624,0,0,1,.7-.705l.126.009a.629.629,0,0,0,.071-.366c.009-.141,0-.283.017-.423a.317.317,0,0,1,.442-.28.862.862,0,0,1,.611.584.311.311,0,0,0,.033.069c0,.007.017.009.034.017.052-.086.1-.178.16-.259a.322.322,0,0,1,.4-.122.891.891,0,0,1,.51.385.483.483,0,0,1,.065.216c.024.178.034.358.059.535a1.741,1.741,0,0,0,.085.256.756.756,0,0,0,.073-.406.787.787,0,0,1,.273-.571,2.013,2.013,0,0,1,.656.231.233.233,0,0,1,.147.247,4.793,4.793,0,0,0,.116,1.216,8.308,8.308,0,0,1,.1.995,3.852,3.852,0,0,0,.155.829c.09.293.15.6.227.893.025.1.067.192.094.29q.094.332.181.666c.026.1.038.2.071.3a2.063,2.063,0,0,1,.14.634,1.193,1.193,0,0,0,.116.362.853.853,0,0,1,.1.56l.587.217c.025-.1.051-.188.066-.276.09-.558.245-1.1.389-1.645a13.444,13.444,0,0,0,.5-2.915,10.42,10.42,0,0,1,.205-2,.618.618,0,0,0-.441-.335,1.28,1.28,0,0,1,.085-.308c.13-.222.033-.454.055-.68A.092.092,0,0,0,7.944,6.7c-.206-.163-.1-.41-.164-.61a4.161,4.161,0,0,0-.03-.882c0-.153,0-.306,0-.478l.732-.647a2.471,2.471,0,0,0,.087-.42,6.55,6.55,0,0,1,.343-1.457c.032-.11.051-.224.076-.336.044-.2.085-.4.132-.6A2.44,2.44,0,0,0,9.2.978c.034-.322.276-.48.5-.645a.307.307,0,0,1,.22-.01,1.43,1.43,0,0,1,.2.106.17.17,0,0,0,.21-.045c.1-.119.189-.243.283-.365.289-.08.52.11.762.137.135.161.04.343.1.509a2.659,2.659,0,0,0,.336-.022.363.363,0,0,1,.287.079.285.285,0,0,1,.135.259c-.005.19.007.381.012.594l.471.047a1.889,1.889,0,0,1,.122.912c-.084.609-.158,1.22-.212,1.833-.038.434-.038.871-.046,1.307a1.1,1.1,0,0,0,.043.38,1.014,1.014,0,0,1-.028.679,2.6,2.6,0,0,1-.213.493,13.028,13.028,0,0,1-.9,1.519,4.49,4.49,0,0,1-.454.8.4.4,0,0,0-.043.3,11.992,11.992,0,0,1,.154,2.684c-.02.359-.011.718-.013,1.078a.822.822,0,0,0,.019.191,4.084,4.084,0,0,1,.1,1.217,9.461,9.461,0,0,0,.045,1.036c0,.1,0,.2,0,.329.064.03.129.063.2.091.356.146.713.288,1.069.435.146.06.286.117.429-.009a.2.2,0,0,1,.111-.025,3.112,3.112,0,0,1,1.511.079,6.809,6.809,0,0,0,1.842.367,11.405,11.405,0,0,0,1.462.012.938.938,0,0,0,.172-.03c.018-.026.026-.035.032-.046a1.3,1.3,0,0,0,.121-1c-.055-.206,0-.437-.143-.655a1.126,1.126,0,0,0-.2-.033,1.028,1.028,0,0,1-.755-.327,3.255,3.255,0,0,0-1.026-.664.764.764,0,0,1-.437-.628c-.013-.075,0-.154,0-.23a.33.33,0,0,0-.046-.18,1.337,1.337,0,0,1-.254-.676,8.648,8.648,0,0,1-.172-1.3c-.025-.5-.085-1-.132-1.495,0-.023-.024-.043-.047-.083a4.584,4.584,0,0,0-.914.232,1.386,1.386,0,0,1-.326.111,1.092,1.092,0,0,0-.419.182.414.414,0,0,1-.217.055c-.11,0-.179-.091-.269-.131s-.2.014-.289-.015a.356.356,0,0,1-.229-.367,1.124,1.124,0,0,1,.305-.842,22.7,22.7,0,0,0,1.841-2.015A11.2,11.2,0,0,0,15.5,5.812a1.35,1.35,0,0,1,.121-.2.911.911,0,0,0,.223-.523.89.89,0,0,1,.57-.75c.657-.321,1.3-.668,1.944-1.016a5.912,5.912,0,0,0,.573-.386c.157-.11.306-.232.465-.34a4.189,4.189,0,0,0,1.067-1.039.142.142,0,0,0-.005-.038c-.154-.352-.151-.412.161-.588s.638-.326.966-.471a.425.425,0,0,1,.552.126c.095.118.2.226.293.349a1.348,1.348,0,0,0,.412.337,3.376,3.376,0,0,0,.9.333,4.779,4.779,0,0,0,.491.1,3.15,3.15,0,0,0,1.654-.242,5.1,5.1,0,0,1,.616-.212.577.577,0,0,1,.548.092,1.158,1.158,0,0,0,.2.115.3.3,0,0,1,.189.374.253.253,0,0,0-.008.114,3,3,0,0,1-.192,1.619.633.633,0,0,0-.008.448,2.529,2.529,0,0,1,.069,1.141c-.016.166-.043.331-.051.5a4.353,4.353,0,0,1-.168.981.326.326,0,0,0-.01.222.659.659,0,0,1-.031.45c-.073.232-.128.47-.2.7-.059.2-.129.389-.2.583-.089.254-.173.509-.273.758s-.221.518-.34.773c-.081.174-.175.342-.264.513a.688.688,0,0,1-.056.1,6.023,6.023,0,0,1-1.245,1.345,2.289,2.289,0,0,1-.741.377c-.258.068-.508.17-.784.265a3.653,3.653,0,0,0,.4,1.28,6.692,6.692,0,0,1,.327.653.238.238,0,0,1-.031.284.442.442,0,0,0-.046.139,2.355,2.355,0,0,1-.217-.156,1.069,1.069,0,0,1-.231-.251c-.179-.325-.341-.66-.511-.99-.033-.063-.075-.122-.112-.18l-1.489.759a.917.917,0,0,1-.241.117.512.512,0,0,0-.355.27,3.66,3.66,0,0,1-.408.456,10.927,10.927,0,0,0-.8.984,6.841,6.841,0,0,0-.447.8.411.411,0,0,0-.07.311,2.289,2.289,0,0,0,.223-.067c.106-.044.2-.108.312-.144.205-.069.416-.124.624-.187a3.922,3.922,0,0,0,1.28-.681,4.081,4.081,0,0,1,1.15-.688,6.351,6.351,0,0,1,1.29-.363M16.619,13.63l-.01-.008a.634.634,0,0,0,.294.167c.275.056.543.145.817.2a3.474,3.474,0,0,0,.608.086,2.641,2.641,0,0,0,.725-.035,4.178,4.178,0,0,0,1.24-.514c0-.324.25-.6.168-.92-.287-.171-.553-.349-.837-.493a2.717,2.717,0,0,1-.79-.6c-.2-.218-.383-.448-.571-.674a5.283,5.283,0,0,1-.8-1.3c-.033-.076-.079-.147-.138-.254a4.786,4.786,0,0,0-.244.467c-.03.076.009.176-.007.261a.941.941,0,0,1-.106.323,2.279,2.279,0,0,0-.331.847.56.56,0,0,1-.048.146.415.415,0,0,0,.025.4,1.1,1.1,0,0,1,.051.1c.065.155.015.235-.161.254-.073.008-.148.01-.212.014a.306.306,0,0,0-.053.313l.515.367a1.258,1.258,0,0,1,.367-.06,1.848,1.848,0,0,0,.683-.028.2.2,0,0,1,.253.131c-.1.234-.331.217-.522.248a.865.865,0,0,1-.867-.222,1.651,1.651,0,0,1-.237.071.68.68,0,0,1-.229,0,1.109,1.109,0,0,1-.211-.084c-.061-.027-.1-.118-.2-.06a2.21,2.21,0,0,0,.492.855Zm-6.329-2.846c-.048.04-.1.079-.144.121a.772.772,0,0,1-.477.139.288.288,0,0,1,.008-.108c.152-.3.295-.6.469-.883.1-.154.168-.355.4-.383.037,0,.075-.067.1-.11.082-.16.158-.322.233-.484A1.18,1.18,0,0,1,11,8.794a4.752,4.752,0,0,0,.507-.859c.209-.382.4-.773.59-1.166a.879.879,0,0,0,.091-.635,2.278,2.278,0,0,1-.052-.84c.025-.332.04-.666.068-1s.059-.639.1-.957c.042-.356.093-.711.137-1.067,0-.031-.019-.065-.042-.136-.052.074-.106.118-.117.17-.027.138-.034.279-.052.419a1.908,1.908,0,0,1-.05.34,6.809,6.809,0,0,0-.243,1.2,4.483,4.483,0,0,0-.1,1.031c.019.184-.068.254-.255.241a.219.219,0,0,1-.224-.253c0-.115.015-.23.029-.345.06-.5.123-.993.183-1.49.087-.726.215-1.446.244-2.178,0-.073.032-.159-.1-.185a.863.863,0,0,0-.089.157c-.079.242-.153.486-.227.73a10.561,10.561,0,0,0-.411,2.1c-.014.153-.038.3-.065.455a.2.2,0,0,1-.275.178.823.823,0,0,1-.185-.109c.036-.274.065-.528.1-.78q.231-1.58.464-3.159a.87.87,0,0,0,.008-.229.161.161,0,0,0-.075-.115.168.168,0,0,0-.138.029.98.98,0,0,0-.3.484c-.109.328-.2.662-.282,1-.043.173-.036.359-.078.532A13.16,13.16,0,0,0,9.9,3.95a.535.535,0,0,1-.16.368.757.757,0,0,1-.127,0c-.175-.034-.217-.09-.2-.258,0-.038.015-.076.021-.113.115-.735.228-1.47.346-2.2A3.589,3.589,0,0,1,9.965.915.478.478,0,0,0,9.989.726c0-.033-.023-.087-.047-.1A.2.2,0,0,0,9.8.636a.522.522,0,0,0-.245.332c-.068.287-.127.575-.193.863-.04.174-.083.348-.127.521-.083.323-.187.641-.246.968a10.86,10.86,0,0,1-.261,1.319,3.024,3.024,0,0,0-.079.376c-.009.049-.009.1.078.123.082-.081.168-.174.263-.256.126-.109.256-.212.39-.31.028-.02.083,0,.178,0l-.92,1.112c.034.15.064.245.076.342a1.285,1.285,0,0,1-.007.229.908.908,0,0,0-.186.006c-.075.017-.079.073-.017.212l.193-.226c.154-.169.307-.34.463-.508A1.073,1.073,0,0,1,9.6,5.387l-.008-.008a.722.722,0,0,1-.074.169c-.26.333-.526.662-.789.993-.035.044-.065.094-.141.2.21-.1.248-.325.478-.287-.044.1-.081.192-.124.28-.028.058-.064.111-.006.17l.35-.191c0,.215-.131.307-.22.423s-.182.248-.273.372l-.267.362a.364.364,0,0,1,.1.3A4.82,4.82,0,0,0,8.513,9.55a.32.32,0,0,1-.007.115,3.926,3.926,0,0,0-.065.8,7.482,7.482,0,0,1-.1.954A14.38,14.38,0,0,1,7.935,13.1a3.627,3.627,0,0,0-.219,1.088.437.437,0,0,1-.031.188,1.4,1.4,0,0,0-.068.8c1.074.289,2.081.782,3.188.977a.46.46,0,0,0,.031-.109,17.209,17.209,0,0,0-.122-2.072,8.177,8.177,0,0,1-.06-1.727,3.621,3.621,0,0,0,0-.461c0-.018-.023-.035-.032-.047l-.25.027a1.4,1.4,0,0,1,.026-.242c.025-.085.075-.163.1-.248.009-.028-.016-.068-.026-.107l-.314.061c.046-.176.083-.318.121-.459a.459.459,0,0,0,.062-.024s0-.021,0-.032l-.05.065m3.748,10.971c-.063.185-.062.186,0,.307v-.3l-.091-.433a.589.589,0,0,0-.075-.057c-.079-.039-.172-.063-.188-.171s.048-.161.118-.224.055-.136-.009-.228c-.161.018-.31-.023-.354-.2.014-.039.015-.055.023-.062.076-.065.153-.129.246-.207-.014-.13-.03-.267-.046-.411-.066-.016-.113-.031-.162-.04-.08-.014-.155-.039-.171-.127-.02-.1.042-.165.131-.209a.86.86,0,0,0,.115-.078.261.261,0,0,0-.14-.265c-.2-.115-.2-.14-.037-.327a.184.184,0,0,0,.04-.209.381.381,0,0,0-.227-.246,1.224,1.224,0,0,1-.174-.091l.064-.3-.262-.1v-.321c-.121-.052-.235-.106-.354-.152-.419-.159-.843-.307-1.258-.476a10.075,10.075,0,0,0-1.358-.42c-.335-.084-.666-.19-.992-.3-.387-.135-.759-.319-1.152-.427A4.153,4.153,0,0,1,6.67,15.21a.634.634,0,0,0-.5-.137c-.043.011-.1-.055-.15-.081A3.48,3.48,0,0,0,5.972,13.9c0-.013-.005-.025-.008-.038-.1-.423-.2-.849-.315-1.269a1.622,1.622,0,0,0-.2-.512c-.033-.018-.043-.029-.055-.029s-.051.006-.077,0a.785.785,0,0,1-.71-.444.108.108,0,0,1,.016-.1.106.106,0,0,1,.1-.019c.081.059.153.132.23.2a.546.546,0,0,0,.419.186c-.069-.325-.133-.623-.194-.922-.049-.238-.111-.476-.137-.717-.08-.752-.146-1.506-.218-2.259a.634.634,0,0,0-.039-.122l-.263-.077a4.162,4.162,0,0,0,.069,1.315L4.87,9.2c-.021.187-.232.126-.273.26.013.419.013.419.29.611l-.228.164.04.8a.685.685,0,0,1-.387.158.431.431,0,0,1-.251-.323c-.059-.237-.116-.474-.176-.71A2.631,2.631,0,0,0,3.8,9.867c-.008-.021-.062-.025-.109-.041-.014.138-.033.263-.036.388a1.688,1.688,0,0,0,.028.268c.028.2.065.405.083.609A.294.294,0,0,1,3.7,11.3a.284.284,0,0,1-.485-.123c-.1-.33-.195-.661-.291-.99a.308.308,0,0,0-.036-.019c-.1-.036-.274.032-.287-.121-.017-.191.193-.036.275-.15l-.072-.634a1.2,1.2,0,0,1-.257.084.9.9,0,0,1-.233-.038c.015.165.028.317.044.468a.6.6,0,0,0,.037.186,6.577,6.577,0,0,1,.286,1.071c.063.228-.079.392-.155.576-.014.033-.09.061-.135.058a1.086,1.086,0,0,1-.218-.06l-.167-.644-.379.094c.073.4.142.774.211,1.15a.157.157,0,0,0,.015.035,5.005,5.005,0,0,1,.325,1.069c.257,0,.511,0,.765,0a2.424,2.424,0,0,0,.266-.041.937.937,0,0,1,.855.244,3.623,3.623,0,0,1,.435.764c.016.032-.01.1-.037.137a.115.115,0,0,1-.171.019,2.9,2.9,0,0,1-.321-.325,3.73,3.73,0,0,1-.262-.38.312.312,0,0,0-.327-.153l-.84.1c-.143.17-.143.17-.38.21,0,.035.01.07.012.1s0,.1,0,.129c-.127.084-.231.155-.337.223a.165.165,0,0,1-.251-.048.641.641,0,0,0,.056-.35,1.429,1.429,0,0,0-.912-.921.2.2,0,0,0-.076-.009.183.183,0,0,0-.185.281,1.769,1.769,0,0,0,.241.346,3.954,3.954,0,0,1,.705,1.051.9.9,0,0,0,.539.51,5.352,5.352,0,0,1,1.533.87.528.528,0,0,0,.466.113c.138-.029.276-.061.415-.087A1.289,1.289,0,0,0,5,15.818a3.89,3.89,0,0,1,.367-.252c.179.037.055.2.128.28l.248-.035a.608.608,0,0,1,.057.176c0,.23-.015.461-.02.692,0,.066.017.129.129.112,0-.1.01-.2.01-.3,0-.128-.009-.257,0-.385,0-.087.011-.185.12-.217.077-.022.16.092.156.222,0,.064-.022.126-.026.19-.012.2-.025.409-.029.613,0,.119.005.119.227.217a2.623,2.623,0,0,1-.059-.269.807.807,0,0,1,.007-.228.112.112,0,0,1,.083-.065.109.109,0,0,1,.091.051,1.427,1.427,0,0,1,.122.727.719.719,0,0,0,.566.106l.075.255c.314.136.575.366.9.5a2.144,2.144,0,0,1,.663.451,7.581,7.581,0,0,0,.817.7c.3.219.626.4.938.6a.84.84,0,0,1,.213.163,1.545,1.545,0,0,0,.4.3,10.923,10.923,0,0,1,.951.651,8.322,8.322,0,0,0,1.076.668c.052.032.137.072.178.051a1.031,1.031,0,0,1,.626-.023c.01,0,.022-.013.029-.016M11,20.875c-.368-.275-.732-.556-1.106-.824a12.067,12.067,0,0,1-1.505-1.124,1.92,1.92,0,0,0-.273-.211,3.788,3.788,0,0,0-.8-.432.974.974,0,0,0-.09.537L7.48,19c.037.227-.2.2-.237.329.027.227.053.441.075.631l.283.231a.767.767,0,0,1-.048.12c-.02.032-.056.054-.076.085a.125.125,0,0,0,.074.207c.091.028.215-.021.256.115.043.152-.237.229-.1.4.132-.037.26-.081.39-.1a.141.141,0,0,1,.112.081.253.253,0,0,1-.029.172.191.191,0,0,1-.129.071,2.276,2.276,0,0,1-.277,0c.026.1.055.189.186.2.1.006.2.028.285.041.087.29.087.29.308.262.027-.084.029-.2.085-.24a.549.549,0,0,1,.289-.046c.083,0,.126.071.173.135a.2.2,0,0,0,.257.089.223.223,0,0,0,.138-.238c-.015-.187.034-.278.208-.275a.659.659,0,0,0,.447-.178.957.957,0,0,1,.855-.231c.013.049.05.106.035.144a.25.25,0,0,1-.124.135,1.694,1.694,0,0,0-.594.415c-.184.178-.374.35-.564.522a5.006,5.006,0,0,1-.822.69,1.178,1.178,0,0,0-.429.433c-.148.254-.308.5-.468.748a7.968,7.968,0,0,1-.514.764,4,4,0,0,0-.5.853,5.945,5.945,0,0,1-.452.8c-.209.306-.457.586-.678.884a1.312,1.312,0,0,0-.23.8c0,.1-.011.2-.019.321a.435.435,0,0,1,.2.437,1.471,1.471,0,0,0,.072.416,4.456,4.456,0,0,1,.092,1.522,2.862,2.862,0,0,0,.2,1.034c.189-.022.354-.033.515-.063a4.255,4.255,0,0,0,.559-.132A4.673,4.673,0,0,1,8.7,31.3a.911.911,0,0,1,.483.1.851.851,0,0,0,.288.1,4.865,4.865,0,0,1,1.029.3,9.457,9.457,0,0,0,1.351.44.986.986,0,0,0,.776-.087c.306-.186.64-.325.954-.5a1.081,1.081,0,0,1,.708-.2,3.393,3.393,0,0,0-.017-.706c-.045-.252-.086-.506-.122-.76a1.034,1.034,0,0,0-.185-.642.244.244,0,0,1-.038-.108,16.414,16.414,0,0,1-.426-2.189c-.064-.626-.121-1.252-.2-1.875a7.525,7.525,0,0,0-.318-1.424c-.049-.146-.1-.292-.141-.439-.142-.492-.28-.984-.425-1.5a.355.355,0,0,0-.071-.06,7.077,7.077,0,0,1-.983-.674,2.609,2.609,0,0,0-.367-.2m8.556-11-.013-.014c.015.115.108.167.188.229.121.094.247.183.367.279.021.016.024.056.039.1a1.509,1.509,0,0,1-.893-.571c-.016.036-.049.081-.04.092a7.523,7.523,0,0,0,.509.622c.25.256.526.486.786.732a2.226,2.226,0,0,0,2.278.525,2.347,2.347,0,0,0,.847-.435,8.209,8.209,0,0,0,.846-.838,2.013,2.013,0,0,0,.385-.571.922.922,0,0,1,.14-.229,1.422,1.422,0,0,0,.288-.58c.06-.234.126-.466.187-.692a3.871,3.871,0,0,1-1.076-2.382c.2.372.37.7.542,1.019a2.482,2.482,0,0,0,.648.875,1.5,1.5,0,0,0,.107-.513L25.5,7.46a1.271,1.271,0,0,1,.173-.735c.02.014.052.024.056.042.017.074.025.15.038.226-.011.02-.022.039-.031.06,0,0,.014.011.021.016,0-.028,0-.056,0-.083.093.016.1-.057.113-.116A5.6,5.6,0,0,1,26.4,5.39a.646.646,0,0,1,.364-.349.766.766,0,0,1,.01.244,3.713,3.713,0,0,1-.252.724,1.61,1.61,0,0,0-.164.387c-.079.3-.142.6-.21.9a12.491,12.491,0,0,1-.523,1.843,2.041,2.041,0,0,1-.135.355,7.107,7.107,0,0,0-.577.995.646.646,0,0,1-.089.125,7.8,7.8,0,0,1-1.138,1.138,2.043,2.043,0,0,1-.6.33,3.089,3.089,0,0,1-2.037.006,2.247,2.247,0,0,1-.99-.64c-.175-.187-.359-.367-.548-.541a4.142,4.142,0,0,1-.726-.841c-.2-.325-.407-.653-.6-.986-.14-.244-.264-.5-.39-.751-.1-.195-.194-.391-.278-.592A6.169,6.169,0,0,1,17.04,6.4a2.965,2.965,0,0,0-.215-.615.44.44,0,0,0-.252-.276c-.2.03-.249.244-.393.343h-.233a9.968,9.968,0,0,1-.561.831c-.18.234-.375.453-.562.68-.27.325-.543.648-.829.959q-.493.537-1.013,1.05a.666.666,0,0,0-.164.563c.147-.107.264-.181.369-.269A12.619,12.619,0,0,0,15,7.731a15.216,15.216,0,0,0,1.072-1.455.251.251,0,0,1,.422,0,.211.211,0,0,1,.043.063A13.343,13.343,0,0,0,17.063,7.7c.121.311.252.616.4.913A7.052,7.052,0,0,1,18,9.756a.774.774,0,0,0,.085.171,5.953,5.953,0,0,0,1.054,1.357,4.984,4.984,0,0,0,1.1.825c.238.122.479.241.728.339a2.117,2.117,0,0,0,1.789.01c.126-.062.263-.1.394-.151a4.723,4.723,0,0,0,.995-.5,4.78,4.78,0,0,0,1.035-1.023,4.028,4.028,0,0,0,.67-1.25,14.387,14.387,0,0,0,.618-1.9,4.7,4.7,0,0,0,.27-1.273c.066-.483.139-.965.178-1.45a1.907,1.907,0,0,0-.077-.949.6.6,0,0,1,.015-.486,4.594,4.594,0,0,0,.227-1.051,1.413,1.413,0,0,0-.069-.645.3.3,0,0,0-.426-.188c-.152.068-.3.139-.456.2a3.851,3.851,0,0,1-1.807.272,4.161,4.161,0,0,1-.569-.087,3.764,3.764,0,0,1-1.45-.587c-.08-.06-.168-.109-.261-.168l-.218.344c.037.123.079.243.11.366s.049.242.073.36a.169.169,0,0,1-.245-.064c-.089-.125-.176-.252-.257-.382a.161.161,0,0,0-.227-.069c-.09.3-.09.3-.238.333-.009-.089-.012-.177-.028-.262s-.051-.19-.08-.295c.165-.09.379,0,.506-.166a.845.845,0,0,0,.212-.509C21.607.866,21.58.845,21.561.85a2.436,2.436,0,0,0-.733.409,1.078,1.078,0,0,0-.238.5.53.53,0,0,1-.264.589c-.481.362-.965.721-1.448,1.081a.384.384,0,0,1-.033.019,20.6,20.6,0,0,1-2.117,1.094,2.048,2.048,0,0,0-.34.179.451.451,0,0,0-.165.538,1.262,1.262,0,0,1,.183-.019.785.785,0,0,0,.551-.226c.225-.19.465-.361.7-.535.068-.05.143-.115.263-.05,0,.187-.217.275-.231.48a1.092,1.092,0,0,1,.117.214c.014.045-.025.106-.046.185l-.334-.218c-.085.135,0,.211.056.3.042.068.09.145.012.2-.035.026-.115-.005-.174-.017a.6.6,0,0,1-.1-.042c.018.309.018.309.172.451A8.533,8.533,0,0,1,19.34,4.2a.872.872,0,0,1-.254.376,1.807,1.807,0,0,0-.151.2,1.144,1.144,0,0,1,.6.679,2.146,2.146,0,0,1-.717-.571,1.509,1.509,0,0,0-.458.45,2.908,2.908,0,0,1,.637.684c-.064.086-.124.094-.179.043-.2-.18-.388-.363-.6-.562L18,5.727c.131.111.256.2.361.309a1.269,1.269,0,0,1,.193.281c.033.061.016.125-.094.141-.168-.155-.345-.321-.525-.483-.014-.013-.043-.009-.076-.015l-.142.211c.159.26.312.507.461.756.011.017,0,.048,0,.073-.061.066-.139.088-.2.015-.1-.119-.176-.251-.262-.377l-.141-.209c-.04.03-.078.045-.078.059A3.031,3.031,0,0,0,17.871,7.6c.021.05.084.082.143.136.074-.086.134-.149.186-.218.186-.245.357-.5.555-.738A14.592,14.592,0,0,0,20.137,4.89a2.721,2.721,0,0,1,.425-.571,1.475,1.475,0,0,1-.063.267c-.154.324-.312.646-.477.964-.082.158-.191.3-.275.46a4.784,4.784,0,0,0-.428.676l.011-.011a1.466,1.466,0,0,0-.416.433,2.475,2.475,0,0,0,.611.774c-.058.123-.138.11-.2.059-.157-.131-.305-.272-.455-.411-.052-.049-.072-.139-.2-.126l-.263.376.825.93c-.1.007-.154.029-.182.01a5.2,5.2,0,0,1-.422-.327c-.1-.084-.174-.188-.265-.279a.1.1,0,0,0-.161.016,1.6,1.6,0,0,0,.256.6c.137.275.288.542.44.809a.929.929,0,0,0,.148.156,1.254,1.254,0,0,0,.065-.129,9.472,9.472,0,0,1,.609-1.366c.218-.419.408-.853.612-1.279a1.041,1.041,0,0,1,.116-.149,1.4,1.4,0,0,1,.008.161,6.107,6.107,0,0,1-.525,1.755c-.1.235-.236.453-.346.684a2.76,2.76,0,0,0-.145.394c-.026.087.046.1.112.114M27.081,30.53c-.086.02-.135.034-.184.043-.579.1-1.168.14-1.737.3a.16.16,0,0,1-.038,0,6.2,6.2,0,0,0-1.232.286.885.885,0,0,1-.411.061.437.437,0,0,0-.218.045,5.61,5.61,0,0,0-.639.265,2.118,2.118,0,0,1-1.041.219,6.948,6.948,0,0,0-.92.051,4.721,4.721,0,0,0-1.623.573,4.1,4.1,0,0,1-.589.281c-.315.109-.621.241-.933.354a9.943,9.943,0,0,1-1.073.3,4.566,4.566,0,0,1-1.346.1c-.005.066-.009.114-.013.163-.036.408-.061.818-.111,1.225-.055.445-.135.886-.2,1.33a.4.4,0,0,0,.082.391c.113.007.252.02.391.025.409.015.819.011,1.227.043a21.77,21.77,0,0,1,3.012.387,3.635,3.635,0,0,0,1.262.044c.863-.115,1.724-.235,2.587-.349a10.425,10.425,0,0,0,1.06-.18c.585-.14,1.164-.307,1.746-.465q.426-.117.849-.245c.122-.037.238-.1.361-.132s.245-.056.377-.084a2.937,2.937,0,0,0,.058-1c-.056-.393-.135-.783-.2-1.175-.036-.215-.078-.43-.1-.646a16.252,16.252,0,0,0-.326-2.049.909.909,0,0,0-.076-.159M8.3,22.738c-.078-.047-.12-.074-.162-.1a3.134,3.134,0,0,1-.9-.706,3.8,3.8,0,0,1-.808-1.249.557.557,0,0,0-.065-.139,1.854,1.854,0,0,0-.125-.154,5.51,5.51,0,0,0-.46,1.043,1.666,1.666,0,0,1,.286.675c.137.5.136,1.034.294,1.534a1.115,1.115,0,0,1,.022.229c.015.164.026.33.049.493a1.143,1.143,0,0,0,.079.294c.058.132.135.256.217.408.567-.749,1.025-1.547,1.576-2.33m16.432,7.733,2.254-.381a.3.3,0,0,0,.063-.288,1.013,1.013,0,0,1,.01-.639c.074-.284.134-.572.192-.859.013-.065.057-.15-.04-.2a.2.2,0,0,0-.16.192.244.244,0,0,1-.265.224.437.437,0,0,0-.354.188.4.4,0,0,0,0,.044c.023.275.006.311-.244.286a.333.333,0,0,0-.326.148.292.292,0,0,0-.059.246c.028.206-.015.242-.225.255-.025,0-.051-.008-.076-.006-.168.013-.211.064-.2.239.008.2-.071.292-.259.282-.1,0-.189-.028-.306-.045ZM16.115,14.015a.226.226,0,0,0,.147.238q.336.183.679.353a1.031,1.031,0,0,0,.521.1c.421-.023.842-.033,1.26-.08a2.056,2.056,0,0,0,.674-.241c.008,0,.009-.023.02-.058a1.788,1.788,0,0,0-.182.015,3.648,3.648,0,0,1-1.33.014,17.241,17.241,0,0,1-1.717-.373c-.018-.005-.044.017-.071.028M2.751,9.052c-.024-.126-.041-.226-.062-.325-.062-.287-.125-.573-.188-.86-.041-.187-.077-.376-.126-.561s-.1-.218-.322-.228A4.895,4.895,0,0,0,2.247,9.16l.5-.108M14.374,41.659a6.464,6.464,0,0,0-.109-.988c0-.042-.079-.1-.131-.111a.789.789,0,0,0-.211,0c-.111.254-.217.484-.313.719a3.531,3.531,0,0,0-.143.434.193.193,0,0,0,.091.254,1.465,1.465,0,0,0,.192-.05c.2-.078.4-.163.623-.254M1.217,8.107a1.592,1.592,0,0,0,.035.7c.044.159.054.328.1.487a3.129,3.129,0,0,0,.162.7l.358-.093c-.026-.149-.041-.287-.074-.421-.074-.3-.155-.593-.238-.888-.038-.135-.082-.269-.128-.4-.03-.086-.1-.114-.212-.076m2.455.536a1.136,1.136,0,0,0,0-.2,3.789,3.789,0,0,1-.086-.8.341.341,0,0,0-.038-.146.274.274,0,0,0-.274-.171.225.225,0,0,0-.116.26A6.587,6.587,0,0,0,3.319,8.6c.008.022.031.038.051.061l.3-.022M14.915,40.2c.094.02.167.038.242.05s.167.023.248.034c.137-.57.005-.871-.492-1.056.066.33-.134.627,0,.972M1.96,10.761c-.032-.2.044-.392-.075-.6l-.3.041a.9.9,0,0,0,.071.555Zm18.916,2a3.4,3.4,0,0,0-.049.665c0,.032.029.063.074.157.131-.29.334-.439.4-.7l-.427-.121M3.441,8.936c.047.2.077.365.125.524.028.095.1.144.226.094a1.3,1.3,0,0,0-.082-.632l-.269.014M14.936,40.658a.666.666,0,0,0,.054.511.628.628,0,0,0,.268-.462.3.3,0,0,0-.321-.048m-9.386-24c.007-.094.018-.169.017-.244a1.615,1.615,0,0,0-.022-.3.132.132,0,0,0-.109-.072.148.148,0,0,0-.083.106.288.288,0,0,0,.036.145c.046.106-.009.167-.085.227-.011.008,0,.044,0,.081a1.212,1.212,0,0,0,.126.068c.02.008.048,0,.116-.006m12.076-1.623a.46.46,0,0,0,.5.147.381.381,0,0,0,.356-.208l-.857.06m2.107-.82c.31.039.311.039.375-.178-.128.058-.26.029-.375.178m-5.5,25.593c-.031.006-.05.006-.052.011a.68.68,0,0,0-.036.1c-.02.085.017.169.049.138a.212.212,0,0,0,.054-.118.532.532,0,0,0-.015-.135m6.427-25.966c.011-.005.029-.008.032-.017a1.241,1.241,0,0,0,.041-.128s-.026-.018-.027-.017a.686.686,0,0,0-.077.108c-.005.01.02.035.031.054" transform="translate(0 0)" fill="#302d2c"/>
          <path id="パス_3614" data-name="パス 3614" d="M65.523,99.937c-.238.155-.261.149-.394-.046-.033-.048-.085-.109-.134-.116a.767.767,0,0,1-.593-.494,1.812,1.812,0,0,1-.049-1.526,3.451,3.451,0,0,1,.706-1.134,1.508,1.508,0,0,1,.717-.427c.224-.057.448-.112.673-.162a1.256,1.256,0,0,1,.645.039,3.735,3.735,0,0,1,.4.142,6.646,6.646,0,0,0,1.22.337,1.573,1.573,0,0,0,1.12-.148.97.97,0,0,0,.449-.506,1.9,1.9,0,0,0,.092-1.023.782.782,0,0,0-.465-.533,1.18,1.18,0,0,0-.738-.144L68.1,95.244c-.13-.065-.194-.138-.16-.277a.836.836,0,0,0,.025-.223,1.164,1.164,0,0,1,.5-1.025c.206-.152.429-.281.645-.419a.329.329,0,0,1,.1-.047,1.979,1.979,0,0,1,1.49.153,1.087,1.087,0,0,1,.531.52,1.636,1.636,0,0,1,.3,1.125,2.9,2.9,0,0,1-.182.974,2.423,2.423,0,0,1-.761.948,1.749,1.749,0,0,1-.446.217c-.279.092-.564.168-.85.237a3.056,3.056,0,0,1-1.522-.025c-.433-.114-.875-.193-1.314-.287a.555.555,0,0,0-.372.057,1.064,1.064,0,0,0-.579.584,3.26,3.26,0,0,0-.219.814,2.01,2.01,0,0,0,.156,1.159,1.531,1.531,0,0,1,.075.206m5.1-3.68a2.294,2.294,0,0,0-.2.161,1.738,1.738,0,0,1-1.726.475,16.433,16.433,0,0,1-1.587-.458,1.161,1.161,0,0,0-.718-.037.994.994,0,0,1-.34.05.776.776,0,0,0-.668.316,3.387,3.387,0,0,0-.525.75,2.744,2.744,0,0,0-.253.954,1.208,1.208,0,0,0,.145.628c.022.047.047.12.143.1a3.633,3.633,0,0,1,.192-1.431,1.181,1.181,0,0,1,.535-.723,1.392,1.392,0,0,1,.953-.209c.174.038.35.071.525.1.314.059.63.109.942.176a2.088,2.088,0,0,0,.8.052,9.5,9.5,0,0,0,1.008-.239,1.725,1.725,0,0,0,.674-.432.253.253,0,0,0,.094-.239c.024-.006.057,0,.07-.018a1.424,1.424,0,0,0,.406-.807c.016-.165.029-.331.051-.5a1.175,1.175,0,0,0-.465-1.044,1.387,1.387,0,0,0-1.314-.384l-.683.566a4.462,4.462,0,0,1,.6-.105,1.973,1.973,0,0,1,1.065.274.815.815,0,0,1,.447.71,2.539,2.539,0,0,1-.141,1.124.761.761,0,0,0-.029.187" transform="translate(-47.692 -69.211)" fill="#302d2c"/>
          <path id="パス_3615" data-name="パス 3615" d="M64.609,151.51c-.188-.258-.4-.475-.366-.817a.519.519,0,0,1,.349-.1q.691,0,1.383,0a.453.453,0,0,0,.123-.047.972.972,0,0,0-.068-.214,1.322,1.322,0,0,1-.1-1c.085-.414.135-.835.188-1.255a.76.76,0,0,0-.056-.5,8.473,8.473,0,0,0-1.239-.086c-.083.44-.181.873-.241,1.311a2.545,2.545,0,0,0,.032.612,1.032,1.032,0,0,1-.073.638.532.532,0,0,1-.145.173.236.236,0,0,1-.358-.15,3.154,3.154,0,0,1-.033-.345,21.053,21.053,0,0,0-.333-2.557,3.282,3.282,0,0,1-.044-.382.181.181,0,0,1,.117-.184,2.66,2.66,0,0,1,.856-.2,7.86,7.86,0,0,1,1.985.2c.263.057.527.11.789.17a.483.483,0,0,1,.343.206,1.361,1.361,0,0,1-.155.525c-.205.483-.428.957-.64,1.437a1.252,1.252,0,0,1-.511.549c.019.11.1.079.152.086a2.364,2.364,0,0,1,.854.178c.017.027.039.048.042.071a4.331,4.331,0,0,1-.075,1.221.555.555,0,0,1-.454.466,2.431,2.431,0,0,1-.993.035,4.071,4.071,0,0,0-.882-.03c-.152.01-.3,0-.447,0m2.408-4.4a1.2,1.2,0,0,0-.173-.061c-.527-.1-1.053-.217-1.584-.3a2.249,2.249,0,0,0-.952.062.22.22,0,0,0-.188.252,2.89,2.89,0,0,0,.184.9,5.594,5.594,0,0,1,.06-.605c.039-.187.119-.282.356-.257.407.042.816.074,1.224.113a3.2,3.2,0,0,1,.419.057,1.564,1.564,0,0,1,.269.115,14.6,14.6,0,0,1-.2,1.471,2.6,2.6,0,0,0,.584-1.747m-.4,3.2c0,.057,0,.121,0,.184a1.174,1.174,0,0,1-.03.189.316.316,0,0,1-.3.248c-.382,0-.763-.018-1.145-.025-.084,0-.181-.036-.238.065.069.221.094.261.265.24a3.037,3.037,0,0,1,.948.061,1.355,1.355,0,0,1,.188.031.819.819,0,0,0,.416-.018.277.277,0,0,0,.235-.222,2.457,2.457,0,0,0,.069-.722c-.008-.292-.064-.383-.386-.4l-.216-.013c-.1.223.139.247.2.381" transform="translate(-47.262 -108.738)" fill="#302d2c"/>
          <path id="パス_3616" data-name="パス 3616" d="M85.635,149.616l-.434.057c-.094.184-.187.365-.279.547a1.17,1.17,0,0,1-1.149.688,6.248,6.248,0,0,1-.728-.051.439.439,0,0,0-.537.365c-.024.19-.059.378-.078.569a.379.379,0,0,0,.189.392.488.488,0,0,1,.1.1.223.223,0,0,1-.164.245.307.307,0,0,1-.327-.045,1.313,1.313,0,0,0-.417-.256.837.837,0,0,1-.446-.636,2.126,2.126,0,0,1,.227-1.268.752.752,0,0,1,.435-.41c.073-.023.139-.066.21-.094a.962.962,0,0,1,.746-.013,1.034,1.034,0,0,0,.722.09c.188-.157.193-.4.25-.619a.3.3,0,0,0-.107-.275.61.61,0,0,0-.371-.187.293.293,0,0,0-.306.115.731.731,0,0,1-.129.142.225.225,0,0,1-.285.006.121.121,0,0,1-.061-.162.854.854,0,0,1,.157-.26,1.276,1.276,0,0,1,1.507-.34c.476.194.5.209.714.686.063.138.108.286.163.435.15-.059.3-.12.45-.178a1.89,1.89,0,0,1,.679-.113.723.723,0,0,1,.747.533,2.221,2.221,0,0,0,.139.315,1.056,1.056,0,0,1,0,1.064c-.06.113-.117.228-.17.344a.81.81,0,0,1-.471.428c-.18.066-.368.11-.552.166s-.395.111-.585.185a.9.9,0,0,1-.778-.064.348.348,0,0,1-.193-.31.591.591,0,0,1,.381-.643,2.6,2.6,0,0,1,.77-.221,2.654,2.654,0,0,0,.264-.043c.225-.056.287-.146.293-.383a.643.643,0,0,0-.145-.428c-.135-.168-.288-.323-.423-.473m-1.547-1.062c-.058.017-.129-.06-.222.065l.229-.076a.154.154,0,0,0,.059.167.673.673,0,0,1,.269.677c-.013.114,0,.23-.009.345a.426.426,0,0,1-.232.374,1.472,1.472,0,0,1-1.188.106c-.084-.031-.169-.062-.254-.089a.475.475,0,0,0-.64.245,2.367,2.367,0,0,0-.276.834.522.522,0,0,0,.126.445c.046-.19.088-.361.128-.533a.561.561,0,0,1,.4-.43,1.661,1.661,0,0,1,.642-.1c.217.015.434.033.651.05a.555.555,0,0,0,.539-.236,4.106,4.106,0,0,0,.394-.745.708.708,0,0,0-.1-.658,1.482,1.482,0,0,0-.515-.442m.819,3.213c.328.15.328.151.456.118.272-.07.545-.139.816-.212a.8.8,0,0,0,.55-.442,1.256,1.256,0,0,0-.008-1.378c-.038-.051-.056-.115-.093-.167a1.265,1.265,0,0,0-.149-.174.255.255,0,0,0-.329-.017c.076.1.134.179.2.254a1.634,1.634,0,0,1,.345.676.493.493,0,0,1-.214.6,1.475,1.475,0,0,1-.419.179c-.259.068-.525.109-.787.166a.4.4,0,0,0-.369.4" transform="translate(-60.42 -110.077)" fill="#302d2c"/>
          <path id="パス_3617" data-name="パス 3617" d="M62.712,87.441a.766.766,0,0,1-.744-.22,2.045,2.045,0,0,1-.375-.527,2.422,2.422,0,0,1-.17-.508,1.524,1.524,0,0,1-.013-.722,2.275,2.275,0,0,1,.729-1.276.442.442,0,0,1,.159-.1,2.771,2.771,0,0,1,.981-.155c.242.02.485.043.727.067a.875.875,0,0,1,.473.224.82.82,0,0,1,.316.584,1.968,1.968,0,0,0,.079.415,1.722,1.722,0,0,1-.007.945,1.147,1.147,0,0,1-.571.781,3.376,3.376,0,0,1-1.128.462c-.15.025-.3.023-.456.034m.962-3.107c-.046.232-.084.431-.126.63s-.186.363-.177.6a2.591,2.591,0,0,0,.924.425.618.618,0,0,0,.047-.491,4.559,4.559,0,0,0-.231-.768.581.581,0,0,0-.437-.4m-.655,2.646a.44.44,0,0,0,.133,0c.212-.085.426-.167.632-.266a.531.531,0,0,0,.3-.292c-.258-.135-.5-.264-.751-.39-.02-.01-.049,0-.091,0a1.4,1.4,0,0,0-.221.951m-.231-1.734a3.73,3.73,0,0,0,.245-.759.136.136,0,0,0-.175-.173,1,1,0,0,0-.691.7,1.01,1.01,0,0,0,.621.23m-.753.262a1.35,1.35,0,0,0,.041.757c.123.395.122.4.3.557.037-.2.07-.38.106-.562s.166-.346.089-.573l-.535-.18" transform="translate(-45.586 -62.336)" fill="#302d2c"/>
          <path id="パス_3618" data-name="パス 3618" d="M87.89,97.4c.1-.057.152-.1.208-.111a1.134,1.134,0,0,1,.305,0,1.392,1.392,0,0,0,1.258-.5,2.9,2.9,0,0,0,.757-1.483,1.72,1.72,0,0,0-.1-1.016.9.9,0,0,0-.362-.436.378.378,0,0,0-.358-.078.276.276,0,0,1-.285-.069.254.254,0,0,1,.109-.463,3.689,3.689,0,0,1,.408-.106,2.026,2.026,0,0,1,1.351.328A2.356,2.356,0,0,1,91.7,94.8a2.452,2.452,0,0,1,0,.718,2.785,2.785,0,0,1-.461,1.034,3.117,3.117,0,0,1-1.241,1.114,1.435,1.435,0,0,1-.96.172,2.57,2.57,0,0,1-.948-.285,2.337,2.337,0,0,1-.2-.157m2.013-3.92a.667.667,0,0,1,.141.036,1.194,1.194,0,0,1,.736.818c.012.063.033.123.051.185a1.549,1.549,0,0,1-.052,1.088c-.04.094-.071.191-.1.288a2.454,2.454,0,0,1-1.33,1.552c-.018.008-.026.038-.047.073a.319.319,0,0,0,.284-.043,3.965,3.965,0,0,0,1.453-1.388,2.25,2.25,0,0,0,.286-.827,3.164,3.164,0,0,0-.161-1.168.618.618,0,0,0-.221-.3,1.207,1.207,0,0,0-1.037-.309" transform="translate(-65.282 -69.165)" fill="#302d2c"/>
          <path id="パス_3619" data-name="パス 3619" d="M92.786,81.449a.4.4,0,0,1-.349-.143.419.419,0,0,1-.049-.369.866.866,0,0,1,.084-.214,1.491,1.491,0,0,1,.977-.8c.2-.047.394-.108.594-.15a1.791,1.791,0,0,1,.8.01c.174.042.351.075.523.124A1.562,1.562,0,0,1,96.5,81.259a2.857,2.857,0,0,1-.19,1.355,1.885,1.885,0,0,1-.6.786.484.484,0,0,1-.677.066c.025-.06.056-.125.081-.193a2.3,2.3,0,0,0,.037-1.688.862.862,0,0,0-.319-.423,3.3,3.3,0,0,0-.42-.27,1.042,1.042,0,0,0-.986-.048c-.044.024-.1.025-.146.045a.668.668,0,0,0-.385.355c-.029.069-.067.134-.1.205m.474-.979a1.075,1.075,0,0,0,.216,0,1.8,1.8,0,0,1,.98.078,3.3,3.3,0,0,1,.981.591.365.365,0,0,1,.092.121,1.678,1.678,0,0,1,.2,1.329.485.485,0,0,0,0,.138c.046-.032.077-.041.086-.06a2.3,2.3,0,0,0,.043-1.867,1,1,0,0,0-.666-.591,2.772,2.772,0,0,0-1.4-.062.943.943,0,0,0-.534.325" transform="translate(-68.608 -59.221)" fill="#302d2c"/>
          <path id="パス_3620" data-name="パス 3620" d="M96.309,66.146a1.234,1.234,0,0,1,.753.218.449.449,0,0,1,.131.135c.1.206.2.413.285.627a1.313,1.313,0,0,1-.364,1.365.642.642,0,0,1-.465.142.705.705,0,0,0-.3.027.427.427,0,0,1-.43-.081.831.831,0,0,0-.224-.135.875.875,0,0,1-.645-1.033,2.884,2.884,0,0,1,.154-.592,1.074,1.074,0,0,1,1.1-.672m-.149.993a1.2,1.2,0,0,0,.206-.607c-.093.014-.165,0-.2.034-.152.12-.359.2-.405.449l.4.124m-.371.978c.045-.054.078-.079.09-.111.049-.142.091-.286.134-.425a.407.407,0,0,0-.36-.074.54.54,0,0,0,.136.61m.816-.347a.657.657,0,0,0-.179.46c.088-.005.164.013.2-.017a1.679,1.679,0,0,0,.226-.245c.011-.013,0-.046-.008-.085l-.24-.113m.372-.226a.686.686,0,0,0-.1-.623c-.03.11-.045.176-.066.241s-.049.137-.076.211l.237.171" transform="translate(-70.59 -49.131)" fill="#302d2c"/>
          <path id="パス_3621" data-name="パス 3621" d="M103.764,155.195c.125-.061.188-.118.252-.118a1.318,1.318,0,0,1,1.207.854.967.967,0,0,1,.052.672c-.042.117-.012.259-.056.374a1.158,1.158,0,0,1-1.343.758,5.449,5.449,0,0,1-.723-.25.582.582,0,0,1-.18-.138.115.115,0,0,1,.038-.189.717.717,0,0,1,.184-.048,1.371,1.371,0,0,0,1.017-.674.749.749,0,0,0,.1-.207.542.542,0,0,0-.132-.6c-.127-.123-.246-.255-.416-.434m-.02,2.09c.423.223.657.177.927-.148a1.042,1.042,0,0,0,.205-.528.652.652,0,0,0-.052-.516c-.357.59-.111.4-1.08,1.191" transform="translate(-76.46 -115.187)" fill="#302d2c"/>
          <path id="パス_3622" data-name="パス 3622" d="M96.759,88.635a1.211,1.211,0,0,1-.524-.145.33.33,0,0,1-.2-.441.77.77,0,0,1,.608-.525.147.147,0,0,1,.075,0,.652.652,0,0,1,.513.84c-.057.192-.2.28-.476.272m.127-.515c-.009-.1-.016-.189-.114-.233-.073-.032-.188.029-.252.131a.19.19,0,0,0,.023.245.448.448,0,0,0,.2.09c.064.011.134-.1.141-.2,0-.013,0-.026,0-.031" transform="translate(-71.319 -65.006)" fill="#302d2c"/>
          <path id="パス_3623" data-name="パス 3623" d="M104.082,147.311c.015,0,.065.01.114.021a.36.36,0,0,1,.268.547.883.883,0,0,1-.108.155,1.361,1.361,0,0,0-.146.174c-.059.108-.129.2-.262.182a.487.487,0,0,1-.394-.254.584.584,0,0,1,.528-.825" transform="translate(-76.875 -109.419)" fill="#302d2c"/>
          <path id="パス_3624" data-name="パス 3624" d="M82.535,99.967c.466-.013.574.4.513.709a.2.2,0,0,1-.032.068.718.718,0,0,1-.668.162.8.8,0,0,1-.094-.066.425.425,0,0,1-.206-.587c.061-.2.218-.285.486-.287m.065.709a.246.246,0,0,0,.044-.306c-.029-.06-.073-.105-.149-.086a.158.158,0,0,0-.111.177.29.29,0,0,0,.216.215" transform="translate(-60.912 -74.253)" fill="#302d2c"/>
          <path id="パス_3625" data-name="パス 3625" d="M68.763,152.73a2.745,2.745,0,0,1,.267.063.2.2,0,0,1,.133.212.606.606,0,0,1-.478.576.435.435,0,0,1-.514-.295.482.482,0,0,1,.406-.556c.038,0,.077,0,.185,0m-.076.508a.833.833,0,0,0,.076-.158.1.1,0,0,0-.048-.084.1.1,0,0,0-.088.04c-.046.073-.036.142.06.2" transform="translate(-50.63 -113.443)" fill="#302d2c"/>
          <path id="パス_3626" data-name="パス 3626" d="M84.786,28.442c-.132.157-.144.157-.431.031a.6.6,0,0,1,.011-.1.939.939,0,0,1,.048-.117.762.762,0,0,1-.326-.5c-.045-.147-.075-.3-.115-.447-.033-.12-.072-.238-.118-.387a.27.27,0,0,1,.239-.175,2.072,2.072,0,0,1,.379-.008c.179.008.358.041.536.036a.55.55,0,0,0,.547-.284,1,1,0,0,1,.219-.265.379.379,0,0,1,.42-.1.679.679,0,0,0,.456.072c.059.168-.122.163-.186.259l.22.749c-.313.123-.546.363-.889.371a.9.9,0,0,0-.321.12c-.093.042-.177.107-.272.142a1.209,1.209,0,0,0-.625.456l.209.156m-.24-.672c.21-.088.4-.17.585-.244s.406-.152.609-.227a2.165,2.165,0,0,0,.251-.092.369.369,0,0,0,.145-.575,1.357,1.357,0,0,0-.111-.132c-.032.012-.051.014-.055.022-.051.115-.1.232-.149.345a1.674,1.674,0,0,1-1.231.149c-.1-.016-.2-.058-.295.026.115.214.091.474.25.728" transform="translate(-62.286 -19.38)" fill="#302d2c"/>
          <path id="パス_3627" data-name="パス 3627" d="M79.752,35.108l-.048.278c.235.171.521.025.778.188a1.584,1.584,0,0,1-.758.064l-.2.272c-.1-.234-.1-.3-.041-.873.029-.278.057-.556.085-.831-.323-.158-.633-.3-.938-.46a1.16,1.16,0,0,1-.487-.412c.125-.143.152-.15.246-.079.173.131.338.274.521.388.2.128.426.23.66.355.046-.115.081-.222.131-.322a.134.134,0,0,1,.164-.066.118.118,0,0,1,.088.146c-.009.06-.023.12-.037.193.1.04.176.074.259.106s.184,0,.236.112c-.133.189-.318.081-.5.075a.88.88,0,0,0-.088.583c.3.155.671.106.921.352-.011.1-.068.109-.136.082a2.216,2.216,0,0,0-.859-.15" transform="translate(-58.041 -24.666)" fill="#302d2c"/>
          <path id="パス_3628" data-name="パス 3628" d="M88.031,17.46a2.5,2.5,0,0,1-.871.57c-.09.165.013.4-.219.577-.075-.48-.061-.926-.172-1.343l-.423-.081c.05-.283.276-.067.39-.185.085-.249-.131-.507-.026-.771.177-.025.231-.008.273.1s.072.214.1.3c.232.088.337-.136.507-.15a.132.132,0,0,1-.045.2c-.106.068-.228.109-.338.17-.068.038-.066.1-.02.159.2.01.33-.248.574-.148-.114.279-.441.261-.6.467v.392a1.008,1.008,0,0,0,.194-.03c.18-.066.356-.143.535-.21a.658.658,0,0,1,.138-.021" transform="translate(-64.135 -12.045)" fill="#302d2c"/>
          <path id="パス_3629" data-name="パス 3629" d="M95.288,12.105c.013.077-.015.147-.1.106a2.241,2.241,0,0,1-.488-.3,6.166,6.166,0,0,1-.932-.968,1.276,1.276,0,0,0-.291-.3.649.649,0,0,1-.294-.456.43.43,0,0,1,.328-.3c.111.189-.1.28-.111.445l.225.112.238-.24c.1.024.121.085.1.15a2.394,2.394,0,0,1-.124.239l.126.114c.147-.076.2-.291.43-.258a.34.34,0,0,1-.016.13c-.07.119-.15.232-.232.355l.182.209c.037-.022.067-.029.077-.047a.984.984,0,0,1,.1-.2.609.609,0,0,1,.183-.1c.02.048.041.073.036.09-.053.158-.111.314-.17.478a.241.241,0,0,0,.193.2c.153-.089.133-.378.4-.357.031.241-.162.4-.2.631.075.129.227.179.348.267Z" transform="translate(-69.217 -7.345)" fill="#302d2c"/>
          <path id="パス_3630" data-name="パス 3630" d="M92.479,13.434l-.135.217c-.121.193-.286.371-.157.669-.094-.045-.144-.053-.154-.077q-.288-.671-.566-1.346a.916.916,0,0,1-.029-.2c.087-.028.167-.052.245-.079s.132-.05.211-.081c.04.151-.049.213-.121.279s-.1.114-.042.2c.119.078.186-.132.311-.057.052.1-.021.194-.066.278a.338.338,0,0,0,.05.431c.162-.024.19-.28.453-.232" transform="translate(-67.917 -9.308)" fill="#302d2c"/>
          <path id="パス_3631" data-name="パス 3631" d="M75.963,37.614a.5.5,0,0,1-.016-.149.145.145,0,0,1,.171-.115.838.838,0,0,1,.17.085q.574.382,1.145.769a.13.13,0,0,1,.052.054.186.186,0,0,1,0,.1c0,.013-.046.027-.066.022a.651.651,0,0,1-.139-.061q-.365-.21-.728-.423c-.154-.09-.306-.186-.463-.272a.452.452,0,0,0-.144-.025l.013.014" transform="translate(-56.41 -27.739)" fill="#302d2c"/>
          <path id="パス_3632" data-name="パス 3632" d="M77.31,35.047a5,5,0,0,0,1.367,1,.169.169,0,0,1-.238.1A1.978,1.978,0,0,1,78,35.926c-.265-.2-.515-.419-.765-.637-.094-.082-.039-.156.079-.241" transform="translate(-57.33 -26.032)" fill="#302d2c"/>
          <path id="パス_3633" data-name="パス 3633" d="M89.668,39.616a9.255,9.255,0,0,1,.234,1.2c-.244.1-.3.076-.349-.108a.42.42,0,0,1-.024-.111c.016-.328.036-.656.055-.984h.084" transform="translate(-66.5 -29.425)" fill="#302d2c"/>
          <path id="パス_3634" data-name="パス 3634" d="M84.642,24.452a3.887,3.887,0,0,1,.12-1.032c.153-.024.14.149.243.166s.2.041.337.071a1.011,1.011,0,0,1-.166.116,2.7,2.7,0,0,1-.261.077c-.093.175-.045.408-.274.6" transform="translate(-62.87 -17.394)" fill="#302d2c"/>
          <path id="パス_3635" data-name="パス 3635" d="M90.641,32.674a2.879,2.879,0,0,1,1.383-.642c-.019.037-.026.081-.05.094-.348.183-.7.36-1.048.542a.292.292,0,0,1-.285.006" transform="translate(-67.326 -23.792)" fill="#302d2c"/>
          <path id="パス_3636" data-name="パス 3636" d="M97.9,10.478a.211.211,0,0,1,.065-.037.267.267,0,0,1,.112,0c.388.108.775.219,1.153.327,0,.1-.051.116-.1.11-.113-.016-.224-.047-.336-.07-.248-.051-.5-.1-.745-.152-.089-.02-.174-.056-.15-.178" transform="translate(-72.712 -7.751)" fill="#302d2c"/>
          <path id="パス_3637" data-name="パス 3637" d="M79.107,30.95a.141.141,0,0,1,.174-.128.077.077,0,0,1,.036.011c.214.156.429.312.639.473a.109.109,0,0,1,.015.1c-.014.026-.062.035-.1.048a.056.056,0,0,1-.036-.007,1.9,1.9,0,0,1-.732-.5" transform="translate(-58.758 -22.892)" fill="#302d2c"/>
          <path id="パス_3638" data-name="パス 3638" d="M92.045,35.716a1.708,1.708,0,0,1-.195.158,2.848,2.848,0,0,0-.706.511c-.021.023-.068.025-.1.03s-.105-.066-.08-.1a.873.873,0,0,1,.167-.2,3.072,3.072,0,0,1,.417-.265c.145-.075.3-.128.453-.19l.048.057" transform="translate(-67.558 -26.487)" fill="#302d2c"/>
          <path id="パス_3639" data-name="パス 3639" d="M98.165,24.3a.95.95,0,0,1-.028.235c-.1.208-.194.415-.308.612-.029.049-.119.062-.192.1a1.165,1.165,0,0,1,.528-.944" transform="translate(-72.522 -18.046)" fill="#302d2c"/>
          <path id="パス_3640" data-name="パス 3640" d="M101.189,16.128c-.041-.106-.1-.2-.029-.327a2.61,2.61,0,0,0,.128-.36,1.068,1.068,0,0,1,.079-.138c.078.225.078.225.015.567.089.059.184.117.27.185a.11.11,0,0,1,.007.105.115.115,0,0,1-.1.041.255.255,0,0,1-.133-.061.877.877,0,0,1-.1-.15c-.087.007-.161.022-.141.135l0,0" transform="translate(-75.115 -11.367)" fill="#302d2c"/>
          <path id="パス_3641" data-name="パス 3641" d="M96.606,22.21c0,.045.028.1.011.131-.12.225-.248.446-.377.666a.092.092,0,0,1-.067.032.221.221,0,0,1-.1-.016.073.073,0,0,1-.024-.066,2.578,2.578,0,0,1,.476-.769l.085.021" transform="translate(-71.339 -16.481)" fill="#302d2c"/>
          <path id="パス_3642" data-name="パス 3642" d="M95.716,20.123a.658.658,0,0,1-.19.46,1.235,1.235,0,0,1-.255.22c-.011.008-.05-.005-.066-.02a.087.087,0,0,1-.027-.066.186.186,0,0,1,.039-.1,1.724,1.724,0,0,0,.339-.5.11.11,0,0,1,.091-.045c.028,0,.052.039.07.054" transform="translate(-70.696 -14.907)" fill="#302d2c"/>
          <path id="パス_3643" data-name="パス 3643" d="M84.931,43.754c-.094.137-.227.115-.348.127a.58.58,0,0,1-.449-.125c.036-.044.073-.126.105-.124a1.707,1.707,0,0,1,.691.121" transform="translate(-62.493 -32.409)" fill="#302d2c"/>
          <path id="パス_3644" data-name="パス 3644" d="M92.9,37.776c-.2.453-.534.677-.885.614.055-.128.192-.114.278-.174.1-.071.215-.135.317-.208.087-.062.167-.134.29-.233" transform="translate(-68.345 -28.059)" fill="#302d2c"/>
          <path id="パス_3645" data-name="パス 3645" d="M90.85,24.633a1.068,1.068,0,0,1-.626.372c-.02,0-.059-.038-.077-.066a.071.071,0,0,1,.008-.069,1.069,1.069,0,0,1,.694-.237" transform="translate(-66.955 -18.294)" fill="#302d2c"/>
          <path id="パス_3646" data-name="パス 3646" d="M75.061,25.961c.047.017.1.033.142.052.011,0,.018.018.026.027l.345.4c-.012.093-.063.109-.135.091a.564.564,0,0,1-.321-.256.307.307,0,0,1-.047-.323l-.011.011" transform="translate(-55.741 -19.275)" fill="#302d2c"/>
          <path id="パス_3647" data-name="パス 3647" d="M94.205,18.578c.021-.1.018-.141.037-.167.127-.167.259-.33.4-.513.086.185-.038.292-.087.408a.462.462,0,0,1-.354.272" transform="translate(-69.973 -13.294)" fill="#302d2c"/>
          <path id="パス_3648" data-name="パス 3648" d="M76.151,17.679a.12.12,0,0,1-.161.086.4.4,0,0,1-.276-.334.11.11,0,0,1,.052-.088.222.222,0,0,1,.109,0,.053.053,0,0,1,.032.02c.084.108.167.218.244.319" transform="translate(-56.237 -12.875)" fill="#302d2c"/>
          <path id="パス_3649" data-name="パス 3649" d="M80.88,28.619c-.026.019-.066.071-.1.068a.547.547,0,0,1-.356-.2.111.111,0,0,1,.007-.1.119.119,0,0,1,.094-.05.6.6,0,0,1,.349.217c.007.008,0,.025.006.064" transform="translate(-59.73 -21.048)" fill="#302d2c"/>
          <path id="パス_3650" data-name="パス 3650" d="M77.078,23.421l.211.288c-.2.088-.256.083-.328-.023-.056-.083-.039-.132.117-.265" transform="translate(-57.143 -17.396)" fill="#302d2c"/>
          <path id="パス_3651" data-name="パス 3651" d="M101.606,7.688a.527.527,0,0,1,.056.413.219.219,0,0,1-.088.113.142.142,0,0,1-.1,0,.073.073,0,0,1-.041-.056.7.7,0,0,1,.176-.475" transform="translate(-75.339 -5.71)" fill="#302d2c"/>
          <path id="パス_3652" data-name="パス 3652" d="M81.477,12.063c-.021-.014-.051-.023-.061-.042a.252.252,0,0,1,.134-.347c.041-.017.122.025.118.066a.379.379,0,0,1-.12.307.192.192,0,0,1-.07.017" transform="translate(-60.453 -8.668)" fill="#302d2c"/>
          <path id="パス_3653" data-name="パス 3653" d="M85.963,21.677a.383.383,0,0,1-.389-.072.078.078,0,0,1-.028-.064c.01-.033.03-.077.057-.088.146-.061.285.025.36.224" transform="translate(-63.54 -15.921)" fill="#302d2c"/>
          <path id="パス_3654" data-name="パス 3654" d="M69.974,18.1c-.032.018-.066.054-.1.051a.353.353,0,0,1-.168-.053.122.122,0,0,1-.038-.167.21.21,0,0,1,.115-.08.116.116,0,0,1,.091.049,1.539,1.539,0,0,1,.1.2" transform="translate(-51.735 -13.261)" fill="#302d2c"/>
          <path id="パス_3655" data-name="パス 3655" d="M85.92,14.572c.163-.1.084-.36.35-.374a2.3,2.3,0,0,1-.073.324c-.035.092-.114.125-.277.05" transform="translate(-63.819 -10.546)" fill="#302d2c"/>
          <path id="パス_3656" data-name="パス 3656" d="M99.344,8.561c.043-.09.052-.133.078-.155a.526.526,0,0,1,.152-.089c.011,0,.057.048.063.078a.146.146,0,0,1-.088.188.644.644,0,0,1-.206-.022" transform="translate(-73.79 -6.177)" fill="#302d2c"/>
          <path id="パス_3657" data-name="パス 3657" d="M89.608,16.085c.081-.139.21-.157.318-.2a.1.1,0,0,1,.091.037.121.121,0,0,1-.006.1.161.161,0,0,1-.08.074.33.33,0,0,1-.324-.011" transform="translate(-66.558 -11.796)" fill="#302d2c"/>
          <path id="パス_3658" data-name="パス 3658" d="M85.877,17.182a.83.83,0,0,1,.186-.1c.093-.019.189.043.17.1a.147.147,0,0,1-.175.108.792.792,0,0,1-.181-.1" transform="translate(-63.787 -12.684)" fill="#302d2c"/>
          <path id="パス_3659" data-name="パス 3659" d="M79.213,19.737c.056.262.056.262-.119.366-.054-.137-.016-.238.119-.366" transform="translate(-58.731 -14.66)" fill="#302d2c"/>
          <path id="パス_3660" data-name="パス 3660" d="M83.825,19.408c-.064.061-.1.116-.146.134a.132.132,0,0,1-.17-.1.139.139,0,0,1,.147-.135c.049.005.094.055.169.1" transform="translate(-62.028 -14.34)" fill="#302d2c"/>
          <path id="パス_3661" data-name="パス 3661" d="M77.784,15.1a.4.4,0,0,1,.084.073c.034.053.056.114,0,.166a.152.152,0,0,1-.2-.019.118.118,0,0,1,.023-.166.5.5,0,0,1,.1-.055" transform="translate(-57.668 -11.214)" fill="#302d2c"/>
          <path id="パス_3662" data-name="パス 3662" d="M83.011,22.14a.289.289,0,0,1-.113.034c-.081-.008-.154-.052-.148-.143,0-.033.065-.086.1-.089a.157.157,0,0,1,.158.2" transform="translate(-61.464 -16.298)" fill="#302d2c"/>
          <path id="パス_3663" data-name="パス 3663" d="M81.184,26.449A.714.714,0,0,1,81,26.54c-.084.008-.157-.066-.141-.13s.067-.117.132-.1a.884.884,0,0,1,.2.136" transform="translate(-60.056 -19.541)" fill="#302d2c"/>
          <path id="パス_3664" data-name="パス 3664" d="M71.714,16.406c-.132.005-.211-.049-.181-.109a.247.247,0,0,1,.125-.113c.063-.023.163.059.147.122-.011.045-.07.078-.091.1" transform="translate(-53.128 -12.018)" fill="#302d2c"/>
          <path id="パス_3665" data-name="パス 3665" d="M78.39,22.029c-.012,0-.031-.006-.033-.013-.026-.081-.052-.162-.071-.244,0-.011.031-.032.051-.044a.038.038,0,0,1,.034,0,.227.227,0,0,1,.08.267c-.007.016-.04.021-.061.031" transform="translate(-58.148 -16.137)" fill="#302d2c"/>
          <path id="パス_3666" data-name="パス 3666" d="M82.26,19.617c-.013.129.019.269-.105.374-.026-.143-.026-.143.105-.374" transform="translate(-61.012 -14.571)" fill="#302d2c"/>
          <path id="パス_3667" data-name="パス 3667" d="M89.174,14.451a.2.2,0,0,1-.26.163.1.1,0,0,1-.041-.089.214.214,0,0,1,.239-.137c.025,0,.046.045.062.063" transform="translate(-66.011 -10.686)" fill="#302d2c"/>
          <path id="パス_3668" data-name="パス 3668" d="M87.816,12.164c.012-.145.1-.183.207-.2a.077.077,0,0,1,.062.029.072.072,0,0,1,0,.067.453.453,0,0,1-.135.12c-.036.016-.091-.009-.137-.016" transform="translate(-65.227 -8.886)" fill="#302d2c"/>
          <path id="パス_3669" data-name="パス 3669" d="M84.653,14.675a.612.612,0,0,1-.176.076.065.065,0,0,1-.061-.1.279.279,0,0,1,.139-.091c.014,0,.051.058.1.115" transform="translate(-62.692 -10.815)" fill="#302d2c"/>
          <path id="パス_3670" data-name="パス 3670" d="M82.242,24.226a1.143,1.143,0,0,1-.186.084.07.07,0,0,1-.09-.081.1.1,0,0,1,.13-.094c.039.007.073.044.147.091" transform="translate(-60.881 -17.925)" fill="#302d2c"/>
          <path id="パス_3671" data-name="パス 3671" d="M79.491,14.4a.953.953,0,0,1-.132.042c-.008,0-.024-.035-.037-.055a1.133,1.133,0,0,1,.116-.058c.005,0,.024.032.052.07" transform="translate(-58.919 -10.643)" fill="#302d2c"/>
          <path id="パス_3672" data-name="パス 3672" d="M84.118,16.947l-.1-.128a.406.406,0,0,1,.107-.068c.016,0,.066.043.063.062-.005.037-.037.069-.075.134" transform="translate(-62.41 -12.442)" fill="#302d2c"/>
          <path id="パス_3673" data-name="パス 3673" d="M89.148,7.585c-.018.007-.04.023-.053.017s-.03-.031-.045-.048l.078-.03.021.06" transform="translate(-66.144 -5.589)" fill="#302d2c"/>
          <path id="パス_3674" data-name="パス 3674" d="M26.6,109.551a2.729,2.729,0,0,0-.295-.214,1.1,1.1,0,0,1-.378-1.265,2.212,2.212,0,0,1,1.486-1.384,3.055,3.055,0,0,1,.972-.194c.293.012.586.05.877.089a.473.473,0,0,1,.316.194,5.134,5.134,0,0,1,.4.513,1.766,1.766,0,0,1,.127,1.482c-.032.108-.084.21-.126.314a.271.271,0,0,0,.326.074,1.259,1.259,0,0,0,.876-.892,2.148,2.148,0,0,0-.227-1.149.725.725,0,0,0-.843-.306.611.611,0,0,1-.3.037.16.16,0,0,1-.111-.176.671.671,0,0,1,.312-.422,1.429,1.429,0,0,1,.5-.189,2.438,2.438,0,0,1,.991,0,.97.97,0,0,1,.655.432c.122.195.242.392.364.588a2.1,2.1,0,0,1,.188.778.088.088,0,0,1,0,.038,3.021,3.021,0,0,1-.816,1.7,1.046,1.046,0,0,1-.663.267,1.716,1.716,0,0,1-1.162-.313.742.742,0,0,0-.131-.077c-.034-.017-.07-.027-.107-.041-.262.155-.478.435-.862.319a1.928,1.928,0,0,1,.138-.521,1.313,1.313,0,0,0,.1-.64,1.208,1.208,0,0,0-.079-.333.751.751,0,0,0-.839-.533,4.183,4.183,0,0,0-.9.175.861.861,0,0,0-.521.93,2.2,2.2,0,0,0,.184.333.2.2,0,0,1-.126.324c-.1.028-.2.041-.328.067m3.949-.093a3.058,3.058,0,0,0,.4.107.618.618,0,0,0,.543-.121,1.822,1.822,0,0,0,.585-.928c.03-.15.073-.3.1-.45a1.379,1.379,0,0,0-.246-1.092c-.114-.154-.233-.305-.344-.462a.447.447,0,0,0-.359-.194,2.11,2.11,0,0,0-.832.112c-.029.01-.044.056-.06.077a5.156,5.156,0,0,1,.6.138.708.708,0,0,1,.525.554c.051.289.141.571.187.861a.606.606,0,0,1-.066.409,1.522,1.522,0,0,0-.124.281.7.7,0,0,1-.349.391c-.176.1-.35.2-.56.319m-.917-1.417c.013-.017.037-.034.038-.052a.592.592,0,0,0-.013-.152,1.715,1.715,0,0,0-.639-.887.456.456,0,0,0-.247-.086,2.766,2.766,0,0,0-1.847.5,1.508,1.508,0,0,0-.627,1.1c-.007.053.012.1.079.1a1.32,1.32,0,0,1,1.042-1.053,4.217,4.217,0,0,1,.834-.125,1.4,1.4,0,0,1,1.341.647c0,.008.024.006.038.01" transform="translate(-19.205 -78.741)" fill="#302d2c"/>
          <path id="パス_3675" data-name="パス 3675" d="M33.586,96.475a.847.847,0,0,1-.714.9c-.088.016-.175.037-.261.06a1.443,1.443,0,0,1-.861-.075,2.084,2.084,0,0,1-.857-.627.915.915,0,0,1-.184-1,1.57,1.57,0,0,1,.614-.767c.076-.048.156-.089.229-.141a.774.774,0,0,1,.624-.109c.226.043.452.084.68.118a.536.536,0,0,1,.466.341,2.618,2.618,0,0,1,.231,1,2.689,2.689,0,0,0,.033.3m-1.454-1.435c-.144.034-.25.027-.3.077-.163.147-.383.247-.46.509.1.029.2.05.289.081s.179.071.274.109a2.389,2.389,0,0,0,.2-.777m.617.29a1.984,1.984,0,0,0-.234.725.611.611,0,0,0,.523.192,1.6,1.6,0,0,0-.289-.917M31.682,96.8a.842.842,0,0,0,.135-.48c-.133-.069-.264-.145-.4-.206a.136.136,0,0,0-.2.071c.1.221.145.5.468.615m.759-.221a.443.443,0,0,0-.124.476.677.677,0,0,0,.418-.028.27.27,0,0,0,.206-.283l-.5-.165" transform="translate(-22.753 -70.337)" fill="#302d2c"/>
          <path id="パス_3676" data-name="パス 3676" d="M10.218,45.421c.257-.117.419-.243.638-.19-.038.189-.038.189-.324.361l-.315-.171" transform="translate(-7.59 -33.587)" fill="#302d2c"/>
          <path id="パス_3677" data-name="パス 3677" d="M50.569,79.633a.385.385,0,0,1-.057.109.211.211,0,0,1-.243.034.126.126,0,0,1-.086-.146.189.189,0,0,1,.084-.109.187.187,0,0,1,.212,0,.639.639,0,0,1,.09.109" transform="translate(-37.272 -59.042)" fill="#302d2c"/>
          <path id="パス_3678" data-name="パス 3678" d="M50.425,82.81c-.023-.02-.071-.044-.092-.083-.036-.067,0-.124.061-.159a.229.229,0,0,1,.108-.029.172.172,0,0,1,.173.12c.007.061-.059.126-.15.144-.025,0-.051,0-.1.007" transform="translate(-37.376 -61.308)" fill="#302d2c"/>
          <path id="パス_3679" data-name="パス 3679" d="M49.716,71.877c-.005.109-.065.158-.154.156s-.159-.063-.151-.127a.163.163,0,0,1,.2-.123c.048.014.083.07.11.093" transform="translate(-36.701 -53.315)" fill="#302d2c"/>
          <path id="パス_3680" data-name="パス 3680" d="M50.289,76.707c-.052-.163-.044-.22.056-.244a.209.209,0,0,1,.17.034c.056.057,0,.113-.05.156a.171.171,0,0,1-.066.037.943.943,0,0,1-.11.017" transform="translate(-37.329 -56.791)" fill="#302d2c"/>
          <path id="パス_3681" data-name="パス 3681" d="M18.726,51.785a.6.6,0,0,1-.156.021.093.093,0,0,1-.059-.143.143.143,0,0,1,.122-.04.124.124,0,0,1,.093.161" transform="translate(-13.737 -38.343)" fill="#302d2c"/>
          <path id="パス_3682" data-name="パス 3682" d="M37.308,20.652a.166.166,0,0,1,.005-.065c.009-.017.034-.025.052-.037a.366.366,0,0,1-.005.088c0,.007-.039,0-.06.006l.008.008" transform="translate(-27.705 -15.264)" fill="#302d2c"/>
          <path id="パス_3683" data-name="パス 3683" d="M63.958,51.759l-.226-.169a.422.422,0,0,1,.034-.13.254.254,0,0,1,.262-.122,3.737,3.737,0,0,0,.638.073c.065,0,.132.039.127.112a.229.229,0,0,1-.072.161.5.5,0,0,1-.245.085c-.176.006-.353-.011-.529-.019l.01.008" transform="translate(-47.338 -38.129)" fill="#302d2c"/>
          <path id="パス_3684" data-name="パス 3684" d="M66.107,45.756c.088-.173.175-.225.307-.168a.51.51,0,0,1,.139.063.159.159,0,0,1,.057.122c-.009.04-.059.078-.1.1a.15.15,0,0,1-.11.006c-.093-.033-.183-.076-.292-.123" transform="translate(-49.102 -33.845)" fill="#302d2c"/>
          <path id="パス_3685" data-name="パス 3685" d="M70.763,45.645c.11.056.093.113.058.208l-.058-.208" transform="translate(-52.561 -33.904)" fill="#302d2c"/>
          <path id="パス_3686" data-name="パス 3686" d="M35,81.956c.006.077-.1.185-.195.194a.184.184,0,0,1-.175-.2.158.158,0,0,1,.18-.147.206.206,0,0,1,.189.151" transform="translate(-25.724 -60.762)" fill="#302d2c"/>
          <path id="パス_3687" data-name="パス 3687" d="M101.163,115.385a.8.8,0,0,1-.114.214.217.217,0,0,1-.248.015.191.191,0,0,1-.127-.171.211.211,0,0,1,.165-.182.355.355,0,0,1,.325.124" transform="translate(-74.777 -85.609)" fill="#302d2c"/>
          <path id="パス_3688" data-name="パス 3688" d="M103.455,113.039c-.048.056-.073.105-.111.125a.261.261,0,0,1-.146.017c-.152-.022-.245-.121-.208-.21a.219.219,0,0,1,.3-.079.819.819,0,0,1,.17.148" transform="translate(-76.492 -83.834)" fill="#302d2c"/>
        </g>
      </g>
    </g>
  </g>
</svg>
