<svg xmlns="http://www.w3.org/2000/svg" width="145.459" height="232.877" viewBox="0 0 145.459 232.877">
  <g id="グループ_5644" data-name="グループ 5644" transform="translate(-11409.261 -7970.551)" opacity="0.3">
    <g id="グループ_1765" data-name="グループ 1765" transform="translate(11409.261 7970.551)" opacity="0.5">
      <path id="パス_11184" data-name="パス 11184" d="M1490.823,1156.979c.251.194.434.274.674.069a.848.848,0,0,1,1.12-.057,2.36,2.36,0,0,0,1.177,1.645,22.008,22.008,0,0,1,1.783,1.5c.594.571.994,1.291,1.623,1.828a28.223,28.223,0,0,1,2.16,2.057,10.316,10.316,0,0,1,1.017,1.417,5.658,5.658,0,0,1,.366.686c.183.377.617.629.606,1.12a6.342,6.342,0,0,1-.686,3.634,1.637,1.637,0,0,1-1.257.834c-.309.023-.56-.057-.617-.446.366-.3,1.017-.16,1.2-.777-1.1.24-2.16.469-3.223.72-.377.091-.72.3-1.1.366-.7.137-1.406.229-2.114.309a21.513,21.513,0,0,0-3.977.891c-.228.069-.446.126-.731.206a1.66,1.66,0,0,0,1.349.434c.469.012.926,0,1.451,0a1.489,1.489,0,0,1-.823.366,5.076,5.076,0,0,1-2.537-.388,4.245,4.245,0,0,0-1.006-.206,8.681,8.681,0,0,1-2.3-.3,1.721,1.721,0,0,0-.834.011.569.569,0,0,1-.651-.286c-.3-.446-.64-.857-.948-1.291a1.242,1.242,0,0,1-.149-.423c-.263-.96-.491-1.932-.788-2.88-.069-.229-.423-.366-.5-.594s.057-.5.057-.754c0-.091-.149-.183-.229-.263.125-.206.251-.434.4-.663-.148-.217-.274-.411-.4-.606a.672.672,0,0,1-.172-.651.689.689,0,0,0-.08-.491,8.488,8.488,0,0,1-.846-3.371c-.023-.217.16-.469.263-.743-.64-.091-.811-.617-1.006-1.211-.229-.7-.663-1.314-.948-2a18.143,18.143,0,0,1-.583-1.783c-.228-.743-.434-1.5-.663-2.24a.677.677,0,0,0-.206-.32,2.424,2.424,0,0,1-.708-1.349c-.16-.514-.411-.994-.617-1.486-.057-.137-.16-.3-.137-.423a5.744,5.744,0,0,0-.411-2.594c-.377-1.714-.754-3.429-1.189-5.131a33.564,33.564,0,0,0-1.566-5.017c-.583-1.349-1.063-2.754-1.577-4.126-.788-2.114-1.589-4.217-2.365-6.331q-.943-2.589-1.828-5.2c-.48-1.417-.9-2.845-1.371-4.263-.24-.731-.548-1.451-.846-2.24-.766.206-1.531.469-2.309.606-.891.16-1.806.206-2.7.332a11.51,11.51,0,0,0-3.268.754,2.575,2.575,0,0,1-.811.251,10.773,10.773,0,0,0-2.766.914,5.01,5.01,0,0,0-.857.56,1.877,1.877,0,0,1,.194.5c.057.64.057,1.291.137,1.92a1.989,1.989,0,0,0,.309.846,18.645,18.645,0,0,1,1.817,3.52,8.87,8.87,0,0,0,.674,1.257,12.155,12.155,0,0,1,.88,2.434,7.526,7.526,0,0,1,.411,1.486c.149.937.217,1.886.354,2.834.194,1.257.434,2.514.64,3.771a4.148,4.148,0,0,1,.046.846,8.25,8.25,0,0,0,.274,2.114,6.609,6.609,0,0,1,.1,1.166c.149,1.771.286,3.543.446,5.314.034.388.148.766.171,1.154.034.731.034,1.463.023,2.206a9.729,9.729,0,0,0,.526,3.188,2.167,2.167,0,0,0,.411.651c.411.469.423.594.1,1.154a10.9,10.9,0,0,0-.537,1.029.785.785,0,0,0-.08.5,2.057,2.057,0,0,1-.16,1.451c1.051.72,1.211,1.851,1.451,2.937s.354,2.183.686,3.234a24.524,24.524,0,0,1,.8,4.9,11.491,11.491,0,0,0,.469,2.137c.137.434.126.766-.251,1.029-.869.594-1.726,1.223-2.628,1.76a6.843,6.843,0,0,1-1.463.469,14.561,14.561,0,0,1-3.646.537c-1.44.046-2.891.08-4.331.16a9.186,9.186,0,0,0-2.663.468,2.016,2.016,0,0,1-.743.012c-.32-.023-.64-.091-.96-.1a13.387,13.387,0,0,1-1.36-.023,18.578,18.578,0,0,0-3.565.069c-.56.023-1.12-.023-1.68.011a4.707,4.707,0,0,0-1.132.206,9.4,9.4,0,0,1-2.171.308,16.642,16.642,0,0,1-3.1.183,26.062,26.062,0,0,0-3.543.149,1.546,1.546,0,0,0-.32.046c-.732.149-.869.069-1.189-.64a2.721,2.721,0,0,0-.217-.4,4.056,4.056,0,0,1-.743-2.434,17.626,17.626,0,0,1,.229-2.194,1.93,1.93,0,0,1,1.623-1.566c1.406-.366,2.788-.788,4.194-1.177.686-.194,1.383-.366,2.069-.571.583-.172,1.143-.4,1.714-.594a11.711,11.711,0,0,1,1.348-.457,5.252,5.252,0,0,0,2.24-1.086c.7-.549,1.52-.914,2.274-1.394.651-.423,1.257-.891,1.931-1.383a.823.823,0,0,0-.206-.1c-.743-.126-1.086-.388-1.029-1.063a4.246,4.246,0,0,0-.263-1.382c-.217-.949-.491-1.875-.708-2.823-.172-.754-.3-1.52-.457-2.286a3.75,3.75,0,0,1-.011-1.634,3.731,3.731,0,0,0,.171-2.034.472.472,0,0,1-.011-.126c.286-1.349-.172-2.651-.183-3.988a20.625,20.625,0,0,0-.834-4.24c-.3-1.394-.56-2.811-.926-4.183a35.423,35.423,0,0,1-.549-3.783c-.114-.72-.251-1.451-.423-2.16-.206-.891-.446-1.76-.674-2.64a.488.488,0,0,1-.023-.126,38.887,38.887,0,0,0-.846-5.12c-.114-.88-.423-1.726-.537-2.606a36.236,36.236,0,0,0-1.2-4.788c-.549-2-1.189-3.977-1.566-6.034a43.7,43.7,0,0,0-1.211-4.251c-.114-.4-.194-.8-.274-1.131-1.406-.674-2.788-1.3-4.114-2-.972-.514-1.886-1.143-2.846-1.691a44.018,44.018,0,0,0-5.36-2.651c-1.314-.526-2.583-1.12-3.908-1.623-3.051-1.166-6.125-2.308-9.188-3.429-1.611-.583-3.234-1.108-4.845-1.691a9,9,0,0,1-3.2-2.034c-.32-.309-.685-.571-1.131-.937a1.7,1.7,0,0,1,.114-.423,24.19,24.19,0,0,1,3.349-4.548,11.325,11.325,0,0,0,2.023-2.846c.229-.514.5-1.006.754-1.509.514-1.051,1.029-2.1,1.52-3.166.48-1.017.971-2.034,1.371-3.086a50.1,50.1,0,0,1,2.194-4.857c.332-.663.731-1.28,1.051-1.943.8-1.634,1.543-3.3,2.343-4.926.48-.971,1.04-1.909,1.531-2.868.469-.926.891-1.874,1.371-2.8,1.223-2.377,2.194-4.869,3.5-7.2.469-.846.811-1.783,1.2-2.674,1.017-2.343,2.023-4.7,3.04-7.051.366-.834.72-1.68,1.086-2.514.629-1.406,1.268-2.811,1.874-4.217.457-1.051.857-2.126,1.292-3.2.594-1.486,1.2-2.971,1.794-4.457.731-1.817,1.76-3.486,2.651-5.223.549-1.086.983-2.217,1.463-3.337.183-.411.366-.834.537-1.257a17.862,17.862,0,0,1,.72-1.737,28.384,28.384,0,0,0,1.554-3.646,17.031,17.031,0,0,0,1.12-3.246c.1-.651.114-.823-.377-1.2a.576.576,0,0,1-.1-.846,1.445,1.445,0,0,0,.206-.914,12.279,12.279,0,0,0-.343-3.543,19.432,19.432,0,0,1-.446-3.794c-.1-1.84-.114-3.68-.194-5.508-.034-.8-.172-1.589-.24-2.388-.023-.343.023-.686.034-1.029a7.35,7.35,0,0,0,.046-1.223,7.6,7.6,0,0,1,.091-2.388,1.171,1.171,0,0,0-.069-.743.587.587,0,0,1,.1-.754,9.926,9.926,0,0,0,.537-.869c.228-.366.446-.743.686-1.1a.676.676,0,0,1,.32-.206,1.75,1.75,0,0,1,2.046.514,4.745,4.745,0,0,1,.332.5c.605-.206.983-.526,1.508-.457a1.457,1.457,0,0,1,1.177.571.847.847,0,0,0,1.04.411c.651-.16,1.314-.24,1.977-.343a4.5,4.5,0,0,1,2.24.034c.354.126.7.217.994-.149a.347.347,0,0,1,.526-.011.5.5,0,0,1,.149.651,6.792,6.792,0,0,0-.663,2.08,1.26,1.26,0,0,0,.023,1.143c.423-.469.823-.9,1.3-1.428a1.733,1.733,0,0,1-.5.034c-.286-.057-.4-.309-.217-.526a8.519,8.519,0,0,1,.892-.926.6.6,0,0,1,.5-.149c.149.091.194.331.274.526.023.046-.011.114-.023.229a5.229,5.229,0,0,1,.629-.171c.251-.034.377.137.24.354a1.219,1.219,0,0,1-.423.377.927.927,0,0,0-.56,1.051c.034.32-.114.674.354.846.194.069.091.3-.046.434-.377.331-.743.651-1.12.971-.034.023-.068.068-.114.068-.137,0-.274,0-.4-.011.011-.126-.023-.263.034-.354a4.9,4.9,0,0,1,.514-.663.844.844,0,0,0,.034-1.063c-.514.24-.651,1.109-1.508.72,0,.994-.023,1.92.011,2.846a15.667,15.667,0,0,0,.206,1.794c.057.354.183.708.274,1.063a1.079,1.079,0,0,1,.069.32c-.091,1.2.469,2.286.594,3.44.034.366.046.731.08,1.1a9.44,9.44,0,0,0,.743,2.606.759.759,0,0,0,.274.263.933.933,0,0,1,.411,1.234c-.171.457-.274.948-.4,1.417a1.335,1.335,0,0,1,.126.057c.091-.16.183-.309.263-.469.846-1.851,1.7-3.7,2.526-5.577.366-.846.594-1.76.971-2.617a7.53,7.53,0,0,0,.72-3.268c-.011-.743.091-1.5.149-2.286.571.16.754-.411,1.074-.743.251-.251.446-.457.869-.263.834-1.668,1.657-3.314,2.537-5.085-.446.263-.7.011-.948-.149a2.581,2.581,0,0,0-2.468-.48,5.657,5.657,0,0,1-.766.149,1.446,1.446,0,0,0-.286.114c.309.217.571.4.869.606.251-.194.5-.389.754-.594s.491-.286.754.1c-.3.286-.583.606-.914.869a.67.67,0,0,0-.183.937c.206-.1.4-.217.606-.308.172-.08.366-.1.434.1a.451.451,0,0,1-.149.366c-.788.743-.823.788-.948,1.634.229-.149.434-.286.64-.411.251.171.32.354.137.571-.148.183-.309.354-.469.537a3.008,3.008,0,0,0-.8,1.314c-.023.1-.16.24-.24.24a.352.352,0,0,1-.263-.229,5.5,5.5,0,0,1-.16-1.131c0-.434.114-.857.149-1.291a4.888,4.888,0,0,0-.743-2.731,7.069,7.069,0,0,0-1.943-.389c-.011-.206-.034-.423-.057-.708l-.857-.069c-.32.663-.32.651-1.04.594a3.9,3.9,0,0,0-.96.08,2,2,0,0,1-1.211-.16,1.47,1.47,0,0,1,.228-.549,1.334,1.334,0,0,0,.309-.96.9.9,0,0,0-.32-.869c-.126-.1-.171-.3-.286-.491-.194.08-.366.137-.537.217a15.413,15.413,0,0,1-1.417.754,3.425,3.425,0,0,1-3.554-.389c-.3-.24-.377-.446-.366-1.017-.229.023-.457.046-.686.057-.7.034-.846-.137-.766-.834a.829.829,0,0,1,.046-.251,3.055,3.055,0,0,0,.206-1.6,1.007,1.007,0,0,0-.137-.548.729.729,0,0,1,0-.789,12.667,12.667,0,0,0,.492-1.234c.023.011.125.046.263.091.114-.08.263-.194.423-.309.057-.034.137-.068.149-.114a4.141,4.141,0,0,0,.091-1.577,1.682,1.682,0,0,0-1.052-.949,2.01,2.01,0,0,1-1.3-1.566,1.11,1.11,0,0,1,.32-.949c.251-.32.514-.628.823-1.017a1.394,1.394,0,0,1-1.04-.811,3.583,3.583,0,0,0-.766-.8,2.642,2.642,0,0,1,.834-1.086,3.447,3.447,0,0,0,1.143-1.691c.206-.526.354-1.063.537-1.6a1.19,1.19,0,0,0-.08-1.017,3.465,3.465,0,0,1-.286-3.108c.16-.354.206-.754.354-1.12.32-.777.686-1.531,1.029-2.309.389-.869.788-1.726,1.131-2.606a3.46,3.46,0,0,1,.914-1.143,5.975,5.975,0,0,1,.5-.4.991.991,0,0,1,.046-1.36.854.854,0,0,0,.149-.286,6.851,6.851,0,0,1,1.5-2.114c.1-.126.4-.24.5-.183.423.229.766,0,1.085-.171a7.289,7.289,0,0,1,2.96-.88c1.052-.057,2.114-.183,3.166-.217.686-.011,1.371.1,2.069.149,1.36.1,2.72.183,4.08.32a12.266,12.266,0,0,1,4.926,1.291,6.471,6.471,0,0,1,2.5,2.274c.08.137.183.354.137.48a1.373,1.373,0,0,0,.32,1.371,6.9,6.9,0,0,1,1.108,3.051,32.49,32.49,0,0,1,.354,5.68,43.513,43.513,0,0,1-.366,4.583,11.176,11.176,0,0,1-.949,3.428,9.411,9.411,0,0,1-2.548,3.463,11.273,11.273,0,0,0-1.691,2.034,1.657,1.657,0,0,0-.332,1.269c.034.309-.126.651-.08.96.08.571.251,1.131.377,1.7.229.046.411.1.606.126a2.926,2.926,0,0,1,1.611.777c.5.446,1.074.811,1.554,1.28.629.606,1.189,1.291,1.794,1.92a7.393,7.393,0,0,0,.651.537,3.754,3.754,0,0,1,.389.343c.549.549.549.56-.057,1.154.126.137.229.32.377.4a.615.615,0,0,1,.332.7c-.034.64.332.994.971,1.143a19.976,19.976,0,0,1,1.989.606c.811.286,1.611.617,2.423.926l2.674.994a14.389,14.389,0,0,1,1.577.571c1.166.56,2.32,1.177,3.474,1.771.377.194.731.457,1.131.617a1.4,1.4,0,0,0,.811.046,4.356,4.356,0,0,1,3.977,1.029,2.205,2.205,0,0,1,.72,1.2,16.5,16.5,0,0,1,.446,3.588c.068,1.691.3,3.36.446,5.051.08.88.114,1.771.194,2.651a14.7,14.7,0,0,1,.012,1.737,12.706,12.706,0,0,0,.263,2.708c.24,1.383.56,2.754.857,4.126a13.112,13.112,0,0,0,.309,1.326,4,4,0,0,1,.034,1.474,20.157,20.157,0,0,0,.011,3.109,15.778,15.778,0,0,1-.023,1.943c-.023,1.04-.034,2.08-.069,3.12-.046,1.28-.149,2.548-.183,3.828-.023.64.046,1.292.057,1.931.023.823.068,1.646.011,2.457a10.37,10.37,0,0,1-.4,2.229,3.335,3.335,0,0,1-.8,1.234,13.763,13.763,0,0,1-2.708,2.5,25.4,25.4,0,0,0-2.217,1.794c-.4.32-.811.64-1.246.937a19.643,19.643,0,0,0-2.571,1.966,15.6,15.6,0,0,1-1.383,1.04c-.7.537-1.394,1.1-2.091,1.646-1.257.994-2.491,2.011-3.76,2.971s-2.434,2.011-3.6,3.063a7.574,7.574,0,0,1-.811.526c-.48.343-.457.343-.331.9.32,1.417.64,2.823.948,4.24.069.3.046.606.1.891.137.811.263,1.623.457,2.423a49.574,49.574,0,0,1,1.143,5.326c.137,1.109.457,2.194.686,3.291.046.229.023.48.068.708.172.8.377,1.6.549,2.4.126.594.206,1.189.3,1.794.137.937.251,1.886.423,2.811a23.755,23.755,0,0,1,.572,4.011,16.2,16.2,0,0,0,.423,2.754c.137.731.388,1.451.5,2.194.091.629.366,1.223.423,1.851.091.926.194,1.84.343,2.754.114.7.3,1.394.446,2.091.263,1.189.537,2.366.788,3.554.137.651.194,1.326.332,1.977.126.571.331,1.12.469,1.68a5.6,5.6,0,0,1,.229,2.811.93.93,0,0,0,.011.251,4.025,4.025,0,0,1-.194,1.646.983.983,0,0,0-.057.308,1.509,1.509,0,0,1-.857,1.509c-.274.137-.286.4.012.526a1.087,1.087,0,0,1,.651.96c.114.708.251,1.406.411,2.1.16.72.354,1.428.526,2.137.32,1.326.629,2.651.96,3.965.343,1.406.708,2.8,1.051,4.206a13.451,13.451,0,0,0,.526,2.206,16.648,16.648,0,0,1,.594,1.646c.309,1.04.617,2.08.891,3.12.434,1.68.846,3.36,1.257,5.04.114.48.149.983.274,1.463.32,1.166.686,2.32,1.006,3.486.309,1.12.594,2.251.88,3.383.206.823.434,1.634.606,2.457.206,1.04.331,2.091.56,3.12a13.284,13.284,0,0,0,.72,2.617,11.952,11.952,0,0,1,.686,2.366c.229,1.051.389,2.126.572,3.188a3.53,3.53,0,0,1,.011.7,1.308,1.308,0,0,0,.4,1.177c.114.1.229.389.171.491a3.584,3.584,0,0,1-.891,1.246c-.354.24-.686.5-1.017.777C1491.166,1156.522,1491.018,1156.762,1490.823,1156.979Zm-67.22-65.86-.286-.217-.24-.172c.217.366.217.366.537.377-.183.377.16.434.366.571C1423.854,1091.484,1423.729,1091.3,1423.6,1091.118Zm-17.6-3.908c-.172-.183-.354-.365-.526-.548-.011.377.16.571.526.548-.126.491.286.5.629.766-.034-.217-.023-.354-.08-.4A4.594,4.594,0,0,0,1406,1087.21Zm35.793-6.982-.4-.4c-.034.034-.057.08-.091.114.171.091.331.171.5.263a2.941,2.941,0,0,0,1.063.914A1.562,1.562,0,0,0,1441.8,1080.228Zm-42.661,7.7c.594-.274.72-.446.526-.8a1.173,1.173,0,0,0-.5.823c-.411.206-.457.366-.183.651C1399.021,1088.364,1399.078,1088.147,1399.135,1087.93Zm51.358,79.254c-.046-.548-.514-.411-.857-.48l.857.48c.88.446.937.457,1.383.354-.388-.171-.709-.331-1.052-.446C1450.733,1167.07,1450.6,1167.161,1450.493,1167.184Zm27.61-21.9c.206.148.411.286.617.434a.82.82,0,0,0,.7.217c-.354-.251-.629-.469-.926-.64-.1-.057-.263,0-.4.011.012-.1.08-.251.034-.286-.3-.217-.606-.423-.914-.629-.034.046-.069.08-.1.126.149.148.3.309.457.446S1477.932,1145.185,1478.1,1145.288Zm-10.9-120.155c-.08.011-.206.011-.217.046-.194.377-.366.766-.537,1.154a1.369,1.369,0,0,0-.046.377l.137.034c.206-.526.434-1.074.663-1.611.046-.229.114-.457.172-.674A.486.486,0,0,0,1467.2,1025.133Zm-52.043,66.717c-.011-.24-.091-.411-.4-.411.137.137.274.263.411.4a2.9,2.9,0,0,0,1.314,1.428A3.31,3.31,0,0,0,1415.158,1091.85Zm27.8,23.725c.183.469.629.606,1.005.869.023-.411.035-.434-.137-.514-.286-.126-.594-.229-.891-.343-.012-.057.011-.149-.023-.183-.526-.411-1.063-.812-1.6-1.223-.034.011-.057.034-.092.046.1.343.206.674.309,1.052C1442.128,1115.015,1442.517,1115.4,1442.962,1115.575Zm29.724,7.76c-.011-.3-.194-.366-.457-.32l.48.309c.537.377,1.074.766,1.657,1.166.08-.72.08-.709-.446-.869-.24-.069-.48-.183-.732-.24A2.557,2.557,0,0,0,1472.687,1123.334Zm-32.216-20.262.617.72a8.841,8.841,0,0,1,.777.834c.423.583,1.108.869,1.508,1.5a4.772,4.772,0,0,0,1.1.9c.034-.663.046-1.166-.571-1.44a3.431,3.431,0,0,1-.537-.366c-.617-.457-1.234-.926-1.874-1.371-.091-.069-.263-.034-.4-.046a.683.683,0,0,0-.629-.708c-.16-.56-.674-.766-1.131-1.086.034.343.057.686.091,1.017C1439.831,1103.038,1440.151,1103.049,1440.471,1103.072Zm32.9-85.734c-.091.034-.217.057-.263.114-.492.8-.971,1.6-1.451,2.411-.046.08-.011.206-.011.309.046.011.091.034.126.046.354-.583.72-1.154,1.04-1.749.206-.366.354-.766.526-1.154.137-.183.274-.366.4-.548A.472.472,0,0,0,1473.372,1017.339Zm-13.108,25.119q.017-.583.034-1.166c.011-.332-.149-.5-.514-.583a4.61,4.61,0,0,0,.48,1.749,2.362,2.362,0,0,0,.868,1.428c.1-.766.183-1.451.3-2.126.046-.286-.068-.377-.343-.423C1460.95,1041.84,1460.847,1042.343,1460.265,1042.458Zm-12.08-73.677c.08.309.08.309.4.229-.171-.091-.3-.149-.423-.206.091-.263.183-.514.286-.834-.32-.194-.629-.617-1.086-.343-.606-.308-1.143-.583-1.691-.869-.091.251-.24.366-.48.251s-.457-.24-.674-.377-.434-.171-.629.1a8.275,8.275,0,0,1,2,1.394.614.614,0,0,1,.823.034A2.51,2.51,0,0,0,1448.185,968.78Zm-6.926,140.417c-.194-.514-.7-.617-1.131-.857-.011.16,0,.366.092.412.331.171.7.286,1.051.434.046.069.069.16.126.206.7.651,1.394,1.292,2.08,1.943.286.274.56.572.834.857.046-.023.1-.034.149-.057.057-.983.114-1.966.183-2.96-1.931-.857-3.326-2.366-4.869-3.714.034.32.069.629.091.823a7.157,7.157,0,0,1,.811.594c1.017.96,2.023,1.943,3.04,2.9a8.532,8.532,0,0,0,.7.537c-.411.263-.423.286-.72.183a3.944,3.944,0,0,1-1.6-.846A2.787,2.787,0,0,0,1441.259,1109.2Zm-6.3-33.736c-.217-.172-.423-.354-.64-.526-.034.034-.057.08-.091.114.194.206.3.549.743.4-.217.434.171.629.377.857,1.314,1.508,2.754,2.9,4.125,4.377a22.142,22.142,0,0,0,2.709,2.206,6.729,6.729,0,0,0,.9.526c-.069-.708-.126-1.291-.194-1.954a.592.592,0,0,1-.88-.08,2.742,2.742,0,0,0-.411-.309c-.777-.583-1.589-1.131-2.343-1.748-.948-.788-1.863-1.623-2.777-2.446C1435.957,1076.422,1435.465,1075.931,1434.963,1075.462Zm57.518,84.522c.034.64.606.514,1.074.811-.069-.366-.114-.594-.16-.811-.32.069-.537.126-.766.16-.046,0-.1-.1-.148-.16a7.1,7.1,0,0,0-.583-.994,2,2,0,0,0-.869-.72,1.154,1.154,0,0,1-.868-.7,12.277,12.277,0,0,0-1.371,1.04,5.884,5.884,0,0,1-1.486.811.67.67,0,0,0,.114.148,60.348,60.348,0,0,0,6.674,4.1,33.106,33.106,0,0,1,3.108,1.84c.332.194.651.4.971.606-.08.263-.149.446-.194.617.172.24.32.457.48.674a.74.74,0,0,1-.549-.012c-.937-.5-1.874-1.005-2.8-1.531-1.612-.937-3.2-1.9-4.8-2.846-.217-.126-.457-.229-.674-.377-.834-.537-1.657-1.086-2.5-1.623-.617-.389-1.257-.754-1.885-1.131-.457-.274-.914-.549-1.383-.811-.046-.023-.137.011-.32.034.72.48,1.349.9,1.977,1.326.32.217.629.457.96.651.48.286,1.006.514,1.474.823.777.5,1.52,1.063,2.3,1.577.594.389,1.245.7,1.817,1.12a22.793,22.793,0,0,0,3.748,2.194.6.6,0,0,1,.411.457.625.625,0,0,0,.332.354c.891.446,1.794.869,2.674,1.326a.944.944,0,0,0,1.086-.046,2.039,2.039,0,0,0-.137-1.406c-.434-.743-.926-1.451-1.406-2.171a4.217,4.217,0,0,0-.491-.605c-.446-.457-.491-.457-1.143-.263-.1-.068-.217-.137-.32-.217a26.656,26.656,0,0,0-3.829-2.32c-1.337-.663-2.651-1.371-3.977-2.057a3.82,3.82,0,0,1-.491-.354c.343-.469.343-.457.708-.492a3.125,3.125,0,0,1,1.748.389A2.553,2.553,0,0,0,1492.48,1159.984Zm-39.336-10.731a.8.8,0,0,0-.708-.446.738.738,0,0,0,.731.434c.24.263.48.537.732.788a1.372,1.372,0,0,1,.514.823c-1.44-.629-2.549-1.6-3.885-2.171.3.32.628.583.948.869.4.354.766.754,1.189,1.086.937.731,1.9,1.428,2.834,2.16a1.683,1.683,0,0,1,.309.423,1.075,1.075,0,0,0-.1.114c-.183-.091-.377-.172-.56-.274a55.312,55.312,0,0,1-6.5-4.377c-.286-.217-.583-.446-.88-.64-.057-.046-.194.023-.434.057.823.594,1.543,1.074,2.217,1.611a34.632,34.632,0,0,1,3.234,2.834c.571.583,1.246,1.086,1.863,1.623a2.6,2.6,0,0,1,.914,1.052,1.386,1.386,0,0,1-.48-.046,6.892,6.892,0,0,1-1.017-.583c-1.223-.9-2.423-1.829-3.646-2.732-.434-.331-.891-.64-1.337-.948.4.812,5.508,5.1,7.68,6.526a4.255,4.255,0,0,0,.5-1.314,7.387,7.387,0,0,1,.388-2,.886.886,0,0,0-.057-.743,8.82,8.82,0,0,1-.937-3.691.78.78,0,0,0-.434-.663c-1.074-.686-2.149-1.383-3.211-2.08-.126-.08-.309-.24-.377-.206-.388.194-.594-.172-.891-.251a3.991,3.991,0,0,1-.617-.3,2.751,2.751,0,0,0,.217.354c.343.286.754.5.8,1.029.011.08.149.16.229.217.411.274.834.549,1.234.834.685.492,1.36.994,2.023,1.5a1.414,1.414,0,0,1,.229.332c-.034.034-.057.08-.091.114-.366-.171-.72-.354-1.086-.526C1454.173,1149.756,1453.659,1149.5,1453.145,1149.253Zm-6.582-202.278c.08-.206.16-.411.24-.64-.274.16-.274.16-.24.64-.149.343-.286.686-.457,1.086.24.24.069.526-.091.811-.629,1.1-1.314,2.171-1.9,3.3-.526,1.017-.948,2.091-1.383,3.143-.057.137.011.469.1.5.571.24.5.674.423,1.143-.034.206-.126.514-.023.629.377.4.183.743-.023,1.108a.586.586,0,0,0-.068.251c-.069.331-.1.674-.194,1.006a11.9,11.9,0,0,1-.423,1.223,4.529,4.529,0,0,1-.263.526,7.6,7.6,0,0,1-.469.846c-.228.331-.388.731-.857.823-.137.023-.24.206-.377.32.24.251.434.457.629.663a.625.625,0,0,0,.754.171,13.111,13.111,0,0,1,1.326-.308c.354-.08.8.023.971-.469.011-.046.16-.057.24-.069.171-.011.343-.068.286-.251a.615.615,0,0,0-.354-.3.451.451,0,0,0-.343.1c-.194.126-.354.229-.594.08s-.24-.389-.228-.629a4.412,4.412,0,0,1,.651-1.943,20.819,20.819,0,0,0,1.029-2.16.837.837,0,0,0,.046-.617,1.254,1.254,0,0,1,.171-1.634c.023-.023.023-.08.046-.126a5.251,5.251,0,0,1,.857-1.211,5.219,5.219,0,0,0,.937-.869.709.709,0,0,1,.457-.206,6.656,6.656,0,0,1,2.377.057,2.956,2.956,0,0,1,1.246.88.511.511,0,0,1,.057.411,4.373,4.373,0,0,1-.263.56c-.48-.046-.869-.092-1.257-.1a9.906,9.906,0,0,0-1.166.011c-.606.057-.811.274-.96.914a4.124,4.124,0,0,0,2.057.651.726.726,0,0,1,.24.1.624.624,0,0,1,.068,1.108,1.666,1.666,0,0,1-2.274.126c-.183-.114-.343-.251-.526-.389a1.629,1.629,0,0,0-.846,1.234,1.885,1.885,0,0,1-.206.469c-.229.457-.48.914-.686,1.383-.183.411-.057.526.331.8s.983.457.846,1.143a.391.391,0,0,0,.092.229.526.526,0,0,1-.114.743,5.259,5.259,0,0,1-.663.491c.926,1.143,2.343,1.406,3.474,2.069a11.263,11.263,0,0,0,1.017-.789c.777-.754,1.543-1.52,2.274-2.32a26.421,26.421,0,0,1,3.977-3.52c.469-.343.926-.686,1.429-1.063a1.2,1.2,0,0,1-.948-1.383c.023-.274.126-.549.16-.834a10.711,10.711,0,0,0,.114-1.348.9.9,0,0,0-.286-.617,9.734,9.734,0,0,0-.983-.708,5.112,5.112,0,0,0-2.194,1.737c.709-.3,1.154-.891,1.886-.834.08.4-.217.457-.423.583-.343.206-.686.434-1.029.64-.011.057-.034.114-.046.171.16.069.331.126.48.194a8.479,8.479,0,0,0-.492.9,1.27,1.27,0,0,1-.7.72c-.343.172-.651.389-1.052.629.172.194.263.3.377.434.492-.389.891-.754,1.337-1.051s.731-.834,1.428-1.006a4.272,4.272,0,0,1-1.051,1.246c-.926.789-1.863,1.543-2.777,2.343a8,8,0,0,0-1.885,2.034c-.091.16-.229.3-.091.5.069-.034.114-.046.137-.08a24.9,24.9,0,0,1,4.72-3.965,12.1,12.1,0,0,1,1.177-.686.711.711,0,0,1,.457-.023c.091.354.492.24.663.423a1.5,1.5,0,0,1-1.074,1.154,1.314,1.314,0,0,0-.514.229c-.754.651-1.52,1.28-2.228,1.977-1.189,1.189-2.343,2.423-3.508,3.646a.519.519,0,0,1-.88-.183,3.425,3.425,0,0,1-.08-.766,15.235,15.235,0,0,1-.091-1.611,6.657,6.657,0,0,1,.274-1.909,10.126,10.126,0,0,1,1.017-1.806c.08-.126.286-.3.4-.274.446.08.686-.217.96-.457a8.029,8.029,0,0,1,1.851-1.291c.332-.16.674-.4.64-.777-.411-.3-.754-.548-1.154-.834.366-.331.171-.617-.057-.857a.924.924,0,0,1-.183-1.074,8.764,8.764,0,0,0,.411-1.029,2.641,2.641,0,0,1,.7-1.211.829.829,0,0,0,.263-.56.548.548,0,0,1,.194-.514,5.752,5.752,0,0,0,1.211-2.194,3.428,3.428,0,0,0,.1-.434c-.206-.08-.366-.149-.526-.194l-3.154-.72a10.089,10.089,0,0,0-1.52-.354C1448.893,947.033,1447.728,947.021,1446.562,946.976Zm6.457,164.953c.32.046.434-.24.617-.4.206-.183.411-.365.594-.537.583.32.583.32.149,1.291.171-.023.343-.034.651-.069-.377.983-.72,1.874-1.1,2.846a27.762,27.762,0,0,0,3.074-.686c1.006-.183,2.011-.377,3.131-.583a.631.631,0,0,1-.423-.869,13.463,13.463,0,0,1,.514-1.668c.777-1.828,1.589-3.646,2.377-5.474,1.04-2.411,2.023-4.846,3.268-7.154a3.109,3.109,0,0,1,.617-.823.69.69,0,0,1,.834-.172,3.978,3.978,0,0,1,.926.88c.514.663.937,1.406,1.474,2.046a16.145,16.145,0,0,1,1.131,2.091.272.272,0,0,1,.023.194c-.069.731-.125,1.463-.228,2.194a1.345,1.345,0,0,1-.514.834,3.927,3.927,0,0,1-.126-.548c-.011-.366-.023-.743,0-1.108a4.3,4.3,0,0,0-1.417-3.268c-.069.1-.126.194-.183.274-.274.469-.286,1.166-1.074,1.154-.034,0-.069.057-.091.091-.492.571-1.017,1.12-1.486,1.726-.914,1.211-1.806,2.434-2.686,3.668a11.019,11.019,0,0,0-.937,1.474,17.538,17.538,0,0,0-.777,1.851c-.309.846-.594,1.691-.9,2.571a6.783,6.783,0,0,0,.994-.069,19.751,19.751,0,0,0,5.76-1.966,6.937,6.937,0,0,0,1.417-1.12,21.623,21.623,0,0,1,2.777-2.537,1.717,1.717,0,0,0,.548-.766c.263-.594.492-1.2.709-1.817a6.32,6.32,0,0,0,.469-1.611,5.155,5.155,0,0,0-1.006-3.04c-.617-.971-1.28-1.9-1.92-2.857a18.114,18.114,0,0,0-2.24-3.257.7.7,0,0,1-.1-.229,12.138,12.138,0,0,0-.56-1.086,5.356,5.356,0,0,1-1.006-2.64,10.837,10.837,0,0,1,.172-1.6c.16-1.44.331-2.88.48-4.32.046-.469.011-.948.034-1.429.034-.846.126-1.691.114-2.526-.023-1.668-.091-3.337-.148-5.005a7.7,7.7,0,0,0-.114-1.029,29.7,29.7,0,0,0-1.017-4.091c-.389-1.131-.686-2.286-1.063-3.417a9.3,9.3,0,0,1-.56-2.731c-.011-.263-.057-.514-.091-.766-.08-.537-.194-1.063-.229-1.611a18.571,18.571,0,0,1,.548-5.668c.034-.137.08-.343,0-.423-.308-.332-.194-.686-.1-1.04a1.121,1.121,0,0,0-.251-1.029,8.521,8.521,0,0,1-.937-1.3c-.377-.731-.674-1.5-1.006-2.251a1.418,1.418,0,0,0-.217-.457,4.262,4.262,0,0,1-.926-2.114c-.183-.948.046-1.977-.514-2.868-.046-.069,0-.183-.023-.251a1.134,1.134,0,0,0-.217-.457,4.59,4.59,0,0,1-.971-1.6c-.194-.469-.48-.9-.789-1.474a2.874,2.874,0,0,0-.434-1.691c-.263-.492-.5-1.006-.743-1.52-.286-.583-.571-1.166-.845-1.76a.547.547,0,0,0-.549-.366,2.8,2.8,0,0,1-.868-.171.461.461,0,0,1-.195-.812,3.548,3.548,0,0,1,.389-.309c-.251-.183-.434-.423-.663-.457a12.643,12.643,0,0,0-1.966-.126c-.446.011-.88.183-1.326.24a1.4,1.4,0,0,1-.571-.068.428.428,0,0,1-.251-.674,1.047,1.047,0,0,1,.446-.354c.411-.16.846-.286,1.269-.423-.034-.091-.057-.149-.08-.206-.24-.766.069-1.2.743-1.074a2.98,2.98,0,0,0,.32.011,4.267,4.267,0,0,0,2.114-.56c.263-.126.549-.343.446-.709a.68.68,0,0,0-.674-.594c-.286,0-.56-.023-.834-.046a3.784,3.784,0,0,1-1.6-.091c-.366-.183-.754-.343-1.109-.537-.434-.24-.446-.5-.011-.766a15.042,15.042,0,0,1,3.245-1.817,9.027,9.027,0,0,0,2-1.2,3.922,3.922,0,0,0,1.314-2.126.692.692,0,0,0,0-.5,3.7,3.7,0,0,0-1.1-1.6c.366-.926,1.234-1.474,1.828-2.32-.3-.057-.5-.1-.709-.137a1.624,1.624,0,0,1-1.143-.663,1.058,1.058,0,0,1,.171-1.589,26.348,26.348,0,0,1,2.206-1.7c.868-.606,1.68-1.3,2.492-1.988.651-.56,1.291-1.154,1.9-1.783a29.673,29.673,0,0,1,3.657-3.211,28.174,28.174,0,0,1,3.874-2.48c.629-.331,1.28-.629,1.909-.971a12.143,12.143,0,0,0,1.154-.731,5.987,5.987,0,0,1,2.48-.971,3.3,3.3,0,0,1,.469-.709c.56-.469,1.154-.9,1.726-1.36a.769.769,0,0,0,.229-.366c.069-.3.1-.617.16-.994-.183.092-.308.126-.411.194-.457.309-.9.629-1.36.937a.406.406,0,0,1-.583-.057.43.43,0,0,1-.08-.583,1.349,1.349,0,0,1,.354-.366c.663-.377,1.314-.766,2-1.074a1.888,1.888,0,0,0,1.143-1.543,1.3,1.3,0,0,0-.229.046c-.777.389-1.543.777-2.308,1.189-.388.206-.708.16-.868-.206s.148-.457.377-.56c.788-.366,1.577-.7,2.377-1.051q.583-.257,1.2-.514a1.174,1.174,0,0,1,.549-1.143c.434-.331.834-.708,1.211-1.04-.366.046-.743.091-1.12.125-.217.023-.423-.08-.423-.308a.646.646,0,0,1,.24-.423,1.714,1.714,0,0,1,.457-.229c.892-.377,1.794-.743,2.686-1.143a1.51,1.51,0,0,1,1.029-.034c-.3.617-.926.754-1.417,1.2a2.165,2.165,0,0,0,.537-.046,8.205,8.205,0,0,0,1.886-.846,8.809,8.809,0,0,1,.777-.48.489.489,0,0,1,.629.069,7.518,7.518,0,0,1-.674.674,6.448,6.448,0,0,1-1.451,1.074,12.677,12.677,0,0,0-2.926,1.646c-.286.217-.548.434-.377.869a2.719,2.719,0,0,0-1.931,2.148c.526-.16,1.074.091,1.577-.206.149-.091.343-.091.411.194a1.739,1.739,0,0,1-.32.171c-.389.126-.788.251-1.177.366a1.481,1.481,0,0,0-1.131,1.177c-.194.754-.274,1.531-.446,2.286a34.207,34.207,0,0,0-.492,3.394c-.057.5-.069,1.006-.1,1.623.732-.834,1.394-1.566,2.046-2.32.868-.994,1.714-2,2.583-3.005a.815.815,0,0,1,.937-.263c.377.126.457.263.491.743s.091.983.137,1.486a4.991,4.991,0,0,1,.091,1.417,4.079,4.079,0,0,1-1.428,2.331,7.36,7.36,0,0,0-2.023,2.731c-.4.891-.754,1.794-1.109,2.7a13.207,13.207,0,0,0-.4,1.3,3.074,3.074,0,0,0-.011.674,4.314,4.314,0,0,0,.514-.343c.469-.377.926-.766,1.394-1.154a3.5,3.5,0,0,0,.411-.411c.571-.686,1.108-1.394,1.7-2.057.743-.846,1.509-1.68,2.3-2.48a5.033,5.033,0,0,1,1.726-1.131c.914-.343,1.691.183,1.52,1.28a9.394,9.394,0,0,0-.217.948,6.108,6.108,0,0,1-2.446,4.411c-1.371,1.166-2.7,2.389-4.034,3.588-.16.149-.388.286-.388.64.263,0,.492-.011.72,0a6.621,6.621,0,0,1,1.166.126,2.277,2.277,0,0,1,1.943,1.988c.023.354-.034.594-.388.72-.48.172-.96.343-1.5.526a1.149,1.149,0,0,0,.88.526,1.771,1.771,0,0,1,1.211.56c.183.194.354.366.228.674-.148.377-.3.743-.731.823a3.183,3.183,0,0,1-1.874-.1,2.046,2.046,0,0,0-1.645-.091,3.981,3.981,0,0,0,.549.469c.469.274.948.514,1.417.777a3.062,3.062,0,0,1,1.817,2.583,12.8,12.8,0,0,1-.137,2.194,6.926,6.926,0,0,1-.366,1.234.706.706,0,0,1-.583.549.652.652,0,0,1-.7-.366c-.057-.114-.172-.194-.24-.308-.446-.629-.914-1.257-1.326-1.909-.331-.526-.583-1.12-.914-1.646-.24-.377-.366-.377-.766-.206-.354.16-.72.32-1.063.5a.6.6,0,0,1-.9-.194c-.674.572-1.3,1.109-1.931,1.634-.3.251-.743.4-.583.937.011.046-.057.114-.091.16a17.037,17.037,0,0,1-1.291,1.7,24.114,24.114,0,0,0-2.365,3.017c-.446.663-.846,1.36-1.268,2.034a6.81,6.81,0,0,1-1.234,1.817.766.766,0,0,0-.229.766c.183,1.223.354,2.446.56,3.657a40.4,40.4,0,0,1,.629,4.24,3.438,3.438,0,0,0,.48,1.943l.286-.251c.434-.423.846-.88,1.3-1.268,1.006-.857,2.035-1.691,3.063-2.526,1.074-.869,2.149-1.749,3.234-2.594.869-.686,1.76-1.326,2.64-2,.606-.457,1.177-.96,1.783-1.417.846-.64,1.7-1.269,2.548-1.909.434-.331.834-.7,1.28-.994a23.7,23.7,0,0,0,3.3-2.731,9.147,9.147,0,0,0,.823-.926,1.669,1.669,0,0,0,.389-.743,19.388,19.388,0,0,0,.263-3.04c-.046-1.646-.137-3.28-.069-4.937.08-1.931.126-3.863.172-5.794.023-1.234-.011-2.48.011-3.714a17.26,17.26,0,0,0-.617-4.891,13.322,13.322,0,0,1-.366-1.783c-.206-1.428-.4-2.868-.56-4.308-.183-1.566-.331-3.143-.491-4.72-.08-.823-.126-1.646-.263-2.457-.194-1.2-.446-2.377-.686-3.565a7.977,7.977,0,0,1-.251-.994,2.05,2.05,0,0,0-.914-1.5.929.929,0,0,0-.594-.091c-.434.011-.857.1-1.291.1a1.2,1.2,0,0,1-1.12-.537c-.057-.08-.194-.114-.3-.16-.16-.068-.331-.1-.48-.183-.8-.389-1.6-.777-2.389-1.166-.834-.411-1.646-.857-2.5-1.234-.926-.4-1.9-.731-2.846-1.1-.137-.057-.286-.1-.434-.149-1.12-.389-2.24-.8-3.371-1.131a1.626,1.626,0,0,0-1.452.034,2.919,2.919,0,0,0,.457.309c.469.172.937.32,1.417.469.229.069.48.069.537.446a3.316,3.316,0,0,1-.5.217,5.631,5.631,0,0,1-2.309.1c-.9-.126-.9-.137-1.063.754-.012.046.011.08.023.126a5.32,5.32,0,0,1,1.543,1.451c-.64.514-1.28-.068-1.909.069a3.481,3.481,0,0,0-.1,2.023c.286-.011.583-.08.651.274s-.274.331-.446.457c-.126.092-.332.16-.377.286-.137.457-.229.926-.32,1.394a.724.724,0,0,0,.1.423,3.609,3.609,0,0,0,.263.411c-.137.411-.526.354-.834.48-.126.469-.24.948-.366,1.429.457.4,1.108-.114,1.6.423a2.782,2.782,0,0,1-.492.389,6.078,6.078,0,0,1-.811.24c-.229.069-.5.114-.469.434.034.457-.309.526-.617.617a3.957,3.957,0,0,1-.629.08c.011.56-.046.606-.514.5a4.713,4.713,0,0,1-1.074-.217,2.659,2.659,0,0,0-1.657-.08c-.251.034-.514.057-.766.114-.526.114-1.051.24-1.577.366a3.945,3.945,0,0,0,.869.366c1.531.537,3.017,1.188,4.594,1.611.514.137,1.12.206,1.451.72-.023.068-.023.114-.057.137a28.533,28.533,0,0,1-3.851,3.1,21.5,21.5,0,0,0-3.417,2.674,11.594,11.594,0,0,1-2.446,1.577,9.532,9.532,0,0,0-2.263,1.383c-.32.286-.606.606-.937.868a15.988,15.988,0,0,1-2.983,2.183,5.051,5.051,0,0,0-.8.617c.446.1.777.172,1.1.274a.49.49,0,0,1,.251.251c.023.057-.092.194-.171.24a1.482,1.482,0,0,1-1.7.126c-.1-.069-.217-.126-.343-.194-.423.274-.846.537-1.257.823a5.146,5.146,0,0,0-.457.4,2.643,2.643,0,0,1,.64.091.537.537,0,0,1,.286.286c.023.068-.091.229-.194.286a1.868,1.868,0,0,1-1.611.251.9.9,0,0,0-1.109.811c.343.068.674.114,1.017.194a.859.859,0,0,1,.309.206c-.08.114-.149.286-.251.32a13.026,13.026,0,0,1-1.314.343c-.548.1-1.1.114-1.349-.583-.034.023-.08.034-.114.057l-.1,1.268c.971.423,2.068.309,3.017.834a.974.974,0,0,1-.548.3c-.606.046-1.212.08-1.817.069a1.921,1.921,0,0,0-.88.057.659.659,0,0,1-.869-.194,2.325,2.325,0,0,0-.423-.3c-.377-.263-.4-.594,0-.811.446-.24.606-.663.88-1.017a.646.646,0,0,0,.126-.537.649.649,0,0,1,.171-.823,12.756,12.756,0,0,1,1.474-1.36c.7-.514,1.452-.926,2.172-1.406.868-.583,1.714-1.188,2.571-1.771.377-.251.777-.468,1.143-.743.469-.354.88-.777,1.349-1.12,1.028-.732,2.046-1.474,3.12-2.114a16.318,16.318,0,0,0,2.88-1.863,54.618,54.618,0,0,1,6.16-4.56c.229-.149.434-.343.743-.594-.4-.137-.674-.229-.96-.32-.411-.137-.834-.251-1.234-.4-1.029-.389-2.057-.8-3.1-1.2a10.054,10.054,0,0,1-1.143-.48.84.84,0,0,1-.434-.994.789.789,0,0,1,.788-.549,3.067,3.067,0,0,0,.457-.034c.811-.229,1.726.046,2.469-.548.1-.08.331-.046.491-.023a6.01,6.01,0,0,0,2.023.194c.355-.069.594-.16.72-.526.411-1.211.9-2.4,1.234-3.623.354-1.314.571-2.663.846-4,.331-1.588.708-3.177.994-4.765a21.632,21.632,0,0,0,.24-2.583.8.8,0,0,0-.194-.583c-.766-.731-1.566-1.428-2.332-2.16a1.4,1.4,0,0,0-1.36-.366,12.612,12.612,0,0,0-3.554,1.543,6.14,6.14,0,0,1-2.091.971.413.413,0,0,0-.274.126,7.121,7.121,0,0,0-.743,1.131,13.084,13.084,0,0,1-1.189,2.446,2.507,2.507,0,0,0-.24.457l-1.234,2.64a9.91,9.91,0,0,1-.983,2.046c-.057.08-.034.206-.069.32a6.776,6.776,0,0,1-.446,1.36,5.619,5.619,0,0,0-.594,1.909c-.114.72-.309,1.429-.469,2.183-.24-.069-.4-.114-.617-.183-.594,1.291-1.177,2.571-1.76,3.84a9.531,9.531,0,0,0-.846,1.886c-.24,1.154-.823,2.171-1.154,3.291-.251.869-.72,1.669-.96,2.549a15.169,15.169,0,0,1-1.223,3.063c-.869,1.668-1.863,3.28-2.823,4.891a29.666,29.666,0,0,0-2.126,3.874.718.718,0,0,0-.08.423,3.98,3.98,0,0,0,.366.686,3.507,3.507,0,0,0-.263,2.148c.126.937.286,1.874.434,2.823.149.983.286,1.977.446,2.96.16,1.006.4,2,.492,3.006.126,1.417.274,2.834.423,4.263.206,1.977.229,3.977.286,5.977a44.949,44.949,0,0,1-.343,5.943c-.057.56-.069,1.12-.16,1.668-.114.766-.274,1.52-.423,2.274.937.126,1.131.309,1.154,1.143.034,1.12.023,2.24.057,3.36.046,1.257.126,2.5.194,3.76.1,1.794.206,3.577.331,5.371.091,1.383.366,2.743.366,4.137a30.351,30.351,0,0,0,.286,3.04c.034.332.08.663.114.994a11.245,11.245,0,0,0,.514-1.668c.331-1.234.64-2.469,1.006-3.691.251-.823.572-1.634.891-2.434.423-1.04.834-2.1,1.326-3.108a5.949,5.949,0,0,1,3.257-3.108c.606-.228.948-.16,1.246.4a11,11,0,0,1,.492,1.2,3.27,3.27,0,0,1,.228,1.714c-.251,1.292-.491,2.583-.754,3.874a16.073,16.073,0,0,1-.48,1.943c-.309.846-.709,1.668-1.063,2.491a29.268,29.268,0,0,1-1.223,2.731,25.634,25.634,0,0,0-2.263,5.314c-.057.183-.16.377,0,.594.377-.457.743-.88,1.086-1.314.788-.983,1.554-1.977,2.354-2.937a1.377,1.377,0,0,1,.732-.469.961.961,0,0,0,.594-.331c.411-.457.549-.469,1.074-.091.1-.046.217-.114.343-.16a3.289,3.289,0,0,1,.354-.069,2.271,2.271,0,0,1-.3,1.394c-.114.206-.24.411-.354.617-.137.229-.034.354.194.446q.549-.72,1.063-1.44c.126-.172.24-.331.469-.217.206.1.149.286.057.457-.32.64-.594,1.3-.96,1.92a2.072,2.072,0,0,0-.091,1.817l.823-.492a1.446,1.446,0,0,1-.034,1.463,25.059,25.059,0,0,0-1.189,2.857c-.457,1.691-1.028,3.349-1.543,5.028-.457,1.5-.88,2.994-1.349,4.48-.354,1.12-.766,2.206-1.166,3.314-.172.469-.377.926-.514,1.406-.343,1.257-.594,2.537-.983,3.771a41.225,41.225,0,0,1-1.257,4.617,8.517,8.517,0,0,0-.377,2.046c.834-.869,1.577-1.771,2.308-2.674.48-.606.914-1.269,1.417-1.852a12.507,12.507,0,0,0,1.806-2.766,25.344,25.344,0,0,1,2.217-3.954,6.646,6.646,0,0,0,1.154-2.308c.263-1.029.675-2.011.983-3.017a17.214,17.214,0,0,0,.5-2.148c.206-1.371.354-2.754.526-4.125.183-1.417.4-2.834.537-4.251a16.022,16.022,0,0,0-.091-1.806c-.023-1.188-.057-2.388-.046-3.577.034-2.674.1-5.337.16-8.011.011-.526.137-.651.651-.686a2.916,2.916,0,0,1,.446.035,18.456,18.456,0,0,1,1.669,5.588,13.864,13.864,0,0,0,.64,3.028,7.98,7.98,0,0,1,.491,1.749c.137,1.349.172,2.708.24,4.068a.863.863,0,0,1-.126.423,13.514,13.514,0,0,0-.629,1.211c-.4,1.074-.754,2.172-1.12,3.257-.366,1.063-.411,2.274-1.326,3.108-.011.011-.011.046-.023.057a4.388,4.388,0,0,1-.526,1.154,11.936,11.936,0,0,0-.674,2.08,7.378,7.378,0,0,1-1.166,2.937,1.181,1.181,0,0,0-.137.3,26.579,26.579,0,0,1-1.211,2.5c-.388.64-.708,1.3-1.063,1.954-.149.263-.32.5-.48.766-.388.674-.788,1.349-1.166,2.023-.183.32-.377.629-.526.96-.274.583-.548,1.177-.788,1.771-.183.434-.32.88-.48,1.326-.366.217-.388.594-.5.926.046.023.08.035.126.057.126-.332.251-.663.366-.994.423-.537.846-1.074,1.36-1.737a3.643,3.643,0,0,1-.5,1.68c-.183.5-.309,1.029-.491,1.531-.194.526-.469,1.017-.651,1.554-.172.491-.594.9-.56,1.474.617-.606.766-1.6,1.783-1.977a3.36,3.36,0,0,1-.091.686c-.286.743-.606,1.474-.9,2.206a1.915,1.915,0,0,0-.219.662c-.354.206-.32.594-.491.891a.688.688,0,0,0,.137.057C1452.779,1112.569,1452.9,1112.249,1453.019,1111.929Zm-9.428-66.615a2.826,2.826,0,0,0-.5.251,1.525,1.525,0,0,1-1.029.331c-.194,0-.389-.012-.583,0a14.082,14.082,0,0,1-5.76-.732,12.442,12.442,0,0,1-2.457-.96,16.66,16.66,0,0,0-2.057-.937,3.236,3.236,0,0,0-.96-.343,5.5,5.5,0,0,1-2.5-.743c-.08-.046-.206-.011-.309-.023-.069.149-.114.263-.172.377a1.411,1.411,0,0,0,.114,1.646.359.359,0,0,1,.091.171c.023.137.1.32.046.423-.114.194-.3.08-.457,0a1.22,1.22,0,0,0-.274-.046c-.08.526-.16,1.006-.229,1.463.789.491.834.594.457,1.166-.217-.046-.434-.091-.743-.148-.263.937-.526,1.851-.754,2.777-.057.24-.137.572.149.709.366.171.377.48.469.846-.24.069-.457.126-.754.206-.034.343-.08.708-.1,1.063a3.558,3.558,0,0,1-.057.709,1.108,1.108,0,0,0,.149.983.434.434,0,0,1-.08.64.747.747,0,0,0-.286.857,9.11,9.11,0,0,1,.08,1.851,5,5,0,0,0,.194.674c.034.183.114.434.034.548a1.672,1.672,0,0,0-.046,1.886,1.034,1.034,0,0,1,0,1.166c-.08.114-.034.332-.023.5s.046.366.068.549c.64.354.64.366.686,1.109a7.05,7.05,0,0,0,.057.708c.1.686.114.686-.56.777-.046.137-.1.274-.137.423a1.4,1.4,0,0,0,0,.309c.846.206,1.131.617.914,1.291-.217-.069-.434-.149-.766-.263.1.366.172.651.251.937.229.777.091,1.646.594,2.365.057.08.011.251-.023.377a1.694,1.694,0,0,0,.56,1.908,1.851,1.851,0,0,1,.366.366c.24.309.183.526-.194.708-.069.034-.148.046-.274.091.091.583.172,1.143.3,1.68a.541.541,0,0,0,.3.3c.663.32.743.937.937,1.68-.4-.114-.686-.194-1.074-.308.114.606.206,1.12.308,1.646a4.914,4.914,0,0,1,.651.057.834.834,0,0,1,.446.228c.229.286.4.606.606.914.172.263.046.389-.148.469-.377-.126-.72-.24-1.154-.389.08.514.148.9.206,1.326a1.752,1.752,0,0,1,1.234.788c.766.926.788.9.7,1.28-.5-.183-.994-.354-1.463-.526-.046.594-.091,1.12-.137,1.646-.011.217-.034.434.194.583a1.561,1.561,0,0,1,.8,1.3.4.4,0,0,0,.069.183,5.063,5.063,0,0,1,.5,1.977c.228.194.491.308.571.5.194.5.308,1.051.469,1.589l-.514.332a16.4,16.4,0,0,0,.3,1.874,16.6,16.6,0,0,0,.629,1.737c-.126.1-.228.206-.32.274a5.548,5.548,0,0,0,.754,2.365c.274.5.286.492-.16.914l.3.594c.16.3.434.594.446.9a2.154,2.154,0,0,0,.88,1.52,1.629,1.629,0,0,1,.537.926c-.492.48-.869-.229-1.3-.114a1.5,1.5,0,0,0,.674,1.474,1.425,1.425,0,0,1,.206.16c.308.377.606.766.937,1.189-.651.3-1.074-.286-1.623-.217.194.709.377,1.372.571,2.023a6.562,6.562,0,0,0,.32,1.051,11.12,11.12,0,0,1,.7,2.423c.171.731.24,1.5.457,2.217.469,1.623,1.017,3.223,1.486,4.846a61.127,61.127,0,0,1,1.406,6.537c.091.572.3,1.131.366,1.7a43.911,43.911,0,0,0,.983,5.428,15.576,15.576,0,0,1,.48,2.811,20.474,20.474,0,0,0,.583,3.326,14.926,14.926,0,0,1,.64,2.914,7.361,7.361,0,0,0,.229,1.406,12.614,12.614,0,0,1,.64,2.686,3.508,3.508,0,0,0,.126.834.833.833,0,0,0,.194.389c.388.389.8.766,1.211,1.154.16-.08.354-.171.537-.263-.068-.263-.137-.5-.194-.731.629-.32.823-.3,1.234.149a2.025,2.025,0,0,0,.9.629,5.408,5.408,0,0,0-.514-.811,9.981,9.981,0,0,1-.56-.857.348.348,0,0,1,.069-.343.365.365,0,0,1,.343-.046,7.6,7.6,0,0,1,.732.377c-.069-.674-.126-1.234-.194-1.794-.126-1.006-.251-2.011-.377-3.028-.137-1.1-.229-2.194-.4-3.291-.217-1.371-.48-2.731-.766-4.091a20.651,20.651,0,0,0-.686-2.629,17.334,17.334,0,0,1-.994-4.823,14.191,14.191,0,0,0-.332-2.183c-.3-1.417-.629-2.834-.926-4.251-.217-1.04-.32-2.114-.629-3.12a34.574,34.574,0,0,1-1.28-8q-.069-1.063-.206-2.126c-.126-1.028-.286-2.057-.389-3.1a7.271,7.271,0,0,1,0-1.5c.091-.789.251-1.577.4-2.365a2.646,2.646,0,0,1,.274-.537c.069.286.114.469.16.651.286-.011.549-.034.926-.046-.343-.3-.606-.549-.891-.766a1.637,1.637,0,0,1-.617-.9c.183-.194.354-.377.514-.56-.206-.24-.366-.308-.64-.16-.377.194-.606.046-.651-.377a3.162,3.162,0,0,1,.023-.457,5.456,5.456,0,0,0-.16-2.571.605.605,0,0,1-.011-.32,14.463,14.463,0,0,0-1.132-5.634c-.491-1.337-.971-2.674-1.44-4.023-.229-.651-.434-1.314-.64-1.977-.343-1.154-.663-2.32-1.006-3.474a12.918,12.918,0,0,0-.548-1.783c-.194-.423-.549-.766-.331-1.3.034-.08-.035-.206-.057-.309-.206-.731-.4-1.463-.628-2.183a11.412,11.412,0,0,0-.537-1.52,1.171,1.171,0,0,1-.183-.732,1.194,1.194,0,0,0-.034-.446c-.137-.549-.263-1.1-.434-1.634a1.751,1.751,0,0,0-.423-.617c-.365-.365-.766-.686-1.143-1.04a.566.566,0,0,1-.194-.7.677.677,0,0,1,.743-.274,1.253,1.253,0,0,1,.423.16c.571.434,1.12.88,1.68,1.326a3.563,3.563,0,0,1,.4.423c.229-.16.411-.286.606-.423-.457-.777-.891-1.531-1.326-2.274a15.04,15.04,0,0,1-1.3-2.469,2.162,2.162,0,0,1,.583.217,14.608,14.608,0,0,1,1.166,1.212,30.107,30.107,0,0,0,2.594,3.314c1.04.971,2.046,1.989,3.086,2.971.446.423.96.777,1.406,1.212a9.7,9.7,0,0,0,1.84,1.177c.149-.16.24-.263.08-.469-.331-.457-.629-.937-.937-1.406-.469-.686-.937-1.36-1.406-2.034-.571-.823-1.166-1.623-1.68-2.468-.434-.72-.743-1.52-1.143-2.263-.56-1.029-1.189-2.023-1.714-3.063a15.188,15.188,0,0,1-1.28-2.766c-.172-.617-.549-1.177-.766-1.783-.343-.926-.64-1.886-.949-2.823-.011-.046.046-.114.08-.206a3.975,3.975,0,0,1,1.474,1.509c.423.7.846,1.406,1.269,2.1.023.034.034.08.069.1a2.2,2.2,0,0,1,.731,1.052c.606,1.143,1.223,2.3,1.817,3.451.549,1.074,1.086,2.171,1.612,3.257.263.537.434,1.131.743,1.634.583.937,1.246,1.828,1.9,2.72.217.3.4.663.8.812.091-.377.057-.651-.332-.823a.732.732,0,0,1-.308-.469c-.137-.548-.274-1.1-.354-1.646-.08-.583-.137-1.166-.16-1.748-.034-1.086-.046-2.16-.057-3.246,0-.183.057-.343.343-.309a15.13,15.13,0,0,0,.708,4.457,2.632,2.632,0,0,0,.057-.788,21.827,21.827,0,0,1,.114-4.731c.137-1.383.274-2.754.423-4.137.069-.629.149-1.246.251-1.863.217-1.3.492-2.594.686-3.9.16-1.074.24-2.149.354-3.223C1443.511,1046.343,1443.545,1045.9,1443.591,1045.315Zm48.135,108.944c-.114-.8-.251-1.554-.32-2.331a20.263,20.263,0,0,0-1.074-4.937,22.729,22.729,0,0,1-.88-3.131c-.5-2.491-.994-4.971-1.737-7.405-.1-.354-.263-.686-.354-1.04-.217-.857-.4-1.726-.617-2.583-.229-.926-.56-1.828-.709-2.766a67.843,67.843,0,0,0-1.68-7.085c-.423-1.588-.971-3.143-1.451-4.72-.8-2.674-1.6-5.36-2.377-8.045-.4-1.394-.743-2.8-1.131-4.194a3.229,3.229,0,0,0-.56-1.337c-.823.537-1.611,1.063-2.4,1.589a27.168,27.168,0,0,0-2.286,1.611c-.709.594-1.657.88-2.24,1.749h.651a1.877,1.877,0,0,1,.046.343,20.016,20.016,0,0,0,.743,5.268c.206.777.492,1.531.674,2.309.343,1.474.617,2.971.971,4.446a21.245,21.245,0,0,0,.811,3.783c.023.057-.011.126-.011.194a1.728,1.728,0,0,0,.7,1.634c.149.114.286.274.114.411-.286.229-.126.48-.057.7.092.286.263.548.366.834a1.57,1.57,0,0,0,.674.834,3.989,3.989,0,0,1,.594.571c.034.034-.011.126-.011.217-.16.057-.308.1-.48.16.194.617.4,1.234.594,1.851.48,1.554.96,3.109,1.428,4.663.16.526.263,1.051.869,1.257.114.035.206.16.3.251.24.24.206.4-.1.514a1.965,1.965,0,0,1-.354.08,1.536,1.536,0,0,0,.469,1.3,13.38,13.38,0,0,0,.194,1.326c.263.891.606,1.76.869,2.651a7.418,7.418,0,0,1,.377,1.771,4.808,4.808,0,0,0,.549,1.966c.56,1.143,1.2,2.263,1.68,3.44a12.329,12.329,0,0,0,2.514,4.126,2.114,2.114,0,0,1,.789,1.28,4.054,4.054,0,0,0,2.263-1.863c-.457-.057-.983.354-1.36-.206.251-.777.446-.869,1.189-.651a3.381,3.381,0,0,0,.491.08C1490.355,1154.19,1490.732,1154,1491.726,1154.259ZM1440.917,1044.7a11.223,11.223,0,0,1-4.743-3.029,2.746,2.746,0,0,1,.286-.549.6.6,0,0,1,.914-.057l.994.96a12.755,12.755,0,0,0,3.04,2.183c.457.229.926.423,1.394.629.263-.594.469-1.12.72-1.611a1.786,1.786,0,0,0,.217-.994c-.034-.994-.08-1.989-.068-2.994a32.771,32.771,0,0,0-.217-4.971c-.126-.926-.229-1.851-.343-2.766-.114-.971-.183-1.943-.343-2.9a42.52,42.52,0,0,1-.755-4.811,3.417,3.417,0,0,0-.149-1.086,5.36,5.36,0,0,1-.32-1.977,13.658,13.658,0,0,1,.194-1.794,1.2,1.2,0,0,1,.217-.389c.149-.229.332-.446.469-.686.343-.629.651-1.269,1.017-1.886.308-.526.686-1.006.971-1.543.64-1.154,1.234-2.343,1.851-3.509.3-.56.628-1.086.88-1.668.663-1.532,1.291-3.074,1.931-4.617-.114-.183-.228-.343-.343-.5-.434-.617-.891-1.223-1.291-1.863a17.428,17.428,0,0,0-2.5-3.611c-.286-.274-.56-.549-.88-.869-.08.251-.183.389-.172.537a11.122,11.122,0,0,1-.56,3.12c-.308,1.3-.56,2.617-.88,3.92a12.922,12.922,0,0,1-.594,1.646c-.137.343-.32.651-.446.994-.308.891-.583,1.806-.9,2.7a32.584,32.584,0,0,0-1.474,3.851,1.417,1.417,0,0,1-.137.366c-.491.96-.983,1.92-1.463,2.891-.423.857-.846,1.7-1.257,2.571-.388.823-.743,1.657-1.131,2.469-.526,1.086-1.086,2.149-1.588,3.234-.526,1.108-.994,2.251-1.509,3.371-.263.583-.606,1.143-.846,1.749-.469,1.143-.914,2.286-1.326,3.451-.354.994-.662,2-.96,3.017a1.14,1.14,0,0,0,.034.617c.149.457.114.583-.32.811-.126.069-.308.137-.354.251-.183.469-.32.948-.48,1.451a12.344,12.344,0,0,1,1.966.514,6.208,6.208,0,0,0,1.657.469,2.3,2.3,0,0,1,.983.3,11.817,11.817,0,0,0,2.388,1.154,10.921,10.921,0,0,0,1.166.56c1.063.331,2.137.651,3.223.914A4.007,4.007,0,0,0,1440.917,1044.7Zm-2.686-63.22c-.08-.491-.08-.491-.32-.7a.714.714,0,0,0-1.234.274,10.094,10.094,0,0,0-.64,4.274,7.758,7.758,0,0,1,.046.891,11.8,11.8,0,0,0,.08,3.108,5.539,5.539,0,0,1,.125.96c.069,1.543.114,3.1.183,4.64.034.926.057,1.851.149,2.777.091.9.24,1.794.377,2.686.114.777.263,1.554.4,2.411.411-.983.777-1.886,1.154-2.777.308-.743.628-1.474.937-2.217.251-.606.514-1.2.708-1.817.457-1.394.846-2.823,1.326-4.206a13.6,13.6,0,0,1,.948-1.92c.229-.446.514-.857.72-1.3a36.619,36.619,0,0,1,2.091-4.183,6.728,6.728,0,0,1,1.234-1.486c.263-.24.446-.594.354-.811a1,1,0,0,0-.868-.469,7.076,7.076,0,0,0-1.212.229,10.929,10.929,0,0,1-2.354.411,2.331,2.331,0,0,1-1.246-.217,3.4,3.4,0,0,0-1.474-.16,3.141,3.141,0,0,1,0,.469c-.08.446-.206.88-.251,1.326-.069.64-.08,1.292-.126,1.943-.023.366-.1.411-.537.5-.32.069-.434-.091-.514-.343a3.168,3.168,0,0,1-.172-1.269,6.531,6.531,0,0,0-.194-2.617c-.194.011-.354.034-.514.046a.332.332,0,0,1-.023-.1C1437.648,981.729,1437.922,981.614,1438.231,981.477Zm31.53,51.644.171.1a1.173,1.173,0,0,1,.126-.3,13.32,13.32,0,0,1,2.3-1.863c.743-.548,1.5-1.086,2.24-1.634.811-.606,1.463-1.394,2.32-1.954a24.7,24.7,0,0,0,2.023-1.589c-.057-.08-.069-.126-.1-.149-.834-.617-.857-1.3-.046-1.931.274-.206.56-.389.834-.583-.012-.183-.023-.331-.034-.48a3,3,0,0,0-.72-1.886c-.16-.171-.24-.411-.4-.594a.566.566,0,0,1-.011-.811,1.1,1.1,0,0,0,.308-1.189,3.71,3.71,0,0,0-.64-1.188.915.915,0,0,1-.354-.754.505.505,0,0,0-.286-.491c-.263.617-.469,1.211-.743,1.771-.732,1.52-1.5,3.028-2.24,4.537a1.214,1.214,0,0,1-.263.446c-.56.366-.686,1.006-1.04,1.509-.126.171-.217.377-.355.537a16.381,16.381,0,0,0-1.691,2.183,10.463,10.463,0,0,0-1.269,2.617c-.125.457-.32.891-.468,1.337a1,1,0,0,0-.069.48C1469.487,1031.864,1469.624,1032.492,1469.761,1033.121Zm2.743,64.912a.413.413,0,0,1-.251-.56,6.183,6.183,0,0,1,.3-1.051c.72-1.474,1.451-2.948,2.228-4.388a12.738,12.738,0,0,1,1.863-2.56c.583-.629.72-.7,1.588-.274-.126-.685-.229-1.3-.366-2.08-.423.571-.754,1.006-1.074,1.463-.651.891-1.291,1.783-1.931,2.674-.788,1.074-1.566,2.16-2.377,3.223a8.14,8.14,0,0,1-1.1,1.177c-.309-.389-.08-.686,0-.983a18.234,18.234,0,0,1,1.52-3.2,35.2,35.2,0,0,1,3.234-5.028c.354-.491.583-1.211,1.383-1.177a25.081,25.081,0,0,0-1.131-4.971.36.36,0,0,0-.1.08c-.994,1.44-1.977,2.891-2.971,4.32-.8,1.154-1.623,2.3-2.457,3.417-.629.846-1.291,1.669-1.931,2.491-.137.171-.274.366-.56.171a1.353,1.353,0,0,1,.08-.286c.446-.823.891-1.634,1.337-2.446.686-1.257,1.371-2.5,2.08-3.749.469-.823.948-1.646,1.463-2.446.571-.891,1.212-1.748,1.771-2.64a3.315,3.315,0,0,1,1.143-1.109,4.943,4.943,0,0,0-.229-1.954,8.586,8.586,0,0,0-.537.674c-.708,1.051-1.394,2.114-2.1,3.177-.3.446-.617.88-.914,1.326a25.947,25.947,0,0,1-1.634,2.343c-1.063,1.257-2,2.594-3.017,3.886a.592.592,0,0,0-.149.274c-.057.64-.091,1.28-.148,1.92a4.6,4.6,0,0,0,.731,2.651c.08.148.263.24.411.366.114-.149.194-.217.251-.309.457-.708.892-1.429,1.36-2.137.857-1.28,1.749-2.537,2.594-3.817.56-.846,1.086-1.714,1.634-2.571a4.088,4.088,0,0,1,.708-.971,1.045,1.045,0,0,1,1.109-.023c.354.16.331.469.3.777a1.742,1.742,0,0,0,0,.251c-.446.7-1.131,1.131-1.406,1.886a1.072,1.072,0,0,1-.183.263l-1.611,2.194c-.594.823-1.177,1.657-1.794,2.457-.674.868-1.394,1.691-2.069,2.56-.331.423-.308.457-.023.914.663,1.017,1.337,2.023,1.966,3.063a4.817,4.817,0,0,1,.869,1.726c.034.206.24.388.446.708.332-1.2.9-2.16,1.12-3.268C1473.441,1096.97,1473.19,1097.678,1472.5,1098.033Zm-7.965-152.3a8.893,8.893,0,0,1-1.657.3,12.364,12.364,0,0,1-2.343-.263.892.892,0,0,0-.834.206,1.325,1.325,0,0,1-.617.286,3.364,3.364,0,0,0-.766.469c.08.549-.354.423-.64.48a3.015,3.015,0,0,1-.457,0,1.029,1.029,0,0,0,.126.24c.606.5.651.64.423,1.36-.423,1.3-.846,2.594-1.28,3.9a.694.694,0,0,0,.263.96c.286.229.572.457.857.7a1.571,1.571,0,0,1,.651,1.417c-.046.491-.114.983-.183,1.486-.034.229-.08.457-.137.8.354-.1.685-.1.811-.263a1.143,1.143,0,0,1,.983-.377c.629-.034,1.12-.96.7-1.417-.846-.914-.983-2.16-1.634-3.166-.068-.1.057-.331.1-.537.16.126.251.206.343.274.366-.411.377-.4.766-.137a1.075,1.075,0,0,0,.526.183c.446.011.823.034.857.628.011.274.309.377.549.354.263-.034.32-.3.309-.5a2.389,2.389,0,0,0-.183-.617,7.715,7.715,0,0,1-.743-2.811,9.412,9.412,0,0,0-.24-1.337,1.88,1.88,0,0,1,.114-.549c.148.183.228.274.343.411.126-.229.217-.389.309-.571.5.149.651.766,1.188.926-.08-.446-.16-.834-.228-1.211a3.138,3.138,0,0,0,.64-.149.489.489,0,0,1,.64.149,4.661,4.661,0,0,0,1.3,1.154,2.214,2.214,0,0,1,.366.366c.217.263.423.526.72.9,0-.331.011-.537,0-.743-.034-.274-.091-.56-.126-.834a.5.5,0,0,1,.32-.629,2.861,2.861,0,0,1,1.04.812.378.378,0,0,0-.046-.263,1.164,1.164,0,0,1-.286-.937c.08-.331-.388-.766-.743-.846a2.247,2.247,0,0,1-1.486-1.074.958.958,0,0,0-.549-.491c-.4-.137-.8-.251-1.2-.366-.023.046-.035.091-.057.137.32.16.64.331.96.491C1464.721,945.227,1464.733,945.25,1464.539,945.73Zm-20.6,216.4c-.217.149-.411.286-.606.411-.743.5-1.474,1.063-2.251,1.508a9.634,9.634,0,0,0-1.383.96,7.328,7.328,0,0,1-.845.571,8.231,8.231,0,0,1-2.309.846c-1.314.343-2.514,1.063-3.908,1.12a.281.281,0,0,0-.126.046l-3.634,1.2a3.129,3.129,0,0,1-.629.148.918.918,0,0,0-.743.537,5.2,5.2,0,0,0-.377,2.16c.046.011.091.011.137.023.011-.229.023-.469.046-.811a10.675,10.675,0,0,1,1.749-.823,33.2,33.2,0,0,1,3.668-.788c2.023-.32,4.068-.572,6.1-.834.606-.08,1.257-.228,1.737.366a.2.2,0,0,0,.171.057,2.524,2.524,0,0,0,1.292-.674,8.349,8.349,0,0,0,.548-.811,1.045,1.045,0,0,1,.183-1.052,2.841,2.841,0,0,1,1.44-1.04,2.3,2.3,0,0,0,.937-.674C1444.745,1163.767,1444.356,1162.979,1443.934,1162.133Zm28.776-104.43c-.343.537-.617.948-.868,1.371-.411.686-.766,1.417-1.223,2.057-.9,1.246-1.84,2.457-2.8,3.645a9.658,9.658,0,0,1-1.246,1.223.493.493,0,0,1-.457.035c-.206-.1-.1-.3-.023-.457.1-.194.183-.388.3-.583,1.074-1.828,2.16-3.657,3.222-5.5.332-.571.606-1.177.914-1.76a1.563,1.563,0,0,0-.149-.091,3.185,3.185,0,0,0-.48.651,6.08,6.08,0,0,1-.708,1.349c-.606.834-1.189,1.691-1.772,2.549-.126.183-.217.377-.331.56a1.637,1.637,0,0,1-.309.492c-.183.148-.469.331-.651.3-.308-.069-.24-.4-.194-.663a2.179,2.179,0,0,1,.08-.251c.274-.64.548-1.268.834-1.908.3-.663.606-1.314.914-1.965a3.164,3.164,0,0,0-.663.7,3.36,3.36,0,0,0-.172.354c-.172.251-.286.606-.8.48.263-1.931,1.474-3.486,2.023-5.291a.7.7,0,0,0-.263.251c-.548.926-1.108,1.851-1.623,2.8-.206.377-.423.629-.914.514-.069.514-.126.983-.183,1.451a5.971,5.971,0,0,0-.1.88c.057.971.149,1.943.229,2.914a9.336,9.336,0,0,0,.526,2.789c.286.72.457,1.486.674,2.24.274.937.537,1.863.811,2.8,0,.012.068.012.046.012q1.543-2.983,3.086-5.943a.475.475,0,0,0-.343.172c-.3.457-.537.937-.869,1.371-.274.354-.469.834-.971.926a.735.735,0,0,1-.309-.983,9.443,9.443,0,0,1,.56-1.314c.868-1.646,1.806-3.257,2.64-4.925a7.651,7.651,0,0,1,1.84-2.366C1472.9,1058.354,1472.824,1058.1,1472.71,1057.7Zm-20.833-91.539a15.684,15.684,0,0,0,1.337-1.2,21.66,21.66,0,0,1,2.777-2.64,1.268,1.268,0,0,1,1.143-.377,2.983,2.983,0,0,1,1.451-1.863,1.451,1.451,0,0,0,1.737-.126,1.913,1.913,0,0,0-1.211-1.314.707.707,0,0,0-.846.286c.126.1.24.217.434.389a48.959,48.959,0,0,0-8.662,7.737,1.2,1.2,0,0,0,.354.137c.606.023,1.211.034,1.828.023a.719.719,0,0,0,.423-.137c.411-.309.811-.628,1.211-.96.251-.206.469-.457.731-.64.091-.068.274-.034.411-.034,0,.137.046.32-.023.4a6.2,6.2,0,0,1-.845.8,6.389,6.389,0,0,0-1.783,1.931c-.08.126-.217.263-.217.389,0,.48-.309.686-.651.891-.514.32-1.028.651-1.554.949a6.221,6.221,0,0,0-1.657,1.623c-.08.091-.057.274-.114.549.948-.777,1.794-1.44,2.606-2.137s1.589-1.44,2.411-2.194c-.206-.411.011-.674.354-.948a20.175,20.175,0,0,1,2.891-1.737,10.913,10.913,0,0,0,1.531-.971c-.5-.571-1.029-.16-1.623-.092a2.324,2.324,0,0,1,.011-.64,1.614,1.614,0,0,1,.377-.514.979.979,0,0,0,.149-1.223,1.581,1.581,0,0,0-.343.16c-.8.7-1.6,1.394-2.389,2.1-.549.491-1.085.994-1.646,1.474C1452.265,966.449,1452.025,966.518,1451.876,966.163Zm-9.337,111.161c-3.84-2.88-7.326-6.16-10.994-9.234.217.674.08,1.52.983,1.794a.316.316,0,0,1,.1.08c.846.857,1.714,1.7,2.537,2.594.926.994,1.783,2.057,2.743,3.029.663.663,1.314,1.337,1.966,2a15,15,0,0,0,1.954,1.68,5.582,5.582,0,0,0,.709.4A12.333,12.333,0,0,0,1442.539,1077.325Zm31.976-10.228a5.128,5.128,0,0,0-.549.743,9.5,9.5,0,0,1-2.126,3.143,1.368,1.368,0,0,0-.183.263c-.708,1.029-1.428,2.069-2.137,3.1a1.342,1.342,0,0,1-.149.206c-.366.389-.743.777-1.1,1.166a.505.505,0,0,0-.126.286,7.732,7.732,0,0,0-.114,1.989,3.872,3.872,0,0,1-.023.514,16.847,16.847,0,0,0,.194,3.063c.7-1.3,1.337-2.491,2.046-3.806-.492.286-.583.914-1.269.869.126-.263.229-.457.32-.663.526-1.086,1.029-2.194,1.589-3.269.948-1.851,1.92-3.68,2.9-5.508a1.851,1.851,0,0,1,.583-.674.634.634,0,0,0,.309-.766C1474.63,1067.531,1474.572,1067.325,1474.515,1067.1ZM1452.7,946.884c.011-.034.034-.08.046-.114a6.9,6.9,0,0,1-.514-.491c-.286-.32-.16-.743.251-.777a3.353,3.353,0,0,1,2.72.709,7.27,7.27,0,0,0,.926.617c.023-.034.057-.08.08-.114a4.838,4.838,0,0,0-1.234-1.177c-.217-.137-.411-.308-.617-.457.206-.4-.286-.572-.331-.994a1.881,1.881,0,0,1,.617-.011,3.071,3.071,0,0,1,.617.354c.537.343,1.028.823,1.749.389.126-.08.365.011.548.057a1.936,1.936,0,0,1,.377.183c.251-.16.469-.286.663-.411.24.149.434.263.617.366.331-.183.606-.354.9-.491a1.647,1.647,0,0,1,1.429,0c.743.354.743.4,1.371-.183a1.2,1.2,0,0,0-.183-.068c-1.36-.137-2.708-.286-4.069-.389-1.051-.08-2.125-.057-3.177-.172-.788-.08-1.554.08-2.32.046a5.464,5.464,0,0,0-1.223.092c-.5.091-1.006.251-1.566.4.263.16.434.263.606.366a1.163,1.163,0,0,1-.777.606,1.086,1.086,0,0,0-.846.857c.263.046.491.08.72.126s.469.08.7.149C1451.43,946.518,1452.07,946.7,1452.7,946.884Zm-4.674,47.77c-.217.24-.4.423-.56.617-.137.16-.251.366-.4.514-.24.229-.308.206-.606-.206.389-.468.788-.96,1.2-1.428.286-.331.3-.32-.011-.823-.331.377-.686.732-.983,1.131s-.617.72-1.131.606c-.3.549-.571,1.051-.811,1.509a5.252,5.252,0,0,1,.868.606c.446.457.869.96,1.269,1.463a8.365,8.365,0,0,1,1.474,2.274,14.459,14.459,0,0,0,1.1,2.023c.023.046.1.057.194.1.08-.194.149-.366.217-.548a1.123,1.123,0,0,1-.48-1.051,16.949,16.949,0,0,1,.091-1.874,1.379,1.379,0,0,0-.183-1.04,5.458,5.458,0,0,1-.457-.937c-.1-.24-.149-.48-.469-.56a.3.3,0,0,1-.183-.469.917.917,0,0,0,.034-.331c-.548.331-.594.32-.948-.023.217-.206.434-.411.663-.606A.641.641,0,0,0,1448.025,994.654Zm31.473,100.385h-.148c-.332.5-.629,1.017-.994,1.486-.766.994-1.566,1.966-2.343,2.948-.491.629-.96,1.268-1.486,1.874a1.034,1.034,0,0,0-.149,1.349.932.932,0,0,1,.057.869c-.251.686-.48,1.383-.72,2.08-.092.251-.16.514-.24.766.034.023.08.057.114.08.674-.457,1.371-.9,2.034-1.383a.959.959,0,0,0,.228-.56c.046-.228.012-.48.069-.708a7.07,7.07,0,0,1,1.314-2.514,8.48,8.48,0,0,1,3.109-2.663C1480.069,1097.427,1479.784,1096.227,1479.5,1095.038Zm-3.92-22.685c-.046,0-.091-.011-.125-.011-.24.354-.446.72-.709,1.051-.4.514-.5,1.177-1.005,1.657a9.4,9.4,0,0,0-1.177,1.68l-3.257,4.834a1.433,1.433,0,0,1-.16.206c-.514.48-1.074.937-.9,1.771.011.057-.034.126-.034.194v1.68a2.993,2.993,0,0,0,.263-.354c.834-1.371,1.68-2.731,2.5-4.1,1.2-2.011,2.377-4.034,3.554-6.057a.685.685,0,0,1,.7-.354,5.071,5.071,0,0,1,.674.137C1475.784,1073.862,1475.681,1073.108,1475.578,1072.354Zm-20.091,64.135c-.126-.846-.24-1.577-.343-2.3-.034-.286-.263-.377-.457-.5l-3.805-2.5c-.411-.263-.846-.5-1.337-.789.057.263.1.411.148.617-.274.08-.514.137-.788.206.137.148.251.309.389.434.606.548,1.211,1.1,1.84,1.623,1.188.971,2.388,1.908,3.6,2.846C1454.939,1136.26,1455.179,1136.328,1455.487,1136.488Zm18.262-73.117c-.354.583-.663,1.086-.96,1.589s-.56,1.074-.88,1.577c-.686,1.04-1.394,2.069-2.1,3.1-.377.548-.743,1.109-1.166,1.611a2.163,2.163,0,0,1-1.2.9c.217.937.423,1.851.663,2.914.331-.64.606-1.166.891-1.691.811-1.508,1.646-3.005,2.434-4.525.686-1.3,1.325-2.617,1.988-3.931a1.4,1.4,0,0,1,.274-.434C1474.07,1064.148,1473.955,1063.817,1473.75,1063.371Zm-22.868,92.374a2.652,2.652,0,0,0,.354.434c.891.686,1.794,1.349,2.7,2.023.32.24.651.48.96.72-.171.309-.343.423-.617.274-.183-.1-.388-.194-.571-.309-.948-.617-1.886-1.234-2.823-1.851a.366.366,0,0,0-.16-.012c.069.194.137.366.217.606-.3-.046-.514-.091-.777-.137.732.674,1.417,1.3,2.1,1.92a.558.558,0,0,0,.354.126c.949.034,1.886.046,2.731.057a4.268,4.268,0,0,1,.308-.994,3.387,3.387,0,0,1,.686-.64c-.926-.629-1.863-1.28-2.811-1.92-.046-.034-.137-.08-.171-.069-.423.194-.743-.08-1.1-.206-.1-.035-.263-.1-.3-.069C1451.6,1156.064,1451.282,1155.767,1450.882,1155.745Zm-16.022-78.157c-.011.548.057.971.4,1.2a17.291,17.291,0,0,1,2.754,2.731,12.5,12.5,0,0,1,2.091,2.3.346.346,0,0,0,.1.08c.686.629,1.36,1.257,2.046,1.874.286.263.617.48.971.754,0-.64-.011-1.154,0-1.668a.958.958,0,0,0-.549-.937,36.581,36.581,0,0,1-5.862-4.491C1436.174,1078.868,1435.568,1078.262,1434.86,1077.588Zm21.633,70.957a1.107,1.107,0,0,0,.091-.217c-.08-.8-.16-1.588-.24-2.388a.972.972,0,0,0-.514-.766c-1.314-.846-2.594-1.714-3.886-2.583-.446-.3-.891-.617-1.337-.926a14.329,14.329,0,0,0,1.326,1.429c.434.469,1.074.754,1.417,1.531-.446-.126-.754-.217-1.108-.32.24.354.72.548.457,1.063-.011.023.057.1.1.16a5.078,5.078,0,0,0,.514.583c.811.651,1.634,1.28,2.457,1.908C1455.99,1148.2,1456.242,1148.362,1456.493,1148.545Zm-9.885-176.313c.034.023.057.057.091.08.469-.354.948-.7,1.406-1.074s.891-.777,1.44-1.268c-.709,0-1.314-.046-1.9.011a2.684,2.684,0,0,1-2.126-.731c-.274-.24-.549-.5-.834-.731a4.3,4.3,0,0,0-1.623-1.006c-.274.251-.537.491-.869.8-.148-.343-.251-.583-.343-.777-.126.137-.251.3-.377.434a.791.791,0,0,0,.891.571.692.692,0,0,1,.537.274c.16.32.434.389.72.5a5.6,5.6,0,0,0,.708.32c.491.114.846.629,1.428.469a.369.369,0,0,1,.514.251c.091.309-.114.457-.343.549a2.893,2.893,0,0,1-.629.1,6.3,6.3,0,0,1-1.623,1.634c.389-.046.754-.229,1.12-.24a1.264,1.264,0,0,0,1.006-.56c.137-.172.3-.32.434-.491.286-.377.7-.446,1.211-.606C1447.134,971.329,1446.871,971.786,1446.608,972.232Zm-2.046,150.44c-.023.023-.046.057-.069.08.811.594,1.623,1.211,2.446,1.794.389.274.8.5,1.2.766.788.514,1.566,1.04,2.354,1.566.651.446,1.292.9,1.954,1.36-.331.4-.548.034-.766-.046a5.64,5.64,0,0,1-.686-.366c-.217-.114-.446-.229-.788-.4a7.171,7.171,0,0,0,2.114,1.84,7.749,7.749,0,0,0,2.263,1.36,3.771,3.771,0,0,0-.32-1.92.868.868,0,0,0-.423-.457c-.548-.3-1.108-.594-1.634-.937-1.794-1.211-3.588-2.423-5.5-3.451C1445.979,1123.483,1445.282,1123.071,1444.562,1122.672Zm11.131,16.628c-.035-.629-.092-1.166-.08-1.7a.746.746,0,0,0-.457-.766c-.777-.423-1.543-.892-2.3-1.36-.64-.4-1.269-.846-1.886-1.28-.251-.172-.457-.206-.64.046.1.48,1.017.583.571,1.314.388.434,1.051.617,1.188,1.291.012.034.069.046.1.08,1.028.754,2.057,1.52,3.085,2.263A1.384,1.384,0,0,0,1455.693,1139.3Zm-5.566-2.217c.171.148.331.286.491.411a2.773,2.773,0,0,1,.411.309,8.961,8.961,0,0,0,1.589,1.634,1.819,1.819,0,0,1,.548.411,8.973,8.973,0,0,0,1.646,1.44,1.586,1.586,0,0,0,1.1.514c-.046-.537-.08-1.04-.114-1.554-.011-.229-.148-.332-.343-.423a23.236,23.236,0,0,1-4.091-2.617A.981.981,0,0,0,1450.128,1137.082Zm19.508-11.485a2.165,2.165,0,0,1,1.577.423c.948.64,1.9,1.292,2.857,1.92.457.3.926.56,1.383.846a1.624,1.624,0,0,0-.069-.572,1.351,1.351,0,0,0-.777-1.029c-1.554-.891-3.1-1.828-4.629-2.754a2.226,2.226,0,0,1-.514-.469c-.286-.332.091-.583.149-.9-.343-.183-.663-.354-1.086-.583C1468.916,1123.6,1469.27,1124.6,1469.635,1125.6Zm22.536,40.4c.023-.057.057-.126.08-.183a75.44,75.44,0,0,1-10.205-6.628,7.27,7.27,0,0,0-.891.171c-.251.091-.617,0-.732.377.286.069.526.126.754.183v.857c.309-.251.514-.423.788-.651.64.366,1.291.7,1.909,1.074.56.354,1.086.766,1.634,1.143.48.331.96.651,1.452.96.514.32,1.028.64,1.554.914.3.16.663.206.96.366.777.411,1.531.869,2.3,1.292A1.767,1.767,0,0,0,1492.172,1166Zm-36.124-21.565a5.716,5.716,0,0,0-.183-2.08c-1.326-.274-2.286-1.2-3.406-1.84-.217.537-.217.537-.7.331-.149-.057-.286-.114-.434-.172A21.089,21.089,0,0,0,1456.048,1144.431Zm-9.588-22.856-.091.091a11.231,11.231,0,0,0,.846.8c.72.549,1.486,1.04,2.194,1.6.731.571,1.405,1.2,2.114,1.794.263.217.571.366.811.606a4.952,4.952,0,0,0,1.554,1.017c-.469-1.5-1.326-2.674-1.794-4.08-.194.183-.32.3-.469.423.1.137.171.263.274.377.148.149.3.286.148.5a.524.524,0,0,1-.674.24,2.016,2.016,0,0,1-.514-.274c-.606-.457-1.189-.937-1.794-1.394a2.979,2.979,0,0,0-.766-.48,4.643,4.643,0,0,1-1.554-1.04A3.22,3.22,0,0,0,1446.459,1121.574Zm-3.131-33.93c-2.446-2.114-4.857-4.206-7.36-6.365.16.5.114.983.754,1.12a1.76,1.76,0,0,1,.743.5,5.986,5.986,0,0,1,.537.651c.971,1.188,2.183,2.126,3.154,3.314a15.58,15.58,0,0,0,1.852,1.726,1.716,1.716,0,0,0,.331.183C1443.328,1088.341,1443.328,1087.976,1443.328,1087.644Zm35.461,64.295c.057.354.091.606.148.857.034.114.148.308.206.3.491-.08.7.377,1.063.526,1.154.446,1.989,1.394,3.074,1.977a28.275,28.275,0,0,1,2.446,1.623,15.892,15.892,0,0,0-.708-1.531,1.01,1.01,0,0,0-.629-.594c-.4-.16-.8-.332-1.189-.514A26.8,26.8,0,0,1,1478.789,1151.939Zm-39.747-63.335c-.034.035-.069.08-.1.114.788.869,1.588,1.726,2.354,2.617a16.363,16.363,0,0,0,2.457,2.583,14.291,14.291,0,0,0-.251-2c-.023-.126-.171-.24-.286-.32-1.051-.754-2.114-1.5-3.166-2.24C1439.705,1089.107,1439.374,1088.856,1439.042,1088.6Zm24.708,16.559.1.069c.377-.434.743-.868,1.12-1.3.492-.572.983-1.143,1.486-1.7.548-.617.96-1.383,1.84-1.749-.308-.32-.583-.594-.857-.869A17.412,17.412,0,0,0,1463.75,1105.164Zm-13.474,24.468c1.611,1.1,3.028,2.411,4.663,3.5a1.992,1.992,0,0,0-.046-.594c-.1-.434-.08-.971-.343-1.291s-.788-.411-1.189-.617c-.708-.377-1.406-.754-2.1-1.143C1450.962,1129.894,1450.619,1129.6,1450.276,1129.631Zm10.205-164.279a.9.9,0,0,0-1.051-.057c-.492.286-.994.537-1.486.8-.708.389-1.394.789-2.1,1.154a10.549,10.549,0,0,0-1.954,1.429,3.825,3.825,0,0,0,.24.308,3.011,3.011,0,0,1,.983-.434,4.2,4.2,0,0,0,1.611-.469,4.982,4.982,0,0,1,.4-.766,4.4,4.4,0,0,1,2.068-1.28,7.159,7.159,0,0,1,1.131-.126C1460.367,965.729,1460.424,965.546,1460.482,965.352Zm13.634,157.182a1.085,1.085,0,0,0-.617-1.017c-.583-.32-1.143-.709-1.7-1.074q-2.177-1.423-4.354-2.834a1.626,1.626,0,0,0-.469-.114c.114.32.206.56.286.8s.16.469.24.72a2.07,2.07,0,0,1,2.125.537,1.534,1.534,0,0,0,.32.206,24.614,24.614,0,0,1,2.3,1.634A5.375,5.375,0,0,0,1474.115,1122.534Zm-38.616-52.729c.148.183.217.274.286.354.457.469,1.109.754,1.337,1.429.446.091.537.663.994.72.789.788,1.577,1.589,2.377,2.377a2.157,2.157,0,0,0,.354.286c.457.274.983.457,1.212,1.017.034.08.206.1.434.217-.08-.4-.046-.777-.217-.948a18.408,18.408,0,0,0-1.6-1.394c-1.257-1.051-2.526-2.1-3.806-3.131A3.011,3.011,0,0,0,1435.5,1069.805Zm7.908,20.97a1.176,1.176,0,0,0-.457-1.36c-1.063-.789-2.057-1.657-3.063-2.5-.869-.731-1.726-1.5-2.594-2.24l-.1.069c.137.4.274.8.411,1.211.48.046.926.012,1.269.423.526.617,1.1,1.212,1.68,1.783.834.846,1.691,1.657,2.548,2.48A3.327,3.327,0,0,0,1443.408,1090.776Zm35.1,60.055c.423.046.811-.035,1.063.126,1.109.708,2.171,1.474,3.257,2.217.366.251.755.469,1.257.789-.24-.766-.4-1.3-1.086-1.646-1.383-.7-2.709-1.531-4.057-2.3-.217-.126-.446-.206-.754-.354C1478.321,1150.133,1478.412,1150.51,1478.5,1150.831Zm-27.05-28.422c-.229-.834-.434-1.6-.629-2.366a2.84,2.84,0,0,1-.16-.8,10.67,10.67,0,0,1,.172-1.212,3.267,3.267,0,0,1-.834.48c-.64.149-.857.72-1.3,1.017.331.354.606.64.891.926a.837.837,0,0,0,.309.229,1.018,1.018,0,0,1,.686.709A2.354,2.354,0,0,0,1451.453,1122.409Zm25.645-18.491a.72.72,0,0,1,.091.1c.229-.114.446-.251.674-.343a6.291,6.291,0,0,0,2.308-1.749c.629-.663.4-1.36.309-2.183C1479.3,1101.2,1478.2,1102.558,1477.1,1103.918Zm.457,30.387c-.091-.469-.046-.834-.434-1.063-1.223-.72-2.446-1.463-3.668-2.206-.731-.434-1.451-.88-2.183-1.326.069.4.114.811.48.971a18.046,18.046,0,0,1,2.628,1.589c.663.446,1.314.9,1.977,1.337C1476.709,1133.848,1477.087,1134.042,1477.555,1134.305Zm1.452-41.747a83.54,83.54,0,0,0-5.806,7.84c.183.149.32.263.434.354a20.333,20.333,0,0,1,1.234-2.274c.9-1.268,1.851-2.514,2.857-3.7.354-.423.743-1.006,1.52-.846C1479.178,1093.461,1479.109,1093.061,1479.007,1092.558Zm-39.861-1.611c-.057.046-.1.091-.16.137.046.1.057.263.126.3a6.03,6.03,0,0,1,1.646,1.44c.834.9,1.646,1.84,2.457,2.766a1.345,1.345,0,0,0,.8.606c-.069-.64-.126-1.234-.183-1.749-.423-.206-.777-.366-1.12-.549a15.713,15.713,0,0,1-2.708-2.217C1439.74,1091.415,1439.431,1091.187,1439.145,1090.947Zm16.959,72.98a1.17,1.17,0,0,0-.651-.937c-.594-.274-1.166-.56-1.771-.8a7.979,7.979,0,0,1-2.24-1.245.411.411,0,0,0-.3-.1c-.423.011-.834.034-1.257.057a2.06,2.06,0,0,0,.731.56c.834.377,1.68.743,2.526,1.1.4.16.823.263,1.212.446C1454.916,1163.253,1455.453,1163.573,1456.1,1163.927Zm7.166-114.144c.057,0,.114.011.183.011a4.859,4.859,0,0,0,.4-1.211,9.419,9.419,0,0,1,.686-3.017c.08-.206.149-.423.217-.629a3.932,3.932,0,0,0-1.074,1.154,13.683,13.683,0,0,1-1.017,1.909C1462.87,1048.629,1463.076,1049.211,1463.27,1049.783Zm9.2,65.917c-.012-.514-.08-.868-.617-1.051a7.618,7.618,0,0,1-1.371-.743c-.7-.446-1.36-.926-2.057-1.394-.194.08-.377.172-.594.251.034.126.034.251.091.286A25.871,25.871,0,0,0,1472.47,1115.7Zm-2.229,11.314a.778.778,0,0,0,.343.812,3.272,3.272,0,0,0,.64.3,8.789,8.789,0,0,1,2.537,1.371c.857.583,1.634,1.257,2.457,1.886a2.531,2.531,0,0,0,.434.217,1.83,1.83,0,0,0-.926-1.337c-1.486-.823-2.926-1.749-4.4-2.617C1471.007,1127.437,1470.664,1127.254,1470.241,1127.014Zm-11.314-88.214c.354-.343.24-.788.377-1.154.423-1.108.891-2.206,1.371-3.3.411-.96.868-1.9,1.292-2.846a.893.893,0,0,0-.057-.96c-.263.663-.5,1.28-.777,1.9-.3.686-.629,1.36-.926,2.057-.16.4-.251.823-.4,1.223-.3.788-.571,1.577-.937,2.331C1458.71,1038.343,1458.653,1038.538,1458.927,1038.8Zm-11.782,128.052c-.023.046-.057.091-.08.137a43.381,43.381,0,0,0,5.806,3.109c-.011-.206-.023-.423-.149-.526a4.673,4.673,0,0,0-1.017-.686c-1.36-.606-2.731-1.177-4.1-1.771A2.962,2.962,0,0,1,1447.145,1166.853Zm22.959-50.969c-.035.046-.08.1-.114.149.446.366.88.743,1.337,1.086.469.366.7.96,1.245,1.234.206.1.411.172.766.309-.137-.572-.24-1.006-.354-1.451C1472.012,1116.775,1471.064,1116.329,1470.1,1115.883Zm16.285,48.512c-.023.023-.034.046-.057.069a.711.711,0,0,0,.149.171c1.1.846,2.183,1.7,3.291,2.526.686.514.7.5,1.7.354C1489.76,1166.475,1488.08,1165.436,1486.389,1164.4Zm-40.147,2.023c-.08-.88.332-1.1,1.2-.937.034-.32.069-.64.1-1.017-.331-.171-.709-.377-1.086-.583.217.3.206.514-.034.731-.457.423-.9.846-1.383,1.28C1445.454,1166.064,1445.819,1166.236,1446.242,1166.418Zm-2.023-61.552v-1.7a1.358,1.358,0,0,1-1.257-.354c-.594-.469-1.177-.96-1.76-1.428-.114-.091-.251-.183-.366-.263-.035.034-.057.08-.091.114.274.3.549.606.823.891s.572.594.869.88c.308.309.629.606.926.914C1443.625,1104.2,1443.888,1104.5,1444.219,1104.866Zm36.262,41.027c-.343.149-.583.251-.9.4.606.388,1.143.731,1.748,1.108a16.036,16.036,0,0,0-.72-3.211c-.514.274-.514.274-.389.686C1480.309,1145.208,1480.389,1145.528,1480.481,1145.893Zm8.251,23.176a14.982,14.982,0,0,0-3.234-2.617,20.7,20.7,0,0,0-3.348-2.343c2,1.714,4.194,3.188,6.24,4.823A1.541,1.541,0,0,0,1488.732,1169.07Zm-9.508-29.222c-.137-.423-.16-.708-.5-.914-1.44-.88-2.857-1.806-4.274-2.708-.274-.183-.56-.354-.926-.583.034.171.023.286.068.32C1475.43,1137.231,1477.258,1138.5,1479.224,1139.848Zm-37.256-42.627c.469.72,1.12,1.28,1.634,2.046-.274.091-.446.16-.571.206a5.388,5.388,0,0,0,.48.537c.183.16.389.3.629.491v-1.989C1443.2,1098.352,1442.665,1097.655,1441.968,1097.221Zm25.348-44.638c-.24.023-.48.046-.754.069-.08.171-.16.377-.263.56s-.263.354-.343.548c-.251.594-.446.823.308,1.44A8.392,8.392,0,0,0,1467.316,1052.583Zm-33.45,120.83a.887.887,0,0,1-1.074.149c-.674-.3-1.326-.617-2-.9a6.887,6.887,0,0,0-.686-.24c-.023.046-.046.1-.069.149a6.97,6.97,0,0,0,2.149,1.326,6.161,6.161,0,0,0,2.411-.16C1434.345,1173.607,1434.105,1173.515,1433.865,1173.412Zm40.353-141.834a10.172,10.172,0,0,0-2.229,2.308,8.574,8.574,0,0,0-1.589,2.788A40.53,40.53,0,0,1,1474.218,1031.578Zm-32.787,68.169a25.42,25.42,0,0,0,2.766,2.914c.1-1.029.08-1.029-.663-1.5C1442.814,1100.718,1442.128,1100.227,1441.431,1099.747Zm13.817-150.166c.423-.069.743-.286.971.137-.332.5-1.154.572-1.314,1.349a4.634,4.634,0,0,1,.869-.423.52.52,0,0,0,.5-.48,1.533,1.533,0,0,1,.16-.411c.263-.5.183-.754-.354-.971-.114-.046-.217-.1-.354-.172C1455.579,948.93,1455.442,949.193,1455.248,949.581Zm-2.743,12.445a.532.532,0,0,0-.08-.08l-2.914,2.674c.057.251.1.457.149.7C1450.642,964.186,1451.568,963.112,1452.5,962.026Zm24.147,130.372a.611.611,0,0,0,.126.057c.583-.491,1.166-.983,1.806-1.52-.069-.274-.16-.651-.274-1.154C1477.7,1090.73,1477.178,1091.564,1476.652,1092.4Zm-10.811-66.878c-.32.48-.617.972-.983,1.429a1.449,1.449,0,0,0-.251,1.108,6.108,6.108,0,0,1,.937-1.131,1.8,1.8,0,0,0,.663-1.188A2.827,2.827,0,0,0,1465.841,1025.521Zm-27.427,147.686a27.263,27.263,0,0,0-3.92-1.874,3.866,3.866,0,0,0,.72.5c.663.4,1.3.823,1.989,1.166C1437.534,1173.184,1437.877,1173.515,1438.414,1173.207Zm21.748-206.929c-.034-.023-.069-.034-.1-.057-.457.251-.914.514-1.383.766a1.7,1.7,0,0,0-.731.72c.56-.091,1.017-.171,1.52-.251C1459.693,967.066,1459.933,966.666,1460.161,966.278Zm1.406,73.4a14.76,14.76,0,0,0,1.463-2.514A2.542,2.542,0,0,0,1461.567,1039.681Zm-19.771,76.443c.091.423.172.823.274,1.257.846-.423,1.166.366,1.7.64.194-.251.114-.411-.1-.56C1443.054,1117.037,1442.448,1116.592,1441.8,1116.123ZM1450.436,969a2.136,2.136,0,0,0,1.223-.971c-1.406-.023-1.76.046-1.989.377C1449.956,968.563,1450.379,968.529,1450.436,969Zm16.342,8.4a3.269,3.269,0,0,0-1.566-1.211c.046.4.091.731.137,1.074C1465.841,977.306,1466.31,977.351,1466.778,977.4Zm-22.525,136.463c.057-.023.126-.046.183-.069-.057-.251-.034-.617-.183-.743-.526-.411-1.131-.743-1.7-1.109a.805.805,0,0,0-.091.114C1443.054,1112.649,1443.659,1113.255,1444.254,1113.86Zm1.84,49.861c.034-.457.069-.846.1-1.28-.331-.149-.7-.309-1.074-.48A3.032,3.032,0,0,0,1446.094,1163.721Zm31.1-23.85a.368.368,0,0,0-.08.046c-.011.011,0,.034.011.046l1.828,1.349c.263.194.526.377.811.571a.6.6,0,0,0-.274-.7C1478.721,1140.716,1477.944,1140.294,1477.19,1139.871Zm2.925,8.182a.683.683,0,0,1-.046.091c.651.491,1.3.983,1.966,1.474.023-.023.057-.046.08-.068-.16-.4-.332-.811-.48-1.177a5.286,5.286,0,0,1-.811-.08A3.04,3.04,0,0,1,1480.115,1148.053Zm-28.387,11.44c-.766-.469-1.394-.857-2.034-1.246-.034.034-.057.069-.091.1.263.389.88.583.64,1.246C1450.733,1159.561,1451.156,1159.527,1451.728,1159.493Zm-24.982-63.472a11.518,11.518,0,0,0-2.548-2.56A15.445,15.445,0,0,0,1426.746,1096.021Zm27.4-143.286c.5-.24.9-.457,1.3-.64a.693.693,0,0,0,.423-.766A2.4,2.4,0,0,0,1454.15,952.735Zm26.193,202.529c-.526-.332-.96-.606-1.5-.948a2.582,2.582,0,0,0,.434,1.428C1479.589,1155.379,1479.589,1155.379,1480.344,1155.265Zm-31.5-181.5.1.1c.194-.172.377-.343.583-.5a1.984,1.984,0,0,1,.526-.366c.594-.206.708-.343.7-1.051A12.514,12.514,0,0,0,1448.848,973.763Zm-4.789,124.224a.6.6,0,0,0-.229-.777c-.469-.377-.926-.777-1.383-1.166a1.091,1.091,0,0,0-.206-.091l-.068.1C1442.779,1096.673,1443.385,1097.3,1444.059,1097.987Zm.469,9.565c-.446-.114-.834-.206-1.223-.3.514.389.7,1.074,1.314,1.429C1444.573,1108.249,1444.551,1107.906,1444.528,1107.552Zm8.857-152.337c.034.046.08.08.114.126.64-.5,1.269-.994,1.954-1.531-.171-.069-.228-.126-.274-.114a.833.833,0,0,0-.411.171C1454.287,954.3,1453.842,954.758,1453.385,955.215Zm11.177,84.648a4.523,4.523,0,0,0-1.3,2.274c.137-.08.332-.125.389-.228C1463.956,1041.269,1464.219,1040.629,1464.561,1039.863Zm.914-26.4a.631.631,0,0,1-.1-.08,9.252,9.252,0,0,0-1.634,2.914c.48-.686.926-1.383,1.349-2.091C1465.236,1013.967,1465.35,1013.716,1465.476,1013.464Zm-18.285-40.581c-.114.24-.229.469-.332.674.206.137.332.251.48.331a.626.626,0,0,0,.32.1c.034,0,.091-.172.1-.263.023-.194.023-.4.034-.56C1447.6,973.077,1447.431,973,1447.191,972.883Zm-8.605,199.284c1.074.96,1.863,1.234,2.491.891C1440.265,1172.761,1439.5,1172.487,1438.585,1172.167Zm13.154.263a16.245,16.245,0,0,0,2.183-.217c-.32-.08-.64-.069-.937-.126a10.206,10.206,0,0,1-1.063-.32C1451.842,1172.007,1451.8,1172.189,1451.739,1172.429Zm-28.81-87.848c-.011.034-.034.057-.046.091l1.7,1.943a5.453,5.453,0,0,0-1.211-1.874A1.231,1.231,0,0,0,1422.929,1084.582Zm53.815,60.043c.011-.057.011-.114.023-.171-.343-.171-.549-.56-1.086-.594.1.4.194.743.308,1.189C1476.3,1144.865,1476.515,1144.739,1476.744,1144.625Zm-6.971-23.348c-.64-.4-1.28-.811-2.057-1.3.1.366.172.583.24.823C1468.71,1120.557,1469.11,1121.277,1469.772,1121.277Zm19.394,47.792a.694.694,0,0,1-.012.149l1.657.206a1.768,1.768,0,0,0-.571-.457c-.206-.114-.411-.206-.606-.3C1489.463,1168.83,1489.315,1168.944,1489.166,1169.07Zm-24.514-118.555c-.023-.011-.057-.023-.08-.034-.183.194-.388.377-.56.594-.354.434-.354.537,0,1.12C1464.241,1051.6,1464.447,1051.052,1464.653,1050.514Zm-21.1,71.449c.149-.5-.034-.743-.743-.983C1442.894,1121.963,1442.916,1121.986,1443.556,1121.963Zm22.148-8.148c.149.114.32.309.388.274.446-.172.823.046,1.269.217C1466.79,1113.518,1466.436,1113.415,1465.7,1113.815Zm-22.079,6.388c.594.286.754.937,1.463,1.143-.343-.549-.629-1.006-.9-1.463C1444.071,1119.94,1443.922,1120.02,1443.625,1120.2Zm6.114,42.33-.069.137c.594.309,1.2.617,1.806.926.046.023.149-.046.343-.1A10.453,10.453,0,0,0,1449.739,1162.533Zm41.038,7.68c-.046-.263-.08-.411-.1-.537-.549-.1-1.04-.206-1.531-.3a.559.559,0,0,1-.046.125C1489.623,1169.721,1490.149,1169.95,1490.777,1170.213Zm-17.313-109.082a1.2,1.2,0,0,0-.617.96c.263.023.492.057.811.08C1473.578,1061.817,1473.532,1061.508,1473.464,1061.131Zm-14.1-96.91a1.841,1.841,0,0,0,1.005-2.011A4.193,4.193,0,0,1,1459.362,964.221Zm-37.221,131.1a2.715,2.715,0,0,0-1.817-1.383c.526.423.96.777,1.406,1.12C1421.854,1095.164,1422,1095.233,1422.14,1095.324Zm49.678-42.33c-.023-.274-.023-.48-.057-.7-.023-.114-.08-.229-.148-.434-.194.377-.343.686-.514,1.017C1471.35,1052.926,1471.555,1052.949,1471.818,1052.994Zm-5.84,46.844a2.034,2.034,0,0,0,.983-.88c-.172-.069-.309-.126-.469-.194C1466.31,1099.152,1466.138,1099.5,1465.978,1099.838Zm22.262,71.974c.366-.08.674-.149,1.074-.24C1488.435,1171,1488.343,1171.024,1488.24,1171.813Zm-24.879-144.852a.66.66,0,0,1,.092.08,3.268,3.268,0,0,0,.846-1.828C1463.944,1025.887,1463.647,1026.424,1463.361,1026.961Zm-4.217,141.606c.1.411.332.846-.354,1.12.308.114.48.171.663.24C1459.544,1169.207,1459.476,1168.864,1459.144,1168.567Zm-10.091,3.246c.571.663,1.063.811,1.486.469C1450.07,1172.132,1449.625,1172,1449.053,1171.813Zm32.353-13.451c.011-.046.011-.091.023-.137-.355-.091-.709-.194-1.154-.309.1.3.16.469.229.674C1480.835,1158.5,1481.121,1158.43,1481.406,1158.362Zm-6.32-88.317c-.057-.023-.114-.034-.171-.057-.16.343-.32.674-.48,1.017.023.011.046.034.069.046.24-.195.48-.377.72-.583C1475.178,1070.319,1475.132,1070.182,1475.087,1070.045Zm-35.279-88.6c.366.286.64.32.868.126.08-.068,0-.309-.023-.56C1440.334,981.18,1440.117,981.283,1439.808,981.443Zm42.078,26.067c.845-.389.948-.56.674-.925C1482.332,1006.893,1482.115,1007.2,1481.887,1007.51Zm2.354,163.239c.309.229.617.457.937.674.046.023.137-.034.229-.057A1.525,1.525,0,0,0,1484.241,1170.75Zm11.782-1.566c-.434-.114-.766-.571-1.28-.446A1.776,1.776,0,0,0,1496.023,1169.184Zm-83.162-82.26c.046-.034.091-.08.137-.114-.274-.354-.549-.72-.834-1.074l-.137.1A5.387,5.387,0,0,0,1412.861,1086.924Zm27.565,23.736h.583a1.506,1.506,0,0,0-.788-.686C1440.311,1110.249,1440.357,1110.432,1440.425,1110.661Zm-18.673-35.336-.983-.834a.776.776,0,0,0-.091.114C1421.043,1074.8,1421,1075.45,1421.752,1075.325Zm21.6,39.05c.206.309.366.7.891.663A1.051,1.051,0,0,0,1443.351,1114.375Zm43.77,57.38a1.047,1.047,0,0,1,.114-.1c-.206-.16-.423-.32-.64-.48-.16.08-.3.16-.48.263C1486.5,1171.55,1486.812,1171.652,1487.12,1171.755Zm-11.931-33.267c-.343-.229-.572-.389-.812-.549-.034.023-.057.046-.091.069.091.229.183.446.274.7C1474.767,1138.637,1474.927,1138.579,1475.19,1138.488Zm-3.2-154.12c-.011-.434-.194-.571-.56-.549-.035.137-.069.263-.114.423C1471.555,984.288,1471.738,984.323,1471.99,984.368ZM1411.2,1088.021c-.046.034-.08.057-.126.091.194.56.194.56.766.88C1411.581,1088.593,1411.386,1088.307,1411.2,1088.021Zm32.559,38.284c.32-.263,0-.606.251-.914C1443.522,1125.586,1443.522,1125.643,1443.762,1126.306Zm18.788-79.677c-.629.434-.674.469-.606.663.023.08.194.1.309.16C1462.344,1047.177,1462.424,1046.96,1462.55,1046.629Zm-43.416,45.015c.011.56.434.56.834.594C1419.695,1092.044,1419.42,1091.839,1419.135,1091.644Zm17.919,78.431c.183-.149.343-.286.5-.411a.78.78,0,0,0-.034-.091c-.32.057-.64.1-1.108.183C1436.723,1169.9,1436.883,1169.984,1437.054,1170.075Zm46.113-167.388c.331.034.4.423.651.194.217-.194.091-.411-.1-.617A5.674,5.674,0,0,1,1483.167,1002.688Zm-8.617,1.726c.754-.069.754-.069.948-.606C1475.155,1004.025,1474.858,1004.219,1474.55,1004.413Zm-3.966,43.29c-.08-.274-.137-.491-.194-.7-.034,0-.08.011-.114.011-.057.217-.114.434-.183.708C1470.264,1047.714,1470.356,1047.714,1470.584,1047.7Zm-48.215,22.891a1.381,1.381,0,0,0-.08-1.166A1.491,1.491,0,0,0,1422.369,1070.594Zm5.44,19.371c.206.274.366.491.537.708C1428.3,1090.01,1428.3,1090.01,1427.809,1089.964Zm13.737,22.833c-.194-.126-.388-.263-.629-.411C1440.905,1112.946,1440.905,1112.946,1441.545,1112.8Zm-28.01-32.5c.148-.389.012-.606-.686-1.006C1413.123,1079.679,1413.306,1079.953,1413.535,1080.3Zm-1.52-11.5c-.114.149-.229.24-.229.32s.1.194.16.3c.114-.069.217-.137.331-.206C1412.2,1069.1,1412.129,1068.982,1412.015,1068.8Zm27.759,35.336c-.069.034-.137.08-.206.114.046.206.091.4.148.663.172-.137.274-.217.446-.354A4.877,4.877,0,0,0,1439.774,1104.135Zm33.667,16.342c.046-.057.1-.1.148-.16-.091-.469-.091-.469-.663-.366C1473.1,1120.123,1473.27,1120.294,1473.441,1120.477Zm-44.033-18.365c.034-.046.069-.08.1-.126-.229-.16-.469-.332-.7-.492l-.1.137A1.023,1.023,0,0,0,1429.408,1102.112Zm-22.148-13.337c.046-.034.08-.08.126-.114a.86.86,0,0,0-.788-.606C1406.884,1088.364,1407.067,1088.57,1407.261,1088.776Zm51.415,78.157c.229.171.377.274.549.4C1459.259,1166.807,1459.247,1166.8,1458.676,1166.933Zm27.942-9.017c-.309.309-.046.366.114.423a1.568,1.568,0,0,0,.389-.046C1486.892,1158.121,1486.766,1158.019,1486.618,1157.916Zm-80.591-65.872c.32.08.526.137.732.183a.4.4,0,0,1,.046-.1c-.091-.114-.172-.229-.251-.332C1406.392,1091.873,1406.266,1091.93,1406.026,1092.044Zm4.08-5.017c.046-.034.091-.057.137-.091-.16-.229-.309-.457-.469-.686-.046.034-.091.057-.137.091C1409.8,1086.57,1409.958,1086.8,1410.106,1087.027Zm37.644,74.4a.467.467,0,0,0,.011.126c.16.069.309.137.56.24-.069-.24-.1-.366-.137-.526C1448.013,1161.321,1447.888,1161.367,1447.751,1161.424Zm22.011-117.984c-.274.366-.274.366.069.48C1469.8,1043.737,1469.784,1043.589,1469.761,1043.44ZM1442.528,1148.5c-.194-.228-.309-.354-.423-.491-.057.057-.114.114-.183.171C1442.048,1148.3,1441.877,1148.693,1442.528,1148.5Zm10.914-187.25c-.023-.023-.046-.057-.069-.08-.16.194-.308.377-.377.457C1453.076,961.558,1453.259,961.4,1453.442,961.249Zm-13.988,138.737v.491h.651C1439.831,1100.272,1439.671,1100.158,1439.454,1099.987Zm23.7-151.274c-.183.411-.08.5.263.5C1463.327,949.055,1463.27,948.93,1463.156,948.713Zm-24.57,221.054c-.069-.366-.286-.286-.514-.16C1438.242,1169.664,1438.414,1169.71,1438.585,1169.767Zm10.445-15.588c.023-.057.057-.1.08-.16a4.473,4.473,0,0,0-.411-.194c-.023-.012-.069.08-.137.16C1448.745,1154.053,1448.882,1154.122,1449.031,1154.179Zm3.943-184.633c.526-.1.423-.274.206-.526C1453.122,969.192,1453.065,969.318,1452.973,969.546Zm-45.724,119.972c.057-.057.1-.114.16-.183-.137-.1-.274-.217-.423-.32-.034.034-.057.069-.091.1C1407.021,1089.244,1407.135,1089.381,1407.249,1089.519Zm63.815-79.06c.389-.183.389-.183.389-.537C1471.3,1010.139,1471.178,1010.3,1471.064,1010.459Zm-59.015,78.74c-.034.046-.08.08-.114.126.126.114.24.229.366.354l.1-.1C1412.289,1089.45,1412.164,1089.324,1412.049,1089.2Zm51.8-139.16a.641.641,0,0,1-.137.046c.057.149.114.3.16.457l.1-.034C1463.933,950.358,1463.887,950.2,1463.853,950.038Zm-45.644,116.075c.24-.217.24-.217.183-.514C1418.312,1065.805,1418.255,1065.965,1418.209,1066.114Zm56.375,59.712c-.046.023-.091.057-.137.08.068.114.137.217.206.331.046-.034.091-.057.137-.091C1474.732,1126.043,1474.652,1125.94,1474.584,1125.826Zm4.069-123.675-.092-.092c-.114.1-.228.206-.366.331.137.069.229.114.354.183C1478.584,1002.413,1478.618,1002.276,1478.652,1002.151Zm-72.923,85.494c-.023.3.091.434.457.366C1405.981,1087.85,1405.855,1087.747,1405.729,1087.644Zm57.849-43.541a1.174,1.174,0,0,1,.172.08c.068-.183.148-.366.217-.549a.573.573,0,0,0-.149-.057C1463.739,1043.749,1463.659,1043.932,1463.579,1044.1Zm27.142,111.378c.046.023.091.057.137.08a.938.938,0,0,0,.114-.274.232.232,0,0,0-.16-.126.239.239,0,0,0-.171.126C1490.629,1155.344,1490.7,1155.424,1490.72,1155.482Zm-75.368-72.306c-.16-.206-.263-.332-.4-.5C1414.849,1083.05,1415.032,1083.107,1415.352,1083.176Zm64.957,60.466c.046-.309-.034-.457-.366-.32C1480.092,1143.459,1480.2,1143.551,1480.309,1143.642Zm-33.141,6.171a1.24,1.24,0,0,0,.126-.1c-.1-.114-.206-.217-.32-.332-.023.023-.057.046-.08.069A3.837,3.837,0,0,1,1447.168,1149.813Zm-34.353-82.443c-.046-.023-.08-.057-.126-.08a1.784,1.784,0,0,1-.114.263c.034.011.057.034.091.046A2.5,2.5,0,0,0,1412.815,1067.371Zm48.33-97.962a.194.194,0,0,0,.011-.08,1.681,1.681,0,0,0-.24-.011.867.867,0,0,0-.206.1l.034.069C1460.881,969.455,1461.019,969.432,1461.144,969.409Zm-31.107,204.529a.65.65,0,0,1,.046-.137,1.788,1.788,0,0,1-.263-.08c-.012.057-.023.114-.034.16C1429.866,1173.9,1429.957,1173.915,1430.037,1173.938Zm65-3.657c.011.023.023.057.034.08.1-.034.194-.08.3-.114a1.225,1.225,0,0,1-.046-.114A2.215,2.215,0,0,1,1495.04,1170.281Zm-46.227-19.508a.086.086,0,0,0-.011-.057c-.1-.08-.206-.149-.3-.229-.012.034-.046.091-.034.114a1.3,1.3,0,0,0,.229.206C1448.722,1150.819,1448.768,1150.785,1448.813,1150.773Zm9.177,9.817c.034-.023.069-.034.1-.057-.046-.08-.091-.16-.137-.251-.034.023-.091.046-.091.057C1457.91,1160.43,1457.956,1160.51,1457.99,1160.59Z" transform="translate(-1361.181 -942.609)" fill="#af947d"/>
      <path id="パス_11185" data-name="パス 11185" d="M1396.309,992.261c-.331-.183-.663-.354-1.028-.548.114.194.217.4.343.594s.274.389.423.571c.16.206.331.4.5.606.148.183.274.389.617.3-.057-.217-.114-.411-.16-.606a.459.459,0,0,1,.1-.057,6.446,6.446,0,0,1,.468.674,4.8,4.8,0,0,0,1.52,1.726,1.087,1.087,0,0,0,1.383.046c.983-.823,2.217-.949,3.337-1.406a8.249,8.249,0,0,1,3.154-.709,4.638,4.638,0,0,0,2.08-.7c-.469-.206-.891-.389-1.291-.571a5.127,5.127,0,0,1-.777-.423c-.4-.274-.708-.606-.366-1.166a1.538,1.538,0,0,0-.388-.148,8.792,8.792,0,0,1-2.411-1.074c-.228-.114-.411-.263-.331-.56a.513.513,0,0,1,.629-.343,1.883,1.883,0,0,1,.606.194c.674.377,1.326.789,2,1.154a7.3,7.3,0,0,0,.834.309c.24-.686.7-.823,1.269-.446.526.343,1.04.7,1.566,1.04a6.232,6.232,0,0,0,2.263.9,22.916,22.916,0,0,0,3.737.48c1.212.046,2.389.32,3.577.469a10.86,10.86,0,0,0,2.514.137c1.006-.114,2.023-.1,3.029-.137a2.174,2.174,0,0,1,.377.069c.1.023.251.08.309.034.48-.331.971-.034,1.451-.057,1.2-.057,2.32.468,3.508.411a10.405,10.405,0,0,1,1.143.194c1.269.091,2.537.172,3.806.217.9.034,1.806.034,2.72.034.274,0,.526,0,.64.3a6.629,6.629,0,0,1-.663.606,1.347,1.347,0,0,1-.64.251c-.64.046-1.291.069-1.943.057-.56,0-1.131-.023-1.692-.069-1.2-.1-2.388-.217-3.588-.331-.88-.08-1.76-.16-2.628-.251a2.638,2.638,0,0,1-2.126-1.04,8.177,8.177,0,0,0-.96.217,9.528,9.528,0,0,1-4.8.491c-.88-.126-1.76-.274-2.64-.354-.755-.069-1.509-.011-2.263-.069a9.568,9.568,0,0,1-3.589-.64.8.8,0,0,1-.971.423,1.053,1.053,0,0,0-.8.183c-.332.217-.686.389-.983.629a2.849,2.849,0,0,1-1.68.606,7.241,7.241,0,0,0-2.537.754c-1.177.537-2.366,1.074-3.554,1.6a1.809,1.809,0,0,1-1.429.137v.491c-.149-.034-.274-.023-.331-.08a2.683,2.683,0,0,0-1.189-.606.624.624,0,0,1-.274-.171,2.7,2.7,0,0,0-1.874-.846c-.057,0-.114-.091-.251-.194.206-.091.343-.137.514-.217a2.571,2.571,0,0,0-.24-.251,13.529,13.529,0,0,1-2.228-2.274.514.514,0,0,0-.663-.229,3.743,3.743,0,0,1-1.36.309.609.609,0,0,0-.354.126,13.024,13.024,0,0,1-2.446,1.177c-.24.091-.434.309-.674.354a6.458,6.458,0,0,1-1.406.16,6.05,6.05,0,0,1-3.177-.754,3.613,3.613,0,0,0-.9-.354.911.911,0,0,0-1.234.491c-.594.937-1.154,1.886-1.749,2.823a2.449,2.449,0,0,1-2.629.96.326.326,0,0,1-.24-.457,11.7,11.7,0,0,1,.617-1.634,5.944,5.944,0,0,0,.548-1.84c-.7.069-1.337.126-1.977.194a1.068,1.068,0,0,1-.251.046c-.537-.126-.846.206-1.143.56a2.292,2.292,0,0,1-2.377.754,6.151,6.151,0,0,0-.7-.057,2.559,2.559,0,0,1,.5-3.006,9.364,9.364,0,0,1,1.634-1.383c1.257-.72,2.274-1.794,3.6-2.388.388-.171.754-.366,1.246-.606a2.3,2.3,0,0,0-1.1-.366c-1.04-.057-2.068-.126-3.108-.08a3.7,3.7,0,0,0-1.268.457c-.7.3-1.383.606-2.069.914a3.5,3.5,0,0,0-.743.377,2.871,2.871,0,0,1-3.188.149.752.752,0,0,1-.3-.96,11.581,11.581,0,0,1,.823-1.143c.069-.091.16-.171.3-.331a2.456,2.456,0,0,0-.446-.034,2.037,2.037,0,0,1-2.194-1.566.864.864,0,0,1,.172-.663,2.485,2.485,0,0,1,1.6-.891c1.074-.126,2.137-.309,3.211-.48,1.429-.229,2.857-.446,4.285-.7.743-.126,1.474-.331,2.217-.48.948-.206,1.9-.4,2.846-.594.594-.114,1.2-.183,1.794-.3a1.457,1.457,0,0,1,.96.023.649.649,0,0,0,.251.046,8.806,8.806,0,0,1,3.326.743,18.432,18.432,0,0,0,2.606.514,3.366,3.366,0,0,0,1.154-.137c.206-.046.411-.114.469-.389.057-.3.286-.434.56-.56.663-.3,1.291-.674,1.966-.96a5.934,5.934,0,0,1,1.12-.263,12.382,12.382,0,0,0,3.28-.72c.251-.126.469-.16.651.16.069.114.331.16.5.137.914-.069,1.829-.171,2.743-.24.72-.057,1.452-.069,2.331-.114-.606-.366-1.2-.057-1.783-.343a2.361,2.361,0,0,1,1.292-.011,5.724,5.724,0,0,0,2.491.1c1.371-.194,2.754-.263,4.137-.411.708-.08,1.417-.183,2.114-.32a24.313,24.313,0,0,1,4.446-.594c.194,0,.389-.057.571-.068a2.359,2.359,0,0,1,.492.023c.126.011.263.1.366.08a.973.973,0,0,1,1.085.32c.149-.24.24-.411.354-.56.091-.1.24-.263.343-.251a1.484,1.484,0,0,0,1.063-.4,1.45,1.45,0,0,1,1.292-.206,4.448,4.448,0,0,1,1.737.869.663.663,0,0,0,.926.011c.126-.091.263-.149.389-.24a1.69,1.69,0,0,1,1.908-.091,2.639,2.639,0,0,0,1.863.263c.937-.148,1.9-.171,2.846-.263,1.851-.171,3.714-.32,5.554-.526a8.276,8.276,0,0,0,1.5-.446c.206-.069.411-.16.571.1s.023.469-.172.617a4.3,4.3,0,0,1-2.651,1.063c-.3,0-.594.046-.823.057-.149.183-.286.343-.4.5a.868.868,0,0,0-.183.286.62.62,0,0,1-.526.492,4.563,4.563,0,0,0-.777.4c-.034.023-.057.091-.091.091-.617.068-.88.571-1.189.948.114.137.366.32.332.411a1.061,1.061,0,0,1-.434.514,2.5,2.5,0,0,1-.7.137c.274.194.5.354.732.514-.274.72-.331.731-1.657.468-.057.114-.126.24-.183.354.046.057.069.114.091.114.251-.011.469.114.457.343-.011.171-.183.48-.309.491-.743.1-.674.606-.72,1.143a10.771,10.771,0,0,0-.08,1.611c.034.434-.32.731-.457,1.223.126.16.411.423.1.72.228.3.423.537.606.788a1.293,1.293,0,0,1-1.794-.023.852.852,0,0,1-.171-.274c-.1-.286.194-.549,0-.88-.114-.194-.023-.526-.023-.743a15.079,15.079,0,0,1-1.177-1.086c-.411-.48-.366-.651.1-1.12a.627.627,0,0,0,.16-.4,10.078,10.078,0,0,0-.5-3.908c-.172-.457-.309-.526-.709-.229a2.167,2.167,0,0,0-.446.469,5.739,5.739,0,0,0-.834,2.571,2.18,2.18,0,0,0,.149.686c.148.686.148.686-.549.868a1.148,1.148,0,0,0-.183.057c.091.389.16.777.274,1.143a4.144,4.144,0,0,0,1.006,1.566,3,3,0,0,1,.446.629c.469.937-.08,1.28-.834,1.44a2.091,2.091,0,0,1-.263-.011,9.587,9.587,0,0,0-1.28.023,3,3,0,0,1-1.314-.286,13.405,13.405,0,0,1-1.668-.96,1.6,1.6,0,0,1-.343-.434c.629-.766.686-.526,1.189-.263.286.149.583.274.9.423a.5.5,0,0,0-.251-.617c-.32-.183-.629-.389-.937-.583-.16-.1-.331-.206-.491-.32-.48-.354-.629-.629-.469-.88.1-.16.7-.217,1.04-.1.08.023.149.057.354.126a2.913,2.913,0,0,1-.411-.526c-.08-.16-.171-.4-.1-.537a.537.537,0,0,1,.492-.183c.286.057.4-.057.514-.309-.308-.4-.994-.366-1.154-1.029.057-.114.137-.286.217-.457a3.405,3.405,0,0,0,.594-.011,1.67,1.67,0,0,0,.377-.137c-.08-.114-.137-.274-.251-.32-.3-.114-.594-.229-.491-.629.068-.308.274-.354.811-.229.057.012.126.012.3.023-.046-.343-.1-.663-.149-.971a6.335,6.335,0,0,1-.663,0,.93.93,0,0,1-.857-1.074c.057-.469.229-.914.332-1.383a1.653,1.653,0,0,0,.011-.411,1.745,1.745,0,0,0-.423.011c-.446.091-.663.491-.88.811-.457.651-.857,1.36-1.269,2.034a1.625,1.625,0,0,1-.206.331c-.389.389-.263.811-.126,1.257.091.263.149.537.24.8a.906.906,0,0,1-.263.96c-.32.32-.457.823-1.1.891.308.229.526.389.754.56a.726.726,0,0,1-.891.331,19.579,19.579,0,0,1-2.251-.812c-.469-.206-.526-.594-.32-1.108a3.078,3.078,0,0,1-.446-.857c-.068-.423.389-.366.7-.514a1.375,1.375,0,0,0-.24-.354c-.183-.149-.423-.229-.606-.377-.148-.126-.343-.32-.343-.48,0-.229.251-.32.491-.32.126,0,.263-.011.5-.034-.194-.114-.309-.194-.434-.251a3.467,3.467,0,0,1-.365-.137c-.263-.183-.64-.32-.583-.709.057-.343.423-.377.72-.446a1.3,1.3,0,0,0,.617-.3c.354-.343.663-.743.983-1.108a4.02,4.02,0,0,0-1.668.48,6.843,6.843,0,0,1-3.44.994,17.949,17.949,0,0,0-3.657.423,9.678,9.678,0,0,1-1.154.16c-.857.091-1.714.171-2.571.251-.046,0-.091.011-.126.011a9.9,9.9,0,0,0-2.251.046c-.446-.023-.9.137-1.349.126a24.567,24.567,0,0,0-2.9.091c-.583.034-1.143.137-1.737.114a5.46,5.46,0,0,0-1.554.354.478.478,0,0,0-.274.16,2.331,2.331,0,0,1-1.291.766l1.074.1c-.183.457-.548.034-.823.251a.949.949,0,0,0,.171.194.612.612,0,0,1,.251.674c-.046.263-.183.629.274.743.034.012.034.183.034.274a9.65,9.65,0,0,0,1.44,4.537,6.245,6.245,0,0,0,2.228,2.434c.069.046.091.172.137.263Zm-20.731-.069c.057.137.057.183.08.217s.057.069.08.1a2.216,2.216,0,0,0,2.183.469c1.371-.194,2.731-.434,4.091-.651a.935.935,0,0,1,.251.023,13.555,13.555,0,0,0,1.36.091,2.717,2.717,0,0,1,1.371.309,5.753,5.753,0,0,0,1.177.537,4.746,4.746,0,0,0,3.749-.514c.137-.08.251-.194.411-.309-.423-.206-.8-.366-1.143-.571a.526.526,0,0,1-.263-.709.668.668,0,0,1,1.166-.149,2.2,2.2,0,0,0,1.2.709,1.24,1.24,0,0,0,.423-.069c-.24-.3-.446-.514-.629-.754a.283.283,0,0,1,.069-.446c.309-.229.617-.469.937-.709-.194-.4-.366-.743-.548-1.086a9.007,9.007,0,0,1-.869-2.96,20.066,20.066,0,0,0-.56-2.354c-.48.286-1.12-.217-1.463.4-.057-.08-.114-.206-.183-.229-.651-.137-1.314-.24-1.977-.366a7.807,7.807,0,0,1-1.188-.251,6.911,6.911,0,0,0-2.914-.571c-.491.023-.994.114-1.486.16a27.129,27.129,0,0,0-4.754,1.029c-.469.126-.96.194-1.451.274-.3.046-.606.046-.891.091-.937.16-1.874.343-2.811.491-1.063.16-2.137.286-3.211.446-.354.057-.7.16-1.1.251a2.04,2.04,0,0,0,1.577.914,8.082,8.082,0,0,0,.914.023,1.37,1.37,0,0,0,.857-.229,1.026,1.026,0,0,1,.663-.126,7.832,7.832,0,0,0,2.069-.011,22.04,22.04,0,0,1,3.36-.137,20.763,20.763,0,0,1,3.36.229c.583.137,1.212.114,1.806.229a5.344,5.344,0,0,1,2.023,1.12,2.7,2.7,0,0,1,1.1,1.554.911.911,0,0,1-.057.674,1.843,1.843,0,0,1-.789.743,14.017,14.017,0,0,1-3.566,1.166c-.914.126-1.84.229-2.743.411A4.263,4.263,0,0,0,1375.578,992.193Zm-2.286-5.234c-.137-.069-.206-.137-.286-.137-.56,0-1.12.011-1.68.023a2.075,2.075,0,0,0-.811.069,11.843,11.843,0,0,0-1.508.994.834.834,0,0,0-.24.5.427.427,0,0,0,.594.5,2.247,2.247,0,0,0,.674-.354,5.879,5.879,0,0,1,2.137-1.029A4.929,4.929,0,0,0,1373.293,986.959Zm35.987,4.651c-.994-.937-1.28-1.074-1.623-.88A3.369,3.369,0,0,0,1409.28,991.61Zm.206-.091a1.718,1.718,0,0,0,1.749.708C1410.663,991.987,1410.068,991.758,1409.486,991.518Zm-17.051-.32c.137-.069.24-.114.388-.183-.137-.217-.251-.377-.366-.56C1392.1,990.741,1392.4,990.947,1392.435,991.2Zm37.416-12.434c-.3-.023-.3-.023-.423.206C1429.588,978.89,1429.7,978.833,1429.851,978.765Z" transform="translate(-1365.669 -937.771)" fill="#af947d"/>
      <path id="パス_11186" data-name="パス 11186" d="M1400.761,986.23a3.668,3.668,0,0,0,.343.194c.183.114.411.194.343.48a.736.736,0,0,1-.72.286,1.01,1.01,0,0,1-.434-.274.951.951,0,0,1-.263-.549c-.011-.286.274-.286.48-.331.034-.011.08-.023.137-.046-.057-.3-.125-.594-.206-.96.457.069.743.194.834.548S1401.139,986.093,1400.761,986.23Z" transform="translate(-1360.761 -936.551)" fill="#af947d"/>
      <path id="パス_11187" data-name="パス 11187" d="M1404.279,988.455c-.4-.251-.594-.434-.389-.8.08-.149.057-.343.148-.48a1.264,1.264,0,0,1,.469-.48c.308-.137.526.114.457.446a2.7,2.7,0,0,1-.126.617A7.136,7.136,0,0,1,1404.279,988.455Z" transform="translate(-1360.222 -936.319)" fill="#af947d"/>
      <path id="パス_11188" data-name="パス 11188" d="M1442.6,982.637c.091-.16.149-.366.286-.446a1.512,1.512,0,0,1,.674-.171c.069,0,.183.16.228.263.08.217.114.446.183.674.057.194.091.389-.126.5-.24.126-.514.023-.526-.171C1443.274,982.854,1442.9,982.866,1442.6,982.637Z" transform="translate(-1354.682 -936.981)" fill="#af947d"/>
      <path id="パス_11189" data-name="パス 11189" d="M1444.66,985.129a1.136,1.136,0,0,1-1.006.7.544.544,0,0,1-.434-.48c.011-.229.411-.583.64-.526A8.062,8.062,0,0,1,1444.66,985.129Z" transform="translate(-1354.593 -936.582)" fill="#af947d"/>
      <path id="パス_11190" data-name="パス 11190" d="M1443.851,987.653c-.057-.057-.251-.16-.32-.309-.08-.171.274-.434.537-.434s.571.217.583.411C1444.674,987.55,1444.457,987.664,1443.851,987.653Z" transform="translate(-1354.55 -936.283)" fill="#af947d"/>
      <path id="パス_11191" data-name="パス 11191" d="M1397.6,978.86a2.528,2.528,0,0,1-2.366.206Z" transform="translate(-1361.447 -937.432)" fill="#af947d"/>
      <path id="パス_11192" data-name="パス 11192" d="M1464.816,1124.57c.034.148.057.309.091.457-.046.011-.1.023-.148.034-.046-.149-.092-.309-.149-.457A.649.649,0,0,0,1464.816,1124.57Z" transform="translate(-1351.539 -916.623)" fill="#af947d"/>
      <path id="パス_11193" data-name="パス 11193" d="M1392.47,990.3c.171.114.354.217.526.331a1.259,1.259,0,0,1-.114.126c-.137-.16-.263-.32-.4-.48Z" transform="translate(-1361.841 -935.802)" fill="#af947d"/>
      <path id="パス_11194" data-name="パス 11194" d="M1492.64,980.6c.1-.16.171-.274.24-.4.057.057.114.08.114.114C1492.994,980.474,1493.029,980.68,1492.64,980.6Z" transform="translate(-1347.536 -937.241)" fill="#af947d"/>
      <path id="パス_11195" data-name="パス 11195" d="M1464.942,1125.17v.411c-.034,0-.08.011-.114.011-.023-.137-.034-.274-.057-.411A.871.871,0,0,1,1464.942,1125.17Z" transform="translate(-1351.516 -916.538)" fill="#af947d"/>
      <path id="パス_11196" data-name="パス 11196" d="M1461.376,1082.979c-.171.263-.331.754-.663.948a6.043,6.043,0,0,0-1.177,1.177c-.731.766-1.406,1.589-2.069,2.411-.48.583-.914,1.211-1.371,1.806a3.99,3.99,0,0,1-.286.332,7.122,7.122,0,0,0-1.486,2.046c-.148.332-.389.469-.594.343a.466.466,0,0,1-.172-.674,8.512,8.512,0,0,1,1.3-2.126c.7-.766,1.3-1.6,1.989-2.388,1.04-1.189,2.1-2.366,3.166-3.531a6.935,6.935,0,0,1,.8-.834C1461.079,1082.305,1461.4,1082.534,1461.376,1082.979Z" transform="translate(-1353.127 -922.642)" fill="#af947d"/>
      <path id="パス_11197" data-name="パス 11197" d="M1468.736,1019.091c-.194.263-.343.446-.469.629-1.234,1.874-2.457,3.748-3.714,5.611a2.611,2.611,0,0,1-.777.674.467.467,0,0,1-.651-.034.478.478,0,0,1,.034-.651c.274-.377.56-.766.846-1.143.377-.5.743-1.006,1.131-1.5.777-.983,1.543-1.966,2.343-2.937a3.7,3.7,0,0,1,.811-.64A2.464,2.464,0,0,1,1468.736,1019.091Z" transform="translate(-1351.767 -931.688)" fill="#af947d"/>
      <path id="パス_11198" data-name="パス 11198" d="M1460.84,1085.479c-.286.423-.572.88-.892,1.3-.994,1.337-2,2.663-3.017,3.988a5.548,5.548,0,0,1-.663.709c-.32.3-.491.263-.868-.171.309-.423.594-.88.937-1.291.983-1.223,1.989-2.446,2.994-3.657.263-.32.526-.629.811-.926C1460.337,1085.216,1460.566,1085.136,1460.84,1085.479Z" transform="translate(-1352.854 -922.239)" fill="#af947d"/>
      <path id="パス_11199" data-name="パス 11199" d="M1458.01,975.13c-.068.091-.1.16-.149.183-1.074.4-2.137.8-3.211,1.188a.991.991,0,0,1-.434.091.564.564,0,0,1-.4-.229c-.08-.194-.092-.446.183-.549.971-.354,1.943-.731,2.937-1.029A.886.886,0,0,1,1458.01,975.13Z" transform="translate(-1353.087 -938.022)" fill="#af947d"/>
      <path id="パス_11200" data-name="パス 11200" d="M1468.378,1020.26c.32.16.263.343.16.526-.194.343-.389.674-.583,1.017-.183.32-.377.629-.56.937a1.4,1.4,0,0,1-.137.217c-.149.149-.3.354-.549.229a.444.444,0,0,1-.183-.617A3.964,3.964,0,0,1,1468.378,1020.26Z" transform="translate(-1351.272 -931.52)" fill="#af947d"/>
      <path id="パス_11201" data-name="パス 11201" d="M1459.851,1087.48a2.572,2.572,0,0,1-.091.469c-.229.492-.48.971-.72,1.451a1.529,1.529,0,0,1-.206.32c-.194.217-.537.308-.686.183a.467.467,0,0,1-.023-.651q.566-.823,1.2-1.611C1459.394,1087.56,1459.588,1087.56,1459.851,1087.48Z" transform="translate(-1352.482 -921.92)" fill="#af947d"/>
      <path id="パス_11202" data-name="パス 11202" d="M1454.2,977.477c-.023-.583.034-.64.48-.731a7.526,7.526,0,0,0,.72-.229,6.058,6.058,0,0,1,.605-.137c.046.354-.091.526-.308.594C1455.206,977.134,1454.84,977.74,1454.2,977.477Z" transform="translate(-1353.026 -937.786)" fill="#af947d"/>
      <path id="パス_11203" data-name="パス 11203" d="M1464.054,1088.444c-.023.354-.171.5-.423.469a.45.45,0,0,1-.32-.229c-.057-.172.251-.457.469-.434C1463.894,1088.273,1464,1088.4,1464.054,1088.444Z" transform="translate(-1351.725 -921.81)" fill="#af947d"/>
      <path id="パス_11204" data-name="パス 11204" d="M1437.376,1031.026a4.031,4.031,0,0,1-2.286-1.028.356.356,0,0,1-.08-.1.718.718,0,0,1,.023-.948.763.763,0,0,1,.994.137c.48.469.971.9,1.451,1.371a4.748,4.748,0,0,1,.3.377C1437.616,1030.9,1437.456,1030.98,1437.376,1031.026Z" transform="translate(-1355.789 -930.298)" fill="#af947d"/>
      <path id="パス_11205" data-name="パス 11205" d="M1437.983,1028.812c-.1.137-.183.331-.32.411a1.531,1.531,0,0,1-1.749-.731.419.419,0,0,1,.32-.594.906.906,0,0,1,1.1.3A3.828,3.828,0,0,0,1437.983,1028.812Z" transform="translate(-1355.641 -930.438)" fill="#af947d"/>
      <path id="パス_11206" data-name="パス 11206" d="M1437.1,1025.71c.046.046.217.137.229.263a.546.546,0,0,1-.56.629.463.463,0,0,1-.537-.434C1436.219,1025.9,1436.5,1025.721,1437.1,1025.71Z" transform="translate(-1355.592 -930.742)" fill="#af947d"/>
      <path id="パス_11207" data-name="パス 11207" d="M1465.212,1084.213c-.023-.057-.114-.194-.091-.308a15.664,15.664,0,0,1,.617-2.046,11.109,11.109,0,0,1,2.446-3.5c.126-.126.24-.251.354-.389.309-.377.526-.434.868-.217.412.251.5.5.263.926a13.476,13.476,0,0,1-.868,1.291c-.446.606-.915,1.2-1.372,1.806a3.14,3.14,0,0,1-.251.3,5.366,5.366,0,0,0-.857,1.166A4.9,4.9,0,0,1,1465.212,1084.213Z" transform="translate(-1351.466 -923.327)" fill="#af947d"/>
    </g>
  </g>
</svg>
