<svg xmlns="http://www.w3.org/2000/svg" width="92.444" height="140.572" viewBox="0 0 92.444 140.572">
  <g id="グループ_1742" data-name="グループ 1742" transform="translate(-496.095 -946.033)" opacity="0.33">
    <path id="パス_8906" data-name="パス 8906" d="M501.872,1037.933c-.432.18-.858.461-1.405.108a2.9,2.9,0,0,1,3.063-1.3c-.022.137-.036.281-.065.461a2.94,2.94,0,0,1,.728.735.979.979,0,0,1-.166,1.211,9.586,9.586,0,0,1-.995.714,1.85,1.85,0,0,0,.5,1.751c.332.3.274.714.317,1.1a16.152,16.152,0,0,0,1.16,4.627c.468-1.348.944-2.595,1.333-3.878a4.015,4.015,0,0,0-.411-2.724l-.9-.44c.144-.259.245-.447.353-.627a3.3,3.3,0,0,0,.44-1.751,1.312,1.312,0,0,0-.894-1.434c-.072-.022-.115-.123-.2-.231a.588.588,0,0,1,.786-.411,6.545,6.545,0,0,1,1,.425c.483.829.159,1.615.144,2.379.259.281.468.079.75-.079-.058-.44-.108-.908-.173-1.369a1.672,1.672,0,0,1,.757-1.917c-.223-.259-.411-.483-.663-.771.4-.209.865-.3,1.023-.562a1.347,1.347,0,0,1,.937-.613.574.574,0,0,1,.425.159c.043.036-.043.231-.086.346-.029.079-.072.151-.108.238.288.411.584.829.923,1.3a26.867,26.867,0,0,0,4.872-.029,1.954,1.954,0,0,1,1.845.382,1.335,1.335,0,0,0,.742.173c1.261.094,2.523.18,3.784.252a1.622,1.622,0,0,0,.887-.072,4.026,4.026,0,0,1,2.436-.5c.065-.317.151-.605.18-.894a57.092,57.092,0,0,1,.7-6.364,5.01,5.01,0,0,0,.094-1.038,13.606,13.606,0,0,1,.764-4.49,40.207,40.207,0,0,0,1.153-5.225c.5-2.919.959-5.845,1.643-8.728a25.482,25.482,0,0,0,.4-2.573,27.771,27.771,0,0,1,1.045-4.584c.2-.663.375-1.341.584-2,.043-.144.187-.259.44-.591-.1,1.362-.533,2.414-.605,3.539.195.324.541.18.814.238.3.065.6.072.886.108.634-.677.259-1.434.3-2.148-.353-.223-.7-.447-1.1-.7.6-.663,1.312-.238,1.932-.4.036-.742.072-1.463.108-2.227a6.045,6.045,0,0,0,1.542-2.328c-1.16-.166-1.766-1.016-2.515-1.823.231-.173.454-.339.7-.519-.007-.022-.007-.108-.05-.151a1.362,1.362,0,0,0-1.059-.432c-.476.022-.959.036-1.434.087a8.207,8.207,0,0,1-3.106-.216,6.611,6.611,0,0,0-1.528-.31,28.277,28.277,0,0,0-4.548-.332,3.081,3.081,0,0,1-1.168-.144,6.944,6.944,0,0,0-2.076-.18,46.485,46.485,0,0,1-5.485-.231c-.908-.079-1.823-.108-2.739-.159a13.058,13.058,0,0,1-3.078-.541,4.982,4.982,0,0,0-1.521-.339,40.951,40.951,0,0,1-4.786-.6,7.865,7.865,0,0,0-1.168.007c-.692.036-1.384.1-2.076.115-.476.007-.677-.2-.721-.721-.058-.677-.36-1.369.007-2.032a5.421,5.421,0,0,1,.5-.67c.4.173.7.3,1,.432.159.3.454.562.353.937a.927.927,0,0,1-.332.5c-.079.05-.3-.1-.454-.159-.209.2-.5.36-.389.757a1.8,1.8,0,0,0,.368.087c.3.007.605-.014.915-.014.865,0,1.744-.058,2.6.029,1.514.151,3.02.389,4.526.584.519.065,1.031.151,1.55.18.555.029.995.577,1.593.339a5.722,5.722,0,0,0,2.162.425c2.825.086,5.629.555,8.469.461a3.524,3.524,0,0,1,.389.022,39.677,39.677,0,0,1,5.312.5.794.794,0,0,0,.13.014,12.46,12.46,0,0,1,3.085.483,14.407,14.407,0,0,0,4.411.339.822.822,0,0,0,.382-.058.769.769,0,0,0,.288-.353c.022-.051-.151-.238-.252-.252-.432-.043-.865-.043-1.3-.065a13.313,13.313,0,0,1-2.083-.094,32.7,32.7,0,0,0-5.5-.85c-1.521-.05-3.027-.317-4.541-.49a12.591,12.591,0,0,0-1.55-.173,7.193,7.193,0,0,1-3.078-.368.872.872,0,0,0-.382-.065c-1.045.065-2.018-.469-3.07-.4a1.648,1.648,0,0,1-.634-.137,16.036,16.036,0,0,0-4.317-.93c-1.679-.115-3.359-.36-5.031-.605a1.97,1.97,0,0,0-.973.209,3.479,3.479,0,0,0-.778-.432c-.627-.166-1.269-.267-1.9-.4a17.565,17.565,0,0,1,.915-5.247c.065-.245.187-.5.591-.447v1.989c-.036.007-.072.007-.108.014-.058-.216-.108-.44-.238-.966-.065.721-.1,1.132-.137,1.521a2.814,2.814,0,0,0,2.126.49,3.038,3.038,0,0,0,.382-1.456c-.346-.043-.634-.086-.93-.123a1.377,1.377,0,0,1-.5-.072.631.631,0,0,1-.209-.418c-.007-.065.159-.209.259-.216.259-.014.519.029.778.036.209.007.425,0,.656,0a2.023,2.023,0,0,0,.281-1.384,1.867,1.867,0,0,0-1.326-.49,5.5,5.5,0,0,0-.771-.007c-.67,0-1.016-.159-.937-.432.13-.469.562-.512.93-.6a1.128,1.128,0,0,1,.627.094,14.055,14.055,0,0,0,3.3.75c2.162.267,4.31.62,6.472.872,2.249.26,4.5.44,6.761.656a3.712,3.712,0,0,1,.641.1,43.823,43.823,0,0,0,5.543.85,30.491,30.491,0,0,1,3.849.67,9.272,9.272,0,0,0,2.724.18,9.416,9.416,0,0,1,2.609.324,1.351,1.351,0,0,1-1.29.548,1.607,1.607,0,0,0-1.168.238c.1.3.2.627.324,1.009.231.036.476.072.721.115.346.065.375.122.3.677-.36-.029-.728-.058-1.139-.087a2.592,2.592,0,0,0-.274,1.542c.368.332.807.245,1.24.245a1.507,1.507,0,0,1,.627.094.493.493,0,0,1,.2.418.486.486,0,0,1-.339.31c-.469-.022-.937-.115-1.413-.158a3.344,3.344,0,0,0-.519.043,5.42,5.42,0,0,0-.122,1.9,4.686,4.686,0,0,0,.865.26c.735.065,1.478.079,2.22.108a2.8,2.8,0,0,1,1.953.555.627.627,0,0,0,.353.151c.995.079,1.989.144,3.042.216.195-.865.548-1.687-.216-2.393.072-.353.13-.649.2-.944a11.97,11.97,0,0,0,.454-3.611,11.469,11.469,0,0,1,.1-1.564,11.829,11.829,0,0,0,.13-1.946c-.187-2.018.288-3.986.324-5.982a3.649,3.649,0,0,1,.173-.764,6.327,6.327,0,0,0,.231-1.809,11.923,11.923,0,0,1,.4-3.106,6.422,6.422,0,0,0,.231-1.413,50.066,50.066,0,0,1,.605-5.975c.252-2.076.714-4.115,1.088-6.17a31.392,31.392,0,0,0,.742-6.616,7.162,7.162,0,0,1,.058-1.3c.209-1.362.915-1.708,2.242-1.081.086-.043.238-.065.31-.144a1.358,1.358,0,0,1,1.672-.324,5.855,5.855,0,0,0,2.3.368,29.422,29.422,0,0,0,3.654.058,1.525,1.525,0,0,1,1.377.742,7.056,7.056,0,0,0-.274.807,18.851,18.851,0,0,0-.411,2.169c-.166,1.643-.281,3.3-.4,4.951-.036.519-.05,1.045-.079,1.564a7.592,7.592,0,0,1-.072.908c-.231,1.377-.548,2.739-.692,4.115-.238,2.256-.764,4.469-1.045,6.71-.3,2.378-.814,4.721-1.189,7.085-.252,1.55-.461,3.1-.7,4.649-.051.346-.123.685-.195,1.024a5.161,5.161,0,0,0-.209,1.023c.007,1.932-.649,3.769-.735,5.687a3.25,3.25,0,0,1-.065.382.939.939,0,0,1-1.074.288,7.67,7.67,0,0,0-4.058.173c-.079.4.187.533.389.67a7.259,7.259,0,0,1,2.436,2.314.721.721,0,0,0,.677.31c.605.007,1.211.036,1.816.079,1,.065,2,.151,3,.223.173.014.353.007.519.029,1.636.223,3.279.469,4.916.677,1.124.144,2.249.245,3.373.36.086.007.173,0,.259.014,2.551.288,5.1.591,7.662.865,3.078.324,6.1,1.023,9.2,1.2.649.036,1.29.223,1.932.324,1.074.166,2.155.317,3.229.49.641.1,1.283.231,1.917.375s1.261.332,1.953.512c.187-.1.411-.238.641-.346a.539.539,0,0,1,.706.123.77.77,0,0,1,.13.591,4.4,4.4,0,0,1-.483,1.059,3.894,3.894,0,0,0-.613,1.8,10.649,10.649,0,0,1-.714,2.768,5.831,5.831,0,0,0-.454,3.294c.007.029-.043.065-.072.1-.569-.548-.605-.685-.677-2.6-.224-.26-.432-.5-.721-.843.4-.1.67-.173.966-.252a18.3,18.3,0,0,0,.714-3.46,6.622,6.622,0,0,0-1.795-.079c-.072.31-.13.6-.209.937.231.108.418.195.605.288s.454.224.368.461c-.123.339-.425.166-.67.13-.087-.014-.173-.036-.281-.058-.6.6-.548,1.405-.692,2.162a13.831,13.831,0,0,0-.447,2.2c.382.584,1.074.05,1.427.5a.476.476,0,0,1-.5.4,7.408,7.408,0,0,1-1.687.086c-2.3-.3-4.613-.259-6.912-.368a3.33,3.33,0,0,1-1.1-.216,5.311,5.311,0,0,0-.894-.187c-.685-.137-1.369-.259-2.047-.425a14.566,14.566,0,0,0-2.566-.44c-.995-.065-1.975-.317-2.969-.4-1.6-.137-3.215-.18-4.822-.3-.908-.065-1.816-.18-2.724-.274a11.156,11.156,0,0,1-2.278-.339,10.739,10.739,0,0,0-1.939-.26c-1.3-.151-2.595-.324-3.892-.461-.692-.072-1.384-.079-2.076-.13a4.271,4.271,0,0,1-1.009-.151c-.5-.18-.656-.569-.555-1.146.05-.3.079-.591.13-.93a8.712,8.712,0,0,1-1.953-.75,4.806,4.806,0,0,0-3.863-.317c-.281,1.593-.569,3.128-.807,4.663-.144.944-.209,1.9-.317,2.854-.065.605-.159,1.211-.223,1.816a34.209,34.209,0,0,0-.4,4.937c.058,1.824-.036,3.654-.094,5.485a11.081,11.081,0,0,1-.238,1.679,18.251,18.251,0,0,0-.26,4.3,12.059,12.059,0,0,1-.122,1.687c-.043.432-.166.865-.173,1.3A22.438,22.438,0,0,1,538,1032.5a17.909,17.909,0,0,0-.2,2.335c-.043.512-.1,1.016-.151,1.6a6.341,6.341,0,0,0,.9.151c2.652.13,5.3.425,7.964.4,1.3-.014,2.609.13,3.914.223a1.95,1.95,0,0,0,1.622-.425.987.987,0,0,0,1.319.605c.252-.411.036-.829.058-1.225-.447-.216-.951-.3-1.182-.605-.288-.382-.764-.368-1.06-.663.4-.526.4-.526,2.011-.461v-.915c-1.016-.108-1.989-.216-2.955-.324-.014-.541.368-.649.692-.663.605-.036,1.211.043,1.823.029.368-.007.4-.252.245-.577-.49-.029-1-.05-1.513-.108-.1-.014-.274-.187-.26-.238.043-.137.151-.346.26-.368.461-.087.93-.123,1.535-.187-.2-.238-.3-.469-.447-.512-.454-.144-.937-.195-1.4-.324-.115-.036-.216-.245-.245-.389-.014-.058.151-.223.252-.238.454-.065.915-.086,1.369-.123.144-.317.022-.569-.267-.62a13.613,13.613,0,0,0-1.542-.151c-.389-.022-.786.014-1.168-.036-.18-.022-.346-.195-.541-.31.75-.663,1.254-.721,3.214-.4.231-.159.159-.368.065-.634-.389-.166-.829-.339-1.254-.533-.238-.108-.512-.224-.512-.526,0-.4.368-.44.641-.548a3.441,3.441,0,0,1,.569-.108c.079-.432-.13-.562-.425-.569a3.019,3.019,0,0,1-1.737-.483.373.373,0,0,1-.1-.331.417.417,0,0,1,.281-.216,1.4,1.4,0,0,1,.519.014c.418.079.836.18,1.326.288a2.183,2.183,0,0,0,.1-.641c-.1-.822-.18-1.651-.36-2.458a28.659,28.659,0,0,1-.555-4.137c-.043-.562-.13-1.124-.216-1.679-.173-1.024-.36-2.047-.555-3.135-.5-.094-1.009-.173-1.506-.288-.1-.022-.252-.209-.231-.267.05-.144.18-.346.288-.36a10.354,10.354,0,0,1,1.16-.014c.13-.454.108-.548-.216-.656-.584-.18-1.175-.324-1.751-.519a3.19,3.19,0,0,1-.641-.382c.8-.613.822-.613,2.342-.267a3.263,3.263,0,0,0-.3-1.521c-.461-.058-.887-.094-1.312-.18-.2-.043-.447-.166-.353-.44a.565.565,0,0,1,.382-.274,9.219,9.219,0,0,1,.995-.014c.195-.418.022-.706-.281-1.023-.425,0-.9.022-1.377-.007-.267-.022-.346-.216-.2-.526.382-.065.807-.13,1.175-.187.267-.346,0-.541-.1-.757-.122-.274-.332-.5-.447-.778a.509.509,0,0,1,.447-.656,1.127,1.127,0,0,1,1.2.6,9.853,9.853,0,0,1,.685,1.55,31.348,31.348,0,0,1,1.081,5.9,21.369,21.369,0,0,0,.548,3.748,5.545,5.545,0,0,1,.13,1.3,27.259,27.259,0,0,0,.62,4.519,19.568,19.568,0,0,1,.281,2.595,20.194,20.194,0,0,0,.613,3.467c.166.721.274,1.449.382,2.184.094.649.159,1.3.231,1.946a8.781,8.781,0,0,1,.144,1.427c-.072,1.586.4,3.106.469,4.67a.849.849,0,0,0,.714.822,7.027,7.027,0,0,0,.771.079,3.946,3.946,0,0,1,1.016.173,3.152,3.152,0,0,0,1.535.231,15.511,15.511,0,0,1,3.517.1c1.427.173,2.869.209,4.3.31a18.413,18.413,0,0,1,2.912.7c.173.043.3.274.425.4a.523.523,0,0,1-.677.339c-.858-.137-1.715-.317-2.573-.476-.375-.065-.757-.108-1.2-.173-.043.324-.072.562-.122.9.519.036.944.05,1.369.094,1.254.13,2.508.26,3.762.418a.7.7,0,0,1,.627.649c-.122.079-.259.245-.4.238a10.847,10.847,0,0,1-1.809-.166,10.248,10.248,0,0,0-3.467-.216c-.353.36-.216.742-.231,1.067.144.094.216.173.288.18.951.079,1.91.151,2.869.209.7.043,1.4.043,2.09.1a1.452,1.452,0,0,1,.7.281c.094.072.108.317.086.469-.014.079-.18.187-.288.195a6.474,6.474,0,0,1-.915-.014c-1.953-.137-3.906-.3-5.867-.4a20.356,20.356,0,0,0-2.083.137c-1.521.072-3.049.137-4.57.195a10.057,10.057,0,0,1-1.038-.058c-.519-.036-1.045-.094-1.564-.1a19.169,19.169,0,0,1-4.151-.447,3.984,3.984,0,0,0-1.168-.1,10.947,10.947,0,0,1-3.1-.389c-1.406-.3-2.8-.641-4.231-.836-1.2-.166-2.429-.151-3.647-.216a4.007,4.007,0,0,1-.778-.058,18.276,18.276,0,0,0-3.979-.058,2.092,2.092,0,0,1-.014,1.694,1.008,1.008,0,0,1-.317.389.567.567,0,0,1-.483.014.517.517,0,0,1-.223-.4c.05-.418.166-.829.245-1.189a1.142,1.142,0,0,0-1.059-.274,4.917,4.917,0,0,0-2.1.692,1.557,1.557,0,0,1-1.47.324c-.692.836-1.658,1.341-2.177,2.292a.416.416,0,0,1-.346.094c-.1-.029-.245-.158-.245-.245a1.261,1.261,0,0,1,.122-.728,11.171,11.171,0,0,1,.959-.879,6.727,6.727,0,0,0,1.795-1.982c-.2-.079-.389-.224-.562-.216-2.321.094-4.613-.231-6.919-.353a20.774,20.774,0,0,0-4.433.187,17.852,17.852,0,0,1-3.777.144c-1.384-.072-2.775-.014-4.26-.014a2.6,2.6,0,0,0,.065.605,15.368,15.368,0,0,1,.822,5.261,4.608,4.608,0,0,1-.555,2.256,13.067,13.067,0,0,1-2.148,3.416,15.962,15.962,0,0,0-2.631,3.207c.923,2.926.778,6.134,1.081,9.283a5.222,5.222,0,0,0,.577,2.242c.714-.224.771-.274.706-.778-.288-2.112-.605-4.224-.865-6.343-.151-1.211-.238-2.429-.317-3.647-.036-.555.18-.822.476-.764.389.072.432.4.447.7.029.605-.014,1.218.029,1.824q.216,2.735.49,5.463c.05.512.187,1.016.31,1.636.6-.483.714-1.11,1.038-1.6.166-.252.238-.562.382-.829a7.423,7.423,0,0,1,2.775-3.056c.259-.151.5-.339.728-.5a8.156,8.156,0,0,1-.058-1.074c.007-.123.187-.267.324-.324a.36.36,0,0,1,.31.166,7.668,7.668,0,0,1,.339.814c.605-.079,1.038-.67,1.73-.346-.1.159-.151.346-.267.411a2.749,2.749,0,0,0-1.333,1.838c-.166.627-.548,1.189-.735,1.809a9.013,9.013,0,0,0-.022,4.908c.238.93.548,1.838.814,2.76.252.879.49,1.766.735,2.645a7.613,7.613,0,0,1-.007,3.755c-.274,1.232-.634,2.443-1,3.654a10.511,10.511,0,0,1-.663,1.42,1.412,1.412,0,0,1-.216.324c-.923,1.074-2.018,1.2-2.869-.144a2.639,2.639,0,0,1-.18-.49,6.569,6.569,0,0,1,.62.461c.771.728,1.528.677,2.1-.382a9.14,9.14,0,0,0,.764-1.795c.4-1.514.75-3.042,1.1-4.569a3.067,3.067,0,0,0,0-.771,12.405,12.405,0,0,0-1.009-3.9,29.36,29.36,0,0,1-1.016-3.1,8.341,8.341,0,0,1,.49-5.852,4.778,4.778,0,0,0,.3-.721,3.258,3.258,0,0,0,.065-.641,2.25,2.25,0,0,0-.469.137,7.174,7.174,0,0,0-2.472,2.638c-.836,1.665-1.852,3.272-1.9,5.225a1.86,1.86,0,0,1-.13.5.384.384,0,0,1-.159.195.775.775,0,0,1-.36.079.25.25,0,0,1-.18-.159c-.065-.324-.1-.649-.18-1.146-.476.548-.822.987-1.211,1.384a.91.91,0,0,1-.562.245c-.123.007-.259-.187-.425-.324-.108.137-.2.267-.339.447.231.151.4.267.584.382a7.486,7.486,0,0,1,2.746,3.07,24.978,24.978,0,0,1,1.658,4.389,6.279,6.279,0,0,1,.065,3.589,3.1,3.1,0,0,0-.043.634c-.3.231-.584.483-.9.692-.541.353-.915.231-1.348-.4.079-.029.159-.1.223-.086.872.195,1.124.094,1.369-.649a5.433,5.433,0,0,0,.094-2.977,15.478,15.478,0,0,0-2.847-5.975,6.014,6.014,0,0,0-1.333-1.232,7.923,7.923,0,0,1-3.5-4.706,7.889,7.889,0,0,0-1.434-3.056.368.368,0,0,1,.029-.353.386.386,0,0,1,.332-.137c.332.086.656.223,1.023.36a1.965,1.965,0,0,1,2.66.411c.3.31.6.627.872.915.454-.115.317-.447.3-.656a31.16,31.16,0,0,0-1.5-7.7c-.418-.123-.829-.238-1.24-.36a3.624,3.624,0,0,1-2.371-2.241.369.369,0,0,1,.086-.339.607.607,0,0,1,.468-.079,1.021,1.021,0,0,1,.368.339,5.086,5.086,0,0,0,2.551,1.73.925.925,0,0,0,1.139-.375c.072-.108.166-.2.245-.31.368-.5.368-.5.3-1.3.807-.108.814-.1,1.283-.649a23.472,23.472,0,0,0,2.494-3.51,4.415,4.415,0,0,0,.605-2.508,12.109,12.109,0,0,0-.887-3.935c-.043-.108-.159-.187-.317-.36-.065.324-.115.562-.159.8a10.89,10.89,0,0,1-.843,2.876,4.5,4.5,0,0,0-.353,2.3c.036.569.115,1.131-.454,1.535-.1.072-.094.317-.123.483a5.1,5.1,0,0,1-.187.887,2.678,2.678,0,0,1-2.912,1.744c-.822-.072-1.643-.173-2.472-.231a2.382,2.382,0,0,1-2.234-1.542,32.3,32.3,0,0,1-1.348-3.95,6.709,6.709,0,0,1,.98-5.117c.036-.065.144-.087.252-.151a1.117,1.117,0,0,1,.014.375c-.072.2-.187.389-.281.591a5.822,5.822,0,0,0-.418,4.072c.31,1.132.692,2.249,1.067,3.359a5.438,5.438,0,0,0,.418.814,1.907,1.907,0,0,0,1.564,1.045c.822.086,1.651.151,2.472.209a4.731,4.731,0,0,0,.778-.065,1.387,1.387,0,0,0,1.24-1.175,4.325,4.325,0,0,0,.065-1.55,14.462,14.462,0,0,0-.641-2.53,22.3,22.3,0,0,1-1.42-6.35c-.022-.3-.108-.584-.166-.915a4.142,4.142,0,0,0-.678.007,2.662,2.662,0,0,1-1.405-.195c-.843-.332-1.384-.771-1.2-1.751a1.43,1.43,0,0,0-.022-.389c0-.029-.043-.058-.065-.094a4.391,4.391,0,0,0-2.025,3.668c-.634.252-.85.151-.814-.411a3.206,3.206,0,0,1,.166-1.023,6.323,6.323,0,0,1,3.07-3.488c.324.216.641.418.973.641-.058.353-.13.641-.159.937-.123,1.131.324,1.521,1.571,1.355a1.514,1.514,0,0,0,.115-1.11,1.636,1.636,0,0,1,1.218.886,2.171,2.171,0,0,0,.281-.353,2.831,2.831,0,0,0,.094-.526C502.9,1037.983,502.427,1037.508,501.872,1037.933Zm52.348.894c.483.252.44.771.512,1.153.13.058.166.087.2.087.569-.043.764-.151.778-.447a.676.676,0,0,0-.641-.793,4.6,4.6,0,0,0-.887.043c-.094-.087-.18-.231-.281-.245-.944-.115-1.888-.209-2.9-.31-.108.512-.454.879-.274,1.427a7.41,7.41,0,0,0,2.869.31C553.773,1039.605,553.65,1039.029,554.219,1038.827Zm-38.74-55.072a8.933,8.933,0,0,0-2.7-.022c-.029.591-.418,1.074-.274,1.622.4.31.807.187,1.182.216s.757.036,1.146.058c.231-.67.44-1.276.649-1.874.058-.548.115-1.1.18-1.687a5.885,5.885,0,0,0-2.414-.562c-.072.324-.144.613-.187.9a1.612,1.612,0,0,0,.079.447,6.637,6.637,0,0,0,.995.094A1.328,1.328,0,0,1,515.479,983.755Zm28.837,4.332c1.3-.058,2.465-.108,3.661-.166.086-.267.187-.5.252-.75a4.916,4.916,0,0,1,.231-1.009,5.148,5.148,0,0,0,.447-2.162,8.629,8.629,0,0,1,.569-3.193,2.7,2.7,0,0,0,.137-.771c.115-.995.187-2,.346-2.984.252-1.55.562-3.085.85-4.627.195-1.074.411-2.141.584-3.214.209-1.29.36-2.588.577-3.878a25.142,25.142,0,0,0,.454-3.892,16,16,0,0,1,.519-3.878,10.112,10.112,0,0,0,.267-2.595,25.4,25.4,0,0,1,.18-2.861,26.026,26.026,0,0,0,.389-4.029.985.985,0,0,0-.1-.288c-.209-.051-.454-.108-.67-.159-.591,1.182-.584,1.182-.5,2.912.007.151-.115.31-.173.461a2.392,2.392,0,0,0-.216.6c-.159,1.557-.288,3.121-.447,4.685a1.747,1.747,0,0,0,.44,1.658c-.274.245-.577.4-.692.649a1.731,1.731,0,0,0-.195,1.009,5.424,5.424,0,0,1-.3,2.278c-.072.3-.151.591-.2.886-.014.072.05.159.072.238.173.216.663.043.627.555-.31.065-.627.123-.973.195a25.024,25.024,0,0,0-.4,2.962c.216.187.368.324.526.461-.605.4-.627.4-.843,1.341-.115.5-.569,1.045.094,1.521a1.273,1.273,0,0,0-.67.872c-.094.6-.223,1.189-.332,1.766.144.2.267.368.375.519-.151.159-.382.288-.425.461a15.248,15.248,0,0,0-.411,2.04c-.022.224.231.476.353.706-.144.094-.389.159-.411.274-.144.634-.238,1.276-.339,1.917-.022.158.043.36-.029.476a3.915,3.915,0,0,0-.4,2.249,9.134,9.134,0,0,1,.9.317c.065.029.072.195.137.375h-1.225c-.2,1.031-.389,2.011-.577,2.984.043.389.728.332.548.822-.195.072-.4.144-.62.223-.065.346-.115.685-.2,1.024a1.209,1.209,0,0,1-.231.461c-.18.216-.375.137-.6-.108a4.311,4.311,0,0,0,.274-1.9c-.425-.043-.836-.231-1.29.166C544.619,986.429,544.122,987.164,544.316,988.086Zm-3.921.195c.317-2.285,1.1-4.339,1.168-6.537a6.317,6.317,0,0,1,.209-1.42,67.823,67.823,0,0,0,.944-6.717c.151-.9.238-1.809.324-2.717.195-2.032.368-4.065.548-6.1a4.317,4.317,0,0,1,.079-.519c.714-3.539,1.088-7.135,1.593-10.71.094-.649.123-1.3.195-1.946s.108-1.3.223-1.939A4.959,4.959,0,0,0,545.6,947a2.54,2.54,0,0,1-.389.115c-.649.065-.865.476-.9,1.074a24.5,24.5,0,0,1-.245,3.625c-.512,2.422-.836,4.887-1.326,7.316-.389,1.924-.541,3.87-.793,5.8-.245,1.9-.274,3.813-.685,5.7a7.419,7.419,0,0,0-.216,2.587,2.89,2.89,0,0,1-.079.778c-.18,1.42-.368,2.847-.526,4.267a9.473,9.473,0,0,0-.079,1.564,40.054,40.054,0,0,1-.533,7.013c-.036.339-.115.677-.159.966a1.851,1.851,0,0,0,.231.238A4.212,4.212,0,0,0,540.4,988.281Zm6.09,5.081c.029.706.166.93.649.887a11.908,11.908,0,0,1,2.861.2,3.311,3.311,0,0,0,.649.043,26.5,26.5,0,0,1,5.06.476,8.417,8.417,0,0,1,1.42.2,13.957,13.957,0,0,0,3.741.49,6.344,6.344,0,0,1,.908.065c1.9.281,3.784.591,5.679.85,1.636.223,3.287.382,4.923.562.13.015.259,0,.389.015.778.072,1.557.13,2.335.216.995.115,1.982.252,2.977.382a31.958,31.958,0,0,1,3.229.461c1.492.353,3.013.317,4.512.569a1.648,1.648,0,0,0,.649-.043c.252-.065.324-.259.187-.5a4.7,4.7,0,0,1-.591-.252,6.977,6.977,0,0,0-2.479-.728c-1.333-.2-2.66-.44-3.993-.641-.685-.108-1.384-.173-2.076-.252-.951-.108-1.91-.18-2.854-.317-1.939-.288-3.863-.634-5.8-.9a29.3,29.3,0,0,0-3.64-.324,27.282,27.282,0,0,1-2.977-.346c-.987-.115-2-.072-2.991-.13a9.026,9.026,0,0,1-1.153-.216c-.3-.058-.6-.13-.9-.166-1.73-.173-3.46-.31-5.189-.512a13.162,13.162,0,0,1-4.115-.67c-.231.122-.454.259-.692.36A5.43,5.43,0,0,1,546.486,993.362Zm10.617,6.984c-.865-.115-1.593-.49-2.314-.26-.389.353-.122.937-.627,1.218-.058-.533-.1-.995-.151-1.463a4.579,4.579,0,0,0-.584-.079c-.555.014-1.117-.281-1.665-.029-.613.288-1.117-.332-1.723-.166a1.38,1.38,0,0,1-.771-.094c-.3-.108-.4-.324-.122-.577a8.221,8.221,0,0,0,2.1-.043c.036-.541.259-1.031.022-1.521a2.651,2.651,0,0,0-1.326-.123,7.712,7.712,0,0,1-.908-.072c-.072-.014-.144-.187-.173-.3-.014-.043.086-.151.151-.166a3.8,3.8,0,0,1,.641-.065c.605-.007,1.2,0,1.874,0,.108-.447.4-.786.317-1.254a1.376,1.376,0,0,0-.4-.108,10.379,10.379,0,0,1-2.984-.267,1.829,1.829,0,0,0-1.261.187c-.195.094-.418.267-.584.223a12.3,12.3,0,0,0-2.724.015c-.85-.029-1.7.014-2.523.029-.036.512-.079.944-.094,1.377a10.627,10.627,0,0,0,.014,1.175.48.48,0,0,0,.75.4c.216-.115.4-.339.634-.389a1.948,1.948,0,0,1,.706.094c.569-.735.843-.757,1.283-.13.166.238.317.483.577.879.094-.49.159-.793.209-1.067a.655.655,0,0,1,.923.353c.115.238.1.613.605.577v-2.962c.5-.238.858-.108,1.031.3a1.969,1.969,0,0,1,.1.872c-.036.649-.13,1.3-.159,1.953-.007.188.079.483.209.548.526.274.252.649.195.959.31.5.605.973.915,1.478a45.463,45.463,0,0,0,7.611,1.11A10.5,10.5,0,0,0,557.1,1000.346ZM528.784,1016.8c-.115.613-.18,1.081-.3,1.542-.519,2.112-1.06,4.216-1.578,6.328a9.119,9.119,0,0,0-.324,2.58,8.046,8.046,0,0,1-.108,1.953c-.4,2.018-.353,4.072-.605,6.1-.007.072.058.159.086.231a4.689,4.689,0,0,0,2.573-.058,4.513,4.513,0,0,1,.317-1.989c.051-.115.029-.36-.3-.324-.187.541-.368,1.11-.584,1.665a.332.332,0,0,1-.526.195,2.665,2.665,0,0,1,.007-1.521,8.788,8.788,0,0,0,.115-1.153,19.22,19.22,0,0,1,.995-6.544.525.525,0,0,0,.007-.209c-.072-.36-.649-.425-.418-.894.771-.3,1.413.353,2.155.288a4.056,4.056,0,0,0,.5-2.155c-.288-.094-.526-.166-.764-.245-.324-.108-.649-.216-.973-.339-.05-.022-.065-.137-.094-.209.014-.036.014-.1.043-.115.231-.108.469-.2.735-.317a8.328,8.328,0,0,0,.605-4.3C529.844,1017.147,529.4,1017,528.784,1016.8Zm7.9,19.626c.043-.274.094-.526.122-.778.223-1.816.44-3.633.67-5.449.173-1.384.375-2.76.548-4.137a10.105,10.105,0,0,0,.022-1.045,23.029,23.029,0,0,1,.079-3.387,37.739,37.739,0,0,0,.274-5.478c.043-2.53.231-5.045.5-7.553.259-2.379.6-4.75.908-7.128.065-.519.195-1.023.267-1.542a.367.367,0,0,0-.187-.3.411.411,0,0,0-.368.022,1.115,1.115,0,0,0-.461.894c-.072,1.175-.151,2.343-.252,3.51-.159,1.823-.353,3.64-.519,5.456-.079.865-.108,1.737-.166,2.6a7.046,7.046,0,0,1-.086,1.038,46.151,46.151,0,0,0-.389,4.678,12.893,12.893,0,0,1-.2,2.068,17.439,17.439,0,0,0-.346,3.5c-.029.346,0,.692-.036,1.038-.2,1.816-.332,3.647-.656,5.442-.368,2.069-.4,4.159-.692,6.227-.007.072.05.151.1.3C536.064,1036.427,536.345,1036.427,536.684,1036.427Zm-1.211-10.033c-.735.281-1.427-.144-2.054.115a4.735,4.735,0,0,0-.569,3.294,14.674,14.674,0,0,0,2.6.894,9.673,9.673,0,0,0,.238-1.059c.1-.865.18-1.73.259-2.595q.378-4.1.75-8.188c.058-.613-.13-.886-.742-1.016a4.887,4.887,0,0,0-.923-.007,21.687,21.687,0,0,0-1.016,4.872c.31.469.886.4,1.117.923-.425.324-.807-.375-1.232.007.022.656-.3,1.348-.216,2.047C534.219,1026.12,534.932,1025.882,535.473,1026.394Zm10.494-56.016c-.4-.043-.613-.065-.829-.087-.288-.029-.641.029-.735-.368-.058-.252.159-.389.771-.5.245-.05.483-.115.75-.173a5.793,5.793,0,0,0,.137-1.975c-.144-.072-.252-.137-.368-.187-.231-.1-.569-.151-.469-.483.043-.137.332-.223.519-.288a3.445,3.445,0,0,1,.634-.094,3.581,3.581,0,0,0,.123-2.1,8.538,8.538,0,0,1-1-.353.509.509,0,0,1-.245-.4.542.542,0,0,1,.324-.353,10.563,10.563,0,0,1,1.1-.195,4.05,4.05,0,0,0,.2-2.025c-.541-.151-1.074-.3-1.586-.44a5.639,5.639,0,0,0-.512,2.328c-.223,1.816-.5,3.618-.728,5.434-.216,1.723-.267,3.467-.577,5.182a8.7,8.7,0,0,0-.137,1.3,3.385,3.385,0,0,0,.122.7c.685-.086,1.283-.159,1.888-.238a3.02,3.02,0,0,0,.368-1.773,6.9,6.9,0,0,1-.966-.108.979.979,0,0,1-.5-.317c-.1-.137.187-.418.512-.483s.663-.108,1.067-.173C545.873,971.6,545.916,971.055,545.967,970.378Zm-.043-15.964a11.591,11.591,0,0,0,2.537-.123c.814-.007,1.629.1,2.5.159a10.783,10.783,0,0,0,.288-3.294,7.8,7.8,0,0,0-2.285.007c-.216.288-.375.5-.569.757-.13-.281-.223-.469-.324-.685a7.154,7.154,0,0,0-1.8-.086c-.122.75-.245,1.427-.332,2.112A8.483,8.483,0,0,0,545.924,954.413ZM515.818,985.83c1.42-.274,2.645.4,3.892.058a2.1,2.1,0,0,0,.216-1.571c-.231-.022-.483-.043-.735-.072-.649-.072-1.3-.137-1.939-.238-.115-.014-.209-.187-.389-.353,1.146-.346,2.2.13,3.272-.187a1.944,1.944,0,0,1,.166-.44.428.428,0,0,1,.807.022,7.23,7.23,0,0,1,.324.786c.85.079,1.622.151,2.371.216a1,1,0,0,0,.223-1.067c-.31-.058-.649-.122-.98-.187a30.649,30.649,0,0,1-4.108-.656,5.051,5.051,0,0,0-2.213.13C516.582,983.466,515.89,984.475,515.818,985.83Zm49.573,15.575c-.223.389-.079.85-.541,1.175-.094-.5-.173-.937-.259-1.427-.908-.072-1.73-.375-2.573-.353a4.286,4.286,0,0,0-.346,2.638c2,.332,4.051.1,6.083.476a6.233,6.233,0,0,0,.137-2.169A3.63,3.63,0,0,0,565.391,1001.406Zm7.049,1.1c-.072.288-.122.533-.2.778-.079.267-.187.526-.317.886-.281-.692.079-1.362-.49-1.96-.591-.086-1.276-.2-1.96-.288a4.226,4.226,0,0,0-.735.036c-.079.368-.144.663-.2.959-.072.331-.252.663.022,1.067,2.047.231,3.993,1.225,6.184,1.218a4.573,4.573,0,0,0,.029-2.206A6.435,6.435,0,0,0,572.44,1002.5Zm-35.648-7.092c-.195.382-.375.778-.584,1.153a12.115,12.115,0,0,1-.706,1.081,1.548,1.548,0,0,0-.267,1.456c.375.3.872.526,1.081.908a1.366,1.366,0,0,0,1.362.685,6.709,6.709,0,0,1,.476-1.362,4.657,4.657,0,0,0,.649-2.35c.05-2.241.029-1.852-1.766-1.651A.977.977,0,0,0,536.792,995.409Zm5.68-13.348c-.411,2.069-.814,4.094-1.24,6.213a17.157,17.157,0,0,0,2.206-.029c.144-.512.259-.959.4-1.413s.389-.879.122-1.312c-.569-.238-1.232.382-1.7-.274.569-.605,1.42-.029,2.011-.605a14.411,14.411,0,0,0,.245-2.588C543.826,982.061,543.185,982.061,542.471,982.061ZM561.448,996.5c-.425-.022-.685-.043-.937-.043a8.128,8.128,0,0,1-3.207-.49,31.94,31.94,0,0,0-4.67-.62c-.058.231-.13.476-.166.721s-.036.49-.058.771c.411.087.75.173,1.088.224a2.7,2.7,0,0,0,.526-.036c.144-.31.281-.6.5-1.074.209.483.332.778.476,1.117a17.783,17.783,0,0,0,2.407.346,1.73,1.73,0,0,0,.187-.238c.1-.216.05-.577.44-.512.267.043.259.3.3.519.029.159.072.324.108.5a10.809,10.809,0,0,0,2.825.569C561.319,997.665,561.376,997.16,561.448,996.5Zm-29.471,12.238a17.711,17.711,0,0,1,.051,2.724,1.05,1.05,0,0,0,1.088.288,8.8,8.8,0,0,0,.685-4.007,1.684,1.684,0,0,0-1.1-.31c-.346-.029-.692-.087-1.038-.094a1.482,1.482,0,0,0-1.146.245c-.086,1.117-.627,2.2-.555,3.4.332.123.605.245.894.324a2.218,2.218,0,0,0,.541.007A16.385,16.385,0,0,1,531.977,1008.736Zm31.763,32.686a4.42,4.42,0,0,0-3.178-.425,9.785,9.785,0,0,1-2.7.209c-.072,0-.144.079-.3.173.043.461.094.958.144,1.492,2.112.231,4.137-.209,6.263-.2C563.885,1042.207,563.813,1041.839,563.74,1041.421Zm-6.278-38.272c1.254.015,2.328.49,3.5.159a9.686,9.686,0,0,0,.022-2.5c-.85-.166-1.658-.346-2.465-.476a3.016,3.016,0,0,0-.771.079c-.1.62-.209,1.168-.281,1.723A9.173,9.173,0,0,0,557.463,1003.15Zm25.586-3.806a15.411,15.411,0,0,0-6.487-.735V1000a3.674,3.674,0,0,0,2.443.3,4.487,4.487,0,0,1,.288-.879.686.686,0,0,1,.5-.31.671.671,0,0,1,.469.368,5.077,5.077,0,0,1,.144,1.038,6.16,6.16,0,0,0,2.638-.058Zm-63.62-10.7a8.806,8.806,0,0,0,.137-1.845c-1.023-.123-2.047-.3-3.07-.36-1.11-.058-1.24.094-1.449,1.2a2.49,2.49,0,0,0,.029.548C516.5,988.5,517.829,989.081,519.429,988.648Zm-9.694-1.557c1.564.389,2.984,1.341,4.714.836.05-.483.108-.944.151-1.333-.324-.461-.735-.4-1.117-.4s-.865-.1-1.146.079c-.562.368-.663-.36-1.124-.332a16.93,16.93,0,0,1-2.631-.231c-.072.187-.144.375-.245.62l1.838.49A4.5,4.5,0,0,1,509.735,987.092Zm21.593,48.391c.094.137.151.3.245.324.5.137,1.009.245,1.514.36a5.646,5.646,0,0,1,1,.238c.3.123.476.375.18.75l-1.744.094c.584.836,1.312.469,1.9.613a7.485,7.485,0,0,0,.656-3.928c-1.023-.108-2.054-.209-3.078-.31a.671.671,0,0,0-.252.058c-.3.115-.4.714-.137.886a2.381,2.381,0,0,0,.584.267,10.024,10.024,0,0,1,1.859.771c-.562.382-.93.014-1.3-.05A2.585,2.585,0,0,0,531.328,1035.482Zm19.186,6.681a2.5,2.5,0,0,0,.454.223,4.668,4.668,0,0,0,.887.209c1.413.094,2.833.166,4.324.252a5.868,5.868,0,0,0-.447-1.845c-.288.036-.533.065-.793.1-.086.375-.137.714-.245,1.031a.41.41,0,0,1-.3.209.38.38,0,0,1-.31-.18c-.144-.353-.252-.721-.382-1.1-1.074-.151-2.09-.288-3.186-.44Zm-6.552-.973c3.128.951,3.95,1.074,5.225.778a3.1,3.1,0,0,0-.476-1.478,13.337,13.337,0,0,0-4.606-.3c-.058.216-.115.382-.144.555A3.014,3.014,0,0,0,543.963,1041.191Zm1.888-48.023a10.258,10.258,0,0,0-4.368-.31,2.222,2.222,0,0,0-.108,1.651,14.713,14.713,0,0,0,4.1.173A3.157,3.157,0,0,0,545.852,993.167Zm-16.808,22.624c.677.541.677.548,1.47.533a8.715,8.715,0,0,0,.634-4.072c-.216-.072-.454-.151-.7-.224-.2-.058-.4-.108-.6-.166A11.553,11.553,0,0,0,529.044,1015.792Zm3.568,14.653a4.584,4.584,0,0,0-.62,2.184c1.009.6,2.155.274,3.193.677a3.547,3.547,0,0,0,.151-2A9.352,9.352,0,0,0,532.611,1030.444Zm.476-12.75a11.582,11.582,0,0,0-.987,4.649,1.534,1.534,0,0,0,1.3.159,6.83,6.83,0,0,0,.288-1.6,13.919,13.919,0,0,0,.346-1.514c.079-.541.432-1.045.288-1.636A1.452,1.452,0,0,0,533.087,1017.694ZM520.38,986.847a4.362,4.362,0,0,0-.368,1.932,8.974,8.974,0,0,0,3.5.317,3.26,3.26,0,0,0,.065-1.96A21.645,21.645,0,0,0,520.38,986.847Zm-18.127-.677c.793-.007,1.492.368,2.22.13.072-.159.13-.274.173-.4.245-.62.173-1.124-.814-1.254-1.11-.151-2.242-.18-3.337-.26a5.691,5.691,0,0,0-.5.692.527.527,0,0,0,.375.8,6.009,6.009,0,0,0,.843.094c.483-.1.389-.656.829-.541C502.088,985.643,502.153,985.845,502.254,986.169Zm73.617,17.046a3.1,3.1,0,0,0-.252,2.2,10.762,10.762,0,0,0,3.265.079,3.19,3.19,0,0,0-.18-1.737C577.795,1003.575,576.872,1003.4,575.871,1003.215ZM545.506,992.13c-.115-.238-.144-.418-.259-.519-.483-.432-.987-.85-1.492-1.254a3.665,3.665,0,0,1-1.11-1.074c-.173-.332-.476-.332-.822-.079-.036.389-.108.822-.108,1.254s-.166.865.173,1.326A24.273,24.273,0,0,0,545.506,992.13Zm3.733-44.679a7.148,7.148,0,0,0-.115,2.595,6.117,6.117,0,0,0,2.2.051c.187-.894.368-1.715.548-2.58A8.52,8.52,0,0,0,549.239,947.451Zm-15.273,65.386a4.657,4.657,0,0,0-.469,2.083c-.065.67-.223,1.333-.353,2.04a2.932,2.932,0,0,0,1.557.029,17.294,17.294,0,0,0,.656-3.914A1.837,1.837,0,0,0,533.966,1012.837Zm3.633-8.606a2.064,2.064,0,0,0-.512,1.463c-.281,1.888-.375,3.8-.822,5.665a7.605,7.605,0,0,0-.094,1.175c.274.115.5.209.771.332a2.42,2.42,0,0,0,.2-.533c.108-1.168.2-2.335.3-3.5.065-.735.144-1.463.223-2.2A5.366,5.366,0,0,0,537.6,1004.231Zm-32.751-21.939a8.51,8.51,0,0,0,.476-.793,7.7,7.7,0,0,0,.267-.814,2.026,2.026,0,0,0-1.658-.2c-.094.216-.187.411-.252.613s-.108.411-.151.577c.195.238.353.418.519.62-1.348.67-1.1.613-1.247,1.615.692.115,1.391.238,2.112.36C505.151,983.531,505.36,982.868,504.848,982.292Zm33.378,9.593h-2.753a8.7,8.7,0,0,0-.195,1.016,8.958,8.958,0,0,0-.007.98c1.55.75,2.191.814,3.106.332A4.367,4.367,0,0,0,538.226,991.885Zm-7.762,46.992a4.055,4.055,0,0,0-2.544-.5,10.587,10.587,0,0,1-2.977.223c-.274-.029-.627-.086-.807.267.324.4.641.786,1,1.225.375,0,.807.007,1.24-.007.065,0,.13-.094.209-.151.079-.339-.382-.721.1-1.11a2.074,2.074,0,0,0,1.816.793C529.159,1039.519,529.981,1039.764,530.464,1038.877Zm16.88-74.856a8.17,8.17,0,0,0-.18,2.191,4.1,4.1,0,0,0,2.076.389,6.68,6.68,0,0,0,.382-2.169,3.556,3.556,0,0,0-.144-.757c-.634.072-1.189.13-1.751.2A1.986,1.986,0,0,0,547.344,964.021Zm-13.492,36.816c.079.548.13.93.195,1.312.058.324-.353.836.05.923.461.1.267-.5.382-.786a.557.557,0,0,1,.605-.382.585.585,0,0,1,.569.454,4.152,4.152,0,0,1,.007.519c.036.519.072.541.764.447.014-.043.029-.079.043-.123.122-.3-.022-.843.411-.865.5-.022.324.5.4.814.05.195.036.454.432.382a8.494,8.494,0,0,0,.05-2.191C536.467,1001.269,535.271,1000.858,533.851,1000.836Zm2.9,16.736c-.122-1.521.526-2.883.245-4.382h-1.081a17.145,17.145,0,0,0-.432,2.054c-.065.67-.432,1.326-.137,2.061C535.776,1017.392,536.186,1017.471,536.749,1017.572Zm-2.256-9.68c.115,1.586-.548,2.775-.418,4.058a1.586,1.586,0,0,0,1.456.281c.166-1.16.259-2.357.324-3.6C535.494,1008.433,535.156,1008.253,534.493,1007.892Zm45.27-3.943a2.232,2.232,0,0,0-.022,1.629,6.9,6.9,0,0,0,3.085.1,5.883,5.883,0,0,0-.086-1.744c-.519,0-.987-.007-1.456,0S580.354,1003.69,579.763,1003.95Zm-16.3,36.463c-.029-.324-.043-.562-.065-.778a23.16,23.16,0,0,0-5.507-.223c-.144.029-.3.288-.332.468a.469.469,0,0,0,.281.368,10.2,10.2,0,0,0,1.55.159C560.685,1040.427,561.989,1040.412,563.467,1040.412Zm-36.535-51.022a4.927,4.927,0,0,0,0-1.867,8.44,8.44,0,0,0-2.306-.18,2.666,2.666,0,0,0-.469,1.852A4.377,4.377,0,0,0,526.932,989.391Zm17.572-8.123c.231-.858.432-1.564.6-2.27a2.531,2.531,0,0,0-.014-.613,5.1,5.1,0,0,0-2.256.649c.007.742-.425,1.442-.317,2.234Zm-7.193,56.953c-.123.029-.3.007-.339.079-.267.389-.663.656-.937,1a1.009,1.009,0,0,1-.85.44,5.58,5.58,0,0,1-2.314-.115,1.035,1.035,0,0,0-.742.087c-.144.072-.187.346-.3.577a5.747,5.747,0,0,0,.951.209c1.384.065,2.76.1,4.144.137a.472.472,0,0,0,.2-.079C537.2,1039.785,537.253,1039.029,537.311,1038.221ZM512.07,983.654a5.55,5.55,0,0,0-2.782-.411,3.02,3.02,0,0,0-.353,1.687,13.607,13.607,0,0,0,2.8.368A2.306,2.306,0,0,0,512.07,983.654Zm20.9,20.26c-.641-.224-1.153-.4-1.723-.6a8.469,8.469,0,0,0-.519,3.207,2.924,2.924,0,0,0,1.723-.007C532.619,1005.68,532.784,1004.844,532.972,1003.914Zm14.415-41c.908.043,1.629.079,2.422.115a4.754,4.754,0,0,0,.389-2.342c-.829.043-1.586.079-2.407.122C547.661,961.5,547.545,962.118,547.387,962.918Zm1.607,75.332a13.443,13.443,0,0,0-4.375.05c-.05.288-.1.562-.166.937.793.022,1.485.029,2.169.072a5.021,5.021,0,0,0,2.141.13C548.821,1039.108,548.893,1038.74,548.994,1038.25Zm30.949-35.172a15.964,15.964,0,0,0,2.775.108c.339-1.009.339-1.009.007-1.744-.411-.022-.843-.065-1.269-.058s-.85-.166-1.268.065A2.592,2.592,0,0,0,579.943,1003.078Zm-56.124-18.422c-.959-.058-1.845-.108-2.746-.159-.159.562-.425,1.016-.281,1.521a7.065,7.065,0,0,0,2.825.332A1.98,1.98,0,0,0,523.818,984.656Zm27-29.125a6.214,6.214,0,0,0-2.6-.144c.231.656-.079,1.254.216,1.881a8.179,8.179,0,0,0,2.342.094c.043-.389.1-.728.108-1.067A4.764,4.764,0,0,0,550.818,955.53Zm-35.208,80.594c-1.888.13-3.7.245-5.478.368-.108.656-.036.836.31.865a2.079,2.079,0,0,0,.519,0,21.983,21.983,0,0,1,4.015-.18C515.588,1037.155,515.667,1037.054,515.609,1036.124Zm16.332-6.66c.166-1.11.31-2.083.461-3.157-.454-.079-.9-.159-1.42-.245a1.632,1.632,0,0,0-.022,3.193C531.256,1029.334,531.552,1029.385,531.941,1029.464Zm16.548-79.419c-.123-.944.029-1.946-.649-2.833h-.93c-.151.887-.3,1.694-.432,2.508a2.6,2.6,0,0,0,.05.613A3.6,3.6,0,0,0,548.49,950.045Zm-20.592,37.5c-.1.706-.195,1.3-.274,1.831a1.742,1.742,0,0,0,1.16.432c.368.05.735.122,1.2.195-.043-.793-.086-1.47-.123-2.169-.411-.115-.742-.231-1.074-.288C528.539,987.517,528.273,987.546,527.9,987.546Zm20.851-17.86a23.121,23.121,0,0,0,.44-2.321,5.2,5.2,0,0,0-2.213.036,3.353,3.353,0,0,0-.144,1.924C547.437,969.433,548.014,969.542,548.749,969.686Zm-13.42,34.307a12.94,12.94,0,0,0-.62,3.157c.4.267.67.67,1.182.692a11.856,11.856,0,0,0,.425-3.618C536.028,1004.159,535.74,1004.094,535.329,1003.993Zm40.881-3.042a6.763,6.763,0,0,0-.209.67c-.051.245-.065.49-.1.786.987.324,1.939.231,2.912.461.079-.634.288-1.175-.1-1.694C577.91,1001.1,577.139,1001.038,576.209,1000.952Zm-30.084-15.928a10.642,10.642,0,0,0,.533-3.171,1.571,1.571,0,0,0-1.427.274c-.022.886-.476,1.73-.31,2.7C545.282,984.886,545.614,984.944,546.125,985.023Zm-12.779,38.264a2.18,2.18,0,0,0-1.622-.137,8.338,8.338,0,0,0-.49,2.1,2.526,2.526,0,0,0,1.658.332A4.046,4.046,0,0,0,533.347,1023.287Zm-17.5,16.75c.007-.05.014-.108.022-.159a1.749,1.749,0,0,0-.44-.173,39.047,39.047,0,0,0-8.44.166,1.451,1.451,0,0,0,1.11.447,40.969,40.969,0,0,1,4.8-.187C513.879,1040.146,514.859,1040.066,515.847,1040.037Zm46.575-41.58c.814-.115,1.542.317,2.328.195a1.994,1.994,0,0,0,.014-1.65c-.793,0-1.528-.49-2.414-.26C562.422,997.283,562.1,997.795,562.422,998.458ZM522.8,1038.942c-.094-.173-.115-.332-.2-.375a5.765,5.765,0,0,0-2.342-.634c-.641-.029-1.29-.036-1.932-.029a4.1,4.1,0,0,0-.886.123.372.372,0,0,0-.209.281.384.384,0,0,0,.187.288,1.445,1.445,0,0,0,.5.123c1.117.108,2.227.223,3.344.31A3.543,3.543,0,0,0,522.8,1038.942Zm3.027-2.1v.879a2.11,2.11,0,0,0,.634.022,7.119,7.119,0,0,1,3.215.029,1.827,1.827,0,0,0,.764-.036.4.4,0,0,0,.3-.5c-.029-.144-.137-.36-.252-.4a3.064,3.064,0,0,0-.887-.123C528.4,1036.751,527.191,1036.794,525.829,1036.837Zm4.087-53.169c-.591-.029-1.016-.043-1.449-.079-.339-.029-.685-.072-1.023-.13-.641-.108-1.276-.238-1.91-.346-.072-.014-.159.058-.324.115-.036.281-.072.605-.115.987.425.051.771.072,1.1.137a1.193,1.193,0,0,0,1.261-.469c.065-.079.231-.079.382-.13.577.44.973,1.3,2,.951C529.865,984.418,529.887,984.129,529.916,983.668Zm18.711-13.413a4.258,4.258,0,0,0-1.917.1,3.487,3.487,0,0,0-.159,1.9c.512.188.973.483,1.535.252A4.979,4.979,0,0,0,548.626,970.255Zm8.591,29.378a2.2,2.2,0,0,0,.1-1.413,5.958,5.958,0,0,0-2.364-.332,2.13,2.13,0,0,0,.065,1.593c.562.079,1.124.159,1.687.224A2.773,2.773,0,0,0,557.218,999.633Zm15.719.13a5.664,5.664,0,0,0,2.155-.05c.166-.512.31-.959.469-1.456a3.933,3.933,0,0,0-2.371-.187A2.253,2.253,0,0,0,572.937,999.762Zm-40.809,12.606a10.853,10.853,0,0,0-.533,4.332c.483.151.627-.187.706-.533.259-1.1.49-2.206.728-3.308.014-.065-.065-.151-.115-.267C532.7,1012.534,532.453,1012.462,532.129,1012.368Zm-7.352-25.752a4.927,4.927,0,0,0,2.148-.029c.029-.5.058-.951.086-1.4a3.367,3.367,0,0,0-2.09-.216A2.344,2.344,0,0,0,524.777,986.616Zm43.367,12.332a1.755,1.755,0,0,0,.159-1.405,5.237,5.237,0,0,0-2.335-.281,1.764,1.764,0,0,0-.007,1.42c.324.043.663.079,1,.151C567.33,998.912,567.676,999.157,568.144,998.948ZM547.92,959.92a5.577,5.577,0,0,0,2.422-.022c-.058-.519.425-.966.065-1.571-.75.072-1.521-.195-2.321.223C548.043,958.954,547.985,959.379,547.92,959.92Zm24.044,38.156a3.138,3.138,0,0,0-2.22-.31,1.5,1.5,0,0,0-.26,1.449,6.1,6.1,0,0,0,2.3.259C571.849,998.991,571.906,998.566,571.964,998.076Zm-20.159.771a3.3,3.3,0,0,0,2.378.3v-1.427a8.232,8.232,0,0,0-2.155-.195C551.949,997.968,551.877,998.386,551.8,998.847Zm-6.054-43.555a4.587,4.587,0,0,0,.022,2c.548-.043,1.06.144,1.586-.108a2.914,2.914,0,0,0,.166-1.651c-.245-.058-.454-.123-.663-.151C546.522,955.343,546.176,955.328,545.751,955.292Zm-7.013,85.307a8.558,8.558,0,0,0,3.64.159v-.879h-3.431C538.875,1040.138,538.81,1040.369,538.738,1040.6Zm6.508-64.514a2.8,2.8,0,0,0-1.953.324,1.809,1.809,0,0,0-.079,1.521c.663-.137,1.326-.281,2.032-.425Zm.8,2.436a4.3,4.3,0,0,0-.605,2.616,2.007,2.007,0,0,0,1.434-.007,6.251,6.251,0,0,0,.245-1.946.581.581,0,0,0-.533-.627C546.414,978.536,546.241,978.536,546.046,978.522Zm-38.192,6.242a3.736,3.736,0,0,0,.317-1.744,2.436,2.436,0,0,0-1.773-.209,3.563,3.563,0,0,0-.461,1.766C506.585,984.641,507.169,984.7,507.854,984.764Zm32.816,10.58c-.692-.49-.908-.44-1,.195-.065.432-.1.865-.13,1.3-.036.562-.058,1.124-.058,1.679,0,.317.223.461.519.461a3.687,3.687,0,0,0,.62-.115A8.855,8.855,0,0,1,540.669,995.344Zm-1.571,43.4a14.313,14.313,0,0,0,2.746.187,1.737,1.737,0,0,0,.742-.2.418.418,0,0,0,.137-.332.389.389,0,0,0-.209-.281,11.881,11.881,0,0,0-3.532-.3C539.026,1038.171,539.062,1038.445,539.1,1038.747Zm-29.089-.425c.137.238.324.18.483.187,1.427.065,2.854.13,4.281.187a3.049,3.049,0,0,0,.771-.022c.115-.029.231-.231.259-.368.022-.087-.108-.216-.173-.317-.022-.029-.079-.029-.123-.029l-3.351-.108c-.043,0-.079.029-.123.036-.6.072-1.2.137-1.795.231C510.153,1038.128,510.081,1038.257,510.009,1038.322Zm51.058-39.151a11,11,0,0,0-2.739-.692.973.973,0,0,0-.187,1.2c.93.014,1.845.548,2.919.288C561.066,999.669,561.066,999.431,561.066,999.171Zm-14.826-23.907a2.818,2.818,0,0,0,1.2.382,7.623,7.623,0,0,0,.5-2.249,1.615,1.615,0,0,0-1.441-.108C546.435,973.916,546.01,974.515,546.241,975.264Zm-42.618,90.6c-.209-.375-.418-.483-.685-.267-.231.187-.425.418-.656.613a.233.233,0,0,1-.238-.007c-.079-.086-.18-.252-.144-.317.173-.339.382-.656.562-.959-.195-.49-.62-.663-.951-.93-.18-.144-.4-.166-.6.115.166.49.332,1.024.519,1.55a7.736,7.736,0,0,0,.692,1.751C502.665,1066.864,503.133,1066.374,503.623,1065.869Zm27.388-33.522a7.224,7.224,0,0,0,.721-2.119c-.533-.13-1.023-.245-1.55-.368a3.669,3.669,0,0,0-.223,2.227C530.312,1032.182,530.629,1032.261,531.011,1032.347Zm-21.132-51.194c-.144.44-.353.778-.151,1.218.757.1,1.514.209,2.328.317a2.476,2.476,0,0,0,.332-1.247C511.494,981.34,510.686,981.246,509.879,981.153ZM545.628,958a2.364,2.364,0,0,0-.18,1.715c.569.043,1.052.454,1.73.108a2.937,2.937,0,0,0-.043-1.492C546.63,958.219,546.14,958.11,545.628,958Zm-14.739,64.175c.288-1.067.591-2.054.814-3.063a6.271,6.271,0,0,0,.043-1.427c0-.079-.173-.209-.274-.216s-.3.086-.317.173a4.828,4.828,0,0,0-.281,1.391,5.063,5.063,0,0,1-.584,2.912C530.521,1022.033,530.673,1022.091,530.889,1022.17Zm-1.607,6.595c.238-.872.454-1.651.656-2.436a.444.444,0,0,0-.317-.605c-.317-.079-.476.087-.591.353a7.362,7.362,0,0,0-.634,2.472c0,.065.094.13.151.216Zm39.792-27.677a5.042,5.042,0,0,0,2.645.2c-.058-.865-.058-.865-.548-1.052a3.054,3.054,0,0,0-1.939-.144C569.182,1000.382,569.139,1000.671,569.074,1001.089Zm5.91-.324a7.353,7.353,0,0,0-2.342-.058v.865a10.778,10.778,0,0,0,2.227.483C574.9,1001.629,574.941,1001.261,574.984,1000.764Zm-40.924,6.184c.094-.894.18-1.622.252-2.35a1.547,1.547,0,0,0,0-.259.421.421,0,0,0-.411-.418.5.5,0,0,0-.519.31.353.353,0,0,0-.043.123c-.123.764-.238,1.528-.368,2.357C533.318,1006.79,533.6,1006.847,534.06,1006.948Zm-5.564-21.8a2.391,2.391,0,0,0-.4,1.593,2.6,2.6,0,0,0,1.795.158c-.014-.454.137-.872-.108-1.319C529.39,985.448,528.993,985.311,528.5,985.146Zm39.547,15.727v-1.009a3.083,3.083,0,0,0-2.465-.238c0,.238-.014.454.007.663.007.072.094.137.187.259C566.443,1000.642,567.164,1000.75,568.043,1000.872Zm-59.4-19.741a8.927,8.927,0,0,0-2.479-.187c.079.375.144.7.223,1.088.62.072,1.211.144,1.795.195.072.007.144-.072.245-.13C508.488,981.83,508.546,981.549,508.639,981.131Zm-4.483,85.242c-.764.353-1.045,1.117-1.434,1.773-.072.123.022.418.123.569a.359.359,0,0,0,.569,0,11.884,11.884,0,0,0,.923-1.074A.828.828,0,0,0,504.156,1066.374Zm42.985-88.234a2.5,2.5,0,0,0,.245-1.852,2.1,2.1,0,0,0-1.441-.022v1.456C546.349,977.866,546.7,977.989,547.142,978.14Zm-41.371,6.984c-.339.469-.512.793-.3,1.247.735.18,1.427-.245,2.205-.022v-.9C507.032,985.34,506.412,985.232,505.771,985.124Zm58.892,15.179c.1-.447.13-.764-.252-.879a3.075,3.075,0,0,0-2.249-.1c-.108.3-.173.634.144.7A5.915,5.915,0,0,0,564.663,1000.3Zm-35.835,31.6c.043-.865.086-1.586.122-2.285-.195-.231-.389-.36-.728-.13a6.328,6.328,0,0,0-.166,1.968.572.572,0,0,0,.216.425C528.381,1031.958,528.583,1031.9,528.828,1031.9Zm11.986-41.969c-.6.029-.605.022-.678.223s-.137.411-.195.62c-.187.692-.029.85.822.807A2.991,2.991,0,0,0,540.814,989.931Zm-16.808,46.8c-.144.858-.086,1.088.238,1.11a.6.6,0,0,0,.706-.541C525,1036.873,524.849,1036.78,524.006,1036.729Zm15.453-43.065c-.007.649.115.721,1.052.627-.036-.238-.079-.476-.123-.757C540.035,993.586,539.74,993.622,539.459,993.665Zm-4.865,45.162c-.858-.05-1.413-.079-1.968-.115C533.167,1038.949,533.671,1039.475,534.594,1038.827Zm-13.471-1.723c.173.476.6.425.937.512.223.058.411-.022.432-.36A1.91,1.91,0,0,0,521.123,1037.1Zm18.249-44.218a8.646,8.646,0,0,0,.865.036.345.345,0,0,0,.231-.245.394.394,0,0,0-.144-.324,1.213,1.213,0,0,0-.49-.144C539.415,992.158,539.372,992.216,539.372,992.886Zm-8.613,40.556a1.442,1.442,0,0,0-.36-.144.348.348,0,0,0-.454.324c-.058.375.123.663.432.656.274-.007.353-.209.389-.432C530.774,1033.717,530.759,1033.587,530.759,1033.443Zm-1.434,8.541c.346-.115.663-.223.98-.346.05-.022.072-.115.115-.18a1.364,1.364,0,0,0-1.463.058C529.094,1041.7,529.2,1041.832,529.325,1041.984Zm-.223-6.364a7.923,7.923,0,0,0,1.023.058.357.357,0,0,0,.252-.224.366.366,0,0,0-.115-.324.914.914,0,0,0-.584-.151C529.512,1035.028,529.4,1035.266,529.1,1035.619ZM518.831,1037c.007.058.022.115.029.173a5.827,5.827,0,0,0,.613.036,2.79,2.79,0,0,0,.476-.1.556.556,0,0,1-.014-.108Zm17.514.829-.822-.288C535.509,1038.092,535.559,1038.12,536.345,1037.832Zm-19.143-.771a4.113,4.113,0,0,0,.533.094c.043,0,.079-.094.122-.151-.036-.022-.072-.065-.108-.058C517.634,1036.96,517.519,1036.989,517.2,1037.061Zm30.718-35.792-.151.022c.022.137.036.267.058.4.058-.015.173-.036.173-.036C547.978,1001.528,547.942,1001.4,547.92,1001.269Zm-39.122-14.4c-.007-.029-.007-.086-.014-.086-.079-.014-.159-.022-.245-.036.007.05.014.108.022.158C508.639,986.89,508.719,986.883,508.8,986.868Zm26.041,13-.007.079.1-.036Z" fill="#af947d"/>
    <path id="パス_8907" data-name="パス 8907" d="M551.212,1103.107c-.1.375-.195.75-.3,1.117-.036.123-.144.224-.173.353a13.268,13.268,0,0,1-1.521,3.294,7.66,7.66,0,0,0-.562,2,1.594,1.594,0,0,0,.122.764,2.267,2.267,0,0,0,.332.706,1.247,1.247,0,0,1-.966,2.011,8.606,8.606,0,0,1-1.427-.014.588.588,0,0,1-.317-.2c-.05-.05-.043-.151-.094-.324.187.014.339.021.49.036a6.231,6.231,0,0,0,1.023.079c.771-.072,1-.5.548-1.16-.98-1.413-.5-2.739.13-4.065a4.035,4.035,0,0,1,.641-.98,3.2,3.2,0,0,0,.692-2.7c-.288-.144-.569-.274-.829-.418a1.762,1.762,0,0,1-.951-1.283,7.445,7.445,0,0,0-1.031-1.924c-.029-.05-.159-.036-.332-.079-.526.685-.627,1.65-1.3,2.313a20.684,20.684,0,0,0-1.65,2.09,2.4,2.4,0,0,0,.137.569,7.074,7.074,0,0,1,.591,2.393c.108.814.3,1.622.411,2.436a6.5,6.5,0,0,1,.05,1.3c-.022.324-.223.562-.706.577a1.963,1.963,0,0,1-.332-.591,14.246,14.246,0,0,1-.332-2.191,18.081,18.081,0,0,0-.483-3.885,6.2,6.2,0,0,1-.086-.944,6.394,6.394,0,0,0,1.838-1.816,5.434,5.434,0,0,0,.886-1.723,2.772,2.772,0,0,1,.389-.822,1.468,1.468,0,0,1,1.795-.67c.166.036.324.094.476.137a3.088,3.088,0,0,1,3.56-1.55,12.92,12.92,0,0,0,2.458.281,1.562,1.562,0,0,1,1.751,1.55,4.335,4.335,0,0,1-.353,2.681,7.066,7.066,0,0,0-.67,3.546c.05,1.434-.036,2.876-.108,4.31a2.847,2.847,0,0,1-1.4,2.5,10.765,10.765,0,0,0-2.414,2.371,9.142,9.142,0,0,1-.6.692c-.454.425-.706.418-1.384.007a1.118,1.118,0,0,0-.656.879c-.231.923-.483,1.845-.714,2.739.036.079.043.144.072.151.2.072.411.13.714.216a14.786,14.786,0,0,1,4.685-3.294c.346.115.476.3.346.613-.173.4-.353.778-.569,1.247a8.978,8.978,0,0,0,1.031.613,12.835,12.835,0,0,1,3.827,2.89,3.676,3.676,0,0,1,1.449,2.559,9.921,9.921,0,0,0-.526,1.031,1.389,1.389,0,0,1-1.521.958,3.84,3.84,0,0,1-2.89-1.29,10.124,10.124,0,0,1-1.831-3.582c-.079-.245-.144-.5-.259-.9a4.614,4.614,0,0,0-.389.685,11.8,11.8,0,0,1-1.5,3.459,12.02,12.02,0,0,1-2.573,2.76,8.454,8.454,0,0,1-1.831.987c-.649.274-.793.18-1.276-.476a2.214,2.214,0,0,0-.151-.209.817.817,0,0,0-.144-.094c-.483.3-.49,1.139-1.268,1.175-.281-.425.332-.8.065-1.218a13.848,13.848,0,0,1-3.142-2.393,6.684,6.684,0,0,1-1.65-5.7c.36-2.278.85-4.533,1.3-6.8a10.387,10.387,0,0,1,.389-1.384c.137-.382.432-.519.93-.389a4.522,4.522,0,0,1,.115.951,6.285,6.285,0,0,0,.98,3.964c.634.987,1.153,2.047,1.737,3.07a4.66,4.66,0,0,0,.368.469c.469-1.254.656-2.537,1.773-3.481.151.771-.332,1.24-.49,1.787s-.252,1.081-.375,1.636c.836.015,1.211-.245,1.3-.814a10.625,10.625,0,0,1,.231-1.268c.029-.108.259-.187.411-.209.05-.007.13.2.245.382.3-.5.541-.944.123-1.492a2.143,2.143,0,0,1-.274-1.751c.036-.209.079-.245.613-.4.079.454.151.894.238,1.413.339-.18.6-.317.887-.476.267.231.519.454.764.67.115-.029.223-.014.274-.072.461-.461.937-.915,1.355-1.413a6.754,6.754,0,0,1,1.744-1.557,2,2,0,0,0,1.038-1.831c.05-1.175.115-2.35.166-3.517a9.135,9.135,0,0,0,0-1.175,4.009,4.009,0,0,1,.195-2.234c-.216-.353-.425-.223-.627-.173a3.138,3.138,0,0,1-2.739-.425c.029-.144.058-.281.094-.425a.831.831,0,0,1,.843-.209,9.006,9.006,0,0,0,1.153.2.891.891,0,0,0,1.045-.764,7.544,7.544,0,0,1,.512-1.744.708.708,0,0,0-.4-.865,2.365,2.365,0,0,0-.5-.13c-.858-.13-1.723-.252-2.58-.375a3.545,3.545,0,0,0-.778-.065,1.962,1.962,0,0,0-.562.274c.252.151.411.231.548.332.706.548.735.62.317,1.5a1.292,1.292,0,0,0,.173,1.564c.086.094.173.195.259.288-.238-.079-.425.014-.432.245C550.866,1103.15,551.039,1103.215,551.212,1103.107Zm-10.919,12.044c-.382,1.492-.656,2.76-1.031,4.007a5.921,5.921,0,0,0,.382,4.425,4.815,4.815,0,0,0,2.378,2.486,3.123,3.123,0,0,0,.577-.584,9.233,9.233,0,0,0,1.2-3.279,3.865,3.865,0,0,0-.656-2.847c-.7-.995-1.377-2-2.054-3.005C540.847,1116.009,540.624,1115.655,540.292,1115.151Zm4.577,12.3a.9.9,0,0,0,1.189.533,3.8,3.8,0,0,0,1.16-.577A10.282,10.282,0,0,0,551,1122.07c.324-1.132.706-2.242,1.052-3.366a7.731,7.731,0,0,0,.108-.771c-.908.67-1.658,1.189-2.364,1.759a5.692,5.692,0,0,0-2.119,3.359,1.64,1.64,0,0,1-.166.49C546.664,1124.845,546.1,1126.344,544.869,1127.454Zm13.543-3.46a1.8,1.8,0,0,0-.858-1.269c-.915-.663-1.823-1.319-2.76-1.946a5.629,5.629,0,0,0-1.168-.562c-.159-.058-.375.036-.634.072a9.58,9.58,0,0,0,.793,2.285,17.242,17.242,0,0,0,1.16,1.874.9.9,0,0,0,1.153.317c.562-.216,1.16-.339,1.737-.512A4.138,4.138,0,0,0,558.412,1123.994Zm-14.429.252c.836-.274,1.441-.4,1.8-.937a2.866,2.866,0,0,0,.368-2A5.7,5.7,0,0,0,543.983,1124.247Zm-.555,1.016c-.31.4-.6.764-.9,1.153a1.073,1.073,0,0,0,1.449.634c.267-.526.562-1.1.843-1.672.065-.144.151-.324-.115-.476C544.336,1125,543.932,1125.119,543.428,1125.263Zm6.379-22.379c.079-.641.144-1.189.209-1.744.086-.706-.274-1.009-1.16-.894.079.714.122,1.441.252,2.155C549.158,1102.718,549.467,1102.869,549.806,1102.884Zm6.559,22.415a.733.733,0,0,0,.886.49,1.245,1.245,0,0,0,1.081-.786C557.475,1124.852,557.475,1124.852,556.365,1125.3Zm-11.481-3.813c.49-.4.98-.8,1.463-1.218a.228.228,0,0,0-.043-.216.253.253,0,0,0-.223-.043A2.694,2.694,0,0,0,544.884,1121.486Zm.829,3.618c.166-.238.656-.36.324-.771-.065.115-.144.216-.195.332C545.792,1124.809,545.756,1124.96,545.712,1125.1Z" transform="translate(-11.818 -42.392)" fill="#af947d"/>
    <path id="パス_8908" data-name="パス 8908" d="M567.92,1118.394c.115-.029.3-.015.332-.087a11.229,11.229,0,0,0,1.1-6.472,2.364,2.364,0,0,0-.187-.62,1.761,1.761,0,0,1-.1-1.269,1.322,1.322,0,0,0-.389-1.3c-.555-.67-1.038-1.4-1.557-2.1a3.172,3.172,0,0,1-.569-2.342c.122-1.211.18-2.436.2-3.654.022-1.153-.007-1.153-1.124-1.715a7.079,7.079,0,0,1,.151-.822c.1-.375.252-.735.368-1.11a1.016,1.016,0,0,1,1.153-.829,10.061,10.061,0,0,1,1.175.2c.065-.274.13-.519.187-.757-.079-.065-.137-.144-.195-.151a2.327,2.327,0,0,0-.389,0,1.625,1.625,0,0,1-1.845-1.586,3.5,3.5,0,0,1-.022-.778.5.5,0,0,1,.764-.4,4.736,4.736,0,0,0,.685.353c.49.151.742-.022,1.038-.641-.339-.281-.75-.108-1.124-.187-.144-.029-.346-.159-.368-.274a.467.467,0,0,1,.216-.4,2.806,2.806,0,0,1,2.494.274c.058.043.072.151.122.26-.4.368-.822.714-1.2,1.117-.44.469-1.067.274-1.578.461.209.958.512,1.218,1.268,1.11.216-.029.425-.115.634-.144.685-.086,1.362-.159,2.169-.252a3.5,3.5,0,0,0,.159-2.782,1.266,1.266,0,0,0-.569-.67,8.041,8.041,0,0,1-1.564-1.168,2.631,2.631,0,0,0-.656-.425,1.943,1.943,0,0,0-2.292.368,8.419,8.419,0,0,0-.966,1.377c-.231.368-.418.764-.627,1.139-.05.094-.072.086-.67.029.714-1.622,1.485-3.142,3.308-3.906-.368-.281-.627-.483-.959-.735-.382.245-.771.512-1.175.75-.072.043-.238-.043-.332-.108-.036-.029-.022-.159.007-.238a.49.49,0,0,1,.151-.209,5.13,5.13,0,0,1,2.53-1.182c-.029.317-.043.541-.072.865.425-.1.807-.187,1.218-.281-.043.605-.605.67-.836,1.023a10.791,10.791,0,0,1,1.449.548,11.638,11.638,0,0,1,1.139.872,7.9,7.9,0,0,0,.98.641,1.534,1.534,0,0,1,.85,1.492,5.761,5.761,0,0,1-.649,2.8c.375.49.742.966,1.168,1.514.425.036.9.065,1.369.108a2.151,2.151,0,0,1,2.04,2.27c-.151,1.9-.389,3.806-.577,5.708a4.241,4.241,0,0,0-.029,1.168,1.668,1.668,0,0,1-.627,1.737,9.242,9.242,0,0,0-2.025,2.371c-.072.108-.144.224-.223.324-.865,1.117-1.3,1.247-2.782.778.05.4.094.778.144,1.153.043.339.1.677.166,1.117.267-.151.454-.26.714-.411.231.541-.065.951-.173,1.384-.115.469-.216.937-.332,1.4-.13.5-.274,1.009-.4,1.514-.115.469-.238.93-.31,1.405-.072.447-.411.865-.166,1.456a17.6,17.6,0,0,0,2.314-2.717c.18-.245.346-.5.548-.728a.485.485,0,0,1,.85.13,4.07,4.07,0,0,1,.31.858,6.585,6.585,0,0,1,.05,2.732,2.759,2.759,0,0,1-3.5,2.076c-.332-.1-.649-.252-1.045-.411a6.884,6.884,0,0,0-.584.62c-.649.85-.649.858-1.687.346a3.165,3.165,0,0,1,.31-2.119,5.26,5.26,0,0,1-1.528-3.5c-.187-1.2-.332-2.415-.519-3.618a8.74,8.74,0,0,1,.346-4,4.29,4.29,0,0,1,.714-1.225.74.74,0,0,1,.591-.173c.223.022.332.238.339.483a39.422,39.422,0,0,0,.915,6.069,6.407,6.407,0,0,1-.245,4.1c.014.065.029.13.043.187A1.669,1.669,0,0,0,567.92,1118.394Zm1.023.908c-.382.1-.44.346-.3.677-.447.195-.281.548-.216.865-.432.086-.382.389-.324.706-.281.029-.324.173-.151.469.05-.209.086-.353.115-.512.115-.231.231-.461.339-.7.072-.288.137-.569.209-.865l.346-.649c-.007-.13-.014-.267-.014-.332C568.943,1119.036,568.943,1119.165,568.943,1119.3Zm3.971-22.567c-.4-.079-.49-.447-.7-.714-.324-.4-.634-.822-1.045-.908a2.291,2.291,0,0,0-2.22,1.816c.173.13.368.274.555.411.807-.879.894-.922,1.924-.771.3.043.584.151.887.187a3.111,3.111,0,0,0,.627-.05,2.156,2.156,0,0,0,.065.62c.562,1.341.569,1.341-.44,2.292-.094,1.153-.2,2.278-.274,3.4a14.284,14.284,0,0,0-.05,2.076,5.408,5.408,0,0,1-1.413,4.072c-.13.159-.274.3-.5.541.173.108.281.187.389.245.187.094.382.18.533.252a2.522,2.522,0,0,0,1.24-1.009c.613-.728,1.225-1.47,1.867-2.177a2.115,2.115,0,0,0,.562-1.391c.151-1.859.476-3.7.6-5.564.022-.346.108-.685.13-1.031a1.913,1.913,0,0,0-.526-1.557,1.5,1.5,0,0,0-1.535-.469A.594.594,0,0,1,572.914,1096.736Zm-2.854,12.274a3.852,3.852,0,0,0,1.369-3.452,9.451,9.451,0,0,1,0-2.069c.072-.692.173-1.377.245-2.068a2.259,2.259,0,0,0-.274-1.636,23.218,23.218,0,0,0-4.324-1.16,11.42,11.42,0,0,1,.368,3.683c-.014.649-.094,1.3-.058,1.946a4.107,4.107,0,0,0,.3,1.636,22.46,22.46,0,0,0,1.622,2.5A4.071,4.071,0,0,0,570.06,1109.01Zm-2.674,10.357c.122-.714.166-1.153.274-1.564a4.609,4.609,0,0,0,.079-2.191c-.432-2.018-.908-4.022-1.377-6.054-.13.079-.252.108-.267.166a5.618,5.618,0,0,0-.332,2.415c.065.425.1.858.159,1.29.18,1.29.353,2.573.541,3.863A4.387,4.387,0,0,0,567.386,1119.367Zm2.328,1.391a1.532,1.532,0,0,0,1.377.641,1.807,1.807,0,0,0,1.773-.886,4.024,4.024,0,0,0-.1-3.719c-.872,1.067-1.665,2.025-2.458,2.991a6.776,6.776,0,0,0-.469.627A1.1,1.1,0,0,0,569.714,1120.758Zm3.005-21.774a2.039,2.039,0,0,0-2.069-1.535.5.5,0,0,0-.418.223.815.815,0,0,0,.043.6.876.876,0,0,0,.512.36C571.365,1098.768,571.948,1098.848,572.72,1098.984Zm-5.629-1.708a2.176,2.176,0,0,0,2.292.764c-.382-.353-.742-.714-1.139-1.031S567.624,1096.75,567.091,1097.276Z" transform="translate(-19.005 -39.235)" fill="#af947d"/>
    <path id="パス_8909" data-name="パス 8909" d="M526.1,1129.753c.656.4,1.045.634,1.5.915.216-.577.541-1.024-.072-1.47-.13-.094-.151-.4-.144-.6.014-.346.108-.685.151-1.031a55.21,55.21,0,0,0,.677-6.89v-.5c-.447-.173-.627.144-.728.389-.159.4-.209.843-.332,1.261-.209.706-.425,1.413-.67,2.112-.036.108-.231.166-.533.36.065-.411.079-.613.13-.807.137-.548.288-1.1.425-1.643a1.507,1.507,0,0,0-.043-1.146.6.6,0,0,1-.036-.483,1.472,1.472,0,0,0-.259-1.593q-1.092-1.708-2.27-3.352a17.153,17.153,0,0,1-1.816-2.861,4.086,4.086,0,0,1-.332-.987.663.663,0,0,1,.151-.577.921.921,0,0,1,.714-.1c.216.072.389.317.548.512a7.338,7.338,0,0,1,.4.677c.339-.079.62-.151.959-.231a9.681,9.681,0,0,1,2.847,2.8,3.287,3.287,0,0,1,.519,2.227,7.283,7.283,0,0,0-1.023-.065c-.151.007-.3.159-.425.267a.277.277,0,0,0-.05.238,4.494,4.494,0,0,0,.267.512c.4-.115.757-.238,1.132-.31a.342.342,0,0,1,.3.151.359.359,0,0,1-.1.331c-.274.209-.569.375-.937.613.079.353.166.714.231.995.151.072.2.123.231.108.274-.115.548-.238.887-.4.014-.958.029-1.917.036-2.869.007-.872,0-1.744,0-2.616a5.58,5.58,0,0,0-.036-.778c-.13-.93-.137-.93.995-1,.05.173.108.368.166.577.231.022.469.043.692.058.18.627-.31.67-.677.879a30.168,30.168,0,0,0-.238,3.453c-.159,1.16-.245,2.335-.36,3.5s-.216,2.343-.346,3.51-.3,2.321-.382,3.5a6.583,6.583,0,0,0,.75-2.616c.065-.872.13-1.737.151-2.609a5.936,5.936,0,0,1,.67-2.508,2.515,2.515,0,0,0,.267-1.384,11.917,11.917,0,0,1-.022-1.434,1.19,1.19,0,0,1,.548-1.1.416.416,0,0,1,.332.49c-.022.519-.043,1.031-.072,1.622.822-.195,1.124-.923,1.694-1.276s1.009-.966,1.73-1.038c.36.339.223.685.13,1.009-.382,1.247-.735,2.508-1.189,3.734a16.179,16.179,0,0,0-.987,4.973,7.5,7.5,0,0,1-1.506,4.375c-.5.656-.951,1.355-1.477,1.989a2.814,2.814,0,0,1-.944.656.609.609,0,0,1-.814-.224c-.238-.649-.843-.987-1.153-1.557A3.113,3.113,0,0,1,526.1,1129.753Zm1.831,1.78a.449.449,0,0,0,.677-.115c1.557-1.867,2.926-3.813,2.76-6.429a7.969,7.969,0,0,1,.49-2.948c.5-1.564.908-3.157,1.3-4.894a2.244,2.244,0,0,0-.526.252c-.382.353-.764.714-1.11,1.1a3.883,3.883,0,0,0-.908,1.838c-.483,2.256-.93,4.519-1.254,6.8a3.153,3.153,0,0,1-.62,1.816,1.607,1.607,0,0,0-.231.605C528.312,1130.222,528.124,1130.877,527.93,1131.533Zm-1.29-16.375a6.8,6.8,0,0,0-2.414-1.91,6.7,6.7,0,0,0,1.506,2.429C526.027,1115.5,526.279,1115.36,526.64,1115.158Z" transform="translate(-7.16 -45.988)" fill="#af947d"/>
    <path id="パス_8910" data-name="パス 8910" d="M525.316,1094a4.763,4.763,0,0,0,1.449-2.364,1.714,1.714,0,0,1,1-1.427.75.75,0,0,0,.267-.274c1.225-1.823,3.114-2.422,5.139-2.717a1.731,1.731,0,0,1,1.723.966c.259.4.353.894.85,1.175.086-.058.18-.123.281-.187.541-.346.6-.346,1.031-.029a4.173,4.173,0,0,1,1.787,4.31,51.174,51.174,0,0,1-2,8.1,6.1,6.1,0,0,1-3.986,4.015,2.249,2.249,0,0,0-.605.231.926.926,0,0,1-1.3-.115c-.4-.4-.822-.843-.483-1.478a.965.965,0,0,0,0-.75c-.13-.6-.238-1.2-.4-1.78a3.317,3.317,0,0,1,.13-2.177c.223-.569.44-1.139.656-1.708a2.626,2.626,0,0,0-1.615-3.452,5.544,5.544,0,0,1-2.184-1.434,7.925,7.925,0,0,0-2.451,4.973,5.746,5.746,0,0,0,.894,3.611c.706,1.045,1.492,2.032,2.249,3.042.13.166.274.317.4.454-.086.382-.31.31-.519.238a.5.5,0,0,1-.223-.13,12.579,12.579,0,0,1-3.027-4.512,7.411,7.411,0,0,1-.209-3.344c.079-.584.411-1.16.058-1.773-.05-.087.022-.252.058-.375a6.431,6.431,0,0,0-.029-4.317c.339-.4.605-.2.814.022a1.617,1.617,0,0,1,.36,1.218C525.4,1092.6,525.352,1093.2,525.316,1094Zm9.5-3.013c-.31.346-.49.591-.714.793a.9.9,0,0,1-1.29.014c-.223-.209-.4-.461-.6-.692a1.752,1.752,0,0,0-1.47-.7c-.476.022-.951-.058-1.427-.079a1.137,1.137,0,0,0-1.218,1.535,2.485,2.485,0,0,0,1.614,1.751,3.368,3.368,0,0,1,2.083,2.342,1.412,1.412,0,0,1-.014,1.016c-.281.735-.577,1.463-.786,2.213a3.939,3.939,0,0,0-.245,1.658c.216,1.283.577,2.544.894,3.806a2.162,2.162,0,0,0,.238.44,2.427,2.427,0,0,0,1.751-.5,6.193,6.193,0,0,0,2.515-3.243,69.811,69.811,0,0,0,1.845-7.474,3.655,3.655,0,0,0,.137-1.031,4.636,4.636,0,0,0-.324-1.369c-.159-.375-.353-.807-.879-.9-.36.324-.706.634-1.023.922v1.521h-1.1C534.275,1092.33,535.2,1091.768,534.815,1090.983Zm-.353-1.434c-.324-.584-.49-.93-.7-1.247a.73.73,0,0,0-.908-.332c-.771.281-1.528.591-2.292.9-.036.014-.029.151-.043.267.584.31,1.175-.029,1.751.015A19.012,19.012,0,0,1,534.462,1089.548Zm-.13.822c-.5-.216-.814-.461-1.261-.3a1.3,1.3,0,0,0,.67,1.074C533.929,1090.911,534.1,1090.687,534.333,1090.37Z" transform="translate(-7.811 -39.42)" fill="#af947d"/>
    <path id="パス_8911" data-name="パス 8911" d="M598.189,1089.994c-.656.195-1.031.757-1.578,1.074.029.562.05,1.031.072,1.463a8.612,8.612,0,0,1,1.124.706,6.68,6.68,0,0,1,.771.93,12.136,12.136,0,0,0-.5,6.537c.137.944.274,1.9.418,2.84a3.437,3.437,0,0,0,.18.562,2.94,2.94,0,0,0,.613-.259,15.028,15.028,0,0,0,3.33-3.654,4.843,4.843,0,0,0,.8-2.587,3.758,3.758,0,0,1,.4-1.766.378.378,0,0,1,.332-.13.468.468,0,0,1,.274.238.871.871,0,0,1,.022.389,13.832,13.832,0,0,1-1.622,5.867,5.54,5.54,0,0,1-1.953,2.241,3.4,3.4,0,0,0-.411.339,3.159,3.159,0,0,0-.05.519,12.269,12.269,0,0,1-1.47,5.773c-1.059,2.1-2.234,4.137-3.424,6.162a6.465,6.465,0,0,1-1.622,2.04c-.8-.4-.577-1.2-.742-1.845.216.339.425.685.67,1.067a2.458,2.458,0,0,0,.959-1.088c1.16-2.047,2.314-4.094,3.416-6.17a14.209,14.209,0,0,0,1.326-4.224,5.237,5.237,0,0,0-.094-2.422c-.238.043-.469.094-.706.137-.432.072-.685-.05-.814-.432a4.622,4.622,0,0,1-.18-.757c-.122-.728-.18-1.47-.346-2.191a15.355,15.355,0,0,1,.231-6.833c-.216-.144-.483-.324-.786-.533a5.856,5.856,0,0,1-.533.44,1.415,1.415,0,0,1-1.679-.086c-.195-.166-.368-.368-.555-.555a1.97,1.97,0,0,0-2.494-.389,6.18,6.18,0,0,0-3.222,3.611,1.894,1.894,0,0,1-.454.735,4.006,4.006,0,0,1,1.088-2.962,12.5,12.5,0,0,1,2.227-1.8,3.639,3.639,0,0,1,1.6-.512,2.211,2.211,0,0,1,1.917.62c.209.216.44.411.67.62.4-.8.4-.8.144-2-.3-.072-.62-.144-.923-.224a.8.8,0,0,1,.36-1.038.748.748,0,0,1,.858.029c.151.079.31.144.461.224a2.821,2.821,0,0,0,1.737-2.234,8.922,8.922,0,0,0-2.652-.512c-.209.238-.4.469-.605.685-.151.158-.339.31-.555.13s-.115-.4-.036-.6a1.263,1.263,0,0,1,.923-.85,3.858,3.858,0,0,1,1.283-.079,17.3,17.3,0,0,1,1.9.461.616.616,0,0,1,.447.908c-.18.49-.4.959-.591,1.442Zm1.73,13.99c.562.238.807-.05,1.074-.259a5.043,5.043,0,0,0,1.607-2.631C601.641,1102.124,600.813,1103.025,599.919,1103.983Z" transform="translate(-25.634 -39.426)" fill="#af947d"/>
    <path id="パス_8912" data-name="パス 8912" d="M518.263,1050.686a1.628,1.628,0,0,1,.072,1.586,33.2,33.2,0,0,0-1.96,6.076c-.065.288-.18.562-.339,1.045-.144-.331-.259-.476-.252-.613a9.427,9.427,0,0,0-.195-2.061,6.017,6.017,0,0,1,.014-1.3,18.108,18.108,0,0,0,.022-3.193c-.332.036-.62.065-.872.086-.252.764.029,1.535-.3,2.342-.108-.166-.216-.252-.216-.331a53.047,53.047,0,0,0-.577-7.164,2.171,2.171,0,0,1,.065-1.427c.995.188.555,1.175,1.045,1.715.267-.123.613-.13.858-.411a7.116,7.116,0,0,0-.007-3.186c-.317-.1-.461.123-.634.324-.216.259-.447.512-.677.764-.014.022-.087-.007-.195-.022-.18-.562.252-.944.483-1.362a.862.862,0,0,1,1.009-.368c.144-.274.281-.541.44-.851.67.05,1.312.108,1.96.137a1.064,1.064,0,0,0,.613-.087c.5-.375.887-.094,1.384.18-.324,2.263.122,4.562-.173,6.818-.288.115-.375-.043-.411-.209-.065-.274-.1-.555-.187-1.052-.223.425-.339.641-.519.995a3.5,3.5,0,0,1-.187-.764c0-1.261.029-2.53.036-3.791.007-.7-.007-.7-.526-1.463h-1.132a4.272,4.272,0,0,0-.195,1.874c.461.425,1.189.274,1.434.908-.49.368-.93-.065-1.312-.072-.108.058-.159.072-.18.1a.234.234,0,0,0-.05.123c-.094.995-.223,1.989-.26,2.991-.065,1.823-.079,3.654-.108,5.478,0,.058.065.115.173.31.36-1.485.7-2.854,1.052-4.3.288.072.569.144.85.216Zm-2.7.786a8.183,8.183,0,0,0-.058-3.6,4.777,4.777,0,0,0-.786.634c-.115.137-.058.411-.115.613-.137.512.634.432.577.915a1.024,1.024,0,0,0-.454,1.355,1.65,1.65,0,0,0,.324.079C515.229,1051.478,515.395,1051.471,515.561,1051.471Z" transform="translate(-4.881 -26.858)" fill="#af947d"/>
    <path id="パス_8913" data-name="パス 8913" d="M589.892,1114.447c.764-.094,1.117.094,1.225.735a4.158,4.158,0,0,1-.216,2.314c-.4,1-.851,1.989-1.3,3.02.151.3.425.151.627.043a2.082,2.082,0,0,0,.887-1.1,18.182,18.182,0,0,0,1.542-5.377c.13-1.168.187-2.343.281-3.51a.773.773,0,0,1,.094-.368c.065-.094.2-.216.3-.2.151.015.368.094.418.209a1.15,1.15,0,0,1,.072.627,27.538,27.538,0,0,1-.454,3.092,30.315,30.315,0,0,1-1.766,5.456,8.7,8.7,0,0,1-.476.93,1.687,1.687,0,0,1-1.607.923c-.411-.029-.807-.043-.995.411a.827.827,0,0,0,.432,1.2,35.979,35.979,0,0,1-1.708,6.825,1.4,1.4,0,0,1-.324.548.586.586,0,0,1-.476.094.526.526,0,0,1-.3-.368,2.173,2.173,0,0,1,.086-.771c.216-.8.432-1.6.706-2.378a16.979,16.979,0,0,0,.7-4.238,6.278,6.278,0,0,0-.151-1.283c.137-.072.288-.144.432-.231.108-.065.209-.158.375-.281-.108-.339-.231-.7-.339-1.06a2.3,2.3,0,0,0-.332-.23c-.31-.159-.62-.31-.944-.447a1.992,1.992,0,0,1-1.29-2.3c.072-.562.115-1.124.187-1.687a4.523,4.523,0,0,0-.173-2.054,14.858,14.858,0,0,1-.432-2.04,2.281,2.281,0,0,1,.569-1.932c.058-.065.216-.05.368-.086a10.171,10.171,0,0,0-.13,1.571,7.383,7.383,0,0,0,.339,1.391,6.393,6.393,0,0,0,.245.742,2.834,2.834,0,0,1,.159,1.658c-.108.728-.166,1.47-.209,2.213a2.1,2.1,0,0,0,1.463,2.227c1.622.634,1.96.49,2.487-1.132a7.534,7.534,0,0,0,.209-.886,1.837,1.837,0,0,0-.555-2.018A1.239,1.239,0,0,1,589.892,1114.447Zm-1.067,5.384c-.108.072-.166.108-.231.144a1.648,1.648,0,0,0,.231.216c.022.014.159-.1.151-.115A.981.981,0,0,0,588.825,1119.831Z" transform="translate(-24.811 -45.493)" fill="#af947d"/>
    <path id="パス_8914" data-name="パス 8914" d="M589.221,1064.118c-.137.238-.151.3-.187.317a2.386,2.386,0,0,0-1.492,1.528c-.022.079-.216.159-.31.144a.348.348,0,0,1-.231-.238,4.647,4.647,0,0,1-.014-.728,6.024,6.024,0,0,0-2.1.317c-.324.058-.44.67-.252,1.031a.709.709,0,0,0,1,.231,2.348,2.348,0,0,0,.332-.274,4.676,4.676,0,0,0,.692.533,5.941,5.941,0,0,0,.742.231,2.117,2.117,0,0,0,2.083-.368,6.5,6.5,0,0,1,1.427-.908c.317.5-.389.656-.281,1.045.072.007.166.05.209.022,1.023-.75.98-1.744.649-2.847-.461-.187-1.067-.043-1.4-.541-.065-.1-.144-.274-.1-.332.086-.123.31-.3.375-.26.966.49,1.867-.058,2.782-.158a16.51,16.51,0,0,1,2.285-.087,4.137,4.137,0,0,1-2.876.721,3.909,3.909,0,0,0-.13.591,6.014,6.014,0,0,1-.85,2.847,8.367,8.367,0,0,0-.4.843,1.129,1.129,0,0,1-1.218.036.81.81,0,0,0-1.139.274c-.238.3-.447.461-.879.281-.223-.094-.562.094-.894.166-.3-.353-.605-.706-.93-1.081a3.591,3.591,0,0,1-1.542.036,1.61,1.61,0,0,0-1.37.245,12.575,12.575,0,0,1-1.391.706c-.123.05-.3-.05-.555-.1a9.152,9.152,0,0,0,.663-1.168c.144-.375.007-.872.541-1.16.036.332.072.584.108.923.274-.014.555-.029.843-.05a6.829,6.829,0,0,1,.18-1.067c.151-.411.4-.858.865-.9,1.4-.115,2.7-.714,4.079-.879A2.4,2.4,0,0,1,589.221,1064.118Z" transform="translate(-23.78 -32.6)" fill="#af947d"/>
    <path id="パス_8915" data-name="パス 8915" d="M517.91,1086.1a3.569,3.569,0,0,1,1.672-1.989,12.509,12.509,0,0,1,3.8-1.341,2.943,2.943,0,0,1,2.141.36,2.148,2.148,0,0,1,1.218,2.249,4.608,4.608,0,0,1-.44,2.018,4.158,4.158,0,0,1-.685.634c.058-.432.079-.641.115-.843a4.188,4.188,0,0,0-.151-2.191,3.282,3.282,0,0,0-.569-1,1.239,1.239,0,0,0-1.636-.281,1.352,1.352,0,0,0-.6.973,2.738,2.738,0,0,0,.216.8c.706.3,1.3-.49,1.953-.029-.036.115-.043.274-.122.346-.67.627-1.319,1.268-2.032,1.831a4.744,4.744,0,0,1-1.377.721,1.778,1.778,0,0,1-2.27-.771A4.866,4.866,0,0,0,517.91,1086.1Zm1.132.389c.065.166.094.3.151.4a2.823,2.823,0,0,0,.288.432,1.683,1.683,0,0,0,2.415.36,3.7,3.7,0,0,0,1.3-1.29c-.476-.18-.872-.332-1.254-.483-.569.31-1.117.642-1.658.043.75-.382.75-.382.93-.851C520.339,1085.247,520.065,1085.42,519.042,1086.493Zm2.415-2.321c.764.094.764.094.807-.454C522,1083.863,521.773,1083.992,521.456,1084.173Zm-.605.26-.094-.065-.029.094Z" transform="translate(-6.092 -38.167)" fill="#af947d"/>
    <path id="パス_8916" data-name="パス 8916" d="M547.563,1089.868c-.166-.144-.411-.252-.44-.4a2.492,2.492,0,0,1,0-1.153,5.543,5.543,0,0,1,2.1-2.912,2.2,2.2,0,0,1,.728-.223c.252-.058.512-.079.757-.144.36-.094.627-.267.656-.692.007-.094.166-.173.324-.317a1.435,1.435,0,0,0,1.1.75,4.8,4.8,0,0,1,1.55.634c.8.432,1.571.923,2.357,1.391.187.108.368.231.548.353a.715.715,0,0,1,.3.8,3.259,3.259,0,0,1-.086.382,6.307,6.307,0,0,1-2.407,2.854c0-.195-.029-.288.007-.332.231-.317.483-.62.721-.923a4.044,4.044,0,0,0,.879-1.586.758.758,0,0,0-.339-.908c-.187-.115-.375-.216-.562-.324-.641-.368-1.276-.742-1.924-1.088a5.117,5.117,0,0,0-1.3-.591,2.421,2.421,0,0,0-2.191.555c-.259.231-.461.562-.85.541a1.043,1.043,0,0,0-.951.569c-.2.288-.389.577-.591.858a1.486,1.486,0,0,0-.252,1.586C547.707,1089.616,547.635,1089.709,547.563,1089.868Z" transform="translate(-14.23 -38.536)" fill="#af947d"/>
    <path id="パス_8917" data-name="パス 8917" d="M566.2,1046.831a5.61,5.61,0,0,1,.879-3.236,1.128,1.128,0,0,1,.973-.555.966.966,0,0,1,1.067.771,25.084,25.084,0,0,1,.5,3.092,1.915,1.915,0,0,1-2.609,1.852,1.116,1.116,0,0,1-.685-.894C566.25,1047.465,566.229,1047.076,566.2,1046.831Zm2.169,1.052a7.27,7.27,0,0,0-.872-2.768c-.022-.043-.144-.022-.281-.043-.382.67-.13,1.413-.195,2.119a.848.848,0,0,0,.346.793C567.692,1048.244,568,1048.064,568.369,1047.883Z" transform="translate(-19.577 -27.09)" fill="#af947d"/>
    <path id="パス_8918" data-name="パス 8918" d="M602.12,1091.11c.086-.007.173-.007.259-.014,1.1-.123,1.24.007,1.139,1.067-.014.173-.043.346-.058.519,0,.036.036.072.094.195a17.315,17.315,0,0,1,4.3,1.146c.108.036.173.18.339.353a5.089,5.089,0,0,0-1.052.425,6.182,6.182,0,0,0-.807.894c.137.281.259.526.382.771-.108.072-.187.166-.245.159-.36-.065-.721-.151-1.146-.245.231-.786,1.11-1.1,1.333-1.881-.375-.418-.944-.36-1.427-.519a6.113,6.113,0,0,0-1.153-.195.47.47,0,0,0-.5.67,1.616,1.616,0,0,0,.793.829c.216.115.454.195.67.288-.108.4-.368.469-.627.368a2.234,2.234,0,0,1-1.463-1.2c-.043-.123-.086-.3-.173-.339-.836-.3-.605-.886-.418-1.478a2.265,2.265,0,0,0-.209-1.867C602.163,1091.066,602.12,1091.11,602.12,1091.11Z" transform="translate(-29.608 -40.499)" fill="#af947d"/>
    <path id="パス_8919" data-name="パス 8919" d="M594.291,1106.505c0,.187.043.332-.007.411-.454.742-.9,1.485-1.391,2.206a3.109,3.109,0,0,1-1.528,1.175,2.231,2.231,0,0,1-2.335-.274c-.2-.159-.432-.288-.757-.5v1.708a2.1,2.1,0,0,1-.5-1.55,5.741,5.741,0,0,1,.31-1.247.485.485,0,0,1,.685-.144c.3.252.562.541.872.786a1.776,1.776,0,0,0,2.811-.353c.31-.44.778-.836.721-1.492a3.681,3.681,0,0,0-1.816.094c-.641.13-.894.771-1.341,1.124-.389-.339-.3-.613-.072-.851a3.147,3.147,0,0,1,1.852-.879c.216-.036.432-.05.649-.065s.432-.022.649-.036c.173-.007.346-.015.519-.036A1.884,1.884,0,0,1,594.291,1106.505Z" transform="translate(-25.599 -44.809)" fill="#af947d"/>
    <path id="パス_8920" data-name="パス 8920" d="M561.94,1033.276c0,.879-.144,1.088-.93,1.261a5.086,5.086,0,0,1-1.276.13.622.622,0,0,1-.649-.771c.108-.728.223-1.449.375-2.162a2.975,2.975,0,0,1,.346-.829.837.837,0,0,1,.843-.476.807.807,0,0,1,.771.569A6.917,6.917,0,0,1,561.94,1033.276Z" transform="translate(-17.588 -23.567)" fill="#af947d"/>
    <path id="パス_8921" data-name="パス 8921" d="M501.76,1118.23c.209.014.346-.022.44.029a4.832,4.832,0,0,1,1.759,1.521,9.359,9.359,0,0,1,1.737,6.271c-.1,1.124-.187,2.256-.288,3.38a.945.945,0,0,0,.627,1.146c.519.209,1.074.346,1.615.519.281.086.555.187.814.274,0,.353-.238.267-.368.274a6.826,6.826,0,0,1-2.429-.432c-.807-.23-.959-.5-.865-1.341.115-1.038.267-2.068.382-3.106a9.457,9.457,0,0,0-2.047-7.085C502.755,1119.189,502.265,1118.763,501.76,1118.23Z" transform="translate(-1.582 -48.087)" fill="#af947d"/>
    <path id="パス_8922" data-name="パス 8922" d="M557.107,1062.334c.324.721.022,1.492.562,2.133a4.572,4.572,0,0,0,1.658-.158c-.209-.656-.411-1.261-.62-1.91-.389-.072-.764-.13-1.139-.224a1.321,1.321,0,0,1-.44-.245.347.347,0,0,1,.072-.548,1.747,1.747,0,0,1,.75-.137,16.425,16.425,0,0,1,1.766.4c.151.043.259.209.332.267.058.677.1,1.276.151,1.874.072.786-.18,1.067-.995,1.2-.6.1-1.182.238-1.773.368-.375.079-.649-.015-.728-.339a3.636,3.636,0,0,1,.029-2.3C556.789,1062.587,556.941,1062.493,557.107,1062.334Z" transform="translate(-16.877 -32.171)" fill="#af947d"/>
    <path id="パス_8923" data-name="パス 8923" d="M524.016,1128.323c-.447-.778-.858-1.485-1.261-2.2a6.9,6.9,0,0,1-.634-5.658c.288-.958.562-1.924.858-2.876a.743.743,0,0,1,.461-.461,5.474,5.474,0,0,1-.072.843c-.216.93-.447,1.859-.7,2.782a6.676,6.676,0,0,0,.858,5.377c.31.526.613,1.052.894,1.593C524.564,1128.028,524.4,1128.215,524.016,1128.323Z" transform="translate(-7.175 -47.78)" fill="#af947d"/>
    <path id="パス_8924" data-name="パス 8924" d="M523.648,1064.4c-.382-.043-.389-.281-.411-.49-.151-1.47-.324-2.941-.432-4.418-.065-.822-.036-1.658-.022-2.479a1.265,1.265,0,0,1,.223-.584.388.388,0,0,1,.332-.115c.1.022.267.144.267.231.05,1.341.144,2.688.094,4.029a16.084,16.084,0,0,0,.014,2.206A3.624,3.624,0,0,1,523.648,1064.4Z" transform="translate(-7.447 -30.794)" fill="#af947d"/>
    <path id="パス_8925" data-name="パス 8925" d="M595.286,1103.3c.526-.216.9-.375,1.341-.562a2.336,2.336,0,0,1-1.449,1.326.59.59,0,0,1-.764-.5c-.065-.339-.094-.685-.151-1.031s-.108-.677-.159-.987a.739.739,0,0,0-.987.1c-.382.346-.742.728-1.1,1.11-.447.476-.865.966-1.326,1.427a1.714,1.714,0,0,1-1.117.605.571.571,0,0,1-.382-.231c-.043-.058.058-.224.1-.339a.141.141,0,0,1,.094-.087,5.7,5.7,0,0,0,2.328-1.816,7.961,7.961,0,0,1,.973-.865,3.157,3.157,0,0,1,.771-.469,1.079,1.079,0,0,1,1.528.742C595.106,1102.173,595.156,1102.648,595.286,1103.3Z" transform="translate(-25.996 -43.244)" fill="#af947d"/>
    <path id="パス_8926" data-name="パス 8926" d="M562.912,1051.036a4.008,4.008,0,0,1-.555.425c-.151.072-.389.05-.483.159a.909.909,0,0,0-.195.569c.007.115.187.288.324.331a8.714,8.714,0,0,0,1,.18c-.223.223-.317.4-.44.425a6.238,6.238,0,0,1-1.413.108,9.317,9.317,0,0,1-1.521-.3c-.115-.029-.2-.151-.36-.274a1.635,1.635,0,0,1,.389-.317c.2-.072.461-.022.627-.123.13-.086.159-.331.223-.49-.555-.36-1.29-.108-1.672-.721.627-.346.62-.346,1.859-.195C561.327,1050.885,561.968,1050.942,562.912,1051.036Z" transform="translate(-17.522 -29.233)" fill="#af947d"/>
    <path id="パス_8927" data-name="パス 8927" d="M519.141,1062.659c.245-.173.49-.339.735-.5v-2.869c-.259-.144-.483-.259-.786-.425.144-.238.223-.519.4-.634a.667.667,0,0,0,.375-.858.649.649,0,0,1,.029-.368.557.557,0,0,1,.634-.339.434.434,0,0,1,.3.5c-.072.865-.151,1.73-.2,2.595-.058.951-.086,1.91-.137,2.869-.014.245-.05.483-.086.858-.223-.288-.346-.44-.49-.627-.389.029-.49.425-.75.627s-.432.144-.793-.317l.8-.541Z" transform="translate(-6.22 -30.889)" fill="#af947d"/>
    <path id="パス_8928" data-name="パス 8928" d="M615.336,1094.235a2.5,2.5,0,0,1-.685-.123,1.428,1.428,0,0,1-.67-1.211c-.065-1.261-.072-2.523-.1-3.784a1.084,1.084,0,0,1,.043-.259.822.822,0,0,1,.822-.512c.238.043.4.4.382.742-.065.951-.159,1.91-.173,2.861A3.566,3.566,0,0,0,615.336,1094.235Z" transform="translate(-32.892 -39.74)" fill="#af947d"/>
    <path id="パス_8929" data-name="パス 8929" d="M553.925,1089.176c-.31.086-.613.288-.843.216a6.162,6.162,0,0,0-3.424.3,1.462,1.462,0,0,1-1.088.123c.166-.18.274-.382.432-.44a7.307,7.307,0,0,0,2.811-1.78.761.761,0,0,1,.223-.13.606.606,0,0,1,.807.166C553.19,1088.116,553.529,1088.606,553.925,1089.176Z" transform="translate(-14.654 -39.473)" fill="#af947d"/>
    <path id="パス_8930" data-name="パス 8930" d="M583.07,1093.111a4.256,4.256,0,0,1,3.38-2.335c.584-.072.6-.072,1.384.353a11.276,11.276,0,0,1,1.2-.317c.281-.043.5.1.476.526-1.117-.115-1.845.915-3.056,1.117.173-.432.288-.721.4-1-.115-.079-.18-.158-.245-.158a2.906,2.906,0,0,0-2.515,1.369,2.623,2.623,0,0,1-.483.605C583.43,1093.436,583.229,1093.364,583.07,1093.111Z" transform="translate(-24.288 -40.41)" fill="#af947d"/>
    <path id="パス_8931" data-name="パス 8931" d="M511.72,1060.99c-.641.966-1.24,1.924-1.9,2.833a7.355,7.355,0,0,1-2.775,2.5.841.841,0,0,1-.375.065c-.065,0-.13-.079-.245-.159a2.108,2.108,0,0,1,.3-.4c1.766-1.478,3.006-3.467,4.815-4.894A.786.786,0,0,1,511.72,1060.99Z" transform="translate(-2.886 -32.088)" fill="#af947d"/>
    <path id="パス_8932" data-name="パス 8932" d="M543.507,1081.29c.67.022,1.124.137,1.369.519a13.861,13.861,0,0,1,.9,1.715c.1.216-.144.555-.382.591a.457.457,0,0,1-.519-.3c-.086-.2-.13-.418-.209-.613a3.3,3.3,0,0,0-.339-.7c-.231-.31-.49-.649-.944-.562a1.2,1.2,0,0,0-.937.814c-.1.281-.137.584-.238.858-.029.072-.209.108-.317.108-.058,0-.18-.108-.173-.159a3.2,3.2,0,0,1,.137-.879A2.184,2.184,0,0,1,543.507,1081.29Z" transform="translate(-12.741 -37.771)" fill="#af947d"/>
    <path id="パス_8933" data-name="パス 8933" d="M608.18,1063.8a4.376,4.376,0,0,0-.382-1.067c-.166-.231-.5-.332-.735-.519a.352.352,0,0,1-.079-.332.4.4,0,0,1,.324-.151,2.239,2.239,0,0,1,1.283.836c.216.267.4.562.641.894.195-.022.4-.043.605-.058a1.121,1.121,0,0,1,1.016.461,2.232,2.232,0,0,0,1.492.959c.223.029.469.158.411.4-.058.209-.281.375-.5.641a3.436,3.436,0,0,0-.476-.649c-.159-.123-.425-.108-.605-.216a2.977,2.977,0,0,1-.714-.548,1.677,1.677,0,0,0-1.629-.591A1.889,1.889,0,0,1,608.18,1063.8Z" transform="translate(-30.962 -32.308)" fill="#af947d"/>
    <path id="パス_8934" data-name="パス 8934" d="M610.543,1081.071c-.065.137-.086.346-.195.4a4.522,4.522,0,0,1-2.177.764,21.433,21.433,0,0,1-4.238-.4c-.029-.007-.05-.058-.144-.151.216-.123.425-.324.634-.324.649-.015,1.3.043,1.939.086a8.668,8.668,0,0,1,1.153.13,3.348,3.348,0,0,0,2.249-.4c.187-.094.382-.173.577-.259A1.047,1.047,0,0,1,610.543,1081.071Z" transform="translate(-30.074 -37.668)" fill="#af947d"/>
    <path id="パス_8935" data-name="パス 8935" d="M607.027,1079.466c-.108.094-.231.288-.339.281-1.629-.151-3.287-.187-4.728-1.182.144-.425.483-.714.872-.519a17.049,17.049,0,0,0,3.971,1.2C606.875,1079.242,606.919,1079.351,607.027,1079.466Z" transform="translate(-29.563 -36.848)" fill="#af947d"/>
    <path id="パス_8936" data-name="パス 8936" d="M548.73,1003.618a12.622,12.622,0,0,1-.137-4.9c.029-.245.13-.519.461-.548.259-.022.5.281.454.649-.058.555-.151,1.11-.231,1.665-.13.937-.245,1.881-.375,2.818A.918.918,0,0,1,548.73,1003.618Z" transform="translate(-14.612 -14.559)" fill="#af947d"/>
    <path id="パス_8937" data-name="パス 8937" d="M608.793,1067.159c-.728.123-1.492.259-2.263.375-.108.014-.238-.079-.44-.151.079-.159.122-.339.231-.411a.772.772,0,0,1,.483-.123,4.619,4.619,0,0,0,2.054-.159c.656-.195.879-.029,1.24.613.252.447.526.886.822,1.384a1.14,1.14,0,0,1-1.247-.411A8.255,8.255,0,0,1,608.793,1067.159Z" transform="translate(-30.717 -33.673)" fill="#af947d"/>
    <path id="パス_8938" data-name="パス 8938" d="M518.571,1094.239c-.122.108-.209.216-.238.209a15.447,15.447,0,0,1-2.148-1.175c-1.059-.786-.951-1.9.195-2.638.115-.079.31-.036.62-.065-.252.541-.44.951-.663,1.427C516.525,1093.215,517.851,1093.366,518.571,1094.239Z" transform="translate(-5.406 -40.363)" fill="#af947d"/>
    <path id="パス_8939" data-name="パス 8939" d="M565.476,1082.477c-.209.151-.332.31-.461.324a2.59,2.59,0,0,0-1.427.577,8.23,8.23,0,0,0-.987,1.016c-.144.159-.2.4-.353.541-.1.094-.31.087-.469.123-.036-.151-.144-.346-.094-.454a4.463,4.463,0,0,1,3.308-2.443C565.123,1082.153,565.26,1082.326,565.476,1082.477Z" transform="translate(-18.313 -38.014)" fill="#af947d"/>
    <path id="パス_8940" data-name="パス 8940" d="M519.932,1081.23c-1.751,1.795-1.456,1.593-2.191,3.532a.6.6,0,0,1-.483-.642,2.691,2.691,0,0,1,2.674-2.89Z" transform="translate(-5.908 -37.754)" fill="#af947d"/>
    <path id="パス_8941" data-name="パス 8941" d="M598.97,1064.978a1.342,1.342,0,0,1,1.679-.086c.685.36,1.362.742,2.083,1.131a1.783,1.783,0,0,1-2,.022A18.815,18.815,0,0,1,598.97,1064.978Z" transform="translate(-28.728 -33.121)" fill="#af947d"/>
    <path id="パス_8942" data-name="パス 8942" d="M566.322,1084.8c-.245.209-.389.425-.555.447a2.621,2.621,0,0,0-.987.245,2.528,2.528,0,0,0-1.384,1.47,2.518,2.518,0,0,1-.3.569c-.036.058-.18.108-.223.079-.086-.058-.209-.2-.187-.252a7.151,7.151,0,0,1,.771-1.622,3.608,3.608,0,0,1,2.371-1.218C565.947,1084.513,566.091,1084.664,566.322,1084.8Z" transform="translate(-18.596 -38.673)" fill="#af947d"/>
    <path id="パス_8943" data-name="パス 8943" d="M519.2,1096.95c.108.18.245.3.267.447.043.3.014.605.036.908a1.208,1.208,0,0,0,.692,1.1c.231-.108.49-.238.814-.4,0,.18.05.339-.007.418a1.065,1.065,0,0,1-1.232.5,1.228,1.228,0,0,1-.908-1.009A3.1,3.1,0,0,1,519.2,1096.95Z" transform="translate(-6.344 -42.144)" fill="#af947d"/>
    <path id="パス_8944" data-name="パス 8944" d="M550.28,1092.733c1-1.535,2.494-1.607,3.964-1.723.18.353-.007.469-.2.548a2.443,2.443,0,0,1-.62.18,5.7,5.7,0,0,0-2.854,1.074C550.547,1092.826,550.489,1092.8,550.28,1092.733Z" transform="translate(-15.132 -40.486)" fill="#af947d"/>
    <path id="パス_8945" data-name="パス 8945" d="M533.142,1065.47c-.368-.036-.613-.065-.9-.094-.151.216-.317.454-.555.786-.122-.209-.288-.346-.267-.461a3.8,3.8,0,0,1,.98-2.011c.137.158.288.26.339.4C532.868,1064.483,532.976,1064.894,533.142,1065.47Z" transform="translate(-9.864 -32.856)" fill="#af947d"/>
    <path id="パス_8946" data-name="パス 8946" d="M526.51,1067.3c-.072-.043-.18-.072-.195-.137a.46.46,0,0,1-.007-.339,1.342,1.342,0,0,1,1-.5c.591-.072,1.189-.144,1.78-.195a.325.325,0,0,1,.252.195.352.352,0,0,1-.18.281,1.333,1.333,0,0,1-.6.18,2.367,2.367,0,0,0-1.809.49C526.712,1067.319,526.6,1067.3,526.51,1067.3Z" transform="translate(-8.429 -33.538)" fill="#af947d"/>
    <path id="パス_8947" data-name="パス 8947" d="M555.56,1094.4c.029.3.108.519.05.569a6.592,6.592,0,0,1-1.261.879,1.06,1.06,0,0,1-1.312-.209.558.558,0,0,1-.123-.447.459.459,0,0,1,.4-.18,5.486,5.486,0,0,1,.851.339c.238-.13.468-.231.685-.375S555.25,1094.659,555.56,1094.4Z" transform="translate(-15.864 -41.432)" fill="#af947d"/>
    <path id="パス_8948" data-name="パス 8948" d="M566.093,1042.494c0,.195.014.267,0,.274a3.933,3.933,0,0,1-2.242.346.388.388,0,0,1-.252-.245c-.014-.087.086-.224.173-.288a.688.688,0,0,1,.353-.137A7.232,7.232,0,0,1,566.093,1042.494Z" transform="translate(-18.851 -26.911)" fill="#af947d"/>
    <path id="パス_8949" data-name="パス 8949" d="M576.368,1088.948c-.512-.526-1.023-1.031-1.514-1.557-.144-.159-.274-.4-.043-.548a.665.665,0,0,1,.591-.043c.649.454,1.225.973,1.081,1.888A1.72,1.72,0,0,1,576.368,1088.948Z" transform="translate(-21.947 -39.295)" fill="#af947d"/>
    <path id="パス_8950" data-name="パス 8950" d="M552.22,1093.229c.908-.3,1.514-.5,2.083-.7.288.252.187.432.014.584s-.4.3-.6.432a2.128,2.128,0,0,1,.13.26c.036.1.05.209.079.31a.925.925,0,0,1-.238.043c-.288-.043-.411-.274-.584-.469A3.988,3.988,0,0,0,552.22,1093.229Z" transform="translate(-15.673 -40.91)" fill="#af947d"/>
    <path id="パス_8951" data-name="パス 8951" d="M520.12,1053.77c.029-.123.058-.252.1-.432a2.587,2.587,0,0,1,1.7-.137.592.592,0,0,1,.411.7c-.058.259-.166.541-.461.541-.382,0-.187-.4-.346-.67-.454-.014-.951-.029-1.456-.05Z" transform="translate(-6.695 -29.899)" fill="#af947d"/>
    <path id="パス_8952" data-name="パス 8952" d="M603.1,1060.25c-.584.123-1.16.252-1.744.346a1.218,1.218,0,0,1-.613-.108.374.374,0,0,1-.187-.3.364.364,0,0,1,.231-.267c.512-.036,1.023-.043,1.535-.029C602.614,1059.912,602.946,1059.89,603.1,1060.25Z" transform="translate(-29.172 -31.795)" fill="#af947d"/>
    <path id="パス_8953" data-name="パス 8953" d="M616.4,1069.877c-.144.454-.49.382-.771.4-.533.036-.879-.3-1.261-.742.209-.195.411-.375.649-.591a4.063,4.063,0,0,0,.454.339c.187.108.389.187.569.3C616.172,1069.668,616.287,1069.791,616.4,1069.877Z" transform="translate(-33.029 -34.322)" fill="#af947d"/>
    <path id="パス_8954" data-name="パス 8954" d="M600.44,1076.061c.454-.3.649-.548.843-.541a4,4,0,0,1,2.047.7A7.694,7.694,0,0,1,600.44,1076.061Z" transform="translate(-29.139 -36.16)" fill="#af947d"/>
    <path id="パス_8955" data-name="パス 8955" d="M552.771,1081.458c-1.888.461-2.09.4-2.371-.49C551.222,1080.709,551.841,1081.12,552.771,1081.458Z" transform="translate(-15.165 -37.659)" fill="#af947d"/>
    <path id="パス_8956" data-name="パス 8956" d="M562.73,1040.992c.735-.087,1.348-.346,1.953-.007-.007.115.014.245-.022.267a2.451,2.451,0,0,1-1.557.31C562.874,1041.539,562.766,1041.352,562.73,1040.992Z" transform="translate(-18.608 -26.468)" fill="#af947d"/>
    <path id="パス_8957" data-name="パス 8957" d="M609.57,1071.049c.432-.634.432-.634,1.672-.7C610.947,1071.071,610.738,1071.164,609.57,1071.049Z" transform="translate(-31.689 -34.716)" fill="#af947d"/>
    <path id="パス_8958" data-name="パス 8958" d="M605.11,1063.12a1.879,1.879,0,0,1-1.528.995.292.292,0,0,1-.2-.115c.014-.115.043-.3.115-.324C603.928,1063.509,604.367,1063.372,605.11,1063.12Z" transform="translate(-29.96 -32.697)" fill="#af947d"/>
    <path id="パス_8959" data-name="パス 8959" d="M595.951,1059.037c-.014.425-.36.533-.656.67-.173.087-.548-.123-.5-.259s.187-.31.31-.324C595.382,1059.08,595.641,1058.821,595.951,1059.037Z" transform="translate(-27.562 -31.533)" fill="#af947d"/>
    <path id="パス_8960" data-name="パス 8960" d="M599.581,1072.471c-.043.043-.094.123-.166.144a.7.7,0,0,1-.721-.173.285.285,0,0,1-.058-.238c.05-.108.13-.245.231-.274a.6.6,0,0,1,.728.382C599.61,1072.349,599.589,1072.4,599.581,1072.471Z" transform="translate(-28.633 -35.151)" fill="#af947d"/>
    <path id="パス_8961" data-name="パス 8961" d="M604.508,1068.864c-.058.375-.4.4-.649.512-.3.144-.649.036-.62-.159.036-.259.245-.339.447-.368C603.96,1068.806,604.241,1068.568,604.508,1068.864Z" transform="translate(-29.92 -34.26)" fill="#af947d"/>
    <path id="パス_8962" data-name="パス 8962" d="M607.38,1068.805c-.108.123-.209.317-.368.4a.464.464,0,0,1-.627-.238.288.288,0,0,1,.029-.231.661.661,0,0,1,.778-.195C607.258,1068.574,607.286,1068.668,607.38,1068.805Z" transform="translate(-30.796 -34.195)" fill="#af947d"/>
    <path id="パス_8963" data-name="パス 8963" d="M598.339,1069.31a2.1,2.1,0,0,1-1.189.13c-.094-.036-.245-.195-.231-.224.072-.13.18-.317.3-.332A1.375,1.375,0,0,1,598.339,1069.31Z" transform="translate(-28.156 -34.304)" fill="#af947d"/>
    <path id="パス_8964" data-name="パス 8964" d="M519.882,1063.429a.96.96,0,0,1-.375.13.46.46,0,0,1-.5-.461.4.4,0,0,1,.476-.31A.522.522,0,0,1,519.882,1063.429Z" transform="translate(-6.399 -32.602)" fill="#af947d"/>
    <path id="パス_8965" data-name="パス 8965" d="M514.57,1060.9l.728-.332c.252.332.2.555-.1.685C514.923,1061.363,514.678,1061.312,514.57,1060.9Z" transform="translate(-5.159 -31.985)" fill="#af947d"/>
    <path id="パス_8966" data-name="パス 8966" d="M557.289,1091.7a.718.718,0,0,1-.144-.886C557.735,1091.379,557.735,1091.379,557.289,1091.7Z" transform="translate(-17.023 -40.43)" fill="#af947d"/>
    <path id="パス_8967" data-name="パス 8967" d="M518.976,1049.735c-.123-.223-.274-.382-.238-.469a.5.5,0,0,1,.368-.267c.115,0,.238.173.353.267C519.329,1049.4,519.192,1049.526,518.976,1049.735Z" transform="translate(-6.322 -28.754)" fill="#af947d"/>
    <path id="パス_8968" data-name="パス 8968" d="M509.335,1069.831c-.05.31-.238.4-.461.353-.086-.014-.231-.151-.223-.223a.338.338,0,0,1,.44-.324C509.183,1069.658,509.263,1069.773,509.335,1069.831Z" transform="translate(-3.506 -34.514)" fill="#af947d"/>
    <path id="パス_8969" data-name="パス 8969" d="M519.305,1064.752a.96.96,0,0,0-.209-.108c-.173-.029-.3-.086-.259-.3a.119.119,0,0,1,.086-.079c.216-.014.245.13.267.3a.846.846,0,0,0,.086.224C519.269,1064.789,519.305,1064.752,519.305,1064.752Z" transform="translate(-6.348 -33.018)" fill="#af947d"/>
    <path id="パス_8970" data-name="パス 8970" d="M607.5,1076.243a2.9,2.9,0,0,1-.137.267,1.92,1.92,0,0,1-.274-.2c-.014-.014.079-.187.108-.187A.988.988,0,0,1,607.5,1076.243Z" transform="translate(-30.995 -36.327)" fill="#af947d"/>
    <path id="パス_8971" data-name="パス 8971" d="M618.48,1025.575l-.159.065a1.083,1.083,0,0,1-.022-.209c0-.014.058-.036.094-.05C618.415,1025.445,618.451,1025.51,618.48,1025.575Z" transform="translate(-34.126 -22.158)" fill="#af947d"/>
    <path id="パス_8972" data-name="パス 8972" d="M573.435,1022.564c-.2.094-.3.144-.411.187a3.587,3.587,0,0,1-.144-.447c-.007-.029.151-.13.173-.115A4.44,4.44,0,0,1,573.435,1022.564Z" transform="translate(-21.443 -21.267)" fill="#af947d"/>
    <path id="パス_8973" data-name="パス 8973" d="M561.483,1012.152c-.569.332-.93.317-1.3-.086a.355.355,0,0,1,.014-.339.371.371,0,0,1,.324-.1C560.856,1011.785,561.166,1011.972,561.483,1012.152Z" transform="translate(-17.887 -18.314)" fill="#af947d"/>
    <path id="パス_8974" data-name="パス 8974" d="M553.592,1010.825a1.545,1.545,0,0,1-1.658.238c-.058-.022-.137-.151-.115-.2.036-.108.108-.252.209-.288A1.487,1.487,0,0,1,553.592,1010.825Z" transform="translate(-15.56 -17.989)" fill="#af947d"/>
    <path id="パス_8975" data-name="パス 8975" d="M535.08,1103.226a4.346,4.346,0,0,0,1.852-1.859,2.985,2.985,0,0,0,.043-3.315c-.108-.18-.187-.375-.267-.541a.292.292,0,0,1,.469-.1,2.247,2.247,0,0,1,1.045,2.775,6.268,6.268,0,0,1-2.025,3.1C535.916,1103.515,535.6,1103.651,535.08,1103.226Z" transform="translate(-10.887 -42.251)" fill="#af947d"/>
  </g>
</svg>
