<svg xmlns="http://www.w3.org/2000/svg" width="99.825" height="111.688" viewBox="0 0 99.825 111.688">
  <g id="グループ_5651" data-name="グループ 5651" opacity="0.35">
    <path id="パス_11169" data-name="パス 11169" d="M1543.572,1038.4a.952.952,0,0,0-.823.914.16.16,0,0,1-.034.1,10.727,10.727,0,0,0-.926,2.754c-.286.869-.4,1.794-.754,2.617-.5,1.177-.754,2.423-1.223,3.611-.48,1.223-1.017,2.411-1.428,3.657-.32.971-1.028,1.714-1.394,2.651a6.509,6.509,0,0,1-.32.629c-.389.686-.788,1.349-1.166,2.046-.583,1.074-1.143,2.16-1.7,3.234-.286.548-.526,1.12-.812,1.668-.434.8-.845,1.623-1.349,2.377-.754,1.12-1.348,2.331-2,3.508-.629,1.154-1.234,2.32-1.829,3.5-.583,1.143-1.131,2.3-1.691,3.44-.194.389-.4.777-.56,1.189-.149.354-.263.731-.389,1.1-.023.069-.011.16-.057.206-.286.251-.32.629-.492.937a18.934,18.934,0,0,0-1.326,2.686c-.217.583-.594,1.12-.857,1.691a9.75,9.75,0,0,0-.9,1.989,4.608,4.608,0,0,1-.469,1.028,14.865,14.865,0,0,0-1.2,2.811,5.5,5.5,0,0,1-.5,1.086,18.862,18.862,0,0,0-.766,2.08c-.537,1.3-1.04,2.617-1.508,3.931-.572,1.589-1.108,3.2-1.657,4.8q-.274.806-.515,1.611c-.1.354-.194.72-.274,1.086-.08.4-.149.811-.229,1.234a1.175,1.175,0,0,1-.789.091,1.97,1.97,0,0,0-.686.046c-.754.206-1.508.423-2.251.674a9.211,9.211,0,0,0-1.189.526c-.914.434-1.817.914-2.72,1.383a44.945,44.945,0,0,0-4.7,2.789,17.266,17.266,0,0,0-2.24,1.84,14.218,14.218,0,0,0-1.44,1.84,13.725,13.725,0,0,0-2.125,5.566c-.263,1.371-.32,2.754-.446,4.125-.126,1.417-.149,2.834-.183,4.251-.023.937-.023,1.874-.057,2.8-.023.651-.091,1.3-.114,1.954-.011.423.046.834.046,1.257,0,.926-.011,1.851-.023,2.777a.726.726,0,0,0,.034.32c.24.5.48,1.006.754,1.486a5.039,5.039,0,0,0,.686,1.052,15.554,15.554,0,0,0,1.691,1.554c.96.743,1.954,1.451,2.971,2.114,1.177.777,2.388,1.474,3.588,2.217a37.8,37.8,0,0,0,5.634,2.651c1.143.469,2.365.754,3.52,1.2a7.548,7.548,0,0,0,1.314.172.345.345,0,0,0,.286-.1,4.677,4.677,0,0,1,1.988-1.394c.72-.343,1.44-.708,2.16-1.04.274-.126.4-.286.3-.594a3.09,3.09,0,0,1,1.623.183c.88.251,1.726.594,2.594.857a10.11,10.11,0,0,0,1.451.24c1.1.16,2.217.251,3.3.491.823.183,1.646.32,2.469.434.434.057.868.057,1.3.091.8.057,1.6.16,2.4.194.869.046,1.749.046,2.617.046,1.109,0,2.217-.034,3.326-.023.4,0,.8.057,1.2.091.331.023.651.046.983.046,1.771.012,3.543-.137,5.3-.263.594-.046,1.2,0,1.794-.023.309-.011.377.309.617.423.126-.16.24-.3.388-.48.446,0,.949.023,1.429-.011.651-.046,1.3-.137,1.954-.206.777-.069,1.554-.1,2.331-.206,1.246-.183,2.48-.457,3.726-.617a25.806,25.806,0,0,1,3.634-.411c.251,0,.5-.057.766-.08l1.92-.24a3.628,3.628,0,0,0,.48-.1,34.842,34.842,0,0,1,4.057-.64c1.3-.16,2.605-.354,3.886-.629,1.623-.343,3.223-.8,4.834-1.188,1.12-.263,2.24-.48,3.36-.709.423-.091.845-.16,1.268-.229a.835.835,0,0,1,.377.012,12.232,12.232,0,0,1,1.234.446q1.543.7,3.051,1.474a3.436,3.436,0,0,1,.857.663,2.416,2.416,0,0,0,.96.56c.354.114.571-.034.663-.411a4.823,4.823,0,0,1,.332-1.314,6.61,6.61,0,0,0,.617-2.457c.057-.389,0-.8.023-1.2a10.67,10.67,0,0,1,.114-1.2,14.209,14.209,0,0,0,.011-3.269,15.232,15.232,0,0,1,.16-3.382c.24-1.406.514-2.8.743-4.194a14.7,14.7,0,0,0,.172-1.737,12.555,12.555,0,0,1,.491-2.846.786.786,0,0,0-.034-.663,2.6,2.6,0,0,1-.263-.537c-.057-.183-.137-.423-.069-.56a1.91,1.91,0,0,0,.069-1.234,8.421,8.421,0,0,0-1.577-3.634c-.583-.811-1.1-1.668-1.7-2.469a14.051,14.051,0,0,0-1.257-1.36c-.469-.48-.937-.971-1.451-1.406a40.024,40.024,0,0,0-3.863-3.211c-.709-.48-1.314-1.108-2-1.623s-1.371-.971-2.08-1.417a16.371,16.371,0,0,0-1.977-1.052c-.811-.366-1.668-.651-2.5-.96a2.107,2.107,0,0,0-.537-.092.6.6,0,0,1-.548-.457c-.172-.48-.343-.96-.537-1.44a31.24,31.24,0,0,1-1.611-4.365,4.708,4.708,0,0,0-.263-.663c-.629-1.6-1.246-3.2-1.9-4.788-.606-1.486-1.2-2.983-1.851-4.445-.834-1.886-1.737-3.737-2.605-5.611-.183-.4-.354-.8-.548-1.2-.56-1.108-1.131-2.206-1.7-3.314a1.954,1.954,0,0,1-.366-1.12.643.643,0,0,0-.183-.388,13.606,13.606,0,0,1-1.211-1.886c-.674-1.166-1.428-2.286-2.125-3.428-.446-.731-.869-1.474-1.292-2.217-.72-1.268-1.44-2.537-2.16-3.817a39.065,39.065,0,0,1-2.32-4.64c-.388-.983-.72-1.989-1.028-2.994a10.893,10.893,0,0,0-.651-1.451c-.229-.491-.446-.994-.674-1.486-.126-.286-.251-.571-.366-.857-.343-.823-.674-1.657-1.005-2.48-.217-.526-.423-1.052-.651-1.566-.24-.571-.5-1.131-.743-1.7-.32-.754-.686-1.5-.949-2.274a24.052,24.052,0,0,0-2.011-4.251c-.629-1.109-1.326-2.183-2.011-3.257a.883.883,0,0,0-1.2-.3.35.35,0,0,0-.126.308A1.087,1.087,0,0,0,1543.572,1038.4Zm-13.805,69.346a2.02,2.02,0,0,1,.137.434c0,.823,0,1.634-.023,2.457-.011.423-.046.834-.069,1.257-.034.766-.034,1.531-.1,2.3a12.046,12.046,0,0,1-.263,1.806c-.126.526.229.777.48,1.086.194.24.457.114.709.08a4.9,4.9,0,0,1,.914-.046c.366,0,.72.057,1.086.057.926.023,1.851.023,2.788.034.331,0,.651-.023.983-.046,1.2-.1,2.388-.274,3.589-.286a21.588,21.588,0,0,0,2.72-.091,7.657,7.657,0,0,1,1.257-.069c.948.023,1.9.069,2.846.1.434.011.88-.011,1.314,0,.594.011,1.2.069,1.794.046,1.314-.046,2.617-.16,3.931-.194,1.257-.034,2.514,0,3.771-.011a28.006,28.006,0,0,1,3.908.3c.834.1.96.091,1.166-.8a6.227,6.227,0,0,0,.1-1.131c.012-.948.046-1.9.126-2.846.126-1.543.286-3.085.423-4.628.011-.125.057-.24.08-.377.366-.034.709-.069,1.052-.1a11.321,11.321,0,0,1,2.068-.16c.686.046,1.394-.057,2.069.046a21.37,21.37,0,0,0,2.834.057c.64,0,1.269-.08,1.909-.069.674.011,1.337.1,2.011.16a.964.964,0,0,0,1.166-.674c.114-.251,0-.423-.08-.617-.08-.229-.194-.446-.3-.686.1-.011.137-.023.16-.023.229.069.446.16.674.217a15.147,15.147,0,0,1,4.868,2.674c.743.56,1.452,1.166,2.171,1.737.389.309.8.572,1.177.892,1.531,1.314,3.051,2.663,4.594,3.977a6.692,6.692,0,0,1,1.474,1.737,13.987,13.987,0,0,0,1.2,1.828,6.951,6.951,0,0,1,.789,1.531c.091.194.011.48.091.7a3.049,3.049,0,0,1,.217,2.012c.206.32.377.548.514.788.091.172.057.309-.16.377a1.508,1.508,0,0,1-1.074.137,6.013,6.013,0,0,0-1.12-.1c-1.063-.137-2.126-.32-3.2-.423s-2.126-.3-3.188-.491c-1.166-.217-2.32-.469-3.486-.629a32.389,32.389,0,0,1-3.5-.617c-1.006-.251-2.023-.526-3.04-.72-1.577-.309-3.154-.594-4.743-.834a4.014,4.014,0,0,0-2.32.057,1.1,1.1,0,0,1-.434.012c-.137,0-.286-.023-.423-.012-.88.08-1.76.194-2.64.251-.56.034-1.131-.023-1.7,0-.606.011-1.2.057-1.806.1a10.546,10.546,0,0,1-1.577.1c-1.177-.1-2.354-.3-3.531-.332-1.44-.046-2.88-.16-4.32-.183-1.154-.023-2.3.069-3.451.069-1.383,0-2.777-.046-4.16-.069-.389-.011-.766-.011-1.154,0-.651.023-1.314.057-1.965.08-.583.023-1.166.034-1.76.046a18.249,18.249,0,0,1-2.617.034,31.453,31.453,0,0,0-3.6.046,1.385,1.385,0,0,0-.206.057,9.142,9.142,0,0,1-2.423.366.574.574,0,0,1-.549-.172,1.49,1.49,0,0,0-1.268-.457,1.84,1.84,0,0,0-.937.183c-.354.206-.629.56-.96.8a18.76,18.76,0,0,1-2.091,1.371,7.863,7.863,0,0,0-1.337.812,8.714,8.714,0,0,1-2.046,1.234,2.813,2.813,0,0,0-.48.343c-.685.5-1.382,1.006-2.125,1.543a1.126,1.126,0,0,0-1.029-.537c-.571-.069-1.154-.08-1.726-.149a6.186,6.186,0,0,1-.8-.171c-.434-.126-.869-.274-1.3-.377-.274-.069-.583-.046-.857-.126-1.394-.411-2.788-.845-4.183-1.28-.9-.286-1.806-.583-2.708-.88a30.348,30.348,0,0,1-3.783-1.451,5.983,5.983,0,0,1-1.085-.629,30.286,30.286,0,0,1-2.708-2.3.642.642,0,0,1-.194-.777c.183-.434.389-.869.537-1.314a9.809,9.809,0,0,1,2.411-3.474,13.978,13.978,0,0,1,2.857-2.194,24.117,24.117,0,0,1,3.726-2.057c.251-.1.491-.24.731-.366a16.941,16.941,0,0,1,4.366-1.806c.148-.034.3-.08.526-.137-.172.423-.091.731.24.9.171.091.32.24.469.309a2.449,2.449,0,0,0,1.269.4,5.9,5.9,0,0,1,1.737-.011,15.454,15.454,0,0,0,2.811.137c1.188.023,2.365-.034,3.554-.069a3.75,3.75,0,0,0,.811-.08,3.832,3.832,0,0,1,1.726-.091,9.5,9.5,0,0,0,1.131.126C1528.086,1107.761,1528.909,1107.75,1529.766,1107.75Zm14.754-16.879c-.034-.24-.08-.423-.091-.617a.535.535,0,0,0-.377-.549c-.308-.057-.651-.171-.948.069a.5.5,0,0,0-.114.183c-.251.594-.5,1.2-.766,1.794-.114.251-.263.48-.4.72a.743.743,0,0,0,.206,1.1c.434.4.857.834,1.268,1.268a.8.8,0,0,0,.834.274.485.485,0,0,0,.274-.286,2.888,2.888,0,0,0,.148-1.646,1.128,1.128,0,0,1,.023-.377c.194-.011.377-.023.606-.034v1.92a11.789,11.789,0,0,0-.046,2.457c.034.16-.1.411-.023.526a1.13,1.13,0,0,1,.011,1.154,2.39,2.39,0,0,0-.011.857c0,.183.091.389.023.526a.521.521,0,0,0,.023.56,3.493,3.493,0,0,1,.137.446c-.331.023-.594.057-.868.069-.857.057-1.714.1-2.56.172-.469.034-.937.114-1.417.16-.72.08-1.451.137-2.172.206a1.377,1.377,0,0,1-.217.011l-4.925-.034a1.586,1.586,0,0,1-.274-.069c.114-.286.229-.526.309-.788.251-.88.491-1.76.732-2.64.217-.788.446-1.577.663-2.366.091-.354.149-.708.229-1.074.32-1.463.663-2.914.96-4.388a14.28,14.28,0,0,1,.412-2.194,1.261,1.261,0,0,1,.286-.491c.1-.114.023-.4.046-.606.069-.446.149-.9.229-1.349.24-1.417.423-2.857.732-4.263.423-1.908.937-3.794,1.417-5.68.332-1.3.651-2.617.994-3.92.114-.423.274-.834.366-1.257.32-1.463.606-2.926,1.052-4.354s.708-2.9,1.063-4.366c.388-1.611.788-3.223,1.154-4.834.16-.708.228-1.44.354-2.148a5.22,5.22,0,0,1,.149-.526,8.552,8.552,0,0,0,.263-.88c.148-.788.24-1.588.4-2.365s.366-1.531.549-2.286a2.174,2.174,0,0,1,.194-.411c.229.114.423.206.617.3a3.661,3.661,0,0,0,.137.651,17.02,17.02,0,0,1,.857,3.44,27.885,27.885,0,0,1,.514,2.891,13.364,13.364,0,0,1,.343,2.64,7.3,7.3,0,0,0,.331,2.365,7.755,7.755,0,0,0,.549,2.377c.023.046,0,.1.011.16.137.754.274,1.508.423,2.251.1.48.274.948.343,1.429a11.489,11.489,0,0,0,.663,2.7,16.78,16.78,0,0,1,.514,1.726c.24.823.5,1.634.731,2.457.206.743.343,1.5.549,2.228.263.948.572,1.886.846,2.823.126.457.206.926.331,1.383.263.983.537,1.966.811,2.948.046.171.091.354.126.537a14.914,14.914,0,0,0,.514,2.457,5.526,5.526,0,0,1,.343,1.2,31.459,31.459,0,0,0,1.406,5.223,27.4,27.4,0,0,1,1.04,4.457c.091.663.251,1.326.389,1.988.149.72.32,1.451.492,2.217a8.1,8.1,0,0,1-1.052.126c-1.166.023-2.331.046-3.5.034q-1.2-.017-2.4-.137a17.888,17.888,0,0,0-4.343-.343c-.046.011-.1-.023-.194-.046a6.131,6.131,0,0,1-.388-1.828c-.012-.708.011-1.429.023-2.137.011-.366.046-.731.057-1.1.023-.674.046-1.349.057-2.011.023-.754.377-1.486.046-2.251-.08-.194.046-.3.229-.366.08.251.172.492.229.731a5.909,5.909,0,0,1,.012,1.68c0,.229-.023.446.251.537a.525.525,0,0,0,.663-.229c.183-.274.343-.56.5-.846.492-.88.96-1.771,1.486-2.628.457-.743.983-1.429,1.5-2.183a1.066,1.066,0,0,0-.629-.651,12.249,12.249,0,0,1-1.234-.594,4.633,4.633,0,0,1-1.463-1.04c-.286-.343-.537-.789-1.063-.834-.091-.343.069-.777-.48-.834v-1.246c-.114.057-.171.114-.16.183.034,1.5.057,2.994.137,4.491.023.549.125,1.074-.343,1.52a7.785,7.785,0,0,0-.514.7A2.034,2.034,0,0,1,1544.52,1090.87Zm-46.478,28a1.694,1.694,0,0,1,.286.16c.183.171.343.365.537.537.354.309.709.617,1.074.926a7.218,7.218,0,0,0,.8.663,18.618,18.618,0,0,0,3.3,1.577c1.531.537,3.074,1.052,4.605,1.577a34.146,34.146,0,0,0,5.211,1.44c.183.034.343.114.526.16a17.042,17.042,0,0,0,1.806.411,7,7,0,0,1,1.931.514,4.353,4.353,0,0,1,.069,1.76c-.114.572-.194,1.154-.263,1.737-.1.8-.206,1.588-.229,2.388-.034,1.108-.217,2.206-.343,3.3a2.773,2.773,0,0,1-.171.674,4.022,4.022,0,0,0-.274,1.428,12.546,12.546,0,0,1-.149,2.171c-.114.617-.228,1.234-.366,1.851-.274,1.257-.411,2.549-.64,3.828a3.265,3.265,0,0,1-.594,1.783c-.309.354-.343.411-.823.251-.777-.251-1.554-.548-2.343-.743a26.391,26.391,0,0,1-3.463-1.326c-.9-.377-1.771-.846-2.64-1.314-.823-.446-1.645-.891-2.411-1.406-1.234-.846-2.434-1.749-3.634-2.629a8.8,8.8,0,0,1-1.954-2.057c-.24-.343-.492-.686-.731-1.017a1.679,1.679,0,0,1-.446-1.086,12.619,12.619,0,0,0,0-1.314c-.114-2.411.194-4.823.251-7.234.034-1.314.206-2.617.331-3.92.034-.412.137-.823.183-1.246A20.459,20.459,0,0,1,1498.042,1118.869Zm63.426-3.28a3.335,3.335,0,0,1-.549.034c-.651-.034-1.3-.1-1.954-.126-.834-.034-1.669-.069-2.5-.046a25.134,25.134,0,0,0-4.811.251,1.574,1.574,0,0,1-.331.011c-1.36.011-2.731.034-4.091.046-.594,0-1.189-.011-1.794-.011a26.774,26.774,0,0,0-3.828.034c-.491.069-.983.091-1.474.114-1.234.057-2.48.08-3.726.148-.743.034-1.486.137-2.24.172-.377.023-.766-.069-1.143-.057-.743.012-1.486.057-2.229.08a2.043,2.043,0,0,1-.343-.069c.126-.194.286-.32.309-.469.069-.469.08-.937.1-1.417.012-.206.012-.4.035-.606.1-.994.251-1.989.3-2.994.046-1.234.137-2.469.183-3.7.035-1.291.217-2.583.16-3.874a.708.708,0,0,1,.08-.206c.366-.023.743-.046,1.12-.057.526-.023,1.052-.023,1.577-.034.32-.011.64-.034.96-.034,1.177-.011,2.366.011,3.543-.023.743-.023,1.486-.1,2.24-.149.651-.046,1.314-.091,1.966-.126.834-.057,1.669-.126,2.514-.16.674-.023,1.348,0,2.023-.011a2.578,2.578,0,0,0,.788-.115,2.349,2.349,0,0,1,1.371-.125c.857.171,1.714.32,2.583.434.72.091,1.451.114,2.183.137,1.086.034,2.171.069,3.257.069.606,0,1.2-.069,1.806-.069a3.6,3.6,0,0,1,1.554.286c-1.1.492-2.114.092-3.143-.011a.6.6,0,0,0,.332.16c.286.046.583.057.857.126a3.274,3.274,0,0,0,1.726-.012c.366-.091.743-.114,1.12-.171a3.152,3.152,0,0,1,.057,1.486c-.069.411-.149.823-.183,1.246-.08,1.154-.149,2.32-.206,3.474-.046.777-.08,1.566-.1,2.343-.023.617-.011,1.246-.023,1.863-.011.457-.057.9-.08,1.36C1561.457,1115.018,1561.468,1115.269,1561.468,1115.589Zm20.879,19.919c-.423-.183-.743-.366-1.086-.48-.606-.194-.7-.274-.709-.914a7.692,7.692,0,0,1,.24-2.388c.137-.457.069-.549-.332-.789-.137-.08-.251-.206-.389-.286a4.819,4.819,0,0,0-.777-.366c-.5-.16-1.029-.251-1.52-.446-.811-.32-1.589-.708-2.377-1.074-.034-.011-.057-.046-.092-.069-.057-.549-.114-1.1-.171-1.634.149.046.3.091.457.137,0-.412.023-.777,0-1.143a19.091,19.091,0,0,1-.137-3.326c.023-.206-.034-.309-.251-.343a.693.693,0,0,0-.251.629q.1,1.611.206,3.223c.011.16.091.343-.149.469-.08-.446-.16-.857-.24-1.268a.616.616,0,0,0-.389-.491c-.229-.092-.457-.229-.686-.309a6.506,6.506,0,0,0-.994-.286c-1.109-.194-2.217-.366-3.326-.548-.1-.011-.24-.08-.263-.16a2.336,2.336,0,0,1-.229-.891c.057-.629.206-1.246.32-1.9.206.011.343.023.491.023a2.639,2.639,0,0,0,.423-.034,3,3,0,0,1,.629-.1,5.528,5.528,0,0,1,.857.126c1.166.194,2.343.354,3.508.594,1.314.274,2.617.651,3.931.949a23.652,23.652,0,0,0,2.948.583c1.04.114,2.034.366,3.051.549.629.114,1.246.286,1.874.388.72.114,1.451.171,2.171.274,1.074.16,2.16.343,3.234.537.355.057.686.16,1.1.263-.046.64-.08,1.212-.137,1.783-.126,1.291-.217,2.594-.411,3.886a15.909,15.909,0,0,0-.286,3.211c.034.5.08,1.006.08,1.5,0,.56-.046,1.131-.069,1.691-.034.754.114,1.508.012,2.286-.08.686-.034,1.383-.069,2.08a3.517,3.517,0,0,1-.171,1.166c-.172.389-.194.857-.549,1.166-.057.057-.034.206-.046.309-.023.229-.057.469-.08.708a.557.557,0,0,1-.171-.034c-1.086-.5-2.171-1.006-3.269-1.508a9.231,9.231,0,0,0-2.48-.994c-.011-.3-.034-.594-.034-.88a16.427,16.427,0,0,1,.046-1.68c.046-.446.194-.891.286-1.337a1.436,1.436,0,0,0-.96-1.623c-.56-.194-1.131-.388-1.68-.617-.7-.286-.708-.332-.651-1.051.057-.789.092-1.566.149-2.354.046-.708.092-1.417.149-2.125.08-.96.172-1.92.263-2.88.091-.983.194-1.954.3-2.937.023-.24.046-.469.057-.708s-.137-.32-.343-.354c-.274-.046-.411.1-.423.491-.046,1.108-.069,2.217-.114,3.314s-.1,2.183-.16,3.28c-.057.983-.114,1.966-.183,2.948C1582.427,1134.3,1582.393,1134.857,1582.347,1135.508Zm-52.455-46.57a1.726,1.726,0,0,0,.629,1.257c.72.7,1.428,1.406,2.114,2.137.274.3.423.743.709,1.029a.629.629,0,0,1,.183.674c-.149.7-.286,1.383-.446,2.08-.205.9-.446,1.794-.651,2.7-.16.663-.526,1.246-.628,1.931-.012.046-.114.069-.1.057-.846-.743-1.634-1.463-2.468-2.137a2.675,2.675,0,0,0-1.543-.732.338.338,0,0,0,.023.5,4.037,4.037,0,0,0,.343.274,12.877,12.877,0,0,1,2.377,2.148c.229.263.388.571.811.571.069,0,.194.172.194.263s-.114.206-.206.263a1.225,1.225,0,0,1-.366.08c-.651.126-.914.4-.937,1.051-.011.366.023.731.023,1.1,0,.8-.023,1.588-.034,2.434-.183-.046-.3-.08-.423-.1a3.056,3.056,0,0,0-.9-.08,11.507,11.507,0,0,1-3.006.08,7.457,7.457,0,0,0-1.886.137,6.468,6.468,0,0,1-2.057.149q1.594-4.268,3.154-8.411c.183-.069.32-.115.457-.16.56-.194.64-.434.24-.846a.543.543,0,0,1-.126-.674c.366-1.017.686-2.034,1.04-3.063a10.879,10.879,0,0,1,.423-1.063c.24-.548.549-1.086.754-1.646.217-.583.457-1.028,1.189-.9a.391.391,0,0,0,.446-.32.633.633,0,0,0-.126-.491,3.549,3.549,0,0,0-.651-.446c.172-.457.32-.971.537-1.44a29.593,29.593,0,0,0,1.577-3.851c.171-.549.457-1.074.686-1.611.16-.377.56-.4.868-.48.274-.08.32.274.434.48a1.576,1.576,0,0,0,.148.229c.514.663,1.04,1.314,1.531,1.988a1.131,1.131,0,0,0,1.223.537c-.114.789-.229,1.52-.343,2.263a4.036,4.036,0,0,1-.183.731,8.21,8.21,0,0,0-.514,2.229,9.5,9.5,0,0,1-.572,2.491c-.628-.629-1.2-1.28-1.851-1.817A8.853,8.853,0,0,0,1529.892,1088.939Zm8.468,54.729c.48.023.971.046,1.451.08a11.544,11.544,0,0,0,2.069.125c1.531-.183,3.063-.046,4.594-.148.709-.046,1.417-.091,2.126-.1.64-.023,1.268,0,1.84,0,.057.434.114.8.171,1.177.012.091.034.183.046.274.1.594.217,1.177.308,1.771a4.1,4.1,0,0,1,0,.651,8.106,8.106,0,0,1-.88.08c-.514,0-1.017-.069-1.531-.034-1.017.057-2.034.172-3.051.24-.594.034-1.2,0-1.806.034a11.353,11.353,0,0,1-2.068-.046,5.018,5.018,0,0,0-1.086-.069,21.774,21.774,0,0,1-3.108.069c-1.372-.057-2.731-.148-4.1-.206a12.483,12.483,0,0,1-2.606-.206c-.366-.092-.743-.183-1.12-.251-1.04-.183-2.08-.366-3.12-.537-.56-.091-1.131-.114-1.669-.251-.983-.263-1.954-.583-2.926-.9a5.39,5.39,0,0,1-.651-.286c.011-1.508-.332-2.983-.194-4.526,2.217.48,4.411.892,6.548,1.554.08.891.137,1.76.229,2.629a8.858,8.858,0,0,0,.24,1.337c.057.206.16.5.571.377v-4.171c2.914.206,5.726.846,8.56,1.189a5.2,5.2,0,0,0,.251.926,21.407,21.407,0,0,1,.834,2.64c.08.217.137.411.4.434a1.339,1.339,0,0,0,.217-1.177C1538.726,1145.474,1538.543,1144.605,1538.36,1143.668Zm26.365-3.12c-.354.091-.594.148-.834.206-.7.149-1.383.309-2.08.446-.731.148-1.463.3-2.194.434-.137.023-.286.057-.434.08-.811.137-1.611.286-2.423.389a18.871,18.871,0,0,1-3.211.286,5.574,5.574,0,0,0-.983.057c-1.109.114-2.206.274-3.314.354-1.326.091-2.663.126-3.988.149-.743.023-1.5-.057-2.24-.011a18.166,18.166,0,0,1-2.846.091c-.286-.034-.583-.057-.869-.08-1.04-.08-2.08-.114-3.108-.251-1.223-.16-2.446-.4-3.668-.583-1.189-.183-2.389-.331-3.577-.491-.126-.023-.251-.069-.423-.114.091-.114.126-.172.172-.229a20.938,20.938,0,0,1,2.377-2.343.713.713,0,0,1,.537-.194c.457.011.914-.023,1.371,0s.9.069,1.36.114c.937.1,1.886.217,2.823.32.64.069,1.291.126,1.977.194-.32.514-.629.948-.88,1.406a5.034,5.034,0,0,0-.777,1.417c.16.126.286.229.457.366a4.668,4.668,0,0,0,.629-.5c.446-.48.846-.994,1.28-1.486.286-.32.56-.617.32-1.109h9.508a5.773,5.773,0,0,1,.948,2.811.477.477,0,0,0,.446-.48,3.876,3.876,0,0,0,.011-1.029c-.046-.423-.171-.834-.251-1.234,3.977-.309,7.885-.606,11.851-.914a.949.949,0,0,0,.56,1.006C1563.7,1139.885,1564.153,1140.194,1564.725,1140.548Zm-40.341-43.69c-.434.148-.731.251-1.028.332a15.206,15.206,0,0,1-2.96.377c-.651.057-1.3.114-1.954.194a.516.516,0,0,0-.48.5.585.585,0,0,0,.537.5c.354,0,.72-.011,1.074-.046s.72-.1,1.085-.126c.811-.046,1.634-.057,2.457-.091.172-.011.343-.034.56-.046-.114.411-.183.766-.309,1.109-.377,1.029-.766,2.046-1.154,3.063-.457,1.212-.811,2.446-1.36,3.634a.96.96,0,0,1-1.04.663,13.9,13.9,0,0,0-1.954-.092c-.708.034-1.417-.023-2.137-.057a2.587,2.587,0,0,1-1.052-.08,12.511,12.511,0,0,0,1.188-3.143c.389-1.36.834-2.72,1.28-4.057.263-.788.617-1.566.869-2.354.743-2.332,1.737-4.571,2.617-6.857a1.4,1.4,0,0,1,.149-.217c.389.034.731.08,1.074.1.309.023.617.069.926.069.606.011,1.2.023,1.806-.011s1.223-.114,1.828-.16a2.6,2.6,0,0,1,.491.069c-.332.811-.64,1.543-.937,2.274-.308.754-.606,1.52-.88,2.286S1524.589,1096.242,1524.383,1096.859Zm5.874,25.976v-.4c.011-.937.011-.937.971-1.029.708-.069,1.406-.171,2.114-.229,1.086-.091,2.172-.183,3.257-.217.617-.023,1.234.114,1.851.114,1.166,0,2.331-.069,3.5-.091.583-.011,1.166-.023,1.76-.046a7.2,7.2,0,0,1,.983-.057,20.9,20.9,0,0,0,2.674.092c1.166-.023,2.331-.023,3.508-.046.7-.011,1.383-.08,2.08-.057,1.188.034,2.365.1,3.554.171.64.034,1.269.126,1.908.171.8.057,1.6.137,2.4.137.891.011,1.783-.057,2.686-.08.926-.023,1.863-.011,2.788-.023.446-.011.891-.057,1.417-.091-.034.514-.068.948-.114,1.452-.788.034-1.531.069-2.274.091-.057,0-.1.023-.16.023-.686.046-1.371.091-2.057.126-.8.046-1.6.08-2.4.126-.594.034-1.2.091-1.794.114-.332.023-.663.011-.983.023-1.051.046-2.114.126-3.166.126-1.383,0-2.766-.08-4.148-.092-1.234-.023-2.469-.011-3.7,0-.766.011-1.531.046-2.3.057-.274,0-.549-.069-.823-.046a23.9,23.9,0,0,1-4.046.069c-1.874-.114-3.737-.286-5.611-.423-.549-.034-1.1-.023-1.646-.057A6.992,6.992,0,0,0,1530.258,1122.835Zm33.862-24.331a1.536,1.536,0,0,1,.983-.24c1.12-.046,2.251-.046,3.383-.069.308,0,.606-.023.914,0q.84.051,1.68.137c.377.034.56-.24.731-.48,1.1,2.663,2.183,5.291,3.28,7.943a4.719,4.719,0,0,0-.628-.057c-.354.034-.709.137-1.074.149-.594.023-1.2-.023-1.794-.011-.834.023-1.668.08-2.5.114a2.44,2.44,0,0,1-.709-.023,4.57,4.57,0,0,0-1.577-.034c-.194.023-.389.034-.594.046a1.929,1.929,0,0,0-.16-.606,3.835,3.835,0,0,1-.446-1.726,3.882,3.882,0,0,0-.206-.891A19.671,19.671,0,0,1,1564.119,1098.5Zm-5.794-17.268a3.059,3.059,0,0,1,.366-.034c.8-.034,1.6-.08,2.4-.114.868-.034,1.749-.08,2.617-.1a.862.862,0,0,1,.823.354,9.177,9.177,0,0,0,.754.971c.057.08.1.251.069.286-.206.194-.034.354.091.366.251.023.3.194.377.343.3.583.594,1.154.88,1.749.126.263.24.537.343.811s.285.56.24.811c-.057.377.411.354.389.651,0,.023.011.034.011.057-.023.617.389,1.086.572,1.623.069.217.148.423.217.606-.091.068-.114.114-.148.114a29.411,29.411,0,0,0-3.6.537c-.937.126-1.885.183-2.834.24-.583.034-.583,0-.732-.571-.091-.354-.183-.709-.3-1.052-.3-.9-.606-1.794-.9-2.7-.48-1.417-.96-2.834-1.428-4.251C1558.451,1081.716,1558.405,1081.511,1558.325,1081.236Zm-16.548,49.221c-.354.491-.64.937-.96,1.337a6.809,6.809,0,0,1-1.577,1.714c-.171.114-.137.274-.011.423.206.228.411.217.766-.069a17.942,17.942,0,0,0,2.617-2.48c.571-.674.583-.663,1.474-.56.069.011.148,0,.217.011.583.011,1.166.023,1.749.046.96.046,1.92.114,2.891.172.126.011.251.023.332.034.069,1.154.137,2.286.217,3.417H1546.5c-.251,0-.514,0-.766.023a8.281,8.281,0,0,1-2.057.08,6.252,6.252,0,0,0-.926.011,13.573,13.573,0,0,1-1.36.034c-1.223-.08-2.434-.194-3.646-.274-.423-.034-.846-.011-1.257-.046-.96-.08-1.92-.183-2.88-.274a1.768,1.768,0,0,0-.491.011,9.546,9.546,0,0,1-2.32-.171c.263-.354.469-.651.686-.926a5.894,5.894,0,0,1,.606-.7,10.469,10.469,0,0,0,2.251-2.4c.537.069,1.051.148,1.577.183,1.269.091,2.548.171,3.817.251C1540.36,1130.354,1541.012,1130.4,1541.777,1130.457Zm-5.371-57.712a.626.626,0,0,0,.228.64,11.8,11.8,0,0,1,.9.948.826.826,0,0,1,.194.857c-.16.5-.24,1.017-.366,1.531-.126.56-.24,1.12-.389,1.68-.137.526-.343,1.029-.48,1.543-.32,1.212-.606,2.434-.9,3.646l-.148.594a32.972,32.972,0,0,1-3.349-4.011c.343-.754.709-1.554,1.074-2.343.583-1.257,1.177-2.5,1.76-3.771.149-.32.286-.594.686-.7.366-.091.446-.3.274-.629a.7.7,0,0,1,0-.674c.217-.56.469-1.109.686-1.669.56-1.486,1.1-2.971,1.646-4.468.183-.491.389-.983.526-1.5a1.262,1.262,0,0,1,.526-.9.328.328,0,0,0,.069-.56c-.183-.172-.1-.343-.046-.5.3-.868.594-1.726.9-2.583.229-.651.491-1.291.72-1.954.24-.686.457-1.383.674-2.08.137-.446.251-.9.377-1.349.24.023.423.091.365.366-.1.537-.206,1.074-.331,1.6-.137.617-.3,1.234-.446,1.851-.08.332-.114.674-.194,1.017-.1.48-.228.96-.343,1.44-.229,1.017-.457,2.023-.7,3.108-.343-.228-.64-.457-.983-.183.171.4.309.8.5,1.154a1.386,1.386,0,0,1,.08,1.109c-.251.926-.48,1.863-.7,2.8-.194.812-.331,1.634-.537,2.446a10.552,10.552,0,0,0-.423,2.137,3.214,3.214,0,0,1-.068.434c-.354-.332-.651-.606-.937-.88C1537.012,1072.665,1536.738,1072.517,1536.406,1072.745Zm15.062,70.786c.514-.057,1.029-.126,1.554-.171.823-.069,1.634-.137,2.457-.183a41.786,41.786,0,0,0,5.2-.72c1.691-.286,3.36-.663,5.051-1.006a1.137,1.137,0,0,1,.354.857c-.023.971.023,1.943.046,2.914.011.446-.034.5-.469.548l-4.023.446-1.086.137-2.32.343c-1.154.172-2.308.331-3.463.5-.5.069-1.017.114-1.52.206a3.821,3.821,0,0,1-1.486.012C1551.662,1146.137,1551.571,1144.868,1551.468,1143.531Zm-1.954-13.657c.057,0,.114.011.171.011a4.165,4.165,0,0,0,.24-.629c.091-.423.16-.857.217-1.292s.1-.491.537-.5c.686-.023,1.372-.069,2.069-.1.217-.011.434,0,.651,0a6.472,6.472,0,0,0,.811.023,28.469,28.469,0,0,1,3.554.126.1.1,0,0,1,.057.011.387.387,0,0,1,.365.457c-.023.343-.023.7-.057,1.04-.023.286-.091.56-.148.88-.594,0-1.143-.023-1.68,0-.926.046-1.852.114-2.777.172-.423.023-.846-.012-1.257.034a11.347,11.347,0,0,1-2.64.011,3.57,3.57,0,0,0-.606,0,12.167,12.167,0,0,1-1.577.057c-.754-.057-1.509-.149-2.263-.149a15.823,15.823,0,0,1-1.794-.137,25.917,25.917,0,0,0-3.646-.377c-.1,0-.217-.034-.32-.034-.777-.057-1.566-.091-2.343-.149-1.052-.08-2.1-.183-3.1-.263-.149-.572-.286-1.074-.411-1.589l8.491-.069a2.512,2.512,0,0,1,.423,1.52,2.115,2.115,0,0,0,.046.377c.046.194.137.343.354.354s.331-.148.366-.343a6.271,6.271,0,0,0,.08-.811c.011-.32,0-.64,0-.96h5.851c.034.446.057.834.091,1.212A1.993,1.993,0,0,0,1549.514,1129.874Zm14.342-32.387a24.3,24.3,0,0,1-2.1-6.08,1.391,1.391,0,0,1,.206-.057c.72-.023,1.451,0,2.171-.057a15.3,15.3,0,0,0,2.594-.389,8.606,8.606,0,0,1,1.943-.183.48.48,0,0,1,.537.354c.217.594.469,1.189.7,1.783.389.983.766,1.966,1.154,2.948.217.571.446,1.131.72,1.817-.48-.286-.845-.5-1.211-.731-.114.148-.229.286-.286.365C1568.1,1097.35,1565.982,1097.418,1563.856,1097.487Zm-42.673-8.343c1.257-2.64,2.263-5.337,3.7-7.862a2.012,2.012,0,0,0,.686.08,6.891,6.891,0,0,1,2.274.171,10.791,10.791,0,0,0,2.1.08c.114,0,.24.023.389.034-.332.846-.64,1.657-.948,2.469-.069.16-.1.343-.183.5-.411.891-.834,1.771-1.234,2.674-.16.366-.251.754-.377,1.131-.148.434-.286.537-.754.56a10.525,10.525,0,0,0-1.474.069A16.957,16.957,0,0,1,1521.184,1089.144Zm16.788-25.462c-.172.446-.331.811-.469,1.177-.251.663-.491,1.337-.743,2-.309.823-.617,1.634-.937,2.446-.274.708-.617,1.406-.857,2.126-.286.869-.091.892-1.223.926s-2.263.091-3.394.137c-.423.011-.834,0-1.349,0,1.451-2.948,3.017-5.7,4.617-8.457.171-.011.343,0,.5-.023,1.051-.137,2.091-.274,3.143-.4A5.644,5.644,0,0,1,1537.972,1063.683Zm23.771,11.588-.1.069c.388.743.788,1.486,1.166,2.251s.72,1.543,1.131,2.411c-.354.011-.606.011-.846.034-.834.091-1.657.217-2.491.274a5.971,5.971,0,0,0-2.389.251,42.455,42.455,0,0,1-2.308-7.234c.766-.1,1.543-.16,2.308-.309.8-.16,1.543.217,2.32.114a8.423,8.423,0,0,1,.606,1.063c.217.537.206.537.731.869a.468.468,0,0,1,.217.56C1561.971,1075.5,1561.856,1075.385,1561.742,1075.271ZM1575.89,1144a3.263,3.263,0,0,1-.4.149,33.879,33.879,0,0,1-3.543.651c-.457.034-.891.171-1.349.228-.754.1-1.508.194-2.263.3-.548.069-1.085.149-1.645.229-.011-.091-.023-.148-.023-.194.069-.754.16-1.509.217-2.263a2.054,2.054,0,0,0-.366-1.783c3.051-.48,6.068-.948,9.154-1.44C1575.741,1141.257,1575.81,1142.617,1575.89,1144Zm-41.85-70.488c-1.1,2.354-2.16,4.663-3.211,6.914a16.284,16.284,0,0,1-5.52-.1c1.1-2.343,2.183-4.651,3.268-6.982.194.091.332.16.48.24-.034.206-.069.377-.091.548a.308.308,0,0,0,.172-.137.667.667,0,0,1,.8-.469,16.667,16.667,0,0,0,1.851-.011Zm-14.137,71.323c-.217.1-.423.194-.64.3a4.443,4.443,0,0,0,.16.434,12.884,12.884,0,0,1-2.8,1.554c.034-.194.046-.309.069-.434.194-.891.423-1.783.56-2.674a16.508,16.508,0,0,1,.48-2.354,7.923,7.923,0,0,0,.24-1.177c.126-.846.206-1.7.343-2.548.24-1.531.651-3.029.777-4.583.092-1.143.377-2.263.56-3.394.126-.766.309-1.543.366-2.32.046-.651.411-.937.971-1.234a8.387,8.387,0,0,1,.126.971c.011,1.04,0,2.08,0,3.12a3.2,3.2,0,0,1-.011.331c-.057.686-.148,1.371-.171,2.068-.057,1.371-.069,2.743-.114,4.1a1.114,1.114,0,0,1-.149.5c-.32.594-.686,1.154-.971,1.76a1.92,1.92,0,0,0-.194,1.143c.16,1.017.286,2.057.389,3.085A13.232,13.232,0,0,1,1519.9,1144.834Zm6.5-18.994c.56-.229,1.063-.469,1.577-.629s1.074-.217,1.6-.332c.148-.034.366-.091.423-.194a.544.544,0,0,1,.526-.309.568.568,0,0,0,.537-.388.769.769,0,0,1,.5-.354,11.233,11.233,0,0,1,1.52-.046,4.243,4.243,0,0,0,.64.08,10.348,10.348,0,0,1,2.537.183c-.514.412-.949.743-1.371,1.1-.434.377-1.074.423-1.463.9a.984.984,0,0,0,.96.217,3.944,3.944,0,0,0,.869-.308c.651-.32,1.291-.674,1.943-1.017.5-.274.5-.274.7-.8.206.011.423.011.64.034.708.057,1.417.16,2.126.183,1.006.034,2.011.011,3.017.011h.617c-.377.846-.743,1.646-1.12,2.48-.229,0-.469.011-.7,0a39.063,39.063,0,0,0-4.629-.034c-1.52.069-3.051,0-4.583-.023a19.9,19.9,0,0,0-2.023-.08,11.11,11.11,0,0,1-1.851-.069c-.251-.023-.5-.08-.766-.092A5.332,5.332,0,0,1,1526.406,1125.84Zm35.187,11.817c-.24.034-.457.08-.674.091-1.291.091-2.583.171-3.874.263-.057,0-.1.023-.16.023-.937.1-1.886.217-2.823.309-.834.08-1.669.126-2.5.171-.354.023-.708,0-1.052,0v-3.063c.891-.034,1.817-.057,2.743-.114,1.131-.069,2.251-.171,3.371-.229a24.683,24.683,0,0,0,3.794-.4c.423-.08.857-.114,1.291-.16A5.332,5.332,0,0,1,1561.594,1137.657Zm-11.3-6.651a6.629,6.629,0,0,0,.8.046c.834-.011,1.68-.023,2.514-.069,1.131-.057,2.251-.149,3.371-.217.5-.023,1.017,0,1.52,0a10.011,10.011,0,0,0,1.943,1.668,2.778,2.778,0,0,1,.983,1.1c-.823.125-1.611.251-2.388.388a9.826,9.826,0,0,1-1.131.206c-1.417.091-2.846.16-4.263.24l-.549.034c-.857.057-1.714.114-2.572.16-.469.023-.548-.08-.48-.549.08-.617.183-1.223.24-1.84A9.751,9.751,0,0,0,1550.291,1131.006Zm34.353,11.005a6.043,6.043,0,0,0-1.028.012c-.606.114-1.2.286-1.806.446a11.935,11.935,0,0,1-1.509.434,20.572,20.572,0,0,0-2.594.663c-.411.114-.823.206-1.28.308.034-.766.069-1.451.08-2.137s0-1.383,0-2.137a52.486,52.486,0,0,1,6.057-1.052c.309.64.309.64.617.572-.034-.172-.069-.343-.126-.594.629-.126,1.211-.251,1.874-.388A15.86,15.86,0,0,0,1584.644,1142.011Zm-29.21-69.643c-.286-1.006-.56-2.023-.88-3.017s-.731-1.989-1.063-2.983-.64-1.977-.926-2.9c.411-.126.755-.229,1.1-.309a1.437,1.437,0,0,1,.583-.034,3.361,3.361,0,0,1,.731.217.494.494,0,0,1,.228.206c.571.994,1.131,1.989,1.692,2.994a11.7,11.7,0,0,0,1.223,2.183,3.075,3.075,0,0,1,.32.572c.263.48.526.948.8,1.429a4.251,4.251,0,0,1,.663,1.349C1558.394,1071.957,1556.977,1072.391,1555.434,1072.368ZM1549.9,1138.5c-.823.023-1.589.057-2.343.057-1.657.023-3.314.023-4.983.034-.743.011-1.486.023-2.24.023-.457,0-.526-.069-.617-.514-.034-.16-.057-.32-.08-.48-.114-.64-.24-1.28-.343-1.92a1.131,1.131,0,0,1,.069-.343c.366.023.731.057,1.086.069.914.046,1.817.126,2.731.114,1.543-.023,3.1-.114,4.64-.16.5-.011,1.017,0,1.508,0C1549.537,1136.446,1549.72,1137.451,1549.9,1138.5Zm-17.2-8.708a1.6,1.6,0,0,1-.629,1.006,4.577,4.577,0,0,0-1.086,1.337c-.229.469-.492.926-.731,1.394a.63.63,0,0,1-.674.366c-.994-.137-1.989-.251-2.971-.434a27.077,27.077,0,0,0-2.708-.354,2.945,2.945,0,0,1-1.44-.3c.183-.172.308-.309.446-.434a2.462,2.462,0,0,0,.446-.389,11.791,11.791,0,0,1,2.172-2.228.509.509,0,0,1,.263-.149c.766-.046,1.531-.091,2.3-.1a11.505,11.505,0,0,1,2.069.126A23.674,23.674,0,0,0,1532.7,1129.795Zm39.061,6.251c-.583.114-1.131.217-1.691.32a3.649,3.649,0,0,0-.8.137,18.547,18.547,0,0,1-3.5.845c-.926.16-1.886.206-2.823.309-.126.011-.24,0-.457,0a6.633,6.633,0,0,0-.137-3.109.414.414,0,0,1,.171-.069l1.783-.206c.594-.069,1.189-.148,1.794-.183a22.954,22.954,0,0,0,4.914-.526,3.069,3.069,0,0,1,.56-.034C1571.639,1134.366,1571.7,1135.154,1571.765,1136.046Zm-37.427-73.106a9.456,9.456,0,0,1,.389-.926,9.17,9.17,0,0,1,1.017-1.931,3.274,3.274,0,0,0,.331-.629c.263-.514.526-1.029.811-1.531.172-.3.389-.572.549-.88.48-.88.948-1.76,1.394-2.651a.568.568,0,0,1,.514-.343,3.234,3.234,0,0,1,1.611.343,13.068,13.068,0,0,1-.857,3.177,12.518,12.518,0,0,0-.72,1.817c-.194.674-.5,1.326-.731,2-.126.354-.206.72-.309,1.086-.1.023-.171.034-.251.046a12.04,12.04,0,0,0-1.943.263A5.885,5.885,0,0,1,1534.338,1062.94Zm9.634,63.746c-.023-.057-.046-.114-.069-.16.651-.777,1.291-1.543,2.034-2.434.343-.023.811-.069,1.28-.069.708.012,1.406.069,2.137.1a.61.61,0,0,1,.046.114c.08.446.137.9.229,1.348.034.137.149.332.263.366s.286-.1.389-.206a.779.779,0,0,0,.183-.377c.057-.423.091-.846.126-1.28h.709c.343.011.686.034,1.04.034.869.011,1.749.034,2.617.023a.709.709,0,0,1,.663.366c.286.423.617.811.926,1.211.194.251.388.491.651.811h-.492c-.617-.034-1.234-.091-1.851-.08-1.623.023-3.234.057-4.857.1-1.1.034-2.183.091-3.28.114C1545.777,1126.7,1544.874,1126.686,1543.971,1126.686Zm-13.714,11.016c-.834-.046-1.6-.08-2.354-.126-.857-.046-1.714-.114-2.571-.114-.594-.011-1.2.114-1.794.091-.994-.046-1.5-.24-1.52-1.406-.012-.72.057-1.451.1-2.183a3.467,3.467,0,0,1,.869-.183c.88.08,1.76.217,2.628.354,1.291.206,2.583.434,3.931.663C1529.778,1135.714,1530.018,1136.686,1530.258,1137.7Zm29.027-6.937c.48-.034.823-.069,1.166-.08,1.006-.068,2-.125,3.006-.183a6.02,6.02,0,0,0,1.2-.1,13.417,13.417,0,0,1,2.617-.206.768.768,0,0,1,.514.114.693.693,0,0,0,.571.194.767.767,0,0,1,.274.046,6.694,6.694,0,0,1,2.811,1.52c.046.034.046.126.091.24-.183.034-.343.069-.491.1-.674.126-1.36.251-2.046.377-.251.046-.5.1-.754.126-1.851.16-3.7.309-5.554.491a.805.805,0,0,1-.777-.354,8.047,8.047,0,0,0-.857-.9C1560.508,1131.7,1559.936,1131.28,1559.285,1130.766Zm-1.269-37.016a2.919,2.919,0,0,1-.16-.411c-.309-1.166-.629-2.32-.926-3.486-.263-1.063-.48-2.137-.777-3.188a1.3,1.3,0,0,1,.126-1.074c.411-.732.811-1.463,1.223-2.194.1-.183.229-.354.4-.617.891,2.754,1.76,5.394,2.606,8.011C1559.514,1091.636,1559.011,1092.836,1558.017,1093.75Zm-27.37,41.038c2.537.16,5.051.32,7.474.469.343,1.12.651,2.172.983,3.28-.366-.034-.731-.057-1.086-.091-1.108-.1-2.206-.217-3.314-.331a10.971,10.971,0,0,0-2.937-.16c-.457.068-.674-.091-.754-.572C1530.863,1136.548,1530.772,1135.691,1530.646,1134.788Zm44.787,3.783c-1.246.309-2.411.617-3.577.868-.674.149-1.371.172-2.057.286-1.189.206-2.366.434-3.543.663a1.008,1.008,0,0,1-.823-.172c-.411-.3-.857-.549-1.292-.823a3.261,3.261,0,0,1-.948-.731c.88-.08,1.691-.16,2.5-.24a8.342,8.342,0,0,0,1.2-.126c1.508-.331,3.017-.708,4.525-1.029a2.863,2.863,0,0,1,2.171.069A7.637,7.637,0,0,1,1575.433,1138.571Zm-22.033-61.917c.526-.891,1.028-1.737,1.554-2.629a2.438,2.438,0,0,1,.194.389c.24.777.48,1.566.72,2.343.229.754.434,1.509.686,2.251.24.708.5,1.406.766,2.114a.755.755,0,0,1,0,.629c-.206.457-.354.948-.583,1.394a10.144,10.144,0,0,1-.766,1.2.443.443,0,0,1-.309.148c-.057,0-.126-.16-.149-.251-.137-.526-.217-1.074-.389-1.589a21.733,21.733,0,0,1-.72-2.514c-.171-.777-.457-1.531-.686-2.3C1553.594,1077.419,1553.491,1077.008,1553.4,1076.654Zm2.663,47.621c.023-.046.057-.08.08-.126,1.246-.034,2.5-.126,3.737-.057a16.364,16.364,0,0,0,1.84-.034,2.824,2.824,0,0,1,1.828.354c.64.446,1.268.9,1.9,1.371a3.17,3.17,0,0,1,.366.4,2.627,2.627,0,0,1-.526.16c-1.143.069-2.3.137-3.44.183-.183.011-.366-.034-.549-.034a12.493,12.493,0,0,0-2.069,0,1.392,1.392,0,0,1-1.486-.457C1557.239,1125.417,1556.634,1124.869,1556.062,1124.275Zm-26.056,14.194a8.629,8.629,0,0,0-2.3,2.846,3.1,3.1,0,0,1-.469-.1,31.35,31.35,0,0,0-4.194-.971,10.635,10.635,0,0,1-2.194-.594,5.976,5.976,0,0,1,1.143-1.726c.217.069.388.126.56.183a3.392,3.392,0,0,0,1.657.24,18.287,18.287,0,0,1,2.24-.1c.731-.011,1.451.023,2.183.057C1529.046,1138.343,1529.469,1138.411,1530.006,1138.468ZM1559,1098.584a29.092,29.092,0,0,1-.708-3.52c.377-.411.708-.789,1.063-1.154.206-.217.5-.377.64-.629a4.651,4.651,0,0,1,.96-.994,1.421,1.421,0,0,1,.137.251c.32.834.651,1.657.937,2.5.263.754.469,1.52.7,2.286a.585.585,0,0,1-.034.308,1.95,1.95,0,0,1-.183.354C1561.319,1098.184,1560.165,1098.39,1559,1098.584Zm-5.828-23.267a.4.4,0,0,0-.114-.023c-.046-.263-.114-.526-.148-.788-.194-1.28-.766-2.48-.891-3.771a1.646,1.646,0,0,0-.1-.309c-.194-.514-.4-1.017-.571-1.543a3.834,3.834,0,0,1-.263-1.052,6.407,6.407,0,0,0-.251-1.611c-.1-.354-.183-.708-.274-1.109.685-.114.651-.88,1.131-1.177a.342.342,0,0,1,.091.08c.537,1.68,1.086,3.371,1.623,5.051.023.069.011.148.034.217.126.469.24.948.4,1.417.194.572.4,1.131.64,1.691a.677.677,0,0,1-.114.788,4.529,4.529,0,0,0-.48.789C1553.617,1074.414,1553.4,1074.871,1553.171,1075.317Zm-5.965-29.13c.16.057.32.057.354.126.24.469.446.937.686,1.463a2.412,2.412,0,0,1-.377.034c-.388-.046-.754-.411-1.188-.137-.023.023-.1-.034-.149-.046a4.533,4.533,0,0,0-2.834.057,1.947,1.947,0,0,1-.331.091.7.7,0,0,0-.709-.32c-.286.023-.56,0-.926,0,.366-1.051.709-2.034,1.063-2.994.16-.446.332-.549.788-.48.72.114,1.429.229,2.137.377a1.332,1.332,0,0,0,1.177-.08,4.166,4.166,0,0,1,.606,1.657C1547.411,1046.015,1547.331,1046.084,1547.206,1046.186Zm11.5,81.4c.572-.034,1.017-.057,1.474-.08a7.042,7.042,0,0,1,1.2-.034,10.756,10.756,0,0,0,2.1.034c1.143-.114,2.286-.16,3.428-.24.229-.011.343.069.377.286.08.446.16.891.263,1.383a5.474,5.474,0,0,1-.606.137l-3.531.377c-1.177.126-2.354.263-3.531.388a9.787,9.787,0,0,1-1.006,0C1558.805,1129.052,1558.748,1128.332,1558.7,1127.589Zm-9.005-73.357a6.185,6.185,0,0,1,.788-.091,1.179,1.179,0,0,1,.514.126c.057.023.034.206.046.308.012.034.046.046.069.08.274.446.56.891.811,1.36a4.571,4.571,0,0,1,.663,1.84,1.306,1.306,0,0,0,.126.354c.274.64.549,1.269.823,1.9.069.149.148.3.206.446.24.56.48,1.109.743,1.726a3.215,3.215,0,0,0-1.7.217c-.148.08-.388.011-.606.011-.251-.777-.5-1.543-.72-2.309-.194-.663-.354-1.337-.526-2-.069-.286-.1-.583-.194-.846-.24-.686-.526-1.36-.766-2.046C1549.845,1054.952,1549.788,1054.6,1549.7,1054.232Zm13.588,44.661c.046.172.091.4.148.629a12.418,12.418,0,0,0,.366,1.314,17.937,17.937,0,0,1,.811,2.4c.16.663.309,1.326.469,1.977-.126.034-.206.069-.4.126.48-.023.549.229.606.56-.629.057-1.234.115-1.874.172.046-.686.1-1.326.137-1.954a4.167,4.167,0,0,0-.011-.926c-.035-.217-.137-.526-.3-.594-.3-.149-.434-.423-.686-.594-.091-.057-.149-.194-.229-.217a6,6,0,0,0-1.417-.286c-.308,0-.617-.057-.926-.08-.263-.023-.377-.16-.411-.423a4.068,4.068,0,0,0-.148-.743c-.08-.3-.183-.572-.274-.869.183.091.286.3.423.331a1.386,1.386,0,0,0,.572-.137c.023,0,.034-.011.057-.011a8.314,8.314,0,0,0,2.194-.365C1562.679,1099.133,1562.954,1099.007,1563.285,1098.893Zm9.314,36.936a1.046,1.046,0,0,1-.057-.229c.034-.64.068-1.269.114-1.908.023-.3.194-.389.469-.423.9-.126,1.806-.263,2.7-.434.914-.183,1.806-.411,2.72-.606a1.136,1.136,0,0,1,.777-.011c-.023.708-.046,1.383-.08,2.126a1.341,1.341,0,0,0-1.257.08,1.924,1.924,0,0,1-.354.149c-1.131.3-2.263.594-3.394.869C1573.7,1135.577,1573.17,1135.691,1572.6,1135.828Zm9.919,1.463c-.5.069-.88.114-1.245.16-.754.114-1.508.217-2.263.343-.446.08-.891.183-1.337.274s-.891.137-1.337.24a.705.705,0,0,1-.732-.194c-.388-.377-.834-.7-1.245-1.051-.114-.091-.229-.194-.4-.343.743-.183,1.383-.354,2.034-.514.834-.206,1.668-.377,2.491-.617a1.775,1.775,0,0,1,1.005-.011,12.348,12.348,0,0,1,2.743,1.314A2.948,2.948,0,0,1,1582.518,1137.291Zm-13.508-7.245v-.1a.973.973,0,0,1,.24-.08c.983-.183,1.977-.309,2.937-.56a2.394,2.394,0,0,1,1.691.183c1.109.491,2.229.971,3.349,1.451a2,2,0,0,1,.24.16,4.375,4.375,0,0,1-.434.091,5.127,5.127,0,0,0-1.12.217,20.712,20.712,0,0,1-3.074.731.577.577,0,0,1-.617-.206,5.823,5.823,0,0,0-2.377-1.589C1569.559,1130.252,1569.285,1130.149,1569.01,1130.046Zm-36.113-1.188a18.7,18.7,0,0,1-2.411-.023,20.013,20.013,0,0,0-2.606-.206c-.194,0-.434-.126-.583-.057-.629.331-1.337.091-1.966.309-.32-.4.16-.686.08-1.052a8.938,8.938,0,0,1-.114-1.154,30.96,30.96,0,0,0,7.143.686C1532.578,1127.874,1532.726,1128.343,1532.9,1128.857Zm-3.931-7.291a2.046,2.046,0,0,1,.08.274c.011.388.011.766.011,1.154,0,.594-.24.834-.823.96a9.522,9.522,0,0,0-1.509.434,15.721,15.721,0,0,0-1.7.846,1.364,1.364,0,0,0-.64.7,2.391,2.391,0,0,0-.263,1.463,10.247,10.247,0,0,1,.126,1.188c.046.526-.126.754-.731.926v-4.685c.526-.7,1.44-.583,2.183-.869-.011-.034-.011-.069-.023-.1h-.732a5.2,5.2,0,0,1,.4-.343c.994-.606,2.057-1.086,3.017-1.749A1.99,1.99,0,0,1,1528.966,1121.566Zm13.851-72.957c-.24.777-.48,1.531-.708,2.286a3.316,3.316,0,0,0-.137.583,5.391,5.391,0,0,1-.56,1.68.371.371,0,0,1-.389.24c-.537-.034-1.074-.057-1.668-.1.194-.4.354-.72.491-1.052.5-1.211.994-2.434,1.486-3.646.16-.4.3-.48.709-.354A7.628,7.628,0,0,1,1542.817,1048.609Zm30.867,78.774c.034.389-.114.537-.434.526a4.088,4.088,0,0,0-.537.046,9.373,9.373,0,0,0-1.931.343,9.283,9.283,0,0,1-1.383.286c-.422.08-.845.148-1.325.24-.011-.309-.034-.583-.046-.846s-.034-.526-.046-.8a17.929,17.929,0,0,1,5.474-.5c.046.16.091.309.137.491-.206.034-.377.069-.629.114C1573.273,1127.314,1573.467,1127.349,1573.684,1127.383Zm-1.668-1.92c-.012.046-.012.08-.023.126-.263-.011-.526-.046-.788-.034a18.693,18.693,0,0,0-3.657.514.507.507,0,0,1-.5-.091c-.571-.423-1.154-.812-1.737-1.223-.274-.194-.549-.4-.823-.594a5.179,5.179,0,0,1,2.286-.1c.868.171,1.714.469,2.571.708l1.783.48C1571.422,1125.337,1571.719,1125.395,1572.016,1125.463Zm-28.765-82.248c.537-1.131.708-2.332,1.36-3.486.788,1.291,1.394,2.56,2.046,3.805A12.918,12.918,0,0,1,1543.251,1043.215Zm5.623,12.022c.046-.011.091-.011.148-.023.114.274.263.549.354.834.137.411.229.846.343,1.269a36.919,36.919,0,0,0,1.108,4c.183.469.3.971.469,1.5-.606.08-.64.651-.971,1.028a3.652,3.652,0,0,1-.183-.629c-.149-.88-.274-1.76-.411-2.64-.16-1.04-.343-2.08-.5-3.131C1549.091,1056.7,1548.988,1055.969,1548.874,1055.237Zm-26.273,70.031c.366.08.3.366.286.583a23,23,0,0,0,.126,3.76,1,1,0,0,1-.274.857,3.421,3.421,0,0,0-.811,1.086c-.035.069-.126.1-.24.183.08-.971.114-1.874.251-2.766a6.263,6.263,0,0,0-.1-2.446.794.794,0,0,1,.5-1.086C1522.441,1125.383,1522.532,1125.315,1522.6,1125.269Zm26.867-71.734c-.537-1.68-1.246-3.2-1.623-4.891.377.046.766-.1.926.286a9.7,9.7,0,0,1,.9,2.16,1.342,1.342,0,0,0,.137.354c.263.572.526,1.154.834,1.806C1550.211,1053.352,1549.857,1053.443,1549.468,1053.535Zm-6.857-.812a.856.856,0,0,1-.057.892C1542.269,1053.386,1542.269,1053.34,1542.612,1052.723Z" transform="translate(-1495.481 -1037.573)" fill="#af947d"/>
    <path id="パス_11170" data-name="パス 11170" d="M1581.2,1058.586c.229-.3.194-.366-.251-.606C1580.884,1058.254,1581.078,1058.391,1581.2,1058.586Z" transform="translate(-1579.18 -1034.659)" fill="#af947d"/>
    <path id="パス_11171" data-name="パス 11171" d="M1542.717,1090.97c-.469-.08-.937-.16-1.417-.24a3.423,3.423,0,0,0,1.406.366C1542.706,1091.05,1542.717,1091,1542.717,1090.97Z" transform="translate(-1495.255 -1029.982)" fill="#af947d"/>
    <path id="パス_11172" data-name="パス 11172" d="M1546.146,1099.9c-.229-.228-.411-.4-.571-.594a.739.739,0,0,1-.08-.24c-.057-.206-.1-.423-.16-.617a3.718,3.718,0,0,0,.617-.251c.251-.137.229-.366-.023-.491a.987.987,0,0,0-.263-.069c-.069-.023-.126-.034-.24-.069.194-.274.411-.5.343-.857-.069-.331-.309-.492-.743-.423-.332.046-.388.137-.343.537.034.24.08.491.137.857-.229-.206-.354-.32-.48-.446a1.343,1.343,0,0,0-.24-.206.55.55,0,0,0-.766.194.374.374,0,0,0,.057.537c.32.3.388.309.823.011.229.171.469.354.754.571-.308.092-.56.172-.777.229-.16.354.16.469.3.708a2.144,2.144,0,0,1-.354.149c-.777.1-.937.708-.96,1.314a7.976,7.976,0,0,0,.08,1.04.6.6,0,0,0,.457.549.5.5,0,0,0,.617-.286,1.083,1.083,0,0,1-.24-1.177c.137.194.217.32.3.446.183.286.251.309.583.16s.434-.309.309-.583a2.041,2.041,0,0,0-.389-.5c-.069-.08-.137-.148-.229-.251.526-.057.857.286.9.846a4.792,4.792,0,0,0,.114.811.488.488,0,0,0,.24.309.432.432,0,0,0,.343-.194,5.547,5.547,0,0,0,.343-.64c.468.069.971.434,1.485-.034a1.109,1.109,0,0,1-.046-.914,2.583,2.583,0,0,0,.012-.983,1.22,1.22,0,0,0-1.554-1.017.339.339,0,0,0-.274.411.731.731,0,0,1-.057.491A1.823,1.823,0,0,0,1546.146,1099.9Zm.651-.731a.918.918,0,0,1,.332,1.257C1547.026,1100.029,1546.923,1099.629,1546.8,1099.172Z" transform="translate(-1502.775 -1029.19)" fill="#af947d"/>
    <path id="パス_11173" data-name="パス 11173" d="M1530.052,1098.917c-.069-.24-.114-.411-.171-.583-.069-.229-.229-.286-.469-.274a15.124,15.124,0,0,0-2.148.263,4.821,4.821,0,0,1-.708.023,2.351,2.351,0,0,0-.64.091.512.512,0,0,0-.366.686,2.831,2.831,0,0,1,.114,1.234.5.5,0,0,0,.354.606c.674.217,1.349.434,2.023.64a.62.62,0,0,0,.7-.183,2.9,2.9,0,0,1,.3-.228c.16-.149.366-.286.434-.469C1529.7,1100.129,1529.869,1099.5,1530.052,1098.917Zm-1.394,1.1a1.014,1.014,0,0,1-.4.96c-.434-.194-.868-.4-1.337-.617.012-.183.023-.354.035-.64A2.218,2.218,0,0,0,1528.658,1100.014Z" transform="translate(-1464.556 -1028.935)" fill="#af947d"/>
    <path id="パス_11174" data-name="パス 11174" d="M1541.228,1097.847c-.069.308-.126.56-.183.834a5.268,5.268,0,0,0-1.371-.72c-.24.457-.274.571.023.731a1.333,1.333,0,0,1,.663,1.463.87.87,0,0,1-.743.926c-.251.023-.491.091-.788.137.046.091.069.217.126.251a1.527,1.527,0,0,0,1.657-.034.9.9,0,0,1,.88-.1c.411.16.834.263,1.246.389a.448.448,0,0,0,.549-.24.308.308,0,0,0-.24-.457c-.32-.069-.4-.274-.446-.548-.068-.377-.137-.754-.217-1.131-.091-.423-.046-.5.366-.64a1.142,1.142,0,0,0,.343-.137.492.492,0,0,0-.217-.8,2.649,2.649,0,0,0-.743-.057,2.842,2.842,0,0,0-.423.1A1.584,1.584,0,0,1,1541.228,1097.847Zm.126,1.406a3.964,3.964,0,0,1,.583,1.554c-.229-.023-.4-.034-.492-.046C1541.411,1100.213,1541.388,1099.744,1541.354,1099.253Z" transform="translate(-1493.034 -1028.985)" fill="#af947d"/>
    <path id="パス_11175" data-name="パス 11175" d="M1532.537,1098.792a4.6,4.6,0,0,1,.686.057.458.458,0,0,0,.537-.274.426.426,0,0,0-.263-.537,7.709,7.709,0,0,0-.743-.286c-.023-.126-.057-.286-.091-.446a.445.445,0,0,0-.423-.365c-.137.011-.286.183-.377.32a1.917,1.917,0,0,0-.16.514c-.7.263-.7.263-.594.8.16.034.331.069.571.114a2.129,2.129,0,0,1-.229.32c-.332.332-.674.663-1.006,1.006a1.164,1.164,0,0,0-.137.366,1.218,1.218,0,0,0,.388.1c.263-.023.526-.091.8-.137.114.286-.046.48-.206.686a.58.58,0,0,0,.366.914.6.6,0,0,0,.366-.149.779.779,0,0,0,.137-.309,3.023,3.023,0,0,0,.56-.011.4.4,0,0,0,.3-.16.353.353,0,0,0-.091-.331,6.07,6.07,0,0,0-.709-.434c.011-.1.046-.251.069-.411a.535.535,0,0,1,.194.035,3.793,3.793,0,0,1,.309.3c.24.274.469.56.731.811a3.637,3.637,0,0,0,.56.331,1.137,1.137,0,0,0-.343-1.211c-.309-.354-.674-.674-1.017-1.006C1532.514,1099.191,1532.5,1099.2,1532.537,1098.792Z" transform="translate(-1474.115 -1029.095)" fill="#af947d"/>
    <path id="パス_11176" data-name="パス 11176" d="M1535.652,1102.466c.194.046.343.08.56.126.217-.709-.069-1.44.24-2.229.149.343.263.583.366.823-.126.1-.229.194-.343.286a1.835,1.835,0,0,0,.32.343,2.364,2.364,0,0,0,.56.217c.229.069.457.057.56-.194.1-.274-.069-.4-.32-.457a.311.311,0,0,1-.126-.057c-.137-.651-.251-1.246-.389-1.9a3.393,3.393,0,0,0,.514-.16c.126-.057.3-.16.309-.263a.588.588,0,0,0-.171-.423,1.025,1.025,0,0,0-.869-.217,4.816,4.816,0,0,1-.7.069c-.629.023-1.269.023-1.9.046a.308.308,0,0,0-.206.046.628.628,0,0,0-.228.263c-.011.057.1.206.183.229.388.069.777.115,1.166.149a1.2,1.2,0,0,0,.3-.023A21.717,21.717,0,0,0,1535.652,1102.466Z" transform="translate(-1481.95 -1028.895)" fill="#af947d"/>
    <path id="パス_11177" data-name="パス 11177" d="M1536.134,1102.151c.423.069.846.126,1.234.194.228-.354.446-.686.64-1.017.114-.194.309-.389.126-.651-.114-.183-.172-.206-.651-.171.137-.423.777-.08.811-.583a.7.7,0,0,0-.869-.388c-.126.023-.251.046-.377.08a.86.86,0,0,0-.651,1.177c.057.3.149.594.217.891-.195.126-.354.24-.514.343C1536.111,1102.071,1536.123,1102.1,1536.134,1102.151Z" transform="translate(-1484.889 -1028.729)" fill="#af947d"/>
    <path id="パス_11178" data-name="パス 11178" d="M1534.36,1096.686c.011.972.263,1.474.891,1.737.069-.274.149-.549.229-.857.194.057.377.126.549.183.114.514.183.617.457.606.4-.012.343-.366.411-.606a.925.925,0,0,0,.034-.434c-.011-.114-.114-.32-.16-.32-.4.023-.5-.366-.754-.526A1.227,1.227,0,0,0,1534.36,1096.686Zm1.531.309c-.137-.012-.286-.023-.48-.046C1535.617,1096.7,1535.754,1096.834,1535.891,1096.995Z" transform="translate(-1481.549 -1029.195)" fill="#af947d"/>
    <path id="パス_11179" data-name="パス 11179" d="M1544.428,1097.356c-.1-.286-.274-.48-.571-.446a.655.655,0,0,0-.56.572c-.035.274.057.389.32.343A1.048,1.048,0,0,0,1544.428,1097.356Z" transform="translate(-1499.24 -1029.1)" fill="#af947d"/>
    <path id="パス_11180" data-name="パス 11180" d="M1521.32,1077.577c.091.137.183.263.274.4a.239.239,0,0,0,.069-.046c-.08-.137-.172-.274-.251-.411A.247.247,0,0,1,1521.32,1077.577Z" transform="translate(-1451.367 -1031.869)" fill="#af947d"/>
    <path id="パス_11181" data-name="パス 11181" d="M1556.323,1069.72c-.069.046-.183.069-.206.126-.217.411-.389.857-.617,1.257-.354.629-.743,1.234-1.131,1.851a7.293,7.293,0,0,0-.868,2.32c.5-.96.982-1.874,1.463-2.777s.971-1.794,1.451-2.686Z" transform="translate(-1522.894 -1032.983)" fill="#af947d"/>
    <path id="パス_11182" data-name="パス 11182" d="M1555.39,1113.13h.3a.042.042,0,0,1,.011-.034c-.091-.011-.194-.034-.286-.046A.166.166,0,0,0,1555.39,1113.13Z" transform="translate(-1524.339 -1026.795)" fill="#af947d"/>
    <path id="パス_11183" data-name="パス 11183" d="M1558.023,1114.12a.738.738,0,0,0,.1-.092c-.034-.023-.091-.08-.1-.069a.334.334,0,0,0-.1.114A.359.359,0,0,1,1558.023,1114.12Z" transform="translate(-1529.657 -1026.665)" fill="#af947d"/>
  </g>
</svg>
