<svg id="グループ_5598" data-name="グループ 5598" xmlns="http://www.w3.org/2000/svg" xmlns:xlink="http://www.w3.org/1999/xlink" width="54.188" height="43.696" viewBox="0 0 54.188 43.696">
  <defs>
    <clipPath id="clip-path">
      <rect id="長方形_3016" data-name="長方形 3016" width="54.188" height="43.696" fill="none"/>
    </clipPath>
  </defs>
  <g id="グループ_5597" data-name="グループ 5597" clip-path="url(#clip-path)">
    <path id="パス_40051" data-name="パス 40051" d="M49.033,4.16C42.363.356,33.525,0,27.094,0S11.824.356,5.155,4.16.15,15.1.27,15.809,1.7,19.018,3.964,18.781a41.2,41.2,0,0,0,9.313-2.855c1.191-.713,1.43-2.734.6-4.159s-.119-1.9-.119-1.9H40.434s.715.474-.119,1.9-.6,3.446.6,4.159a41.214,41.214,0,0,0,9.313,2.855c2.262.236,3.573-2.259,3.694-2.973S55.7,7.964,49.033,4.16" transform="translate(0)" fill="#4b4b4b"/>
    <path id="パス_40052" data-name="パス 40052" d="M98.69,110.83a1.038,1.038,0,0,0-.924-.559H94.685a.694.694,0,0,0-.694.695v2.1a.7.7,0,0,1-.7.693H83.61a.694.694,0,0,1-.7-.693v-2.1a.694.694,0,0,0-.694-.695H79.139a1.037,1.037,0,0,0-.924.559l-7.581,14.482a17.628,17.628,0,0,0-2.014,8.186v3.379a3.472,3.472,0,0,0,3.474,3.468h.869v1.975H76.5v-1.975h23.9v1.975h3.537v-1.975h.869a3.472,3.472,0,0,0,3.474-3.468V133.5a17.638,17.638,0,0,0-2.015-8.186Zm-1.607,23.787h-3.9v-3.893h3.9Zm0-6.156h-3.9v-3.893h3.9Zm-3.9-10.049h3.9V122.3h-3.9Zm-2.782,16.2H86.5v-3.893h3.9Zm0-6.156H86.5v-3.893h3.9Zm0-10.049V122.3H86.5v-3.892Zm-6.681,16.2h-3.9v-3.893h3.9Zm0-6.156h-3.9v-3.893h3.9Zm-3.9-10.049h3.9V122.3h-3.9Z" transform="translate(-61.359 -98.624)" fill="#4b4b4b"/>
  </g>
</svg>
