<svg xmlns="http://www.w3.org/2000/svg" xmlns:xlink="http://www.w3.org/1999/xlink" width="95.062" height="115.584" viewBox="0 0 95.062 115.584">
  <defs>
    <clipPath id="clip-path">
      <rect id="長方形_2813" data-name="長方形 2813" width="56.48" height="101.052" fill="none"/>
    </clipPath>
  </defs>
  <g id="グループ_1856" data-name="グループ 1856" transform="translate(-973.709 -2333.416)">
    <g id="グループ_1844" data-name="グループ 1844" transform="matrix(0.899, 0.438, -0.438, 0.899, 1018.007, 2333.416)">
      <g id="グループ_1843" data-name="グループ 1843" clip-path="url(#clip-path)">
        <path id="パス_5352" data-name="パス 5352" d="M151,53.169a2.929,2.929,0,0,0,.732.635,2.487,2.487,0,0,1,.753.815,9.306,9.306,0,0,1,.651,1.387,5.967,5.967,0,0,1,.261.78c.088.345.236.668.328,1.01.03.114.057.229.1.34a1.2,1.2,0,0,1,.009.811.775.775,0,0,0,.053.628,1.07,1.07,0,0,1,.073.575,3.7,3.7,0,0,1-.086.819.284.284,0,0,0-.022.115,5.6,5.6,0,0,1-.084,1.114,2.13,2.13,0,0,1-.175.743,9.156,9.156,0,0,0-.417,1.1.385.385,0,0,1-.08.156,1.652,1.652,0,0,1-.908.624c-.351.063-.671.222-1.014.307a1.875,1.875,0,0,0-.539.234c-.234.145-.475.279-.709.424a1.942,1.942,0,0,0-.631.691c-.151.254-.307.5-.461.755a.542.542,0,0,1-.38.257,2.29,2.29,0,0,0-.776.269,6.981,6.981,0,0,0-.689.55.6.6,0,0,0-.214.532A3.009,3.009,0,0,1,146.6,70.3a.367.367,0,0,0,0,.232,6.193,6.193,0,0,0,.235.853.977.977,0,0,1,.093.4c.007.157.018.315.028.472a5,5,0,0,0,.213,1.279,1.568,1.568,0,0,1,.085.7,3.856,3.856,0,0,0,.086.939,1.038,1.038,0,0,0,.11.271,3.446,3.446,0,0,1,.314.824.978.978,0,0,0,.15.317,3.549,3.549,0,0,1,.444.9,1.578,1.578,0,0,0,.231.408,3.48,3.48,0,0,0,.276.383,2.826,2.826,0,0,1,.448.759,5.223,5.223,0,0,0,.313.567,1.85,1.85,0,0,1,.277.584.416.416,0,0,0,.1.209,3.567,3.567,0,0,1,.556,1.034,3.455,3.455,0,0,0,.378.727.442.442,0,0,1,.089.273,2.866,2.866,0,0,0,.213,1.036,4.091,4.091,0,0,1,.185,1.633,5.021,5.021,0,0,0,.041,1.177,1.735,1.735,0,0,1-.005.467c-.032.332-.023.668-.025,1,0,.275,0,.551.007.826,0,.157.014.314.023.471a2.37,2.37,0,0,1,.019.294,7.308,7.308,0,0,0,.032,1.115,5.877,5.877,0,0,0,.093,1,.776.776,0,0,1,.018.176c.014.827.026,1.654.041,2.481a1.78,1.78,0,0,0,.029.352,7,7,0,0,1,.122,1.056c.02.295.05.589.067.884a2.579,2.579,0,0,0,.116.573c.114.4.189.8.273,1.208.056.269.1.541.148.812.018.1.046.192.056.289a.734.734,0,0,1-.3.725c-.112.08-.217.17-.33.247a5.726,5.726,0,0,1-.64.419c-.227.114-.484.169-.718.272-.163.072-.333.111-.5.171a5.164,5.164,0,0,1-.513.122,2.117,2.117,0,0,1-.814.092c-.322.105-.669.016-.991.119a.218.218,0,0,1-.058.01,3.031,3.031,0,0,0-.587-.03,2,2,0,0,1-.526.046c-.372-.014-.745.02-1.117.016-.275,0-.551-.026-.824-.054a1.619,1.619,0,0,1-.671-.215,2.675,2.675,0,0,0-.424-.207.734.734,0,0,1-.436-.589.848.848,0,0,1-.011-.236c.014-.353.03-.706.01-1.06a.364.364,0,0,1,.16-.358.232.232,0,0,0,.066-.156.523.523,0,0,0-.012-.234.852.852,0,0,1-.046-.519.231.231,0,0,0-.014-.17,1.107,1.107,0,0,1-.142-.677,1.257,1.257,0,0,0-.021-.233,6.137,6.137,0,0,1-.146-1.518,1.16,1.16,0,0,0-.043-.468.553.553,0,0,1-.028-.174,3.216,3.216,0,0,0-.021-.7,3.2,3.2,0,0,1-.048-.646c-.015-.236-.031-.471-.047-.707a.334.334,0,0,1,0-.059,7.433,7.433,0,0,0-.138-1.639.891.891,0,0,1-.017-.176c.058-.67-.055-1.337-.025-2.008.039-.886.041-1.774.043-2.661,0-.867,0-1.734-.078-2.6-.015-.157-.023-.315-.05-.47a2.178,2.178,0,0,1,0-1,.444.444,0,0,0-.043-.345.57.57,0,0,1-.061-.456,1.621,1.621,0,0,0,.025-.7c-.038-.271-.023-.55-.035-.825a4.766,4.766,0,0,0-.042-.647,3.706,3.706,0,0,1-.054-.763,5.621,5.621,0,0,0-.091-1.353,1.936,1.936,0,0,1-.049-.7,1.147,1.147,0,0,0,0-.3,6.108,6.108,0,0,1-.022-1c.029-.572-.061-1.139-.081-1.71a6.471,6.471,0,0,0-.208-1.576,2.686,2.686,0,0,1-.043-.352c-.037-.254-.062-.51-.12-.759-.111-.479-.167-.969-.312-1.442a2.962,2.962,0,0,0-.3-.7.361.361,0,0,1,.322-.127c.2-.007.393.014.59.013a.481.481,0,0,0,.164-.056.1.1,0,0,0,.013-.149.9.9,0,0,0-.144-.1.89.89,0,0,1-.286-.2c-.24-.261-.488-.513-.725-.776a1.582,1.582,0,0,0-.79-.487,3.726,3.726,0,0,1-.721-.261,1.607,1.607,0,0,0-.69-.143,6.566,6.566,0,0,1-1.4-.208,1.094,1.094,0,0,0-.405-.068c-.26.043-.444-.147-.678-.176a.336.336,0,0,1-.194-.123,1.543,1.543,0,0,0-.618-.44.83.83,0,0,1-.1-.059c-.223-.137-.274-.259-.209-.55a.684.684,0,0,0,.016-.286,5.319,5.319,0,0,1-.07-.641.569.569,0,0,1,.056-.224c.032-.084.118-.094.193-.116.037-.011.072-.03.127-.053.071-.211.142-.436.224-.656a11.315,11.315,0,0,1,.4-1.109,2.568,2.568,0,0,0,.121-.395.9.9,0,0,0,.023-.466,4.288,4.288,0,0,1-.075-.466.912.912,0,0,1,.017-.231.2.2,0,0,1,.174-.131.729.729,0,0,1,.516.255.575.575,0,0,0,.373.254,1.594,1.594,0,0,1,.257.144.385.385,0,0,1,.273.458.2.2,0,0,0,.142.234,2.253,2.253,0,0,1,.518.277c.271.161.545.317.824.465a7.025,7.025,0,0,1,1.565,1.047c.057.054.123.1.183.149a.754.754,0,0,0,.708.177,3.381,3.381,0,0,1,.763-.036.721.721,0,0,1,.283.076c.3.139.611.275.9.436a5.378,5.378,0,0,1,.473.351.4.4,0,0,0,.212.093,7.525,7.525,0,0,1,.94.094.679.679,0,0,0,.445-.112,8.311,8.311,0,0,0,1.27-1.051.986.986,0,0,1,.383-.257.658.658,0,0,0,.279-.207,3.16,3.16,0,0,0,.654-1.31,2.278,2.278,0,0,0,.006-.7.193.193,0,0,0-.211-.161c-.542.1-1.085.194-1.626.3a4.373,4.373,0,0,0-.812.149.168.168,0,0,1-.2-.08.562.562,0,0,0-.418-.186c-.106-.016-.174.041-.193.16-.006.039.008.085-.009.116-.026.049-.066.121-.108.126a3.2,3.2,0,0,1-.528.031.376.376,0,0,1-.3-.168.114.114,0,0,1,0-.108,1.867,1.867,0,0,0,.277-.212,1.309,1.309,0,0,1,.737-.447.888.888,0,0,0,.44-.283c.1-.117.231-.213.346-.32a2.911,2.911,0,0,0,.578-.588.565.565,0,0,1,.172-.157,1.535,1.535,0,0,1,.994-.312.274.274,0,0,0,.282-.177,4.2,4.2,0,0,1,.9-1.158,1.687,1.687,0,0,1,.339-.234.141.141,0,0,1,.109-.021c.159.065.3-.065.463-.026a5.478,5.478,0,0,1,.689.143,1.915,1.915,0,0,0,.638.08c.043,0,.115-.084.109-.123a.284.284,0,0,0,0-.058c-.2-.471-.317-.971-.493-1.451a4.107,4.107,0,0,0-.565-.965.732.732,0,0,0-.193-.134c-.132.111-.248.216-.373.31s-.238.142-.343.231a3.816,3.816,0,0,1-.836.428.623.623,0,0,1-.406.044.993.993,0,0,0-.724.166,9.863,9.863,0,0,1-.912.418c-.2.086-.4.163-.6.239a1.009,1.009,0,0,0-.341.227.384.384,0,0,0-.131.257c-.011.176-.016.353-.023.535a2.671,2.671,0,0,1-1.295.524,1.472,1.472,0,0,0-.23.05c-.057.016-.109.047-.166.062a2.283,2.283,0,0,1-.288.062c-.449.058-.879.211-1.328.264a5.393,5.393,0,0,1-.649.044c-.275,0-.55-.022-.825-.04a7.738,7.738,0,0,1-1.583-.178.668.668,0,0,0-.233-.035,1.919,1.919,0,0,1-.742-.165.385.385,0,0,1-.159-.074,5.416,5.416,0,0,0-.851-.527,2.569,2.569,0,0,0-.26-.135.844.844,0,0,1-.2-.121,3.691,3.691,0,0,1-.4-.436c-.23-.318-.443-.649-.658-.977a.372.372,0,0,1-.053-.167,3.293,3.293,0,0,1-.022-.472,1.155,1.155,0,0,1,.082-.341,4.768,4.768,0,0,1,.219-.484.852.852,0,0,0,.1-.514,4.206,4.206,0,0,1,.034-1c.006-.058.038-.122.023-.173a.47.47,0,0,1,.2-.563.537.537,0,0,0,.215-.521c-.008-.058.006-.118,0-.177a.263.263,0,0,1,.232-.29.244.244,0,0,0,.2-.307.256.256,0,0,1,.058-.22c.109-.139.222-.275.336-.411.1-.12.2-.238.308-.361a1.207,1.207,0,0,0-.093-.158c-.1-.121-.219-.229-.306-.359a.994.994,0,0,0-.383-.357,1.991,1.991,0,0,1-.92-1.8,2.591,2.591,0,0,1,.028-.353c.069-.284-.09-.538-.1-.813a.371.371,0,0,0-.156-.242,1.9,1.9,0,0,1-.588-.933c-.045-.109-.089-.219-.13-.329a.329.329,0,0,1,0-.286.685.685,0,0,0,.063-.4,4.335,4.335,0,0,1,.013-1,5.568,5.568,0,0,1,.949-2.391,3,3,0,0,0,.444-.764c.055-.16.22-.224.284-.369a.8.8,0,0,1,.384-.43.227.227,0,0,0,.128-.187.317.317,0,0,1,.152-.236,1.237,1.237,0,0,1,.535-.227.258.258,0,0,0,.217-.3c-.033-.214-.067-.428-.12-.637a.5.5,0,0,0-.4-.385,3.033,3.033,0,0,1-1.619-.8,3.741,3.741,0,0,1-.823-.916,1.318,1.318,0,0,1-.222-.839,9.719,9.719,0,0,1,.079-1.294,3.253,3.253,0,0,0,.029-.353,1.224,1.224,0,0,0-.143-.739,6.063,6.063,0,0,1-.546-1.742.506.506,0,0,1,.033-.346c.037-.07.072-.154.158-.159.239-.015.369-.212.552-.319a.411.411,0,0,0,.126-.194c.17-.4.342-.8.5-1.2a1.475,1.475,0,0,1,.5-.71,2.1,2.1,0,0,0,.558-.681,1.817,1.817,0,0,1,.374-.45,15.047,15.047,0,0,0,1.387-1.446.327.327,0,0,1,.313-.119c.1.014.2.05.284-.017a2.588,2.588,0,0,0,.279-.3.228.228,0,0,0-.028-.222,1.214,1.214,0,0,0-.136-.111c-.347-.224-.695-.446-1.041-.669-.033-.021-.078-.042-.089-.073-.074-.212-.287-.255-.441-.368a3.908,3.908,0,0,1-.458-.362,9.219,9.219,0,0,0-.745-.667c-.248-.2-.426-.461-.672-.66a2.815,2.815,0,0,1-.306-.358.857.857,0,0,0-.205-.205,1.148,1.148,0,0,1-.375-.368,3.83,3.83,0,0,1-.735-1.594c-.017-.1-.061-.186-.082-.282a2.565,2.565,0,0,1-.1-.518,4.674,4.674,0,0,0-.12-1.053.423.423,0,0,1,.092-.441.13.13,0,0,0,.035-.047,8.1,8.1,0,0,1,.99-1.667,3,3,0,0,1,.464-.533c.514-.489,1.047-.955,1.592-1.409.487-.4,1.017-.744,1.532-1.1a2,2,0,0,0,.692-.787c.059-.125.131-.244.179-.373a2.966,2.966,0,0,1,.483-.739.46.46,0,0,1,.3-.169,2.039,2.039,0,0,1,.293-.036,3.037,3.037,0,0,0,.861-.165,3.667,3.667,0,0,1,.988-.16,2.433,2.433,0,0,0,1.193-.338,1.315,1.315,0,0,0,.211-.522A.712.712,0,0,0,143.3,7.5a3.774,3.774,0,0,1,.008-1.228.578.578,0,0,0-.027-.29,1.621,1.621,0,0,1-.056-.759,4.014,4.014,0,0,0-.015-1.061,1.877,1.877,0,0,1,.042-.877.579.579,0,0,0,0-.35,2.077,2.077,0,0,1-.03-.646c0-.137,0-.274,0-.411-.01-.2.021-.25.2-.294a.951.951,0,0,1,.172-.039c.235-.013.471-.02.707-.029a.271.271,0,0,1,.256.2,1.08,1.08,0,0,1,.014.117c.041.925.109,1.849.088,2.776a1.676,1.676,0,0,0,.006.236c.083.7.165,1.407.255,2.11.032.252.082.5.126.764a.872.872,0,0,0,.181.013,4.478,4.478,0,0,0,1.075-.315.241.241,0,0,1,.222.034c.172.095.244.3.447.375a1.91,1.91,0,0,1,.43.305c.046.035.107.074.12.122.049.194.2.277.352.375a6.241,6.241,0,0,1,.744.668.447.447,0,0,1,.111.2.731.731,0,0,0,.571.536,1.449,1.449,0,0,1,.64.287.782.782,0,0,0,.267.121,11.631,11.631,0,0,1,1.546.734,1.606,1.606,0,0,1,.639.514.729.729,0,0,0,.156.177,4.389,4.389,0,0,1,.809.932c.07.095.154.179.224.274a1.777,1.777,0,0,1,.19.3c.181.393.339.8.547,1.178a1.1,1.1,0,0,1,.1.691.264.264,0,0,1-.07.157,2.656,2.656,0,0,0-.4.508,4.574,4.574,0,0,1-.3.363,3.569,3.569,0,0,0-.3.282,7.418,7.418,0,0,0-.414.643c-.12.2-.211.425-.338.623a1.181,1.181,0,0,0-.195.9.832.832,0,0,1,0,.235.328.328,0,0,1-.137.252,6.782,6.782,0,0,1-.713.518,1.191,1.191,0,0,0-.406.336c-.135.172-.19.264.042.43a2.566,2.566,0,0,1,.52.479,3.78,3.78,0,0,0,.341.327,2.878,2.878,0,0,1,.289.295,2.024,2.024,0,0,0,.629.613,1.63,1.63,0,0,1,.553,1.077,9.064,9.064,0,0,0,.235,1.512,2.011,2.011,0,0,0,.2.552,8.221,8.221,0,0,0,.486.878,1.94,1.94,0,0,0,.564.6c.066.041.115.108.179.154.394.285.28.232.476.65a.217.217,0,0,1-.1.3c-.222.127-.444.255-.671.371a1.718,1.718,0,0,0-.642.507,1.57,1.57,0,0,1-.207.21.606.606,0,0,0-.145.252,7.059,7.059,0,0,0-.35,1.549c-.014.117-.025.236-.049.351a.627.627,0,0,0,.06.457,1.034,1.034,0,0,1,.009.967,2.115,2.115,0,0,1-.27.584,2.494,2.494,0,0,1-.458.459.754.754,0,0,0-.131.119.238.238,0,0,0-.059.271.47.47,0,0,1-.017.4,3.921,3.921,0,0,0-.158.507.659.659,0,0,0-.031.288.692.692,0,0,1-.259.685,2.845,2.845,0,0,0-.381.444c-.077.1-.267.141-.23.308.032.147.209.164.31.256.205.184.434.342.632.533a3.248,3.248,0,0,1,.549.693c.169.288.375.555.545.844.26.441.522.881.823,1.3.093.127.179.26.261.394.134.218.253.446.4.657.132.2.349.317.469.529a1.319,1.319,0,0,0,.2.211c.12.13.238.262.356.393a.8.8,0,0,1,.179.43.3.3,0,0,1-.083.272,2.1,2.1,0,0,1-.318.262c-.2.123-.42.207-.612.351a3.116,3.116,0,0,1-.573.3,1.446,1.446,0,0,1-.391.13.717.717,0,0,0-.441.272,3.078,3.078,0,0,0-.431.479c-.11.193-.293.316-.4.509s-.235.363-.322.563a.689.689,0,0,1-.142.187.771.771,0,0,0-.21.351.711.711,0,0,1-.261.384.934.934,0,0,0-.21.205,1.375,1.375,0,0,1-.558.512.12.12,0,0,0,0,.2c.033.021.065.043.1.061.139.074.28.144.417.221a2.863,2.863,0,0,1,.807.682,1.4,1.4,0,0,1,.212.353,4.01,4.01,0,0,1,.293,1.018,1.237,1.237,0,0,1-.162.853c-.085.132-.182.257-.274.384a1.822,1.822,0,0,0-.274.516,1.058,1.058,0,0,1-.6.691.343.343,0,0,0-.141.1.426.426,0,0,1-.352.178c-.147.007-.147.021-.359.253M139.6,35.834c0,.07.05.094.1.127s.073.032.076-.016a.059.059,0,0,0-.028-.046c-.052-.02-.106-.034-.16-.051a.116.116,0,0,0-.157-.1.192.192,0,0,0,.008-.22,1.584,1.584,0,0,0-.14-.189,9.367,9.367,0,0,1-1.012-1.3,3.694,3.694,0,0,1-.289-.444,2.789,2.789,0,0,1-.113-.513.839.839,0,0,1-.03-.114c-.018-.354-.037-.707-.048-1.061a.194.194,0,0,1,.171-.205.316.316,0,0,0,.159-.067.251.251,0,0,1,.318-.055c.108.044.222.075.329.12a4.493,4.493,0,0,1,1.009.71c.153.122.309.239.451.335.124.25.236.479.352.706a.269.269,0,0,0,.18.141,4.5,4.5,0,0,0,1.467.1,1.235,1.235,0,0,0,.283-.074.392.392,0,0,0,.282-.272.3.3,0,0,1,.246-.232.365.365,0,0,0,.34-.27c.044-.1.114-.2.168-.305a6.431,6.431,0,0,1,.671-1.177,1.856,1.856,0,0,0,.36-.671c.036-.122.115-.141.229-.072s.23.152.351.217c.3.156.591.311.893.452a1.075,1.075,0,0,1,.336.226.354.354,0,0,0,.431.07c.14-.069.278-.14.417-.211a.374.374,0,0,0,.06-.1,4.918,4.918,0,0,1,.548-1.3c.328-.584.582-1.2.894-1.8a.561.561,0,0,0,.078-.28c-.016-.221.076-.425.078-.64,0-.138.066-.189.176-.121a3.879,3.879,0,0,0,.669.374.421.421,0,0,1,.15.09,3.937,3.937,0,0,1,.818.841.537.537,0,0,0,.294.278,3.189,3.189,0,0,0,1.076-.9.233.233,0,0,0,0-.276,2.205,2.205,0,0,1-.4-1.093c-.014-.1-.016-.2-.035-.292a1.282,1.282,0,0,0-.09-.34c-.137-.267-.15-.571-.265-.844a.337.337,0,0,1-.022-.173c.059-.391-.031-.787.054-1.178a.507.507,0,0,0-.135-.438,2.424,2.424,0,0,0-.285-.3,2.5,2.5,0,0,1-.314-.347,10.39,10.39,0,0,0-.722-.777,1.16,1.16,0,0,0-.534-.322,3.091,3.091,0,0,0-.912,1.307,2.364,2.364,0,0,1-.958,1.09,1.385,1.385,0,0,1-1.064.21,4.161,4.161,0,0,0-.7-.12,1.556,1.556,0,0,1-.824-.287,1.008,1.008,0,0,0-.15-.093.434.434,0,0,0-.449.013c-.115.076-.232.149-.344.229a2.131,2.131,0,0,1-1.164.374,4.9,4.9,0,0,1-1.117-.063c-.429-.079-.861-.083-1.29-.137a.278.278,0,0,0-.321.2,1.668,1.668,0,0,1-.441.618.894.894,0,0,0-.11.186,1.049,1.049,0,0,1,.447.85,3.6,3.6,0,0,0,.117.4.728.728,0,0,1,.016.407,1.578,1.578,0,0,1-.091.342,7.843,7.843,0,0,0-.561,1.1.694.694,0,0,1-.1.145,3.279,3.279,0,0,0-.734,1.392.73.73,0,0,1-.1.212,1.455,1.455,0,0,0-.107.21,13.89,13.89,0,0,1-.784,1.711.9.9,0,0,1-.179.232.789.789,0,0,0-.269.685.688.688,0,0,1-.033.172,2.889,2.889,0,0,1-.627,1.317c-.059.078-.135.145-.188.227a.425.425,0,0,0,.078.625.8.8,0,0,0,.347.217,9.5,9.5,0,0,0,1.093.24,5.043,5.043,0,0,1,1.151.239,1.218,1.218,0,0,0,.469.05c.038.054.079.1.154.1m8.454,10.259.03.02-.02-.022c-.144.049-.3.084-.329.271-.114.016-.23.03-.343.051a.186.186,0,0,0-.1.053.163.163,0,0,0-.025.1c0,.012.025.036.039.036a.391.391,0,0,0,.168-.012.529.529,0,0,0,.245-.237c.231-.013.274-.046.332-.255m-1.162-10.167c.042.033.083.042.119-.008,0,0-.02-.025-.024-.024-.029.012-.057.028-.086.044a.6.6,0,0,0-.175-.005.57.57,0,0,1-.451-.068c-.115-.065-.239-.117-.352-.171-.107.1-.2.155-.322.061-.2-.152-.415-.292-.637-.447-.164.134-.332.265-.492.4a1.633,1.633,0,0,0-.146.183,1.2,1.2,0,0,1-.16.169,2.714,2.714,0,0,0-.681.875.133.133,0,0,0,.1.212c.235,0,.472-.025.706-.01a1.885,1.885,0,0,0,.751-.106,5.919,5.919,0,0,0,1.721-.877.534.534,0,0,0,.121-.126c.017-.026,0-.071.006-.106m-.868,63.5a2.062,2.062,0,0,0,.271.041c.63,0,1.26.014,1.889-.011a2.8,2.8,0,0,0,.406-.069c.075-.014.158-.015.208-.093a.423.423,0,0,0,.04-.107c.089-.961.2-1.92.261-2.883a9.7,9.7,0,0,0,0-1.946,2.88,2.88,0,0,1-.007-.531,10.958,10.958,0,0,0-.021-1.592c-.01-.1-.009-.2-.012-.295q-.011-.324-.021-.648c0-.1-.006-.2,0-.293q.021-.739.044-1.477A4.6,4.6,0,0,1,149.1,89a10.856,10.856,0,0,0,.087-2.121.729.729,0,0,1,.018-.129.609.609,0,0,0,.234-.5,2.04,2.04,0,0,1,.023-.311.542.542,0,0,1-.138-.422c.008-.216-.02-.433-.022-.65a3.134,3.134,0,0,0-.458-1.568c-.148-.255-.282-.518-.417-.78-.3-.6-.589-1.2-.946-1.772a9.45,9.45,0,0,0-.7-.947,2.832,2.832,0,0,1-.616-.927.752.752,0,0,0-.185-.3,1.587,1.587,0,0,1-.264-.388.877.877,0,0,0-.21-.281.961.961,0,0,1-.34-.6,2.177,2.177,0,0,0-.245-.66.509.509,0,0,1-.066-.163,4.43,4.43,0,0,1-.057-1.295,2.428,2.428,0,0,0,.066-.52c-.015-.193-.008-.39-.024-.585a1.5,1.5,0,0,1-.006-.352,2.434,2.434,0,0,0-.038-.823,1.329,1.329,0,0,0-.339-.8.461.461,0,0,1-.081-.438c.064-.327.151-.649.207-.978.1-.582.2-1.163.3-1.745a.271.271,0,0,0-.18-.273,5.985,5.985,0,0,0-1.689-.211c-.028,0-.067.037-.084.067a.584.584,0,0,0-.069.342,4.252,4.252,0,0,0,.062.587,4.827,4.827,0,0,1,.09.938,2.953,2.953,0,0,0,.072.7,1.585,1.585,0,0,1,.029.293c.069.922.087,1.846.231,2.763.091.583.15,1.171.246,1.754a1.851,1.851,0,0,1,.069.583c.106.337.035.71.219,1.032a.482.482,0,0,1,.031.17c.018.136.028.273.051.409.113.659.23,1.318.345,1.977.067.388.112.781.2,1.163a2.659,2.659,0,0,1,.111,1.107.676.676,0,0,0,.007.177c.044.491,0,.987.086,1.475a3.312,3.312,0,0,0,.066.88,2.3,2.3,0,0,1,.018.354c.009.67.1,1.336.09,2.007,0,.1.031.195.037.292a3.744,3.744,0,0,1,.028,1.233.591.591,0,0,0,0,.176c.032.629.063,1.258.1,1.887a2.068,2.068,0,0,1,.038.409,3.12,3.12,0,0,0,.032.823,7.3,7.3,0,0,1,.075.882c-.008.593.078,1.178.114,1.767.023.373.068.747.068,1.12a17.346,17.346,0,0,0,.151,1.942,3.563,3.563,0,0,0,.366,1.3,2.617,2.617,0,0,1,.127.368m5.464-56.4a.987.987,0,0,1,.205-.591.238.238,0,0,0,.042-.108,1.169,1.169,0,0,0-.048-.524,4.61,4.61,0,0,1-.187-.434c-.11-.315-.21-.633-.314-.95a7.342,7.342,0,0,0-.07-.821.966.966,0,0,0-.212-.6,7.928,7.928,0,0,1-.451-.691c-.075-.115-.155-.228-.24-.336a.3.3,0,0,0-.416-.1c-.322.148-.635.319-.966.441a3.24,3.24,0,0,0-.866.5,3.355,3.355,0,0,1-2.321.7,6.8,6.8,0,0,1-.762-.089,1.1,1.1,0,0,0-.694.063c-.23.116-.479.183-.706.3-.473.24-.936.5-1.442.768-.274-.007-.589-.016-.9-.023a1.513,1.513,0,0,1-.733-.205,3.375,3.375,0,0,1-.974-.653,1.07,1.07,0,0,0-.142-.105.694.694,0,0,0-.606-.159c-.115.023-.23.049-.344.077a2.771,2.771,0,0,0-.9.438,3.29,3.29,0,0,1-.435.3.651.651,0,0,0-.348.684,1.156,1.156,0,0,0,.055.227,1.98,1.98,0,0,1,.088.462c-.017.472.036.943.008,1.416-.019.314-.025.629-.029.944a1.28,1.28,0,0,0,.521,1.072c.011.008.04,0,.057-.009s.033-.029.03-.039a1.812,1.812,0,0,1-.046-.752.372.372,0,0,1,.091-.21,1.372,1.372,0,0,0,.219-.343.251.251,0,0,1,.214-.076,4.941,4.941,0,0,1,.5.177,1.278,1.278,0,0,1,.687.616c.073.161.174.309.257.465a.378.378,0,0,0,.274.2,1.828,1.828,0,0,0,.991.02,1.937,1.937,0,0,1,.349-.056,1.1,1.1,0,0,0,.6-.212.685.685,0,0,1,.453-.106,1.934,1.934,0,0,0,.975-.176.252.252,0,0,1,.115-.024c.334-.006.669-.012,1-.011a.127.127,0,0,1,.088.07.467.467,0,0,1-.051.5,1.27,1.27,0,0,1-.491.415,3.213,3.213,0,0,0-.366.191.106.106,0,0,0-.047.088.13.13,0,0,0,.075.084c.267.068.538.119.8.193a2.659,2.659,0,0,0,.938.066c.339-.027.356-.141.31-.371a.571.571,0,0,1,0-.113,1.142,1.142,0,0,0,.41-.695c.034-.113.064-.227.094-.342.061-.237.183-.345.422-.254a1.864,1.864,0,0,0,.46.1,1.8,1.8,0,0,1,.612.206c.158.079.313.167.471.247a2.087,2.087,0,0,1,.824.65c.068.1.145.094.253.031.256-.149.4-.435.686-.55a.264.264,0,0,0,.086-.08c.038-.045.074-.093.109-.14.119-.157.251-.306.355-.473a2.865,2.865,0,0,1,.61-.635c.254-.218.51-.433.769-.652m-8.752-23.076-.6-.795c-.047-.063-.1-.124-.143-.188a.772.772,0,0,1-.059-.1.421.421,0,0,1,.006-.4.164.164,0,0,1,.079-.081.673.673,0,0,1,.231-.046.851.851,0,0,0,.638-.262,1.716,1.716,0,0,1,.487-.321,3.443,3.443,0,0,0,.357-.206.956.956,0,0,0,.393-.429c.064-.143.113-.293.175-.437a.513.513,0,0,1,.117-.2c.16-.127.224-.324.357-.463a1.392,1.392,0,0,0,.313-.624.829.829,0,0,0-.157-.827c-.013-.015-.022-.033-.035-.048a1.238,1.238,0,0,1-.277-.882,4.009,4.009,0,0,0-.125-1.161.617.617,0,0,1-.009-.292.637.637,0,0,0-.053-.4c-.057-.145-.015-.314-.11-.454a.192.192,0,0,0-.259-.035c-.013.015-.036.023-.043.04a3.136,3.136,0,0,0-.326.753,2.654,2.654,0,0,1-.495,1.123c-.011.016-.021.038-.036.044a.252.252,0,0,1-.094.014c-.006,0-.018-.035-.016-.052a2.171,2.171,0,0,0,.049-.465,4.991,4.991,0,0,0-.265-1.025.2.2,0,0,0-.178-.136q-.559-.044-1.118-.077a.361.361,0,0,0-.267.108.659.659,0,0,0-.215.346,4.116,4.116,0,0,0-.17,1.163,1.856,1.856,0,0,0,.071.522,1.2,1.2,0,0,1,.048.288,13.081,13.081,0,0,1,.01,1.473.562.562,0,0,1-.056.227,2.954,2.954,0,0,1-.878,1.165,1.888,1.888,0,0,0-.353.31,1.072,1.072,0,0,1-.426.309,2.45,2.45,0,0,0-.692.444c-.268.238-.6.37-.877.6a.249.249,0,0,1-.107.048,1.622,1.622,0,0,1-.925.081c-.029-.01-.073.015-.108.029s-.04.106,0,.16a5.444,5.444,0,0,0,.952,1.338.6.6,0,0,1,.1.142,2.175,2.175,0,0,0,.6.639,1.063,1.063,0,0,1,.261.235,3.034,3.034,0,0,0,1.133.716.161.161,0,0,0,.058.012,2.79,2.79,0,0,0,1.394-.07,4.008,4.008,0,0,1,.451-.14,6.168,6.168,0,0,1,1.856-.283,1.732,1.732,0,0,0,.177-.007,1.188,1.188,0,0,0,1-.419c.03-.026.058-.053.088-.079.613-.555,1.261-1.068,1.888-1.607a5.46,5.46,0,0,0,1.427-1.711,4.626,4.626,0,0,1,.657-.978,6.827,6.827,0,0,0,.415-.572c.066-.095.145-.189.1-.32-.024-.073-.156-.027-.351.124-.031.024-.063.047-.093.073-.4.346-.534.347-.527.978a.271.271,0,0,1-.343.234c-.1-.02-.187-.056-.275-.083a1,1,0,0,0-.111.055.355.355,0,0,0-.174.35.543.543,0,0,0,.01.117.782.782,0,0,1-.077.62,1.61,1.61,0,0,1-.564.663c-.229.153-.442.329-.66.5a8.218,8.218,0,0,1-1.157.814,4.435,4.435,0,0,0-.9.667c-.184.169-.284.169-.443-.016a3.769,3.769,0,0,1-.349-.474,1.494,1.494,0,0,1-.108-.324l-.3-.034m6.5,28.969a1.152,1.152,0,0,0-.216.04,4.01,4.01,0,0,0-.376.17,1.726,1.726,0,0,1-.8.168c-.275,0-.551-.011-.826-.024a2.217,2.217,0,0,1-.35-.045,2.72,2.72,0,0,1-1.042-.393c-.079-.056-.179-.081-.264-.131a.856.856,0,0,0-.393-.108c-.392-.024-.783-.075-1.175-.084a3.972,3.972,0,0,0-1.175.044c-.36.1-.732.153-1.1.239-.325.077-.651.157-.968.262a7.565,7.565,0,0,1-1.077.31.885.885,0,0,0-.276.1.191.191,0,0,0-.082.144,2.4,2.4,0,0,0,.051.349.5.5,0,0,1-.069.339.745.745,0,0,1-.271.3,1.187,1.187,0,0,0-.183.146.182.182,0,0,0,0,.217,1.593,1.593,0,0,0,.556.43.809.809,0,0,1,.284.206c.123.153.256.3.373.456a2.949,2.949,0,0,1,.249.4.619.619,0,0,1,.025.569.516.516,0,0,0-.074.28c.007.067.094.162.156.144a1.286,1.286,0,0,0,.388-.131.954.954,0,0,1,.667-.173c.136.011.274-.024.412-.025a1.405,1.405,0,0,1,.41.027c.282.085.556.2.832.3a2.176,2.176,0,0,1,.722.5.638.638,0,0,1,.2.414c0,.059,0,.118.01.177a.127.127,0,0,0,.132.089,1.28,1.28,0,0,0,.219-.085,9.129,9.129,0,0,0,1.448-1.016,9.434,9.434,0,0,1,1.439-1.215.137.137,0,0,0,.044-.039c.052-.076.2-.1.165-.216s-.158-.061-.249-.069c-.552-.046-1.1.047-1.65.047a2.622,2.622,0,0,0-.407.063.848.848,0,0,0-.575.018.187.187,0,0,1-.193-.106c-.032-.068-.054-.141-.087-.229-.1.006-.2.017-.295.014-.027,0-.056-.039-.077-.065a.06.06,0,0,1,.006-.054.59.59,0,0,1,.377-.264,1.991,1.991,0,0,0,.693-.319c.339-.235.665-.489.988-.745a.581.581,0,0,1,.494-.134,3.114,3.114,0,0,1,.9.28c.258.144.519.283.784.413.4.194.405.245.686-.111a.809.809,0,0,1,.162-.171,2.03,2.03,0,0,0,.433-.554.406.406,0,0,0,.059-.394,1.512,1.512,0,0,1-.047-.467.4.4,0,0,0-.072-.3M150.467,62.9c.063-.161.078-.323.27-.372a.612.612,0,0,0,.351-.3,1.191,1.191,0,0,0,.2-.473c.1-.581.2-1.162.31-1.741a2.356,2.356,0,0,0-.184-1.373,2.56,2.56,0,0,1-.132-.387,1.637,1.637,0,0,0-.114-.271.112.112,0,0,0-.15-.028,1.136,1.136,0,0,0-.119.128c-.112.161-.209.335-.333.485s-.274.276-.41.41c-.024.484-.024.484.295.771a.382.382,0,0,0,.046.038.8.8,0,0,1,.31.5l-.468.213a.118.118,0,0,1-.058.011c-.115-.013-.23-.028-.356-.045-.072.071-.142.139-.211.208a1.863,1.863,0,0,0-.564.813c-.065.143-.124.288-.192.429a.81.81,0,0,0-.09.509.7.7,0,0,1-.194.65.725.725,0,0,0-.124.2,1.988,1.988,0,0,0-.173.435c-.065.265-.165.521-.249.782,0,.014.008.037.019.051s.034.026.043.021a1.125,1.125,0,0,0,.459-.356,1.509,1.509,0,0,1,.567-.5c.1-.054.2-.123.3-.175a.449.449,0,0,0,.225-.182.663.663,0,0,1,.4-.32c.11-.04.218-.086.313-.123m-2.253-50.461c.125-.072.233-.123.328-.191a.393.393,0,0,1,.492-.021,9.041,9.041,0,0,0,1.078.467c.043.022.129-.042.123-.089-.026-.215-.049-.43-.083-.643a.4.4,0,0,0-.182-.293,1.151,1.151,0,0,1-.375-.368,1.161,1.161,0,0,0-.422-.316.436.436,0,0,0-.227-.031.429.429,0,0,0-.168.051.6.6,0,0,1-.46.024c-.094-.029-.194-.034-.289-.061a3.339,3.339,0,0,0-1.408-.05c-.371.055-.742.081-1.115.106a.983.983,0,0,0-.232.037c-.053.017-.114.049-.117.118a5.55,5.55,0,0,0-.011,1.058.234.234,0,0,0,.187.2,1.2,1.2,0,0,0,.528-.024,5.719,5.719,0,0,0,.912-.244.827.827,0,0,1,.522-.031.379.379,0,0,1,.34.279,1.154,1.154,0,0,0,.109.271.233.233,0,0,0,.138.095.779.779,0,0,0,.232,0c.071-.006.09-.069.1-.128s0-.117,0-.221M138.2,55.506a2.788,2.788,0,0,1-.609-.338.92.92,0,0,1-.465-.71c0-.019-.009-.038-.013-.058a.92.92,0,0,1,.024-.464c.084-.261.14-.532.2-.8a.772.772,0,0,0-.013-.23c0-.016-.022-.043-.032-.042a.406.406,0,0,0-.11.023.078.078,0,0,0-.042.038,4.4,4.4,0,0,1-.355.679.509.509,0,0,0-.069.222.329.329,0,0,1-.192.275,1.043,1.043,0,0,0-.148.1.182.182,0,0,0-.037.26c.134.144.27.286.414.419.1.093.241.151.319.258a1.242,1.242,0,0,0,.56.416,1.277,1.277,0,0,1,.391.259.671.671,0,0,0,.421.194.389.389,0,0,1,.262.12.761.761,0,0,0,.3.18,3.758,3.758,0,0,0,1.148.244c.293.014.587,0,.881.031a.9.9,0,0,0,.835-.353c.049-.061.114-.112.157-.177a2.869,2.869,0,0,1,.551-.61.134.134,0,0,0,.021-.162,2.258,2.258,0,0,0-.743-.566.117.117,0,0,0-.139.08.642.642,0,0,0-.044.224.44.44,0,0,1-.048.283c-.062.1-.116.206-.177.307a.208.208,0,0,1-.2.1,1.053,1.053,0,0,0-.737.116c-.036.025-.116.006-.166-.016-.071-.031-.128-.11-.2-.121a.463.463,0,0,1-.354-.283,2.648,2.648,0,0,0-.521-.707.293.293,0,0,0-.321.206.777.777,0,0,1-.575.533,1.745,1.745,0,0,0-.17.076M143.579,66.1c-.254-.184-.479-.342-.7-.509-.125-.1-.241-.2-.359-.308-.228-.2-.214-.195-.408.04a5.116,5.116,0,0,0-.308.487.17.17,0,0,0,.021.055,10.632,10.632,0,0,1,.768.894,1.2,1.2,0,0,0,.9.5c.1.008.2.018.294.025a6.58,6.58,0,0,0,1.694-.194.8.8,0,0,0,.405-.228,5.667,5.667,0,0,1,1.064-.836.085.085,0,0,0,.033-.048.084.084,0,0,0-.007-.053c-.007-.015-.022-.039-.033-.039a1.428,1.428,0,0,0-.232.011,1.533,1.533,0,0,1-1.03-.151,2.007,2.007,0,0,0-.214-.1.565.565,0,0,0-.115-.026.294.294,0,0,0-.309.214c-.015.077-.017.156-.032.233a.175.175,0,0,1-.184.115c-.148-.046-.294-.1-.437-.147a.629.629,0,0,1-.559.1l-.254-.039m6.028-50.874a1.155,1.155,0,0,0,.542-.427,1.756,1.756,0,0,0,.39-.785,1.559,1.559,0,0,0,0-.409c0-.041-.1-.112-.131-.1a1.519,1.519,0,0,1-.805.091.536.536,0,0,0-.282.066c-.392.183-.781.374-1.17.564-.072.035-.144.09-.145.171,0,.1.091.1.168.114.229.052.458.106.682.176a1.245,1.245,0,0,1,.373.172,3.953,3.953,0,0,1,.381.366m.356,16.376c0-.127,0-.186,0-.245a.156.156,0,0,0-.168-.126.41.41,0,0,0-.217.069,5.771,5.771,0,0,1-.78.709,1.532,1.532,0,0,0-.2.211.181.181,0,0,0,.016.262c.04.043.091.076.13.12a.856.856,0,0,1,.219.92.293.293,0,0,0-.025.114.568.568,0,0,0,.032.167c.013.034.1.013.148-.038.069-.07.134-.144.206-.211a2.13,2.13,0,0,0,.546-1.088,5.4,5.4,0,0,0,.1-.865m-4-17.071c.008.035.017.093.032.149a1.921,1.921,0,0,0,.737.96c.021.017.072,0,.109-.006a.108.108,0,0,0,.051-.029c.387-.37.416-.521.189-.97-.079-.157-.161-.314-.241-.471-.018-.035-.034-.07-.054-.1a.208.208,0,0,0-.2-.09,1,1,0,0,0-.469.231.439.439,0,0,0-.153.331m-5.111,23.244c.177-.053.345-.1.511-.154.148-.048.173-.151.07-.256a4.817,4.817,0,0,1-.626-.611.251.251,0,0,0-.147-.086c-.133-.028-.269-.043-.4-.06a.2.2,0,0,0-.179.124.433.433,0,0,0-.015.445c.069.117.139.235.217.346a.306.306,0,0,0,.13.111c.145.054.295.1.443.141M138.67,45.85c-.039.094-.063.169-.1.237a.319.319,0,0,0,.006.334.73.73,0,0,1,.054.1.258.258,0,0,0,.271.178,8.3,8.3,0,0,0,1.382-.24c.024,0,.043-.057.055-.091a.067.067,0,0,0-.049-.093.872.872,0,0,0-.226-.046.6.6,0,0,1-.511-.238.357.357,0,0,0-.5-.152,1.059,1.059,0,0,1-.387.008m.38,18.194c-.1.076-.214.15-.317.233a.115.115,0,0,0-.02.1.122.122,0,0,0,.075.073c.111.024.224.038.336.052.047.006.106-.066.1-.116-.023-.128-.022-.269-.171-.343m1.659-17.737a.93.93,0,0,0,.745-.076.042.042,0,0,0,.012-.039.074.074,0,0,0-.047-.031,2.352,2.352,0,0,0-.711.146m6.041.432c.031-.017.078-.028.089-.053a.115.115,0,0,0-.034-.094.148.148,0,0,0-.092-.038c-.05,0-.112.076-.091.114a.218.218,0,0,0,.075.066c.013.009.035,0,.052.006m.831-11.3c.009.014.024.04.027.039a.94.94,0,0,0,.089-.047c-.01-.013-.024-.037-.028-.036a.849.849,0,0,0-.089.044" transform="translate(-99.804 -1.134)"/>
        <path id="パス_5353" data-name="パス 5353" d="M2.1,19.4l.01-.006,0-.014ZM29.486,39.083l0,0,.02.013ZM16.2,49.651c-.026,0-.049.058-.066.093a.058.058,0,0,0,.02.054.324.324,0,0,0,.121.046.475.475,0,0,1,.472.3c.017.043.107.058.147.077.066-.014.109-.02.15-.033a.1.1,0,0,0,.053-.037c.02-.034.051-.1.044-.106a1.382,1.382,0,0,0-.941-.39m-9.827,1.49H6.2s0,.007,0,.01l.18-.011a.034.034,0,0,0-.012,0m13.938,6.9-.018,0,0,0,.011.026c0-.006,0-.011,0-.017l.008,0m.218-.067c-.006-.01-.039-.013-.055-.007-.055.022-.109.048-.163.073a.752.752,0,0,0,.171.019.053.053,0,0,0,.047-.086M9.575,53.41h0v0l-.02-.033.012.04,0,0,.006.007Zm11.211-29.7.052-.009a.1.1,0,0,0-.015-.008l-.037.017M8.971,43.311c.018,0,.037-.02.056-.03-.028-.02-.056-.058-.082-.056-.166.011-.331.031-.5.048,0,.008,0,.015,0,.022.174.006.348.013.522.016m-1.3.11c-.165-.022-.221-.034-.276-.034-.023,0-.046.026-.068.041a.2.2,0,0,0,.056.016c.059,0,.118-.009.288-.023m4.888-9.511,0-.019c-.034,0-.034.006,0,.019M9.413,44.025c-.2-.024-.4-.057-.6-.061-.4-.01-.807,0-1.211,0v.025C7.132,44,6.661,44,6.19,44.02a2.1,2.1,0,0,0-.329.056c-.008,0-.019.031-.016.044s.017.049.032.054a1.55,1.55,0,0,0,.321.082c.873.06,1.748.043,2.623.037a2.45,2.45,0,0,0,.4-.046.548.548,0,0,0,.185-.076.159.159,0,0,0,.047-.1c0-.013-.025-.047-.041-.049M31.8,25.37c-.026-.062-.089-.128-.079-.182.052-.305-.129-.565-.149-.854a.813.813,0,0,0-.137-.376,1.03,1.03,0,0,1-.119-.241,4.727,4.727,0,0,0-.43-.985.571.571,0,0,1-.082-.253,1.237,1.237,0,0,0-.167-.508c-.125-.264-.272-.52-.374-.793-.111-.3-.427-.476-.445-.821a.18.18,0,0,0-.076-.107c-.255-.191-.408-.476-.643-.685a2.153,2.153,0,0,0-1.378-.638,5.308,5.308,0,0,1-.934-.124.75.75,0,0,0-.461.015.211.211,0,0,1-.243-.068.433.433,0,0,0-.3-.134c-.292-.02-.584-.053-.877-.055-.5,0-.991.018-1.487.02-.2,0-.4-.018-.605-.032a.156.156,0,0,1-.115-.2q.228-.525.458-1.049a1.576,1.576,0,0,0,.131-.852,5.534,5.534,0,0,1-.015-1.009c.029-.5-.077-.986-.036-1.481a.6.6,0,0,0-.022-.2c-.093-.347-.181-.7-.29-1.039a4.541,4.541,0,0,1-.251-1.861,3.885,3.885,0,0,0-.083-1.073,11.952,11.952,0,0,1-.34-1.3c-.16-.348-.305-.7-.483-1.041-.23-.437-.483-.863-.733-1.289-.1-.175-.221-.339-.336-.506a.53.53,0,0,0-.4-.216,1.907,1.907,0,0,1-.267-.016.93.93,0,0,0-.662.087c-.022.132-.042.264-.066.4a.172.172,0,0,1-.216.1c-.128-.092-.257-.182-.38-.279a.58.58,0,0,0-.569-.117,7.222,7.222,0,0,1-1.4.232,1.483,1.483,0,0,0-.525.106.289.289,0,0,1-.2.023,1.825,1.825,0,0,0-.736,0,2.447,2.447,0,0,1-.606.009c-.481-.07-.576-.142-.566-.652,0-.135.013-.27.02-.405a6.377,6.377,0,0,0,.031-.741c-.04-.585.07-1.171-.024-1.755a1.27,1.27,0,0,1,.019-.337A6.226,6.226,0,0,0,14.111.591c-.065-.524-.17-.5-.664-.59-.221.036-.444.067-.663.11a.264.264,0,0,0-.191.248,14.24,14.24,0,0,0,0,1.885,2.257,2.257,0,0,1-.013.335c-.044.425-.093.85-.14,1.275a2.665,2.665,0,0,0-.006.739.672.672,0,0,1-.048.459c-.078.133.022.264-.016.395a3.106,3.106,0,0,0-.108.457.377.377,0,0,0,.052.254.445.445,0,0,1,.03.561.326.326,0,0,0-.014.195,1.161,1.161,0,0,0,.074.391.42.42,0,0,1-.093.5l.119,1.142a1.416,1.416,0,0,0,.337.072,2.464,2.464,0,0,0,1.305-.223.407.407,0,0,1,.261-.027c.02,0,.061-.059.061-.092,0-.088-.05-.187-.023-.261a1.178,1.178,0,0,0-.023-.729c-.041-.152-.085-.3-.123-.455a.154.154,0,0,1,.136-.194,1.973,1.973,0,0,0,.886-.3c.08-.041.148-.106.23-.141a.734.734,0,0,1,.767.041,1.968,1.968,0,0,0,.666.32.816.816,0,0,1,.305.14,1.332,1.332,0,0,0,1.024.233c.179-.018.359-.037.539-.047a.986.986,0,0,1,.2.029c.056.153.1.3.164.445a.42.42,0,0,0,.346.288.983.983,0,0,1,.629.356,1.693,1.693,0,0,1,.649,1.141,3.992,3.992,0,0,1,.153,1.334,4.246,4.246,0,0,0,.073,1.075,10.443,10.443,0,0,0,.355,1.372.871.871,0,0,1,.039.4,4.584,4.584,0,0,1-.12.732,2.514,2.514,0,0,0-.1.461,4.01,4.01,0,0,1-.334,1.112,1.843,1.843,0,0,0-.291.137c-.11.075-.2.177-.307.262a1.24,1.24,0,0,1-.273.2c-.31.132-.626.248-.941.367a.241.241,0,0,1-.132.018.33.33,0,0,1-.173-.079,1.579,1.579,0,0,1-.176-.286.3.3,0,0,1,.067-.422.746.746,0,0,1,.341-.2c.3-.083.582-.229.892-.293a.319.319,0,0,0,.225-.232,1.573,1.573,0,0,0,.065-.8,1.715,1.715,0,0,1-.02-.671c.086-.4.157-.794.256-1.186.066-.261.172-.512.253-.769a.913.913,0,0,0-.115-.837,2.354,2.354,0,0,1-.326-.662,1.127,1.127,0,0,0-.166-.289.12.12,0,0,0-.111.01c-.048.074-.073.162-.12.238-.034.055-.081.126-.136.141a2.95,2.95,0,0,1-1.337.278l-.347.438a.666.666,0,0,1-.363.119,3.235,3.235,0,0,0-1,.152,1.033,1.033,0,0,1-.334.019c-.09,0-.18-.017-.269-.016a.432.432,0,0,0-.448.334,3.253,3.253,0,0,0-.151.586,1.877,1.877,0,0,0,.082.46.425.425,0,0,1,0,.135.252.252,0,0,1-.139.215c-.04.017-.087.022-.129.037-.229.08-.257.2-.082.384.078.08.167.152.245.232a.2.2,0,0,1-.08.329.606.606,0,0,1-.188.072.822.822,0,0,0-.636.329.7.7,0,0,1-.225.136c-.011.006-.042-.013-.055-.029a.065.065,0,0,1-.014-.056c.032-.055.071-.106.106-.16a.386.386,0,0,0,.059-.106c.013-.049-.063-.093-.15-.094l-.4,0a.5.5,0,0,0-.411.194c-.085.1-.172.207-.262.307s-.179.188-.284.3c-.086-.068-.158-.12-.223-.178-.118-.1-.225-.223-.35-.317a.674.674,0,0,0-.3-.142,2.237,2.237,0,0,1-.823-.283c-.09-.05-.167-.026-.216.085a.431.431,0,0,1-.261.285c-.258.078-.513.166-.771.243-.086.025-.178.027-.265.046a.269.269,0,0,0-.214.3,1.242,1.242,0,0,0,.153.58,1.473,1.473,0,0,1,.118.343,2.7,2.7,0,0,1,.743.392,1.1,1.1,0,0,0,.365.169.608.608,0,0,0,.562-.155A.2.2,0,0,0,11.4,16.5c.018-.11.019-.224.036-.335a.294.294,0,0,1,.275-.255,4.68,4.68,0,0,1,.537.027.283.283,0,0,1,.171.1,2.01,2.01,0,0,1,.262.387.776.776,0,0,0,.249.309c.108.08.2.18.306.264a.218.218,0,0,0,.25.045.974.974,0,0,1,.659-.068,3.33,3.33,0,0,0,1.273-.091,2.975,2.975,0,0,1,.4-.076.289.289,0,0,1,.192.034,1.177,1.177,0,0,1,.427.51.118.118,0,0,1-.045.105.916.916,0,0,1-.193.052c-.44.1-.9.011-1.339.145a.182.182,0,0,1-.131-.019.667.667,0,0,0-.523-.007,2.142,2.142,0,0,1-.459.1,5,5,0,0,0-.935.126,3.529,3.529,0,0,1-.4.038.392.392,0,0,1-.347-.172.556.556,0,0,0-.122-.085c-.139.034-.288.083-.441.106a2.665,2.665,0,0,1-.472.029A9.332,9.332,0,0,1,9.285,17.6a5.618,5.618,0,0,0-.738-.077c-.112-.009-.146.036-.182.21-.2.049-.207.048-.29-.117-.034-.067-.075-.117-.141-.124a3.725,3.725,0,0,0-.471-.025c-.248,0-.495.023-.743.034a1.124,1.124,0,0,0-.591.1.166.166,0,0,1-.13.02,2.017,2.017,0,0,0-.736-.021.246.246,0,0,1-.17-.087c-.052-.07-.053-.181-.111-.241a1.3,1.3,0,0,1-.307-.8.985.985,0,0,1,.267-.872,3.267,3.267,0,0,0,.539-.769,10.671,10.671,0,0,0,.567-1,1.517,1.517,0,0,0,0-1.428c-.011-.02-.023-.038-.034-.058a1.671,1.671,0,0,1-.167-.647,4.019,4.019,0,0,0-.028-.934.379.379,0,0,1,.023-.2,8.007,8.007,0,0,1,.415-1.275.75.75,0,0,1,.36-.386,7.565,7.565,0,0,0,1.2-.754A1.313,1.313,0,0,1,8.361,7.9a10.552,10.552,0,0,1,1.487-.427.584.584,0,0,0,.244-.111.986.986,0,0,1,.643-.155,2.054,2.054,0,0,0,.337-.014.843.843,0,0,0,.493-.2A1.426,1.426,0,0,0,12,6.482a1.1,1.1,0,0,0,.059-.192.2.2,0,0,0-.2-.21.358.358,0,0,0-.067.01,6.459,6.459,0,0,1-1.562.411,1.455,1.455,0,0,0-.566.2,1.27,1.27,0,0,1-.7.224.751.751,0,0,0-.377.134c-.157.087-.317.171-.476.256a4.509,4.509,0,0,0-.533.29c-.16.115-.358.031-.513.144a1.385,1.385,0,0,1-.771.213.444.444,0,0,0-.407.308c-.055.148-.137.281-.195.424a3.517,3.517,0,0,0-.364,1.223,2.589,2.589,0,0,1-.068.33,1.325,1.325,0,0,0-.033.334c.04.4.093.8.146,1.2a.637.637,0,0,0,.067.191,1.119,1.119,0,0,1,.1.833,5.552,5.552,0,0,0-.506.652,8.169,8.169,0,0,1-.576.83c-.188.253-.362.517-.535.78a.738.738,0,0,0-.1.247,3.193,3.193,0,0,0-.056,1.341,4.815,4.815,0,0,1,.081.533A4.884,4.884,0,0,0,4.154,18.5a3.308,3.308,0,0,0,.216.393c-.037.024-.056.048-.072.046a.709.709,0,0,0-.619.179.143.143,0,0,1-.186-.008.565.565,0,0,0-.455-.068,1.867,1.867,0,0,0-.924.353c-.011.038-.02.077-.034.115-.043.114-.092.147-.2.1-.082-.035-.153-.087-.252-.059s-.218.041-.322.075c-.033.011-.055.064-.073.1a.083.083,0,0,0,.008.066.475.475,0,0,1-.036.51,20.187,20.187,0,0,0-.845,2.054,1.444,1.444,0,0,0-.088.326c-.054.265-.111.529-.15.8-.029.2-.037.4-.047.6-.015.314-.018.63-.037.944a3.8,3.8,0,0,0,.018,1.206,1.87,1.87,0,0,1,.01.337,2.525,2.525,0,0,0,.046.469A3.437,3.437,0,0,1,.17,28.511a2.311,2.311,0,0,0,.1.99c.033.13.1.252.133.382a3.018,3.018,0,0,0,.839,1.286.487.487,0,0,0,.5.131c.087-.022.174-.048.26-.071.261-.07.518-.159.782-.2a4.9,4.9,0,0,0,1.1-.319.542.542,0,0,1,.258-.063c.292.037.584-.011.874.013a.676.676,0,0,1,.326.066c.191.14.428.12.645.21a.932.932,0,0,1-.074.187,3.687,3.687,0,0,0-.429.837,2.638,2.638,0,0,1-.131.311,10.928,10.928,0,0,0-.616,1.421c-.06.169-.14.331-.2.5a5.417,5.417,0,0,0-.314.883,8.748,8.748,0,0,0-.268,1.522,2.284,2.284,0,0,0,.012,1.393c.029.132.052.265.078.4s.054.265.075.4-.055.232-.175.221c-.179-.017-.358-.045-.537-.054a.271.271,0,0,0-.186.061,2.513,2.513,0,0,0-.7,1.058c-.128.431-.247.867-.334,1.308-.079.4-.11.8-.16,1.2a1.1,1.1,0,0,1-.007.2,5.98,5.98,0,0,0-.129,1.205,8.331,8.331,0,0,0-.079,1.279,2.444,2.444,0,0,1-.043.47c-.069.422-.058.85-.089,1.275a7.72,7.72,0,0,0,.284,2.064,2.859,2.859,0,0,0,.163.443,1.326,1.326,0,0,0,.5.623.689.689,0,0,1,.263.3c.083.16.172.317.254.477a5.313,5.313,0,0,0,.533.775c.029.038.152.012.179-.027.1-.15.053-.36.185-.485.189-.029.364-.053.539-.083a.3.3,0,0,0,.239-.214,1.28,1.28,0,0,0,.1-.32,1.07,1.07,0,0,1,.231-.481.388.388,0,0,1,.348-.173c.2,0,.4.011.6.031a.4.4,0,0,0,.364-.121.34.34,0,0,1,.372-.1.786.786,0,0,0,.709-.069c.064-.033.127.031.127.1,0,.255-.272.348-.333.569-.012.043-.108.067-.169.092-.04.017-.1.008-.127.036a4.651,4.651,0,0,1-.462.382c-.075.066-.093.195-.141.293-.006.013-.041.012-.063.018l.009,0a.617.617,0,0,0-.067.116,1.621,1.621,0,0,1-.712.871c-.093.061-.217.113-.261.2-.08.16-.161.317-.247.474-.057.105-.005.264-.032.393a6.8,6.8,0,0,0-.187.778,1.953,1.953,0,0,1-.18.626,11.493,11.493,0,0,1,.1,1.16c-.005.567.136,1.114.177,1.674a1.024,1.024,0,0,0,.047.2c.079.282.169.56.236.845a1.538,1.538,0,0,0,.37.709,2.742,2.742,0,0,1,.533.854.926.926,0,0,0,.374.462,1.3,1.3,0,0,1,.243.227,1.72,1.72,0,0,0,.966.583c.264.047.531.091.8.132a1.43,1.43,0,0,0,.8-.094,2.155,2.155,0,0,1,.379-.133c.793-.17,1.587-.334,2.38-.5.066-.014.133-.024.2-.034s.125.156.2.14a5.263,5.263,0,0,0,.542-.148c0,.146.005.292.01.438.029.8.069,1.609.1,2.413.01.237,0,.476.019.712a10.618,10.618,0,0,0,.09,1.643c.009.586.045,1.172.016,1.756-.021.422-.019.84,0,1.262a7.035,7.035,0,0,1-.024.932c-.045.475-.066.949-.068,1.426a.922.922,0,0,0,.007.324.54.54,0,0,1,0,.37,2.128,2.128,0,0,0-.046.6c.016.659.069,1.316.059,1.975a1.02,1.02,0,0,0,.019.273.978.978,0,0,1-.013.592.45.45,0,0,0,.052.421.607.607,0,0,1,.077.524,1.082,1.082,0,0,0-.031.269,2.4,2.4,0,0,1-.041.49.909.909,0,0,0-.009.377,7.935,7.935,0,0,1,.2,1.688.85.85,0,0,0,.028.162.646.646,0,0,1-.047.428.3.3,0,0,0-.019.265,1.59,1.59,0,0,1,.1.807.58.58,0,0,0,.01.219,6.6,6.6,0,0,1,.08.926,1.118,1.118,0,0,1-.054.6.514.514,0,0,0-.009.269,5.074,5.074,0,0,1-.015,1.963,1.013,1.013,0,0,0-.017.164.283.283,0,0,0,.056.205.374.374,0,0,1,.007.46.5.5,0,0,0-.061.42c.018.071.05.139.061.211a.413.413,0,0,1,0,.212.716.716,0,0,0-.051.429,3.194,3.194,0,0,1,.046.71.225.225,0,0,0,.036.151.237.237,0,0,1,.05.3.615.615,0,0,0-.013.481.744.744,0,0,1,.035.216c.031.509.086,1.016.116,1.525a.55.55,0,0,1-.088.363.5.5,0,0,0-.069.421.352.352,0,0,1-.011.213.43.43,0,0,0,.035.466.319.319,0,0,1,.041.261.608.608,0,0,1-.036.16c-.095.2-.184.4-.016.611a.234.234,0,0,1,.014.159.679.679,0,0,0,.027.27.531.531,0,0,1-.1.468.5.5,0,0,0-.1.36c.008.108-.02.219-.012.327a1.418,1.418,0,0,0,.068.318,1.607,1.607,0,0,0,.1.192.247.247,0,0,1,0,.212,2,2,0,0,0-.136.3.52.52,0,0,0,.176.591,4.939,4.939,0,0,0,.543.371.336.336,0,0,1,.148.382,1.373,1.373,0,0,1-.063.152.414.414,0,0,0,.012.416.389.389,0,0,1,.023.211.724.724,0,0,1-.047.157.57.57,0,0,0,.061.524.666.666,0,0,1,.077.529.733.733,0,0,0,.029.374.168.168,0,0,1-.1.222c-.139.046-.279.089-.42.126a.367.367,0,0,0-.271.246c-.037.1-.092.2-.125.3a.245.245,0,0,0,.01.158.527.527,0,0,0,.287.313,9.1,9.1,0,0,1,1.2.543.412.412,0,0,0,.264.054,3.192,3.192,0,0,0,.434-.063.778.778,0,0,1,.536.019.242.242,0,0,0,.159.025,3.26,3.26,0,0,1,.707-.074c.416-.064.831-.13,1.246-.2a1.6,1.6,0,0,0,.259-.08c.1-.036.2-.077.308-.115.206-.075.415-.143.617-.227a.408.408,0,0,0,.279-.314c.02-.137.106-.179.231-.174a.37.37,0,0,0,.163,0,1.521,1.521,0,0,1,.749-.115.327.327,0,0,0,.2-.076c.074-.052.156-.094.253-.151a2.118,2.118,0,0,0,.18-.831,5.263,5.263,0,0,0-.032-.548c-.027-.328-.068-.656-.086-.985-.028-.53-.109-1.056-.11-1.587a2.1,2.1,0,0,0-.037-.272c-.015-.108-.033-.217-.043-.326-.063-.748-.062-1.5-.18-2.245,0-.018,0-.037,0-.055-.066-1.114-.172-2.226-.282-3.337-.067-.673-.156-1.345-.185-2.02-.029-.695-.168-1.381-.145-2.079a.658.658,0,0,0-.025-.162c-.127-.557-.061-1.133-.164-1.692.036-.733-.05-1.462-.07-2.193-.008-.293-.031-.585-.041-.878a12.18,12.18,0,0,1,.048-1.974,19.438,19.438,0,0,0,.171-1.969,8.82,8.82,0,0,1,.206-1.629c.011-.053.018-.107.03-.182-.051-.081-.109-.173-.165-.266a.631.631,0,0,1-.073-.146.117.117,0,0,1,.027-.1c.065-.061.139-.112.212-.169a1.432,1.432,0,0,0-.517-.884,3.54,3.54,0,0,0-.881-.548,12.052,12.052,0,0,0-1.146-.525,2.042,2.042,0,0,0-.77-.272,1.033,1.033,0,0,0-.749.037.642.642,0,0,1-.16.031.138.138,0,0,1-.131-.078c-.033-.123-.071-.245-.093-.371-.029-.162-.05-.325-.064-.489-.016-.181-.022-.363-.029-.546-.027-.676-.1-1.349-.135-2.024-.052-.913-.081-1.827-.2-2.736-.014-.108-.01-.219-.013-.329-.01-.347-.025-.695-.029-1.043a5.678,5.678,0,0,0-.064-1.037.591.591,0,0,1-.008-.164,2.239,2.239,0,0,0-.075-.761,1.419,1.419,0,0,1-.037-.271c-.017-.3-.05-.6-.094-.9l.172.045c-.005.021-.006.042.015,0s.107-.118.151-.11a2.236,2.236,0,0,1,1.151.336,3.708,3.708,0,0,0,1.491.39c.2,0,.406.008.608.02a.751.751,0,0,1,.171.05c.016.038.025.059.032.08.061.176.1.206.21.2a6.911,6.911,0,0,0,1.539-.49.23.23,0,0,0,.113-.071c.138-.2.384-.228.561-.366a.883.883,0,0,1,.567-.178,1.871,1.871,0,0,0,.46-.092.424.424,0,0,0,.171-.094,4.946,4.946,0,0,1,1.363-.962,1.209,1.209,0,0,0,.506-.525,2.093,2.093,0,0,0,.249-.836,2.425,2.425,0,0,1,.4-1.2,2.563,2.563,0,0,0,.415-.917,5.546,5.546,0,0,0,.094-1.006,3.109,3.109,0,0,1,.182-1.054.863.863,0,0,0,.048-.65.17.17,0,0,1,.011-.129c.14-.263.023-.466-.127-.681a1.345,1.345,0,0,0-.6-.524,2.512,2.512,0,0,1-.354-.2c-.124-.075-.207-.167-.141-.331a.215.215,0,0,0-.062-.247c-.186-.16-.38-.312-.569-.465L23.856,51a4.367,4.367,0,0,1-.93-.551.405.405,0,0,0-.6-.016c-.207.174-.4.1-.612-.138a2.543,2.543,0,0,0,.321-.1.372.372,0,0,0,.143-.137c.019-.028,0-.082,0-.122,0-.017-.031-.036-.051-.041A.25.25,0,0,0,22,49.882a.854.854,0,0,1-.593.011,2.289,2.289,0,0,0-.333-.056.335.335,0,0,0-.386.19c-.072.119-.189.1-.242-.044-.039-.1-.089-.145-.192-.139h0a1.244,1.244,0,0,0-.731-.235.608.608,0,0,0-.391.062,1.115,1.115,0,0,1-.508.162,1.032,1.032,0,0,0-.761.228c.184.018.362.035.54.054.065.007.088.086.047.15-.072.114-.139.243-.308.2A3.663,3.663,0,0,0,17.07,50.4a.649.649,0,0,0-.132.019c-.016,0-.043.029-.041.035.015.039.028.1.057.11a6.182,6.182,0,0,1,.951.317.462.462,0,0,0,.2.025c.385.012.733.214,1.121.21a.12.12,0,0,1,.063.022,4.815,4.815,0,0,0,.983.414c.015.006.026.039.025.059a.078.078,0,0,1-.034.056c-.06.028-.128.042-.185.075a.2.2,0,0,0-.065.1c0,.009.023.043.041.049a1.048,1.048,0,0,1,.408.22c.146.133.348.047.519.093a1.049,1.049,0,0,1,.251.092,3.172,3.172,0,0,0,1.013.35,2.338,2.338,0,0,1,.8.327.315.315,0,0,1,.176.331,1.567,1.567,0,0,1-.243.76.478.478,0,0,0-.048.387.814.814,0,0,1,0,.165c-.141.241-.26.457-.391.665a.578.578,0,0,0,0,.532,2.7,2.7,0,0,0-.537.752,1.907,1.907,0,0,1-.444.586,1,1,0,0,0-.315.508.521.521,0,0,1-.143.221c-.144.141-.3.272-.452.4a.171.171,0,0,1-.279-.057,1.15,1.15,0,0,1-.072-.158.3.3,0,0,1-.172.254,5.7,5.7,0,0,0-.864.525,2.108,2.108,0,0,1-1.013.335c-.314.026-.629.056-.943.07a.249.249,0,0,1-.281-.227c-.024-.121-.085-.129-.182-.03-.072.072-.14.134-.219.043a.33.33,0,0,0-.3-.111c-.116.006-.22-.015-.219-.178a.231.231,0,0,0-.2-.24c-.248-.049-.5-.106-.746-.15,0-.05-.009-.1-.013-.15a.158.158,0,0,0-.122-.094c-.09.011-.182.017-.27.036a.186.186,0,0,0-.129.136,4.566,4.566,0,0,1-.666-.153,2.212,2.212,0,0,1-.32-.912,3.3,3.3,0,0,1-.371-.3,4.85,4.85,0,0,1-.325-.43c-.027-.036-.055-.071-.083-.107-.067-.086-.14-.124-.162-.084a.293.293,0,0,0-.05.114c-.012.36-.025.72-.026,1.08a.728.728,0,0,1-.375.68c-.262-.027-.53-.054-.8-.084a.167.167,0,0,1-.114-.146,1.6,1.6,0,0,0,.045-.4c-.042-.288-.113-.572-.176-.858a1.739,1.739,0,0,0-.546-.987,2.239,2.239,0,0,1-.487-.643Q10,54.728,9.818,54.4a.169.169,0,0,0-.178-.061.918.918,0,0,0-.4.439c-.021.062-.065.118-.033.191.081.185,0,.288-.166.375a3.278,3.278,0,0,1-.948.324c-.02,0-.076-.059-.071-.082a1.06,1.06,0,0,1,.1-.319c.094-.159.02-.3,0-.462.056-.115.122-.233.173-.357a1.155,1.155,0,0,1,.382-.458c.279-.225.6-.374.892-.575a.42.42,0,0,1-.038-.045c-.14-.211-.109-.354.111-.4A.687.687,0,0,0,9.99,52.8a1.834,1.834,0,0,0,.623-.862c.015-.061.078-.109.11-.168a3.1,3.1,0,0,0,.247-.476c.052-.151.14-.279.2-.421a1.884,1.884,0,0,0,.264-1.155.267.267,0,0,1,.053-.242,18.51,18.51,0,0,1,1.834-.457,1.523,1.523,0,0,1,.734.011,2.64,2.64,0,0,0,1.131.022,1.186,1.186,0,0,1,.728.033.383.383,0,0,0,.259.01,1.926,1.926,0,0,1,.865-.087,2.1,2.1,0,0,0,.6-.015,8.238,8.238,0,0,1,1.477-.14,5.315,5.315,0,0,0,.731-.117.912.912,0,0,1,.781-.06,1.955,1.955,0,0,0,.6.035c.052-.006.049-.061.063-.106.052-.155.218-.225.3-.12a.8.8,0,0,0,.574.292c.088.012.171.057.259.072a.76.76,0,0,0,.2-.006c.02,0,.055-.024.054-.034,0-.042-.005-.1-.031-.119a.442.442,0,0,0-.177-.073c-.109-.02-.22-.026-.329-.042-.013,0-.033-.036-.031-.052.007-.038.025-.106.041-.107.29-.009.581-.014.872-.01a1.228,1.228,0,0,1,.4.043,5.248,5.248,0,0,0,1.373.313.8.8,0,0,1,.248.126.609.609,0,0,1,.6-.174c.5.1,1.019.163,1.515.294a10.671,10.671,0,0,0,1.47.191.6.6,0,0,0,.577-.284c.075-.11.166-.21.247-.317a.745.745,0,0,0,.148-.223,6.412,6.412,0,0,0,.337-1.157,12.414,12.414,0,0,1,.26-1.392,11.949,11.949,0,0,0,.394-1.211,1.365,1.365,0,0,1,.273-.679,1.471,1.471,0,0,0,.15-.372.125.125,0,0,0-.046-.112.258.258,0,0,1-.172-.322.993.993,0,0,0,0-.459,1.349,1.349,0,0,1,.061-.467c-.2-.123-.476-.137-.6-.381a.3.3,0,0,1,.1-.237.656.656,0,0,0,.2-.482,2.818,2.818,0,0,1,.065-.4.312.312,0,0,0-.214-.373.343.343,0,0,1-.189-.179,1.689,1.689,0,0,0-.857-.808c-.055-.022-.051-.1.011-.169.028-.032.061-.06.092-.09-.178-.114-.332-.28-.578-.253-.058.006-.122-.051-.184-.078a1.024,1.024,0,0,0-.186-.076c-.31-.067-.622.125-.935-.006a.151.151,0,0,0-.129.019c-.192.155-.378.09-.582-.01.052-.043.1-.08.144-.121.014-.013.029-.045.023-.057-.018-.036-.043-.088-.073-.1a.333.333,0,0,0-.2,0c-.143.065-.271.163-.415.223a.687.687,0,0,1-.652.016.5.5,0,0,0-.507-.035.267.267,0,0,1-.2,0,.5.5,0,0,0-.564,0,.506.506,0,0,1-.263.039c-.179,0-.358-.025-.537-.03-.154,0-.155-.123-.182-.223-.049,0-.094,0-.138-.01a.839.839,0,0,0-.7.117c-.133.108-.359.012-.5.158A.146.146,0,0,1,22,38.7c-.2-.075-.4.048-.6.009a.786.786,0,0,0-.463.056,3.123,3.123,0,0,1-1.261.163c-.03,0-.073-.05-.086-.085s-.016-.105.007-.126a2.217,2.217,0,0,1,.778-.518c.222-.07.386-.228.594-.311a.5.5,0,0,0,.274-.284.58.58,0,0,1,.309-.337,1,1,0,0,0,.256-.21.735.735,0,0,0,.2-.743.744.744,0,0,0-.056-.195,2.233,2.233,0,0,1-.2-1.115,3.1,3.1,0,0,0-.037-.334,1.283,1.283,0,0,1-.016-.336,7.041,7.041,0,0,0,.023-1.011,2.012,2.012,0,0,0-.181-.984.5.5,0,0,1-.014-.456,1.269,1.269,0,0,0,.075-.729c-.022-.178-.028-.359-.062-.535a1.051,1.051,0,0,0-.125-.308c-.075-.133-.291-.208-.245-.378.059-.219.31-.1.459-.184a1.167,1.167,0,0,0,.184-.081,1.578,1.578,0,0,1,.679-.28,4.56,4.56,0,0,1,1.389-.16,1.763,1.763,0,0,0,.2-.03c.134-.017.267-.043.4-.047.428-.016.855-.03,1.283-.033a1.954,1.954,0,0,0,.6-.066,1.308,1.308,0,0,1,.668-.037,1.68,1.68,0,0,0,.268.028,11.874,11.874,0,0,0,3.473-.423.376.376,0,0,0,.179-.087c.168-.181.328-.368.483-.56a.383.383,0,0,0,.071-.187,3.366,3.366,0,0,0,.052-1.338.492.492,0,0,1,.1-.441,1.69,1.69,0,0,0,.149-.374.332.332,0,0,0-.008-.261M15.361,14.6c-.006.019-.026.047-.038.047-.05,0-.052-.03-.006-.074.013-.012.028-.024.043-.035a.126.126,0,0,1,0,.063m.19-.116a.226.226,0,0,1-.054-.02l-.107-.037s0,0,0,0l.109.025.086.015c-.011.007-.023.022-.033.021m4.6,36.059c-.024.032-.057.077-.09.081a1.7,1.7,0,0,1-.963-.152.266.266,0,0,1,.32-.2c.218.023.434.073.65.113.056.01.112.115.082.155m.012-.532c-.007.011-.038.015-.055.012s-.049-.02-.048-.031c0-.034,0-.093.021-.1a.757.757,0,0,1,.16-.032c-.025.05-.049.1-.077.15m-6.21,10.563c0-.006,0-.012,0-.018.182-.016.347-.008.346.073l.579.152c.032.213,0,.427.014.639A21.407,21.407,0,0,1,14.91,64a3.066,3.066,0,0,0,.015.384c.015.219.039.438.05.657A8.332,8.332,0,0,1,15,66.417a3.982,3.982,0,0,0-.014.6c.014.4.03.805.055,1.207.019.31.049.62.078.93.041.437.112.87.111,1.312a5.451,5.451,0,0,0,.048.655,1.733,1.733,0,0,0,.082.7c.019.035-.016.1-.031.155-.037.128-.026.2.056.227a3.976,3.976,0,0,0,.65.283.816.816,0,0,1,.429.232,2.119,2.119,0,0,0,.6.387,8.484,8.484,0,0,1,1.163.725,7.115,7.115,0,0,0,.654.4c.063.036.131.065.192.1a.169.169,0,0,1,.075.077,2.8,2.8,0,0,1,.151.581,9.761,9.761,0,0,1-.144,2.3,2.6,2.6,0,0,0-.041.326,3.8,3.8,0,0,1-.046.436,3.127,3.127,0,0,0-.054.765c.022.934-.011,1.867-.078,2.8a17.953,17.953,0,0,0,.012,2.361c.036.6.076,1.206.058,1.811,0,.11-.013.22-.006.329.035.567.038,1.135.031,1.7a5.989,5.989,0,0,0,.047.932,3.176,3.176,0,0,1,.028.822.449.449,0,0,0,.013.217,1.73,1.73,0,0,1,.086.649c.014.4.019.8.073,1.2a4.8,4.8,0,0,1,.022.549c.008.384.013.768.019,1.152a4.971,4.971,0,0,1,.08.871,8.017,8.017,0,0,1,.064,1.206,2.12,2.12,0,0,0,.016.438c.045.235.05.473.072.71a5.77,5.77,0,0,0,.292,1.558,1.008,1.008,0,0,1-.049.8.135.135,0,0,1-.081.064.607.607,0,0,1-.161.015,3.55,3.55,0,0,0-.979.082c-.261.07-.546.034-.808.131a.382.382,0,0,1-.109,0c-.275.012-.549.026-.823.035a3.076,3.076,0,0,1-.711-.052.219.219,0,0,1-.191-.17c-.071-.414-.154-.828-.211-1.244-.049-.362-.072-.728-.1-1.092a.178.178,0,0,1,.111-.175c.017-.008.034-.013.05-.022.17-.092.181-.1.146-.24a5.986,5.986,0,0,1-.2-1.243c-.011-.236-.045-.471-.047-.709a2.155,2.155,0,0,0-.084-.54.823.823,0,0,1-.025-.432,1.247,1.247,0,0,0,.021-.486,5.017,5.017,0,0,0-.075-.708.585.585,0,0,1,0-.219c.06-.473.026-.949.048-1.423a4.736,4.736,0,0,0-.048-1.041,3.185,3.185,0,0,1-.018-.384c-.02-.384-.03-.769-.064-1.151a1.342,1.342,0,0,1,0-.6c-.059-.326.034-.654-.026-.984a2.592,2.592,0,0,1-.025-.658,4.875,4.875,0,0,0-.017-.822c-.035-.383-.044-.766-.059-1.149a1.885,1.885,0,0,1,0-.328,3.752,3.752,0,0,0-.019-.986c-.052-.418-.018-.844-.111-1.258a.266.266,0,0,1,0-.109,2.008,2.008,0,0,0-.024-.655c-.078-.673-.153-1.346-.168-2.024a7.21,7.21,0,0,0-.055-.821,4.046,4.046,0,0,1-.093-1.09c.053-.39-.109-.763-.065-1.148a2,2,0,0,0-.051-.6,3.336,3.336,0,0,1-.068-.543,3.685,3.685,0,0,0-.032-.547.751.751,0,0,1,0-.326.888.888,0,0,0-.019-.488,4.754,4.754,0,0,1-.08-1.2c0-.6-.041-1.206-.061-1.81-.017-.53-.06-1.06-.078-1.591a3.509,3.509,0,0,0-.089-.87,1.4,1.4,0,0,1-.033-.326,6.918,6.918,0,0,0-.036-.822,8.058,8.058,0,0,1-.075-1.039,4.245,4.245,0,0,0-.08-.764,1.688,1.688,0,0,1-.037-.326c-.012-.494-.018-.989-.03-1.483-.005-.2-.022-.4-.035-.6a5.986,5.986,0,0,1-.019-1.37M8.849,57.7a.062.062,0,0,1,.055,0c.014.005.023.025.035.039a.537.537,0,0,1-.081.061c-.013.007-.036-.008-.055-.013a.438.438,0,0,1,.047-.084M5.173,46.2a.614.614,0,0,1-.128-.031c-.011,0-.024-.036-.02-.042a.1.1,0,0,1,.052-.034c.044-.008.088-.01.132-.014a.412.412,0,0,1,.114.053c.035.032-.053.079-.151.068m1.2.25a.31.31,0,0,1-.1-.049c-.035-.038.035-.1.11-.091.034.006.063.047.094.072l-.1.068m1.8-.078a.063.063,0,0,1-.06-.016c-.03-.048-.013-.1.041-.1a.667.667,0,0,1,.168.025c-.049.031-.1.064-.15.092m.16-.053,0-.036.009,0Zm16.534.921a.3.3,0,0,1-.066.007l-.1-.05a1.243,1.243,0,0,1,.121-.043c.056-.014.092.006.092.051,0,.012-.031.028-.05.034m2.98,1.792c-.014-.013-.039-.024-.04-.038,0-.046.026-.067.077-.054.016,0,.039.022.04.035,0,.048-.025.068-.076.057m-7.826-7.494a1.464,1.464,0,0,1,.668-.028c.156.02.313.04.47.045a.479.479,0,0,1,.311.106.672.672,0,0,0,.44.148,3.358,3.358,0,0,0,.873-.049c.326-.082.666-.09.994-.179a1,1,0,0,1,.664.05c.021.009.045.009.065.019a2.2,2.2,0,0,0,1.648.021,1.912,1.912,0,0,1,.26-.075,2.036,2.036,0,0,1,.4-.027c.18.01.357.052.537.064.149.01.233.132.359.176.063.022.132.025.2.044.118.035.169.1.143.184a2.373,2.373,0,0,0-.109.932.505.505,0,0,1-.079.321,2.262,2.262,0,0,0-.3,1.162,3.424,3.424,0,0,0,0,.54,1.055,1.055,0,0,1-.1.457.4.4,0,0,1-.221.237,1.488,1.488,0,0,0-.235.129c-.1.066-.164.18-.117.21a1.447,1.447,0,0,0,.182.074.068.068,0,0,1,.038.1.085.085,0,0,1-.046.044,1.069,1.069,0,0,1-.265.035c-.134-.01-.265-.046-.4-.067a.248.248,0,0,0-.247.072.381.381,0,0,1-.348.16,1.026,1.026,0,0,0-.7.174.5.5,0,0,1-.453.073.621.621,0,0,0-.617.175.658.658,0,0,1-.562.134.146.146,0,0,1-.108-.069c-.078-.188-.217-.2-.387-.153-.129.038-.258.081-.39.109a3.712,3.712,0,0,1-1.948-.038,2.142,2.142,0,0,1-.217.134c-.059.028-.141.067-.191.047a4.84,4.84,0,0,1-.941-.282l0-.019-.023.008h0l.018.018a.769.769,0,0,1-.594,0,.821.821,0,0,0-.525-.061.609.609,0,0,1-.267-.008,1.006,1.006,0,0,0-.468.02,1.266,1.266,0,0,1-.6.015.887.887,0,0,0-.592.079.865.865,0,0,1-.394.062,2.322,2.322,0,0,1-.925-.132,1.185,1.185,0,0,0-.791-.027,1.179,1.179,0,0,1-.663-.023.248.248,0,0,1-.141-.13c-.042-.1.032-.165.12-.207a.175.175,0,0,0,.059-.032.074.074,0,0,0,.018-.059c0-.013-.034-.027-.051-.026a.549.549,0,0,0-.2.019.655.655,0,0,1-.641-.035.469.469,0,0,0-.514,0,.807.807,0,0,1-.388.1,5.82,5.82,0,0,1-1.33-.15c-.019-.006-.046-.031-.045-.045a.249.249,0,0,1,.033-.124.364.364,0,0,1,.11-.072c.146-.088.172-.125.139-.181a.179.179,0,0,0-.171-.083c-.969,0-1.939,0-2.908.011-.676.008-1.352.033-2.027.05-.315.008-.631.022-.946.021a.4.4,0,0,1-.249-.078.309.309,0,0,1-.086-.367.716.716,0,0,1,.392-.073q.843-.021,1.687-.016c.473,0,.945-.042,1.418-.067.742-.039,1.48-.135,2.226-.12a5.2,5.2,0,0,0,1.54-.173.5.5,0,0,0,.175-.1.134.134,0,0,0,.036-.113.154.154,0,0,0-.084-.094.525.525,0,0,0-.2-.031c-.36.014-.72.038-1.081.051-.338.012-.677.032-1.013.017a8.491,8.491,0,0,0-1.483.076,4.173,4.173,0,0,1-.606.057c-.88-.015-1.756.081-2.634.1a2.774,2.774,0,0,1-.335-.021.213.213,0,0,1-.167-.186c0-.09,0-.18,0-.27.01-.157.022-.315.04-.471a.335.335,0,0,1,.333-.279c.406,0,.811.021,1.217.021.338,0,.676-.016,1.013-.028.016,0,.03-.027.049-.046-.033-.016-.065-.047-.094-.044a19.342,19.342,0,0,1-2.028.035.42.42,0,0,1-.392-.61c.008-.021.017-.042.025-.063a.243.243,0,0,1,.189-.171c.244-.034.49-.06.735-.09a1.54,1.54,0,0,0,.759-.259.506.506,0,0,1,.183-.086,6.134,6.134,0,0,1,1.86-.287,1.719,1.719,0,0,0,.536-.035,2.941,2.941,0,0,1,.4-.04,14.086,14.086,0,0,0,1.938-.265,4.823,4.823,0,0,1,1.072-.123c.743-.006,1.486-.038,2.228-.044a7.871,7.871,0,0,0,1.338-.175,1.684,1.684,0,0,1,.6-.008,16.1,16.1,0,0,0,2.552.246,4.342,4.342,0,0,1,.672.066,1.364,1.364,0,0,0,.668-.036m-6.106-3.361a1.164,1.164,0,0,0,.265-.188c.065-.085.081-.206.138-.3A.748.748,0,0,1,14.5,37.5a.254.254,0,0,1,.312-.022c.367.253.728.514,1.091.773a.078.078,0,0,1,.012.121c-.012.017-.027.038-.045.043a.694.694,0,0,1-.193.041,2.721,2.721,0,0,0-.8.017.7.7,0,0,1-.458-.061c-.162-.072-.322-.15-.508-.237m2.369-1.73a.336.336,0,0,1,.109.028c.015.05,0,.091-.052.1a.137.137,0,0,1-.11-.033.06.06,0,0,1,.053-.092m3.45-2.159a1.125,1.125,0,0,1-.187.569,1.766,1.766,0,0,1-.464.568,2.147,2.147,0,0,0-.282.289.577.577,0,0,0-.162.288.291.291,0,0,1-.239.211c-.044.01-.086.026-.13.037a.284.284,0,0,1-.306-.089,3.368,3.368,0,0,1-.271-.386c-.057-.1-.076-.215-.138-.306-.112-.165-.243-.318-.38-.493-.175.3-.385.564-.527.869a.14.14,0,0,1-.116.051.124.124,0,0,1-.082-.079c-.055-.195-.1-.392-.152-.588a.869.869,0,0,0-.086-.254c-.236-.356-.479-.708-.725-1.057a.5.5,0,0,0-.154-.131c-.185-.109-.363-.121-.471.065a4.358,4.358,0,0,1-.893.913.208.208,0,0,1-.336-.075,1.233,1.233,0,0,0-1.023-.664c-.053,0-.066-.059-.044-.11l-.016.018a.237.237,0,0,0-.194.24c0,.067.011.135.015.2a.732.732,0,0,1-.49.734.761.761,0,0,1-.324.087,2.787,2.787,0,0,0-.728.122,1.007,1.007,0,0,1-.6-.038,2.486,2.486,0,0,1-.785-.379.567.567,0,0,0-.5-.137.444.444,0,0,1-.447-.246c-.1-.15-.173-.313-.267-.465-.018-.028-.078-.033-.12-.041-.011,0-.035.023-.039.04a3.64,3.64,0,0,0-.163.86.748.748,0,0,0,.051.327,2.315,2.315,0,0,0,.341.579,3.288,3.288,0,0,0,.585.448.263.263,0,0,0,.2.022.331.331,0,0,1,.4.175,1.663,1.663,0,0,1,.165.294,1.884,1.884,0,0,0,.421.6,1.091,1.091,0,0,1,.113.195,1.956,1.956,0,0,1-1.255.062,1.307,1.307,0,0,0-.53-.076,4.636,4.636,0,0,1-1.336-.149.366.366,0,0,1-.3-.5c.1-.274.177-.557.274-.831A3.24,3.24,0,0,0,7.212,35a2.211,2.211,0,0,1,.188-.851.63.63,0,0,1,.2-.264,4.123,4.123,0,0,0,1.138-1.319,2.867,2.867,0,0,1,.468-.659,1.023,1.023,0,0,0,.344-.71.475.475,0,0,1,.045-.123,2.539,2.539,0,0,1,1.094-.283c.067,0,.146-.034.2-.01a1.614,1.614,0,0,0,.86-.02c.176-.016.341-.109.528-.044.156.054.291-.086.459-.058a1.449,1.449,0,0,0,.468-.026,3.98,3.98,0,0,1,1.207-.059l1.476-.113.574-.2a2.91,2.91,0,0,0,.591.118,3.578,3.578,0,0,0,.8-.1,2.106,2.106,0,0,1,.8-.057,1.1,1.1,0,0,0,.4-.03.307.307,0,0,1,.377.281,2.907,2.907,0,0,1,.035.67,4.969,4.969,0,0,0,.156,1.938,3.543,3.543,0,0,1,.114,1.2m-9.289-6.2c0-.014.037-.025.057-.025s.031.021.047.032c-.011.016-.019.043-.033.048-.059.019-.088,0-.071-.055m19.164-2.139a.52.52,0,0,1-.452.356,4.578,4.578,0,0,0-.87.1c-.179.045-.231-.081-.284-.209-.007-.017-.033-.027-.051-.04a6.284,6.284,0,0,0-1.99.294.456.456,0,0,1-.262.039.947.947,0,0,0-.773.12.4.4,0,0,1-.263.017,1.064,1.064,0,0,0-.532-.024.45.45,0,0,1-.325-.057c-.214-.129-.387-.023-.56.089l.122-.013-.118.017c-.209.086-.415.174-.624.255a3.644,3.644,0,0,1-.793.135.081.081,0,0,1-.06-.028c-.141-.162-.314-.129-.5-.1a3.55,3.55,0,0,0-.788.182,1.9,1.9,0,0,1-.524.122,5.639,5.639,0,0,1-1.412.04,1.189,1.189,0,0,0-.785.137,1.939,1.939,0,0,1-.45.131,12.579,12.579,0,0,1-1.539.2,1.624,1.624,0,0,1-.466-.036.552.552,0,0,0-.45.079.238.238,0,0,1-.255.014.426.426,0,0,0-.187-.067,4.425,4.425,0,0,0-.8.1c-.218.059-.411.166-.644.044a.357.357,0,0,0-.258.038c-.21.094-.413.19-.638.049l-.47.044c-.179.017-.358.043-.537.046a.362.362,0,0,1-.252-.068.692.692,0,0,0-.618-.182c-.946.023-1.892.039-2.838.062a6.027,6.027,0,0,0-.606.044c-.648.081-1.3.157-1.943.258-.605.095-1.216.053-1.822.1a7.6,7.6,0,0,0-1.078,0,.407.407,0,0,1-.333-.194c-.1-.136-.052-.293.095-.316a2.564,2.564,0,0,1,.469-.052,5.757,5.757,0,0,0,1.076-.087,4.245,4.245,0,0,1,.537-.057c.564-.016,1.116-.149,1.683-.143a.6.6,0,0,0,.443-.13c.016-.015.037-.04.034-.056-.007-.039-.018-.094-.045-.108A.627.627,0,0,0,5.63,27c-.54-.017-1.081-.039-1.622-.028-.4.009-.808.071-1.212.1-.359.025-.719.039-1.079.053a.267.267,0,0,1-.237-.107.392.392,0,0,1-.048-.185c-.007-.088.075-.118.133-.123a3.889,3.889,0,0,1,.472-.008,10.3,10.3,0,0,0,2.484-.214,3.111,3.111,0,0,1,.6-.07,3.868,3.868,0,0,0,.793-.153.1.1,0,0,0,.053-.038c.026-.035.064-.074.064-.112a.138.138,0,0,0-.072-.095,1.042,1.042,0,0,0-.728-.062,15.1,15.1,0,0,1-1.608.181c-.512.071-1.032.089-1.549.13a.818.818,0,0,1-.4-.029c-.047-.02-.115-.1-.105-.155s.019-.1.049-.117a5.188,5.188,0,0,1,.524-.3.925.925,0,0,1,.328-.072c.877-.06,1.751-.157,2.621-.275.29-.039.578-.1.863-.162A.355.355,0,0,0,6.23,25c-.023-.009-.045-.026-.065-.024-.492.057-.985.1-1.475.178-.291.044-.581.067-.874.087-.472.032-.943.081-1.414.121-.179.015-.359.03-.539.039a.185.185,0,0,1-.17-.236,1.02,1.02,0,0,1,.077-.256c.052-.1.135-.181.187-.28a.918.918,0,0,0,.115-.311,3.11,3.11,0,0,1,.364-1.149c.4-.736.15-.628.981-.706.223-.021.445-.064.666-.1a.682.682,0,0,0,.191-.062c.259-.131.509-.283.776-.4a3.8,3.8,0,0,1,1.278-.408,1.283,1.283,0,0,0,.262-.054.594.594,0,0,0,.447-.373.818.818,0,0,1,.128-.174c.265-.009.535-.025.8-.025a6.061,6.061,0,0,0,1.34-.158,14.849,14.849,0,0,1,3.426-.291,2.714,2.714,0,0,1,.335.042.87.87,0,0,0,.4-.042c.255-.085.516-.153.776-.223a6.608,6.608,0,0,1,1.406-.126,1.045,1.045,0,0,1,.4.066,3.4,3.4,0,0,0,1.268.136,8.67,8.67,0,0,1,1.483.014.362.362,0,0,0,.134.006,13.839,13.839,0,0,1,1.683-.094,1.619,1.619,0,0,1,.922.142,1.948,1.948,0,0,0,.931.117,5,5,0,0,1,.942-.025,4.361,4.361,0,0,1,.955.327,5.837,5.837,0,0,1,.993.42.153.153,0,0,1,.04.112c0,.053-.038.079-.093.081-.022,0-.044.011-.066.011-.45.02-.9.033-1.35.061s-.9.079-1.347.11a6.7,6.7,0,0,1-.742.017,14.6,14.6,0,0,0-2.162.043,3.9,3.9,0,0,1-.877,0,.2.2,0,0,0-.117.046c-.028.019.056.117.122.137a1.918,1.918,0,0,0,.325.088,6.741,6.741,0,0,0,.876.066c.766-.018,1.531-.007,2.3.027.18.008.36-.01.54-.017.27-.01.54-.032.81-.03.81.007,1.62.025,2.431.036.225,0,.45-.005.675,0a.424.424,0,0,1,.315.094.28.28,0,0,1,.054.117c0,.007-.029.031-.048.037a.783.783,0,0,1-.195.045c-.338,0-.676,0-1.014,0a2.524,2.524,0,0,0-.472.007,10.246,10.246,0,0,1-1.618.088c-.834.029-1.663.111-2.489.223-.242.033-.482.081-.785.132a3.98,3.98,0,0,0,.942.051c.381-.008.762-.05,1.142-.076.135-.009.27-.019.405-.018.834.005,1.668.007,2.5.022.382.008.763.048,1.144.069.18.01.36.014.54.01.225-.005.45-.025.675-.032a.621.621,0,0,1,.542.221c.056.069.127.127.19.192a.12.12,0,0,1-.042.168.617.617,0,0,1-.13.035c-.517.018-1.028.1-1.549.1-.811-.007-1.622.012-2.433.03-.293.006-.585.037-.877.062-.719.06-1.437.128-2.156.181a3.991,3.991,0,0,1-.538-.03l.014.009c.05.042.1.117.149.119a10.308,10.308,0,0,0,1.207.036c.6-.05,1.215-.008,1.823-.025.813-.024,1.616.1,2.425.145a16.6,16.6,0,0,0,1.755.015,5.115,5.115,0,0,0,.6-.1.323.323,0,0,1,.34.164c.054.079.013.209-.071.214-.157.01-.314.019-.471.022-.5.01-.994-.014-1.486.031a22.812,22.812,0,0,1-2.424.09.1.1,0,0,0-.059.025.233.233,0,0,0,.034.116.248.248,0,0,0,.115.066,3,3,0,0,0,.454.122,9.7,9.7,0,0,0,1.549.1c.652-.016,1.3-.059,1.957-.053.179,0,.358-.031.537-.046s.316.125.322.348a.151.151,0,0,1-.067.1.237.237,0,0,1-.128.034,26.431,26.431,0,0,0-2.7.108c-.157.015-.315.009-.472.02-.031,0-.06.041-.089.063a.46.46,0,0,0,.1.086,3.008,3.008,0,0,0,1.057.2c.381.031.765.024,1.148.026.111,0,.222-.029.334-.037.224-.016.449-.03.674-.037a.2.2,0,0,1,.161.293M12.556,33.91c0,.008,0,.016,0,.023l.015-.018-.013-.006m5.357,15.56a.43.43,0,0,0-.1.045l.055.038a.323.323,0,0,0,.062,0c.021,0,.051-.01.058-.025.018-.04-.012-.067-.072-.058" transform="translate(0 -0.001)"/>
      </g>
    </g>
  </g>
</svg>
