<svg xmlns="http://www.w3.org/2000/svg" width="37.109" height="37.109" viewBox="0 0 37.109 37.109">
  <path id="Icon_awesome-phone-alt" data-name="Icon awesome-phone-alt" d="M36.05,26.223l-8.118-3.479a1.739,1.739,0,0,0-2.029.5l-3.595,4.392A26.865,26.865,0,0,1,9.466,14.794L13.858,11.2a1.735,1.735,0,0,0,.5-2.029L10.879,1.052A1.751,1.751,0,0,0,8.886.044L1.348,1.784A1.739,1.739,0,0,0,0,3.479a33.627,33.627,0,0,0,33.63,33.63,1.739,1.739,0,0,0,1.7-1.348l1.739-7.538a1.761,1.761,0,0,0-1.015-2Z" transform="translate(0 0)" fill="#f3f3f3"/>
</svg>
