<svg id="グループ_1798" data-name="グループ 1798" xmlns="http://www.w3.org/2000/svg" xmlns:xlink="http://www.w3.org/1999/xlink" width="49.683" height="44.635" viewBox="0 0 49.683 44.635">
  <defs>
    <clipPath id="clip-path">
      <rect id="長方形_2803" data-name="長方形 2803" width="49.683" height="44.635" fill="#fff"/>
    </clipPath>
  </defs>
  <g id="グループ_1797" data-name="グループ 1797" clip-path="url(#clip-path)">
    <path id="パス_5348" data-name="パス 5348" d="M48.225,12.009h-8.42V6.895A6.9,6.9,0,0,0,32.911,0H16.6A6.9,6.9,0,0,0,9.71,6.895v5.114H1.454c-.861,0-1.513.46-1.45,1.029L3.512,43.606c.064.562.825,1.029,1.689,1.029H44.48c.867,0,1.626-.467,1.693-1.029l3.507-30.568c.062-.569-.589-1.029-1.454-1.029M11.263,8.752c0-3.8,2.74-6.895,6.132-6.895H31.887c3.384,0,6.127,3.091,6.127,6.895v3.257H11.263ZM33.757,19.206H16.131V15.791H33.757Z" transform="translate(0 0)" fill="#fff"/>
  </g>
</svg>
