<svg xmlns="http://www.w3.org/2000/svg" width="40.571" height="39.848" viewBox="0 0 40.571 39.848">
  <path id="パス_5350" data-name="パス 5350" d="M12.009,5.363q-.656.129-4.448.457t-5.849.437L1.3,3.813q.666-.01,2.346-.08V-5.48a22.429,22.429,0,0,1-2.544.845L.082-6.713A21.48,21.48,0,0,0,5.548-9.058a13.445,13.445,0,0,0,3.23-2.6h2.584a13.649,13.649,0,0,0,3.911,2.7A22.506,22.506,0,0,0,20.2-7.12L18.857-4.834q-1.113-.358-2.266-.835V.076q.586-.318.984-.576l1.888,1.749a27.428,27.428,0,0,1-3.4,1.531,28.28,28.28,0,0,0,4.005,1.073l-1.4,2.385a18.877,18.877,0,0,1-6.659-2.852ZM6.175-6.653h2.8v-1.69h2.465v1.69h3A19.649,19.649,0,0,1,10.16-9.476,17.248,17.248,0,0,1,6.175-6.653Zm.3,2.713h7.395V-5H6.473ZM13.867-2.5H6.473v1.143h7.395ZM15.935.414H12.168a11.309,11.309,0,0,0,1.352,1.063Q14.762.99,15.935.414ZM6.463,3.6q3.966-.209,5.3-.407A14.158,14.158,0,0,1,9.027.414H6.473ZM40.653,2,39.142,4.926q-2.1-1.62-3.936-3.359a43.157,43.157,0,0,1-3.071-3.175Q30.9-3.045,28.726-5.957a.18.18,0,0,0-.149-.08.172.172,0,0,0-.139.08q-2.147,3.21-3.553,5.024A40.349,40.349,0,0,1,22.007,2.4L20.357.2a23.107,23.107,0,0,0,2.46-2.982q1.7-2.306,2.331-3.25.646-1.034,1.039-1.585a2.811,2.811,0,0,1,1-.87A2.951,2.951,0,0,1,28.577-8.8a2.705,2.705,0,0,1,1.317.328,3.635,3.635,0,0,1,1.078.914l.984,1.2a58.255,58.255,0,0,0,4.035,4.4A47.446,47.446,0,0,0,40.653,2ZM38.088-7.349l-1.421.537q-.676-1.68-1.372-3.061l1.372-.507Q37.423-8.919,38.088-7.349Zm-2.813.636-1.461.547Q33.407-7.2,32.473-9.217l1.4-.547A30.648,30.648,0,0,1,35.276-6.713ZM18.141,27.57H2.04V12.413h16.1ZM15.05,25.025V14.907h-10V25.025ZM38.6,12.433l-.1,1.809a16.914,16.914,0,0,1-3.538,8.428q-2.942,3.757-10.307,5.516L23.7,25.532a15.98,15.98,0,0,0,7.728-3.444,12.266,12.266,0,0,0,3.792-7.111h-6.51a19.21,19.21,0,0,1-6.619,6.411l-1.65-2.1A16.378,16.378,0,0,0,27.6,10.107l3.091.348q-.417,1.262-.716,1.978h5.963a27.216,27.216,0,0,0-1.272-2.425l1.362-.656q.706,1.153,1.57,2.932l-.348.149Zm2-.447-1.382.626A27.981,27.981,0,0,0,37.7,9.7l1.322-.646Q39.728,10.206,40.593,11.985Z" transform="translate(-0.082 11.662)" fill="#fff"/>
</svg>
