<svg xmlns="http://www.w3.org/2000/svg" width="395.266" height="369.692" viewBox="0 0 395.266 369.692">
  <g id="グループ_1852" data-name="グループ 1852" transform="translate(1643.607 -2012.308)">
    <rect id="長方形_1376" data-name="長方形 1376" width="394.866" height="369.692" transform="translate(-1643.206 2012.308)" fill="#fffce8" opacity="0.93"/>
    <g id="グループ_1736" data-name="グループ 1736" transform="translate(-1643.607 2012.57)">
      <path id="パス_3939" data-name="パス 3939" d="M612.933,538.416h61.239L341.789,907.1H279.007Z" transform="translate(-279.007 -538.416)" fill="#fff"/>
      <g id="グループ_1735" data-name="グループ 1735" transform="translate(50.545 101.037)">
        <g id="グループ_1733" data-name="グループ 1733" transform="translate(0)">
          <path id="パス_5357" data-name="パス 5357" d="M19.365-49.8H25.84v8.643H39.229v5.947H25.84v9.609a57.093,57.093,0,0,1,11.221-1.2A19.932,19.932,0,0,1,46.9-24.521a13.224,13.224,0,0,1,5.713,6.035,13.27,13.27,0,0,1,1.26,5.742q0,8.438-6.68,12.363Q42.861,2.168,34.658,3.135l-2.4-5.654q6.973-.645,10.723-2.607,4.307-2.285,4.307-7.676a7.893,7.893,0,0,0-3.369-6.973,12.322,12.322,0,0,0-7.031-1.758A50.548,50.548,0,0,0,25.84-20.1V-4.629A7.918,7.918,0,0,1,24.258.5a7.216,7.216,0,0,1-6.006,2.578,16.1,16.1,0,0,1-7.5-2.051A14.59,14.59,0,0,1,7.061-1.816,10.613,10.613,0,0,1,3.9-9.229a9.631,9.631,0,0,1,2.842-6.826q4.248-4.453,12.627-7.705V-35.215H6.826v-5.947H19.365Zm0,31.816a22.573,22.573,0,0,0-6.24,3.721Q10.2-11.719,10.2-9.316a5.3,5.3,0,0,0,2.051,4.072,6.89,6.89,0,0,0,4.688,1.875q2.432,0,2.432-3.047ZM53.818-28.857A85.736,85.736,0,0,0,41.865-43.564l4.57-3.662A71.991,71.991,0,0,1,58.564-32.871Zm68.7-11.953h13.74q1.055-4.248,2.051-9.229l6.357.82q-.937,4.219-1.992,8.408h30v5.83H141.123a112.423,112.423,0,0,1-4.629,13.506,34.1,34.1,0,0,1,17.813-4.512,22.447,22.447,0,0,1,10.84,2.432q6.5,3.574,6.5,10.635,0,9.873-11.748,13.594-7.383,2.344-21.709,2.754L136.025-2.4q13.74-.264,20.244-2.256,8.35-2.549,8.35-8.5a6.456,6.456,0,0,0-3.486-6.064,14.506,14.506,0,0,0-6.943-1.436,35,35,0,0,0-10.576,1.787,43.291,43.291,0,0,0-9.99,4.658l-5.156-3.428q3.457-8.379,6.182-17.344H122.52ZM262.354-24.434a30.01,30.01,0,0,1-6.006,8.232q-2.637,2.373-4.834,2.373-2.812,0-4.541-3.809-1.787-3.984-1.787-12.48a95.227,95.227,0,0,1,1.992-18.545l6.416.967a89.894,89.894,0,0,0-1.934,16.758q0,9.229,1.318,9.229.5,0,1.7-1.406a29.888,29.888,0,0,0,3.955-6.211ZM257.9-1.494q8.994-2.52,13.564-7.529,5.6-6.123,5.6-18.516a139.2,139.2,0,0,0-1.816-21.123l6.709-.645a137.333,137.333,0,0,1,1.934,22.061q0,16.582-8.525,23.877a41.347,41.347,0,0,1-13.975,7.383Z" transform="translate(3.088 200.305)" fill="#e8a33e"/>
          <path id="パス_5358" data-name="パス 5358" d="M109.746-27.363v6.357h7.383v5.566h-7.383V.117a6.19,6.19,0,0,1-1.025,3.9q-1.348,1.7-5.215,1.7a55.705,55.705,0,0,1-7.676-.5L94.482-.732a49.519,49.519,0,0,0,7.09.674q1.26,0,1.611-.527a2.445,2.445,0,0,0,.264-1.289V-15.439H80.156v-5.566h23.291v-6.357H80.039l.5,5.215q-3.252,1.611-5.332,2.461V.117q0,2.959-1.348,4.189-1.2,1.143-4.16,1.143a31.03,31.03,0,0,1-6.152-.586L62.4-1.377a32.28,32.28,0,0,0,5.01.527,2.111,2.111,0,0,0,1.26-.264,1.653,1.653,0,0,0,.352-1.23V-17.227q-3.34,1.2-6.68,2.2l-1.611-5.918q5.068-1.406,8.291-2.52V-34.658H61.641v-5.83h7.383V-51.3h6.182v10.811h5.449v5.83H75.205v8.936q1.963-.762,4.189-1.787v-5.244H94.746v-6.738H81.973v-5.332H94.746V-51.3H101.1v6.475h13.8v5.332H101.1v6.738h17.578v5.391ZM90.117-1.318a57.777,57.777,0,0,0-6.533-10.576l5.332-3.047A56.654,56.654,0,0,1,95.889-4.687ZM227.4-12.656h-8.291V5.654h-6.064V-12.656h-7.119V1.318H200.1V-15.293h-3.223v-11.6h39.639V-15.41h-3.34V-3.486a4.961,4.961,0,0,1-.937,3.311q-1.025,1.2-3.691,1.2-2.168,0-5.6-.234L221.865-4.98a23.76,23.76,0,0,0,4.395.469q.879,0,1.025-.469a2.844,2.844,0,0,0,.117-.967Zm-8.291-4.8h11.426v-4.57H219.111Zm-6.064,0v-4.57h-10.2v4.57Zm17.725-32.285v19.365H200.713v-4.307h23.7v-3.047H202.5v-4.453h21.914v-2.988h-23.35v-4.57Zm-50.83,7.324h5.566v25.576h-5.566Zm9.346-9.053h6.064v18.486q0,9.639-.264,14.092-.469,8.789-2.314,13.77a28.035,28.035,0,0,1-7.148,10.605l-5.039-4.043A23.913,23.913,0,0,0,187.178-8.5a45.5,45.5,0,0,0,1.934-11.836q.176-3.809.176-11.777Z" transform="translate(2.656 199.305)" fill="#6f4605"/>
          <path id="パス_5355" data-name="パス 5355" d="M3.428-44.18q26.953-.41,50.947-1.377l.352,5.83Q44.15-39.2,38.262-36.5a22.863,22.863,0,0,0-9.023,7.148,18.849,18.849,0,0,0-3.867,11.543q0,6.328,4.395,9.492,5.039,3.6,15.469,4.951L43.857,3.223Q30.264,1.406,24.727-3.809a18.17,18.17,0,0,1-5.947-13.828,21.545,21.545,0,0,1,5.391-14,27.514,27.514,0,0,1,10.752-7.676q-12.1.41-31.2,1.377ZM46.025-18.9a48.291,48.291,0,0,0-5.83-10.43l4.57-1.7a51.886,51.886,0,0,1,5.889,10.313Zm7.91-3.076a45.708,45.708,0,0,0-5.8-10.488L52.5-34.014a38.491,38.491,0,0,1,5.83,10.078Zm13.992-21.24H85.681q-.967-2.725-2.08-6.475l6.475-.352q1.143,3.9,2.227,6.826h20.391v5.654H94.324q1.67,4.16,3.779,8.467h18.545v5.654H101.062a104.028,104.028,0,0,0,6.182,9.609l-6.562,1.9a97.552,97.552,0,0,1-6.826-11.514H66.9v-5.654H91.16q-1.7-3.6-3.486-8.467H67.927ZM106.98,2.7q-5.625.41-10.459.41-12.686,0-18.369-2.373Q70.271-2.578,70.271-9.727a9.357,9.357,0,0,1,2.2-6.475l5.244,2.871A8.241,8.241,0,0,0,76.8-9.668q0,3.691,5.039,5.332,4.482,1.465,13.711,1.465,4.629,0,10.9-.5Zm20.759-43.564h13.682q.82-3.633,1.846-9.4l6.621.82q-.879,4.541-1.875,8.584h19.512v5.83H146.636q-5.859,23.408-12.949,38.818l-6.475-2.285a233.228,233.228,0,0,0,12.832-36.533h-12.3Zm51.855,43.1a83.537,83.537,0,0,1-10.664.615q-9.58,0-14.473-1.641a9.283,9.283,0,0,1-3.193-1.816,7.719,7.719,0,0,1-2.578-5.977,9.866,9.866,0,0,1,2.4-6.562l5.215,3.076a3.956,3.956,0,0,0-.908,2.52,2.931,2.931,0,0,0,2.168,3.076A32.629,32.629,0,0,0,167-3.428a80.661,80.661,0,0,0,11.865-.879Zm-27.48-29.033a234.578,234.578,0,0,1,25.137-1.406l.293,5.947a241.325,241.325,0,0,0-24.58,1.26ZM189.368-44.18q26.953-.41,50.947-1.377l.352,5.83Q230.09-39.2,224.2-36.5a22.863,22.863,0,0,0-9.023,7.148,18.849,18.849,0,0,0-3.867,11.543q0,6.328,4.395,9.492,5.039,3.6,15.469,4.951L229.8,3.223Q216.2,1.406,210.667-3.809a18.17,18.17,0,0,1-5.947-13.828,21.545,21.545,0,0,1,5.391-14,27.514,27.514,0,0,1,10.752-7.676q-12.1.41-31.2,1.377Z" transform="translate(23.5 59.88)" fill="#101010"/>
          <path id="パス_5356" data-name="パス 5356" d="M6.684-41.542H21.895q2.276-3.63,3.947-6.655l4.552.749q-1.181,2.074-3.2,5.33l-.346.576H47.966v4.062H24.142A88.886,88.886,0,0,1,16.1-27.2q5.848-3.63,10.371-3.63,7.173,0,8.988,7.692,7.922-2.622,15.643-4.84l1.815,4.091q-11.235,2.967-16.853,4.811.461,4.235.519,10l-4.552.288V-9.68q-.029-5.272-.23-7.894-7.75,2.881-11.091,5.474-3,2.333-3,4.782,0,2.737,3.688,3.832,3.14.951,11.322.951a152.6,152.6,0,0,0,15.96-.893l.576,4.552q-8.239.634-16.565.634-9.968,0-14.26-1.584-5.416-2.017-5.416-7,0-5.762,7.922-10.342a71.593,71.593,0,0,1,10.342-4.552A9.122,9.122,0,0,0,29.414-25.7a4.719,4.719,0,0,0-3.6-1.469q-3.025,0-8.153,2.737a48.824,48.824,0,0,0-10.227,7.49L4.609-20.108A100.564,100.564,0,0,0,15.038-31.632q1.124-1.44,3.86-5.445l.288-.4H6.684Z" transform="translate(118.088 130.093)" fill="#6f4605"/>
        </g>
      </g>
    </g>
    <g id="グループ_1737" data-name="グループ 1737" transform="translate(-1582.296 2067.557)">
      <path id="パス_5354" data-name="パス 5354" d="M14.04-2.213,11.483-.881q-1.2-1.848-2.707-3.846l1.966-1.1H8.293V-8.089h8.078V-9.765H8.035v-2.374h5.038V-13.9H8.69v-2.288h4.383V-18.3H16.06v2.116h4.6V-13.9h-4.6v1.762h5.371v2.374H19.293v1.676h1.7v2.267h-1.7v4.458A2.177,2.177,0,0,1,18.53.408a3.145,3.145,0,0,1-2.073.634H13.621l-.354-2.686h2.417q.688,0,.688-.645V-5.822H11.29A26.876,26.876,0,0,1,14.04-2.213ZM7.917-7.5q-.548.236-1.687.6V-.988a1.915,1.915,0,0,1-.714,1.6,2.814,2.814,0,0,1-1.8.564h-2.5L.881-1.343H2.643q.72,0,.72-.634V-6.037Q2.03-5.672.945-5.4L.4-7.917q.9-.118,2.965-.612v-3.76H.838v-2.224H3.362v-3.674H6.23v3.674H7.938v2.224H6.23v3.008q.956-.279,1.407-.44ZM30.486-18.079q.032.4.032,1.375,0,.73-.043,1.429h7.1V-12.7H30.186A30.459,30.459,0,0,1,28.4-5.006a23.563,23.563,0,0,1-3.276,6.435L22.634-.043a23.648,23.648,0,0,0,2.879-5.838A31.779,31.779,0,0,0,27.146-12.7h-3.76v-2.578h3.942q.086-1.729.086-2.8Zm11.645,6.531-.15,2.557q-.612-.032-1.278-.032-3.642,0-9.023.494l-.193-2.557a81.161,81.161,0,0,1,8.948-.494Q41.465-11.58,42.131-11.548ZM42.7.4a32.888,32.888,0,0,1-5.092.354A26.29,26.29,0,0,1,33.725.5,4.712,4.712,0,0,1,31.1-.666a2.888,2.888,0,0,1-.956-2.159A5,5,0,0,1,31.9-6.241l2.288,1.074a3.78,3.78,0,0,0-1.063,2.084.709.709,0,0,0,.387.623,4.361,4.361,0,0,0,1.558.371,23.492,23.492,0,0,0,2.653.134,27.7,27.7,0,0,0,4.823-.419ZM55.44-8.594l-.021-.612a2.193,2.193,0,0,0-1.912-.741A1.779,1.779,0,0,0,52.2-9.34a1.878,1.878,0,0,0-.585,1.327A1.747,1.747,0,0,0,52.051-6.8a1.441,1.441,0,0,0,1.123.483,2.207,2.207,0,0,0,1.649-.628A2.251,2.251,0,0,0,55.44-8.594Zm8.314-4.791h-5.21v3.91a7.3,7.3,0,0,1,.634,3.341A6.567,6.567,0,0,1,56.772-.9a9.811,9.811,0,0,1-6.016,2.24L50-1.257q4.727-.365,5.962-3.384a4.632,4.632,0,0,1-2.793.881,4.569,4.569,0,0,1-3.153-1.133A3.715,3.715,0,0,1,48.748-7.8,4.235,4.235,0,0,1,50.1-11.043,4.777,4.777,0,0,1,53.485-12.3a5.506,5.506,0,0,1,1.9.333v-1.418H44.773V-15.8h10.6v-2.4h3.169v2.4h2.342q-.43-.978-1.053-2.159l1.461-.6q.494.9,1.4,2.761h1.063Zm2.073-2.406-1.515.623q-.44-1.085-1.439-3.083l1.482-.548Q64.872-17.811,65.828-15.791Zm6.488-1.278a32.16,32.16,0,0,0-1.364,8.3A33.419,33.419,0,0,0,72.155.2L69.19.881A34.922,34.922,0,0,1,68.03-7.9,39.336,39.336,0,0,1,69.3-17.488Zm13.643,3.7-.9-.011q-1.407-.021-4.673.054t-6.327.29v-2.621q7.262-.354,10.055-.354,1.117,0,1.848.064ZM86.2.086q-2.632.247-4.5.247-4.716,0-6.435-1.09a3.475,3.475,0,0,1-1.719-3.11,6.658,6.658,0,0,1,2.2-4.6L78.117-7.2a4.536,4.536,0,0,0-1.729,3.233,1.351,1.351,0,0,0,.9,1.208,10,10,0,0,0,3.738.446q1.439,0,5.06-.312ZM92.447-12.6q-.612-1.515-.945-2.234-.666.011-1.042.011h-.3l-.44-2.353q12.493-.215,17.048-1.128l1.074,2.406q-.559.107-1.944.247l1.268.365q-.816,1.439-1.7,2.686h3.362v4.866h-2.567v-2.75H91.717v2.75H89.171V-12.6Zm8.486,0h1.472q.892-1.515,1.536-2.879-1.848.14-4.093.279ZM94.51-14.932q.709,1.558,1,2.331h2.428l-.978-2.438Zm11.709,6.778a14.254,14.254,0,0,1-4.361,5.038,36.56,36.56,0,0,0,7.176,1.558l-1.278,2.686a28.833,28.833,0,0,1-8.69-2.557,30.428,30.428,0,0,1-9.3,2.535l-.773-2.514a29.372,29.372,0,0,0,7.24-1.7A11.788,11.788,0,0,1,93-6.617l.945-.419H92.286V-9.324h13.009Zm-7.3,3.728a10.881,10.881,0,0,0,3.051-2.61H95.81A10.11,10.11,0,0,0,98.914-4.426Zm21.753,5.94-1.225-2.546a6.377,6.377,0,0,0,4.641-6.445v-3.309h-6.95v-2.621h6.832v-4.275h3.147v4.275h4.211v2.621h-4.114v3.416Q127.209-.494,120.667,1.515ZM118.583-5.9a28.983,28.983,0,0,0-2.326,4.034,9.774,9.774,0,0,0-.714,2.326h-2.374a23.438,23.438,0,0,1-1.45-8.2,39.406,39.406,0,0,1,1.364-9.668l3.051.462a47.816,47.816,0,0,0-1.262,5.479,25.523,25.523,0,0,0-.263,3.577,27.383,27.383,0,0,0,.183,3.395q.612-.978,1.88-2.9Zm21.56,3.534q-4.34.924-7.219,1.289L132.376-3.6l1.74-.215V-15.522h-1.257v-2.267h12.031l-.021,2.267h-1.891V1.214h-2.836Zm-3.255-13.159v2.191h3.255v-2.191Zm0,4.308v2.224h3.255v-2.224Zm0,7q1.687-.258,3.255-.548v-2.03h-3.255Zm15.77-10.7A23.333,23.333,0,0,1,152-9.19a15.271,15.271,0,0,1-1.756,4.367,27.194,27.194,0,0,0,3.631,3.244L152.088.859a34.562,34.562,0,0,1-3.566-3.352A24.807,24.807,0,0,1,144.654.945l-1.5-2a16.913,16.913,0,0,0,3.663-3.631,15.863,15.863,0,0,1-2.546-7.917H143.5v-2.31Zm-4.2,7.595a13.971,13.971,0,0,0,1.182-5.285h-2.686A13.071,13.071,0,0,0,148.457-7.315Zm10.474,2.363q-1.676,2.449-2.857,3.9L154.4-3.427a57.8,57.8,0,0,0,4.1-5.479q.129-.29.43-.892V-12.2h-3.738v-2.449h3.738v-3.47h3.051V-12.1q3.985-3.856,6.821-3.856a4,4,0,0,1,2.852,1.031,3.549,3.549,0,0,1,1.1,2.718q0,.956-.4,4.759-.322,3.083-.408,4.5v.215q0,.73.5.73A7.785,7.785,0,0,0,175.227-3.1l.709,2.492A7.052,7.052,0,0,1,171.993.806a3.048,3.048,0,0,1-2.32-.87,3.3,3.3,0,0,1-.827-2.374q0-.4.473-5.038.258-2.664.3-4.49v-.161q0-1.074-1.117-1.074a5.5,5.5,0,0,0-2.562,1.08,23.182,23.182,0,0,0-3.958,3.464V1.149h-3.051Zm31.217,2.986Q192.769-3,192.769-5.253a2.924,2.924,0,0,0-1.294-2.519,5.5,5.5,0,0,0-3.26-.918h-.269a8.426,8.426,0,0,0-2.014.29,12.693,12.693,0,0,0-2.17.752,12.251,12.251,0,0,0-1.708.924q-.693.462-3.217,2.331l-1.719-2.159q8.776-6.016,11.226-7.9h-9.088v-2.514h12.977l1.547,1.654q-2.31,1.536-6.886,4.684a9.092,9.092,0,0,1,2.213-.344,7.706,7.706,0,0,1,4.963,1.445,5.021,5.021,0,0,1,1.794,4.152,5.48,5.48,0,0,1-2.541,4.85,11.873,11.873,0,0,1-6.687,1.692,8.886,8.886,0,0,1-4.345-.9,2.87,2.87,0,0,1-1.606-2.643,2.826,2.826,0,0,1,1.37-2.369,5.1,5.1,0,0,1,2.992-.961A4.816,4.816,0,0,1,190.147-1.966Zm-2.771.709q-.7-2.191-2.546-2.191a1.618,1.618,0,0,0-.956.3.9.9,0,0,0-.419.768q0,1.182,2.771,1.182Q186.839-1.2,187.376-1.257Zm16.8-14.932-.43,11.483h-3.019l-.44-11.483ZM204.091,0h-3.706V-2.793h3.706Z" transform="translate(33.602 23)" fill="#ff444e"/>
      <line id="線_69" data-name="線 69" x2="15.043" y2="26.324" transform="translate(9.402)" fill="none" stroke="#ff444e" stroke-linecap="round" stroke-width="1"/>
      <line id="線_72" data-name="線 72" x2="15.043" y2="26.324" fill="none" stroke="#ff444e" stroke-linecap="round" stroke-width="1"/>
      <line id="線_71" data-name="線 71" x1="15.043" y2="26.324" transform="translate(250.082)" fill="none" stroke="#ff444e" stroke-linecap="round" stroke-width="1"/>
      <line id="線_73" data-name="線 73" x1="15.043" y2="26.324" transform="translate(257.603)" fill="none" stroke="#ff444e" stroke-linecap="round" stroke-width="1"/>
    </g>
  </g>
</svg>
