<svg id="グループ_1775" data-name="グループ 1775" xmlns="http://www.w3.org/2000/svg" xmlns:xlink="http://www.w3.org/1999/xlink" width="140.958" height="143.385" viewBox="0 0 140.958 143.385">
  <defs>
    <clipPath id="clip-path">
      <rect id="長方形_1390" data-name="長方形 1390" width="140.958" height="143.385" fill="none"/>
    </clipPath>
  </defs>
  <g id="グループ_1774" data-name="グループ 1774" clip-path="url(#clip-path)">
    <path id="パス_5338" data-name="パス 5338" d="M140.353,96.55l-1.053-.822c.09-.318.167-.589.228-.809.237-.166.408-.3.589-.41a1.735,1.735,0,0,0,.838-1.642,7.494,7.494,0,0,0-.175-1.276,5.486,5.486,0,0,1,.14-2.95c-.167-1.21-.635-2.373-.366-3.62a2.071,2.071,0,0,0-.083-.638,12.6,12.6,0,0,0-.462-2.757c.039-.577-.242-1.109-.208-1.7a16.574,16.574,0,0,0-.184-1.687c-.038-.779-.358-1.528-.434-2.32a4.784,4.784,0,0,0-.347-1.013,10.927,10.927,0,0,1-.3-2.318c.082-.286.161-.558.275-.959a5.1,5.1,0,0,1-1.333-2.624l.118-.582c-.087-.341-.174-.686-.272-1.074l.555-.879c-.019-.136,0-.3-.067-.4a1.791,1.791,0,0,0-.45-.447.857.857,0,0,1-.332-1.285c.031-.052.016-.131.024-.225-.127-.231-.27-.478-.4-.733a.289.289,0,0,1,.087-.382l.749.34c.512-.654.459-1.08-.251-2.129a4.135,4.135,0,0,0,.356-1.83l.746-2.02c-.178-.724.643-1.107.611-1.782-.232-.514-.769-.868-.727-1.524a1.618,1.618,0,0,0-.983-1.535c-.218,0-.432.008-.643-.017a2.438,2.438,0,0,1-.613-.137.555.555,0,0,1-.324-.86c.124-.247.365-.439.356-.563a6.877,6.877,0,0,1-.3-.991,10.746,10.746,0,0,1,.052-3.747c-.2-.805-.377-1.5-.552-2.195.135-.356.264-.69.389-1.025.151-.4.3-.806.395-1.064.025-.23.038-.3.04-.373a5.108,5.108,0,0,0-.23-2.536c.045-.354.089-.709.121-.961-.2-.94-.37-1.782-.528-2.547a1.876,1.876,0,0,1,.607-1.2c.215-.181.433-.357.675-.556.183-.914.624-1.788.1-2.788a4.128,4.128,0,0,0,.3-2.109,5.275,5.275,0,0,1-1.13-2.237,3.719,3.719,0,0,0,.178-1.671l.535-.6a1.346,1.346,0,0,0-.25-1.066,3.142,3.142,0,0,1-.644-1.348,5.624,5.624,0,0,0-.048-2.962,3.869,3.869,0,0,1-.1-.85c.02-.879-.41-1.671-.46-2.535,0-.064-.068-.124-.118-.21l-.376-.349c-.048-.306-.006-.589-.126-.708a4.777,4.777,0,0,1-.771-1.565c-.14-.109-.309-.239-.476-.372a.92.92,0,0,1-.361-1.128,2.326,2.326,0,0,0,.068-.569l-.526-.712.155-.706c-.091-.15-.2-.333-.31-.511-.382-.6-.779-1.194-1.144-1.805a3.976,3.976,0,0,1-.188-.615.611.611,0,0,0-.735-.272,3.525,3.525,0,0,0-.557.309,1.346,1.346,0,0,1-.741.387c-.353.075-.65-.373-1.021-.105a1.64,1.64,0,0,1-.045.42c-.134.351-.584.64-.845.489A6.019,6.019,0,0,0,125,7.077c-.052-.086-.117-.144-.109-.189a.646.646,0,0,0-.472-.829,6.589,6.589,0,0,0-1.671-.365,8.076,8.076,0,0,1-1.268-.045.7.7,0,0,0-.694.411c-.108.178-.245.34-.387.532a6.314,6.314,0,0,1-.85.071,9.264,9.264,0,0,1-1.919-.172c-.671-.178-1.275.216-1.913.076-.7-.152-1.416-.161-2.11-.305a13.76,13.76,0,0,1-1.623-.543,4.31,4.31,0,0,1-1.678.08c-.135-.021-.238.167-.222.32.022.207.07.411.116.666-.143.114-.294.338-.462.353-.778.066-1.561.075-2.382.1l-.635-1.082c-.615-.27-1.2-.53-1.792-.786a2.5,2.5,0,0,0-1.674-.169,8.841,8.841,0,0,1-3.832.121,12.871,12.871,0,0,1-1.256-.338,21,21,0,0,0-4.22.5,1.84,1.84,0,0,0-1.66.011,2.045,2.045,0,0,1-.575.147c-.657-.165-1.224-.6-1.966-.286l-.818.558c-.511.055-1.011.113-1.51.161a7.633,7.633,0,0,0-1.688.127l-.546.38a3.851,3.851,0,0,1-1.628-.476A2.347,2.347,0,0,0,82.526,5.9a1.627,1.627,0,0,1-.377-.173l-.679-.992a1.432,1.432,0,0,0-1.086-.308l-1.142.64L77.871,4.8c-.843.11-.951.89-1.422,1.323A5.929,5.929,0,0,1,75.4,6.085c-.345-.07-.659-.3-1-.368A11.061,11.061,0,0,0,73.06,5.6c-.429-.652-1.2-.979-1.607-1.652L71.977,1.9a1.48,1.48,0,0,0-1-1.121A4.123,4.123,0,0,1,69.595.218.962.962,0,0,0,68.576.1c-.489.251-.99-.1-1.475.11-.46.195-.946.33-1.423.482a1.153,1.153,0,0,1-.419.069,4.789,4.789,0,0,0-1.831.5L62.443.976c-.627.436-1.012,1.088-1.691,1.379a1.127,1.127,0,0,1-.98-.317c-.256-.247-.485-.521-.748-.806a1.773,1.773,0,0,0-.6.157c-.274.2-.336.621-.739.75-.125-.251-.236-.513-.383-.751-.082-.134-.237-.13-.374-.043a1.753,1.753,0,0,1,.046.38c-.022.242-.191.35-.448.386-.106-.385-.212-.779-.312-1.147a3.225,3.225,0,0,1-.658-.128A2.264,2.264,0,0,1,55.1.506a4.848,4.848,0,0,1-1.491.431c-.065-.031-.15-.045-.188-.094A1.649,1.649,0,0,0,51.883.29a1.355,1.355,0,0,0-.621.134c-.378.223-.853.138-1.2.422-.046.038-.052.124-.089.221L50.481,2.1a1.322,1.322,0,0,1-.843.8l-1.651-.032a2.182,2.182,0,0,0-.95.49c-.051.407.267.839-.091,1.23-.451.195-.905.4-1.366.586a.874.874,0,0,1-.961-.29c-.225-.253-.281-.674-.735-.728l-.552.943a7.82,7.82,0,0,1-1.029.117,24.924,24.924,0,0,0-3.855.023c-.045.006-.1-.082-.188-.155l.019-.994a.3.3,0,0,0-.389-.129,7.888,7.888,0,0,0-2.1,1.462,1.791,1.791,0,0,1-.523.359c-.148.073-.281-.012-.355-.167l.578-1.331L35.2,3.935c-.776.112-1.564.172-2.324.353-.55.131-1.094.309-1.64.467a3.489,3.489,0,0,0-.9.648c-1.125-.022-2.27-.042-3.417-.067-.368-.008-.735-.025-1.1-.035,0,.014.012.025.014.04a.331.331,0,0,1-.178.319,1.614,1.614,0,0,1-.2.055.706.706,0,0,1-.59-.363c-.009-.016-.014-.032-.021-.048-.381.009-.762.023-1.141.059-.495.045-.984.151-1.412.22-1.223-.466-1.221-.464-1.874.354a4.266,4.266,0,0,1-.357.345,1.954,1.954,0,0,1-1.194.027c-.128-.057-.293-.161-.4-.122a6.519,6.519,0,0,1-1.7.143,1.3,1.3,0,0,0-.591.22c-.229.163-.387.425-.506.443-1.329-.106-2.47-.223-3.614-.275A3.648,3.648,0,0,1,10.8,6.45a.278.278,0,0,0-.206-.011.69.69,0,0,0-.311.232c-.07.142.037.257.186.339.4.218.851.106,1.253.244a3.8,3.8,0,0,1,.742.4.458.458,0,0,1,.062.578,2.25,2.25,0,0,1-.479.415c-.557.288-1.13.544-1.7.815l.476.684a.841.841,0,0,0-.127.022c-.134.039-.331.047-.386.138-.311.526-.893.591-1.366.844l.271.319a.39.39,0,0,1-.174.645,3.3,3.3,0,0,1-.6,0c-.1.094-.106.314.017.324a12.687,12.687,0,0,1,2.308.751c-.069.093-.131.206-.222.236-.607.207-1.222.39-1.836.58.082.256.162.511.248.777-.031.262-.064.535-.1.807l.51.378c.534.071,1.014-.354,1.538.009l.7.909a3.8,3.8,0,0,0,1.341.27,1.308,1.308,0,0,1,.239.321c.059.169-.142.335-.4.4a1.5,1.5,0,0,1-1.238-.159c-.18-.117-.358-.237-.537-.356-.218.276-.218.276-.2.714.671.664.671.661,1.46.739a5.341,5.341,0,0,1,.619.1.182.182,0,0,1,.11.138.246.246,0,0,1-.12.169c-.2.084-.4.147-.627.227,0,.248.082.556-.252.68a2.331,2.331,0,0,0-1.009.779q-.174.218,0,.342c.339.071.692.124,1.028.229.1.032.161.209.244.325L12,22.784a1.181,1.181,0,0,0,.1.233,1.385,1.385,0,0,0,.275.319c.172.124.374.207.554.321a.317.317,0,0,1,0,.528c-.389.177-.78.351-1.174.518a.478.478,0,0,1-.544-.225,1.14,1.14,0,0,1-.14-.824,4.78,4.78,0,0,1,.252-.59c.205-.495,0-.821-.475-1.084l-.577.488c-.094.517.442.819.255,1.28-.353.361-.833.1-1.268.279l-.274.485a2.088,2.088,0,0,0,.514.973c.346-.094.443-.579.868-.554a2.192,2.192,0,0,1,.849.936c-.026.525-.585.574-.841.963l.589,1.128c-.02,1.031-.033,1.891-.055,2.751a1.425,1.425,0,0,1-.3.948c-.392.025-.478.726-1.072.737l-.554-.348-1.865.216c-.5.19-.628.872-1.21.895-.136-.034-.274-.079-.415-.1a.908.908,0,0,0-.929.408,2.292,2.292,0,0,0-.516,2.01A1.567,1.567,0,0,1,4,36.311a2.1,2.1,0,0,0,.088,1.266,2.5,2.5,0,0,1,.138.839c.022.646.034,1.294.012,1.941a6,6,0,0,0,.31,2.331.9.9,0,0,1-.6,1.208,7.129,7.129,0,0,1-1.013.334,1.179,1.179,0,0,0-.884.823,4.18,4.18,0,0,0-.284,2.918l.609.634c-.05.371-.078.726-.157,1.069-.025.108-.185.185-.283.277l-.616-.1c-.135.386-.114.422.021.562.244.252.705.187.845.621-.043.178-.092.383-.146.605l.479.407c.1.751.1.75.824,1.321.026.02-.007.115-.014.183l-.929.781a2.464,2.464,0,0,0,.06.272c.189.511.743.657,1.048,1.05.108.336.376.621.307,1.06-.235.3-.482.647-.767.962a.836.836,0,0,1-.771.286c-.141-.023-.278-.07-.419-.1-.444-.08-.609.1-.525.6a2.021,2.021,0,0,0,.159.4,5.566,5.566,0,0,1,.586.188A.646.646,0,0,1,2.435,60.1a5.217,5.217,0,0,0-.488,1.183c-.115.344.033.693-.134,1.045A4.065,4.065,0,0,0,1.5,63.57c-.058.49-.03.991-.04,1.506l-.6.532c-.03.84-.027.84.5,1.32.157.142.3.3.441.441.061.231.114.439.171.645.074.272.15.544.182.659.548.762,1.365.789,1.923,1.274.077.185.236.386.227.579-.027.583.229,1.118.232,1.689,0,.284.183.537.106.84a3.245,3.245,0,0,0,.16,1.691,3.3,3.3,0,0,1,.047.636c-.376.352-.75.68-1.1,1.036a.246.246,0,0,0,.057.373c.3.181.618.335.9.486a2.46,2.46,0,0,1,.48,1.66,4.018,4.018,0,0,1-2.137,2.633c-.123.5-.273,1.049-.395,1.608a3.581,3.581,0,0,0,.585,3.07q-.14.4-.279.811l-1.135,1.1a3.962,3.962,0,0,0-.316,1.814,4.39,4.39,0,0,1-.286,1.908A9.1,9.1,0,0,0,.713,94.8,9.893,9.893,0,0,1,.482,96.29a8.2,8.2,0,0,0-.059,4.044,12.2,12.2,0,0,0-.416,3.219c.373.829.752,1.677,1.123,2.5l.8.565c.712.014,1.285.026,1.857.035a1.556,1.556,0,0,1,1.147.5c.146.155.272.329.42.512.108.479.23.967.323,1.46a2.785,2.785,0,0,1,.023.643,5.511,5.511,0,0,1-.187,1.262,1.458,1.458,0,0,0,.148.826,4.892,4.892,0,0,0,.432.735,3.191,3.191,0,0,0-.171.825,5.978,5.978,0,0,0,.233,1.03,2.066,2.066,0,0,1,.693,1.055,2.468,2.468,0,0,0,.938,1.642,3.241,3.241,0,0,1,.528.713c.026.71.054,1.425.077,2.141a2.8,2.8,0,0,0,.456,1.364c-.608.412-.528,1.154-.823,1.716-.059.111-.013.278-.017.478l.343.685c.1.035.168.06.233.078.43.117.467.2.223.543-.083.116-.177.223-.249.314a12.061,12.061,0,0,0-.015,1.3,5.077,5.077,0,0,1-.176,1.274.424.424,0,0,0,.057.2,2.04,2.04,0,0,1-.128,1.862,1.573,1.573,0,0,0,.047,1.439,4.94,4.94,0,0,0-.91,2.188l1.26.847-.332.494c-.3-.092-.566-.185-.837-.249a1.2,1.2,0,0,0-.426,0,.223.223,0,0,0-.155.137.687.687,0,0,0,0,.375c.1.214.329.262.53.331.182.063.245.142.2.229l-.5.517a2.733,2.733,0,0,0,1.252,1.413,1.577,1.577,0,0,0,1.43.192c.046-.138.091-.274.136-.412a1.45,1.45,0,0,1,1.244-.049,1.6,1.6,0,0,1,.983.783,3.031,3.031,0,0,0,1.383,1.312c.377.2.789.335,1.178.514a2,2,0,0,1,.335.249c.2.281.146.732.588.835a3.7,3.7,0,0,1,2.3-.117c.209.048.408.146.618.187a10.849,10.849,0,0,0,2.113.351,3.8,3.8,0,0,1,2.6.8,1.827,1.827,0,0,0,1,.355,7.746,7.746,0,0,0,.858.042,13.009,13.009,0,0,1,3.408.084,2.136,2.136,0,0,0,1.046-.157,3.841,3.841,0,0,1,1.262-.226,6.863,6.863,0,0,0,1.7-.206,9.891,9.891,0,0,0,2.7-.614,1.8,1.8,0,0,1,.637-.066l1.372-.121c.258.066.6.16.951.241a3.059,3.059,0,0,0,2.284-.324,1.107,1.107,0,0,1,.417-.047l.854.261a10.807,10.807,0,0,1,3.2-1.894,29.249,29.249,0,0,0,4.962-.224l1.482.293,1.233-.69,2.549-.057a4.672,4.672,0,0,1,1.219-.366c.726-.016,1.409-.227,2.115-.311.118-.014.252.1.379.153l.068.427a1.113,1.113,0,0,0,.378.163,9.5,9.5,0,0,0,3.618-.219,2.456,2.456,0,0,1,.638-.075c.639-.059,1.279-.115,1.937-.174l1.275.531c.578-.012,1.03-.47,1.519-.1l.166.563.841.321.817.925a1.344,1.344,0,0,0,1.6-.34l.118-.619a3.581,3.581,0,0,1,2.7-.434.257.257,0,0,1,.206.312l-.453.89a.7.7,0,0,0,.462.722c.933.357,1.881.677,2.823,1.01.373.2.433.773,1.067.831a5.618,5.618,0,0,1,2.212-.277,1.2,1.2,0,0,0,.633-.073c.8-.411,1.709-.127,2.521-.445a.664.664,0,0,1,.417,0,3.6,3.6,0,0,0,2.341-.14l.608,1.109a1.8,1.8,0,0,0,.225.081c.461.093.792-.3,1.453-.347a7.819,7.819,0,0,1,2.947.354,1.908,1.908,0,0,0,.847.072c.282-.02.559-.168.837-.166.346,0,.683.239,1.147-.02l1.41-1.23c.9-.261,1.663-.46,2.406-.711.249-.084.387-.41.706-.413l.418.876c.524.257.911-.082,1.331-.08.521.166,1.036.448,1.585.082l-.22-.353c.092-.251.321-.243.5-.193l.043.014c-.091-.19-.154-.329-.222-.459a1.477,1.477,0,0,1-.11-.921.317.317,0,0,1,.179-.242c.093-.048.187-.1.284-.135a1.1,1.1,0,0,1,1.459,1.264.357.357,0,0,1-.06.143.949.949,0,0,1-.785.45,5.191,5.191,0,0,1-.587-.052c.413.124.822.262,1.221.424.034.014.068.025.1.038a.834.834,0,0,1,.168-.487.653.653,0,0,1,.5-.267,1.253,1.253,0,0,1,1.144.676.369.369,0,0,1,.042.144,2.2,2.2,0,0,0,.312-.163,1.4,1.4,0,0,1,.625-.125,2.331,2.331,0,0,0,1.507-.748c.3-.3.584-.629.875-.945l.534.344c.856-.143,1.54-.745,2.381-.943.624-.148,1.294.1,1.934-.239l.37-.785c.139.161.258.309.389.447a1.258,1.258,0,0,0,1.731.245c.185-.1.353-.24.572-.392a6.065,6.065,0,0,0,3.028-.843c.1-.076.277-.055.417-.082l1.492-.284c.286.163.592.341.9.508a.221.221,0,0,0,.129.013,4.021,4.021,0,0,0,.884-.253c.339-.192.707.058,1-.109.419-.334.689-.8,1.257-.919l1.083.209a5.947,5.947,0,0,0,.764-.209c.589-.238,1.166-.506,1.789-.781.282.332.552.654.828.97a.42.42,0,0,0,.577-.009c.213-.171.314-.491.7-.489l.622.145,1.206-.86c.611-.011,1.3.252,1.738-.452a3.723,3.723,0,0,1,.086-2.119l.665-.872c-.1-.742-.217-1.509-.3-2.279-.009-.089.166-.293.227-.282.515.092.791-.217,1.069-.564a3.446,3.446,0,0,0,.609-1.587.462.462,0,0,0-.4-.441,1.377,1.377,0,0,1-.827-.155,3.972,3.972,0,0,1-.424-.389c.153-.39.284-.723.415-1.058A2.3,2.3,0,0,0,137,124.9c-.124-.17-.27-.323-.428-.508a12.626,12.626,0,0,0-.443-3.174c-.057-.206-.067-.426-.123-.633A7.569,7.569,0,0,1,136,117.6c.3-.389.042-.829.13-1.228.093-.494.846-.586.706-1.249l-1.18-.414a3.318,3.318,0,0,1-.318-2.25l.4-.756-.433-.852a3.588,3.588,0,0,0,1.113-1.574,2.587,2.587,0,0,1,.609-.856,1.025,1.025,0,0,0,.108-1.353l-.5.412-.355-1.015c.167-.16.314-.309.471-.448s.324-.266.46-.376a5.147,5.147,0,0,0,.153-1.967c-.045-.428-.113-.853-.171-1.279s.3-.816.086-1.257c-.066-.137.031-.243.2-.241a.231.231,0,0,1,.17.1c.169.31.324.627.462.9a1.339,1.339,0,0,0,1.293-.171c.454-.339.879-.719,1.3-1.1a1.182,1.182,0,0,0,.193-.354l.046-2.389-.6-1.332M11.572,10.446a.243.243,0,0,1-.077.361.2.2,0,0,1-.172-.014.843.843,0,0,1-.411-.6.671.671,0,0,1,.66.256m.826,3.165c-.047.153-.169.229-.3.168-.415-.192-.824-.4-1.234-.6a4.045,4.045,0,0,1,.171-.548.281.281,0,0,1,.49-.078,2.044,2.044,0,0,0,.83.88.2.2,0,0,1,.045.18m-.826,4.8a.182.182,0,0,1-.093-.2.169.169,0,0,1,.234-.127c.054.035.077.117.1.157-.028.139-.153.212-.243.166M4.684,38.726a.366.366,0,0,1-.263-.254.454.454,0,0,1,.261-.509,2.024,2.024,0,0,1,.378-.066.172.172,0,0,1,.177.12.877.877,0,0,1,.046.2.568.568,0,0,1-.6.509M2.5,93.271a.454.454,0,0,1-.516-.265,2.137,2.137,0,0,1,.132-1.242c.172-.389.347-.776.522-1.163.085-.187.226-.176.465.03l-.219.646c.064.458.133.949.2,1.439a.774.774,0,0,1-.587.555M8.5,60.489a.226.226,0,0,1-.148-.315c.065-.16.186-.175.331-.082.161.1.328.2.5.3-.221.267-.455.186-.685.1m5.228-40.21c-.006,0-.023-.037-.035-.056.014-.019.035-.055.04-.052a.9.9,0,0,1,.115.06.921.921,0,0,1-.12.049M14.607,8.4a.529.529,0,0,1-.851.108c-.111-.111-.138-.258-.037-.347.142-.125.321-.3.474-.293s.311.213.451.321c-.016.1-.007.169-.038.212m.64,10.331a.258.258,0,0,1-.264-.3.227.227,0,0,1,.184-.208.281.281,0,0,1,.308.263.218.218,0,0,1-.228.242m2.72-.094a.368.368,0,1,1,.061.728.409.409,0,0,1-.383-.333.416.416,0,0,1,.322-.395m.781,16.527a.876.876,0,0,1-.6.131,2.59,2.59,0,0,1-.371-.061.644.644,0,0,1-.408-.335.379.379,0,0,1,.2-.512,1.243,1.243,0,0,1,1.227.288.368.368,0,0,1-.046.49m1.828-6.345c-.066-.037-.124-.05-.148-.086-.054-.078-.021-.152.072-.161.043,0,.129.034.128.051a.821.821,0,0,1-.052.2m.8-8.835a.518.518,0,0,1-.576.141.619.619,0,0,1-.319-.22.446.446,0,0,1,.058-.637,1.026,1.026,0,0,1,.324-.108,2.612,2.612,0,0,1,.28.033.359.359,0,0,1,.243.186.591.591,0,0,1-.01.6M23.022,6.795a.263.263,0,0,1-.337-.176c.021-.064.025-.147.069-.189.108-.106.235-.08.342.062a.294.294,0,0,1,.079.187c-.01.048-.093.1-.153.116m2.679.191c-.191.242-.354.259-.447.055-.062-.137-.064-.247.039-.336.044-.038.117-.1.151-.085a1.242,1.242,0,0,1,.316.189c.016.014-.038.115-.059.177m7.341-1.823a.453.453,0,0,1,.18.34c0,.094-.14.195-.236.269a.34.34,0,0,1-.2.021,2.532,2.532,0,0,1-.412-.044,3.3,3.3,0,0,1-.388-.138c.324-.616.6-.741,1.059-.448m-.591,5.522c-.023.038-.037.1-.07.111a.2.2,0,0,1-.252-.089.156.156,0,0,1,.052-.192.211.211,0,0,1,.271.17M28.713,7.149a.375.375,0,0,1,.192-.1c.039-.008.088.038.133.06a.088.088,0,0,1,.048.128.17.17,0,0,1-.225.136c-.087-.022-.194-.175-.148-.225m-1.613-.9a.657.657,0,0,1-.054-.183.228.228,0,0,1,.234-.2.471.471,0,0,1,.375.239.28.28,0,0,1,.021.217.245.245,0,0,1-.178.114.4.4,0,0,1-.4-.187m.3,31.593c-.074.151-.211.218-.337.114a.437.437,0,0,1-.138-.349c.015-.087.176-.148.272-.221a.319.319,0,0,1,.2.456m2.522,2.19a1.629,1.629,0,0,1-1.018.6c-.173-.106-.329-.15-.393-.252a.585.585,0,0,1,.194-.736,1.261,1.261,0,0,1,1.011-.108c.061.017.111.084.16.134a.272.272,0,0,1,.046.366m.457-2.094c-.435.346-.892.663-1.346.983-.053.038-.134.033-.2.056a.638.638,0,0,1-.694-.334,5.478,5.478,0,0,1-.147-1.879,3.484,3.484,0,0,1,.434-.469.437.437,0,0,1,.378-.07,9.938,9.938,0,0,1,1.579,1.349.376.376,0,0,1-.005.365m.891-1.622a.889.889,0,0,1-.806-.359,3.157,3.157,0,0,1-.267-.571.888.888,0,0,0-.969-.634c-.277.021-.558-.006-.829-.012l-.271-.328c.192-.558.467-.755.867-.556a3.179,3.179,0,0,0,1.392.389,3.177,3.177,0,0,1,2.082.912c.045.041.046.131.082.243l-1.28.915m2.148-7.486A.88.88,0,0,1,32.2,28.12a.488.488,0,0,1,.359-.462c.1-.018.207-.023.252-.028a.84.84,0,0,1,.85.746.455.455,0,0,1-.241.457M34.891,8.811a.182.182,0,0,1-.181.123c-.413-.058-.825-.116-1.235-.193a1.331,1.331,0,0,1-.615-.335,1.1,1.1,0,0,1-.235-.31c-.156-.293.043-.6.461-.6a1.412,1.412,0,0,1,.374.088,4.16,4.16,0,0,1,.673.4c.251.186.482.4.717.61a.171.171,0,0,1,.042.212M47.371,6.49a.258.258,0,0,1-.1-.157A.3.3,0,0,1,47.486,6a.6.6,0,0,1,.744.176c.042.045.036.134.052.2a.66.66,0,0,1-.91.113m9.721-2.606a.292.292,0,0,1-.3-.415c.227-.51.583-.557.964-.121a.614.614,0,0,1,.072.2c-.167.286-.453.311-.736.338m1.239,1.529a.86.86,0,0,1-.2.033c-.254,0-.484-.127-.442-.244a.224.224,0,0,1,.149-.124,1.661,1.661,0,0,1,.389.006.356.356,0,0,1,.172.082c.04.032.1.113.084.129a.368.368,0,0,1-.156.119m6.927,78.673a1.007,1.007,0,0,1-.243.342c-.363.334-.737.656-1.1.972-.605-.206-.6-.214-.477-.935a4.143,4.143,0,0,1,1.341-.992c.162-.06.536.061.542.205a.985.985,0,0,1-.067.408m14-44.646a1.531,1.531,0,0,1-.308.255c-.047-.127-.155-.27-.127-.376a2.137,2.137,0,0,1,.276-.492.748.748,0,0,1,.232.066.207.207,0,0,1,.081.161,1.129,1.129,0,0,1-.154.387m.8,101.345a.317.317,0,0,1-.294-.048.389.389,0,0,1-.121-.352.213.213,0,0,1,.224-.17.356.356,0,0,1,.307.3.284.284,0,0,1-.116.267m7.042-6.362a.377.377,0,0,1-.373-.4.443.443,0,0,1,.446-.345.407.407,0,0,1,.328.371.372.372,0,0,1-.4.373m8.465-4.072c-.026.013-.1-.025-.12-.059-.045-.068,0-.185.062-.181a.988.988,0,0,1,.234.082.885.885,0,0,1-.176.158m3.1-95.317a.539.539,0,0,1-.108-.584c.075-.119.185-.214.265-.329a.612.612,0,0,0,.052-.2l-.335-1c.317-.511.765-.169,1.089-.252a.874.874,0,0,1,.34.812,2.426,2.426,0,0,1-.74,1.508.425.425,0,0,1-.564.041m-.537,103.329a.289.289,0,0,1,.055-.576.269.269,0,0,1,.252.312.285.285,0,0,1-.307.263m1.3.345a.323.323,0,0,1,.284-.313.328.328,0,0,1,.351.329.277.277,0,0,1-.242.258.33.33,0,0,1-.394-.275m.447,2.031a.408.408,0,0,1-.045-.814.478.478,0,0,1,.453.451.352.352,0,0,1-.409.362m.306-2.788c-.14,0-.28-.122-.258-.227a.294.294,0,0,1,.292-.209.253.253,0,0,1,.213.2.238.238,0,0,1-.246.24m1.44,3.674a.5.5,0,0,1-.542-.528.4.4,0,0,1,.288-.328.369.369,0,0,1,.365.07.6.6,0,0,1,.2.325.388.388,0,0,1-.316.46m.579-2.68a.294.294,0,0,1-.284-.216.291.291,0,0,1,.218-.35.354.354,0,0,1,.342.256.3.3,0,0,1-.276.311m.535-10.614a.806.806,0,0,1-.131-.123.109.109,0,0,1,.094-.161.183.183,0,0,1,.219.165c.016.079-.058.145-.182.119m.822-1.855a.317.317,0,0,1-.238-.508.2.2,0,0,1,.2-.086.376.376,0,0,1,.317.376.3.3,0,0,1-.279.218m.31,6.013c-.015-.021-.045-.049-.04-.063a.079.079,0,0,1,.126-.044.252.252,0,0,1,.05.057l-.136.05m1.431-.709a.179.179,0,0,1-.186-.179c0-.075.087-.146.154-.113a.4.4,0,0,1,.153.144c.034.055-.05.148-.121.148m.835-2.636a.316.316,0,0,1-.328-.27.254.254,0,0,1,.26-.238.3.3,0,0,1,.287.221.287.287,0,0,1-.218.286m3.644.443a1.421,1.421,0,0,1-.267.287.687.687,0,0,0-.313.513.427.427,0,0,1-.437.3.544.544,0,0,1-.385-.213.335.335,0,0,1,.136-.521,1.58,1.58,0,0,1,.23-.045.183.183,0,0,0,.166-.138.858.858,0,0,1,.5-.578.333.333,0,0,1,.412.255.236.236,0,0,1-.037.145m-.1-1.011a.31.31,0,0,1-.272-.391.276.276,0,0,1,.313-.171.29.29,0,0,1,.24.34.284.284,0,0,1-.28.222m1.833-.078c-.032-.032-.084-.059-.092-.1-.017-.078.1-.167.15-.119a.176.176,0,0,1,.047.137c-.006.031-.068.052-.1.078m2.174,1.321a.961.961,0,0,1-.134.193c-.073-.059-.145-.092-.174-.148-.045-.09.052-.186.175-.19.085,0,.161.068.133.145m3.994,1.542c-.072.03-.178-.038-.166-.1a.1.1,0,0,1,.048-.059c.088-.044.174-.019.193.05-.024.036-.042.09-.075.1M120.3,8.319a1.448,1.448,0,0,1-1.425-.6,1.5,1.5,0,0,1,1.343-.009.733.733,0,0,1,.26.316c.073.132,0,.258-.178.3m-1.325,113.7a.239.239,0,0,1-.215-.26.262.262,0,0,1,.27-.214.239.239,0,0,1,.213.261.248.248,0,0,1-.269.213m1.393,7.084c0-.01.039-.034.062-.038a1.052,1.052,0,0,1,.221-.021c.082,0,.154.1.118.157a.9.9,0,0,1-.145.15,1.075,1.075,0,0,1-.211-.11c-.032-.027-.037-.089-.044-.137m.178,5.084a.167.167,0,0,1-.152-.149.172.172,0,0,1,.16-.213.225.225,0,0,1,.206.188.211.211,0,0,1-.214.175m1.764,1.7-.124-.066a.248.248,0,0,1,.059-.047.1.1,0,0,1,.074,0,.08.08,0,0,1,.041.059c0,.019-.031.037-.049.055m2.447-126.1c-.215.015-.35-.166-.419-.365a.287.287,0,0,1,.14-.354c.179-.118.383-.188.547-.033a2.4,2.4,0,0,1,.321.524,2.271,2.271,0,0,1-.589.229m-1.641,125.633L123,135.35a.256.256,0,0,1,.057-.046.075.075,0,0,1,.115.057c0,.014-.031.035-.048.053m1.217,1.474a.279.279,0,0,1-.212-.279.256.256,0,0,1,.262-.229.256.256,0,1,1-.049.509m1.105-15.587a.208.208,0,0,1-.187-.212.2.2,0,0,1,.157-.157.207.207,0,0,1,.225.171.2.2,0,0,1-.195.2m5.539,4.862a.324.324,0,0,1,.108-.167.246.246,0,0,1,.349.014,1.589,1.589,0,0,1,.662,1.226.414.414,0,0,1-.456.406,1.53,1.53,0,0,1-.4-.3,1.55,1.55,0,0,1-.26-1.178m-.047,4.593a.417.417,0,0,1-.5-.474,2.916,2.916,0,0,1,.068-.408,1.777,1.777,0,0,1,1.069-.9,1.826,1.826,0,0,1,.487.9,1.735,1.735,0,0,1,.07.613,2.371,2.371,0,0,1-.167.522l-.478-.361c-.162.033-.354.081-.549.11m1.41,1.989a.55.55,0,0,1-.549.181.458.458,0,0,1-.323-.392.269.269,0,0,1,.089-.2.525.525,0,0,1,.81.266.388.388,0,0,1,.012.076.487.487,0,0,1-.038.067m2.7,1.063a.24.24,0,0,1-.27.2.2.2,0,0,1,.078-.4.2.2,0,0,1,.192.195" transform="translate(0 0)" fill="#ed1c24"/>
    <path id="パス_5339" data-name="パス 5339" d="M57.449,88.418a3.417,3.417,0,0,0,.625.943,2.906,2.906,0,0,1,.593,1.151,10.894,10.894,0,0,1,.3,1.763,7.038,7.038,0,0,1,.05.959c-.009.416.057.825.053,1.238,0,.138-.007.276,0,.412a1.4,1.4,0,0,1-.243.915.9.9,0,0,0-.137.722,1.246,1.246,0,0,1-.1.67,4.321,4.321,0,0,1-.352.894.326.326,0,0,0-.061.123,6.543,6.543,0,0,1-.442,1.227,2.488,2.488,0,0,1-.429.781,10.742,10.742,0,0,0-.814,1.111.449.449,0,0,1-.138.15,1.931,1.931,0,0,1-1.215.418c-.415-.039-.824.04-1.236.028a2.186,2.186,0,0,0-.68.095c-.309.089-.621.166-.93.256a2.261,2.261,0,0,0-.925.579c-.249.238-.5.471-.755.705a.631.631,0,0,1-.507.171,2.67,2.67,0,0,0-.957.06,8.138,8.138,0,0,0-.946.4.7.7,0,0,0-.407.532,3.509,3.509,0,0,1-.643,1.581.43.43,0,0,0-.076.26,7.254,7.254,0,0,0,0,1.032,1.132,1.132,0,0,1-.02.479c-.041.179-.078.359-.115.54a5.835,5.835,0,0,0-.16,1.5,1.842,1.842,0,0,1-.123.812,4.484,4.484,0,0,0-.2,1.083,1.2,1.2,0,0,0,.04.339,4.021,4.021,0,0,1,.1,1.024,1.137,1.137,0,0,0,.069.4,4.143,4.143,0,0,1,.22,1.147,1.831,1.831,0,0,0,.133.531,4.054,4.054,0,0,0,.19.516,3.294,3.294,0,0,1,.267.993,6.071,6.071,0,0,0,.175.736,2.162,2.162,0,0,1,.13.743.492.492,0,0,0,.052.267,4.157,4.157,0,0,1,.3,1.337,4.041,4.041,0,0,0,.2.935.517.517,0,0,1,.014.335,3.335,3.335,0,0,0-.084,1.232,4.776,4.776,0,0,1-.3,1.893,5.9,5.9,0,0,0-.322,1.337,2.014,2.014,0,0,1-.151.523c-.14.363-.235.745-.342,1.12-.089.309-.17.62-.25.931-.045.178-.082.358-.121.537a2.836,2.836,0,0,1-.071.337A8.579,8.579,0,0,0,46.4,130.5a6.849,6.849,0,0,0-.207,1.151.889.889,0,0,1-.035.2q-.364,1.4-.729,2.8a2.052,2.052,0,0,0-.078.4,8.141,8.141,0,0,1-.192,1.225c-.07.338-.127.678-.2,1.015a3.034,3.034,0,0,0-.049.681c0,.481-.038.963-.07,1.444-.021.32-.059.64-.087.959-.01.114-.009.23-.027.342a.856.856,0,0,1-.566.721c-.151.056-.3.123-.449.176a6.681,6.681,0,0,1-.85.272c-.291.058-.6.038-.892.082-.206.03-.41.021-.612.036a5.966,5.966,0,0,1-.615-.023,2.472,2.472,0,0,1-.944-.151c-.4.017-.756-.191-1.152-.176a.24.24,0,0,1-.068-.007,3.549,3.549,0,0,0-.651-.217,2.331,2.331,0,0,1-.605-.113c-.414-.131-.844-.21-1.262-.33-.308-.089-.611-.2-.91-.319a1.89,1.89,0,0,1-.687-.451,3.122,3.122,0,0,0-.412-.366.857.857,0,0,1-.306-.8.994.994,0,0,1,.062-.268c.126-.393.255-.785.342-1.189a.424.424,0,0,1,.291-.353c.053-.017.1-.095.123-.155a.611.611,0,0,0,.059-.267.994.994,0,0,1,.11-.6.269.269,0,0,0,.037-.2,1.289,1.289,0,0,1,.052-.806,1.462,1.462,0,0,0,.049-.269,7.181,7.181,0,0,1,.31-1.753,1.354,1.354,0,0,0,.1-.539.634.634,0,0,1,.023-.2,3.729,3.729,0,0,0,.194-.792,3.755,3.755,0,0,1,.148-.742c.057-.27.112-.54.168-.81a.4.4,0,0,1,.014-.067,8.672,8.672,0,0,0,.357-1.886,1.023,1.023,0,0,1,.036-.2c.274-.735.356-1.52.6-2.265.321-.984.6-1.982.879-2.979.272-.974.543-1.95.723-2.947.033-.181.072-.362.091-.544a2.533,2.533,0,0,1,.307-1.121.52.52,0,0,0,.059-.4.665.665,0,0,1,.074-.532,1.891,1.891,0,0,0,.246-.777c.042-.317.145-.626.218-.939a5.591,5.591,0,0,0,.155-.741,4.305,4.305,0,0,1,.178-.875,6.557,6.557,0,0,0,.32-1.55,2.259,2.259,0,0,1,.166-.807,1.349,1.349,0,0,0,.089-.333,7.153,7.153,0,0,1,.288-1.133c.211-.635.287-1.3.443-1.948a7.511,7.511,0,0,0,.258-1.837,3.149,3.149,0,0,1,.062-.409c.038-.3.089-.593.1-.891.025-.573.114-1.142.1-1.719a3.443,3.443,0,0,0-.114-.879.422.422,0,0,1,.4-.042c.223.054.438.138.659.2a.555.555,0,0,0,.2-.012.116.116,0,0,0,.062-.164,1.042,1.042,0,0,0-.131-.156,1.033,1.033,0,0,1-.258-.319c-.188-.368-.389-.729-.572-1.1a1.846,1.846,0,0,0-.736-.795,4.371,4.371,0,0,1-.73-.518,1.864,1.864,0,0,0-.732-.376,7.678,7.678,0,0,1-1.509-.671,1.277,1.277,0,0,0-.434-.2c-.306-.033-.453-.3-.707-.41a.393.393,0,0,1-.18-.2,1.8,1.8,0,0,0-.558-.688,1.037,1.037,0,0,1-.1-.1.486.486,0,0,1-.063-.684.8.8,0,0,0,.108-.317,6.142,6.142,0,0,1,.121-.743.666.666,0,0,1,.133-.234c.063-.084.162-.068.254-.07.045,0,.091-.011.159-.02.146-.214.3-.446.456-.668a13.239,13.239,0,0,1,.8-1.122,2.937,2.937,0,0,0,.26-.406,1.049,1.049,0,0,0,.172-.516,4.977,4.977,0,0,1,.061-.547,1.062,1.062,0,0,1,.091-.255.233.233,0,0,1,.237-.093.851.851,0,0,1,.5.447.672.672,0,0,0,.341.4c.1.053.157.167.244.242a.449.449,0,0,1,.164.6.235.235,0,0,0,.087.307,2.62,2.62,0,0,1,.495.474c.255.265.514.527.781.78a8.183,8.183,0,0,1,1.433,1.666c.047.078.108.149.159.225a.88.88,0,0,0,.741.42,3.972,3.972,0,0,1,.87.2.843.843,0,0,1,.295.174c.3.251.6.5.88.773a6.3,6.3,0,0,1,.422.543.464.464,0,0,0,.209.171,8.714,8.714,0,0,1,1.027.4.8.8,0,0,0,.536.014,9.741,9.741,0,0,0,1.756-.786,1.147,1.147,0,0,1,.511-.17.772.772,0,0,0,.379-.146A3.689,3.689,0,0,0,51.9,96.572a2.667,2.667,0,0,0,.227-.791.225.225,0,0,0-.188-.246c-.64-.059-1.281-.12-1.922-.173a5.1,5.1,0,0,0-.96-.085.2.2,0,0,1-.2-.153.656.656,0,0,0-.412-.34.188.188,0,0,0-.267.12c-.019.042-.018.1-.047.128-.045.047-.112.115-.161.108a3.714,3.714,0,0,1-.6-.13.439.439,0,0,1-.285-.282.133.133,0,0,1,.035-.121,2.181,2.181,0,0,0,.378-.152,1.53,1.53,0,0,1,.968-.273A1.038,1.038,0,0,0,49.042,94c.153-.1.326-.168.489-.252a3.379,3.379,0,0,0,.834-.481.652.652,0,0,1,.242-.123,1.788,1.788,0,0,1,1.215-.04.32.32,0,0,0,.372-.11,4.877,4.877,0,0,1,1.373-1.022,1.959,1.959,0,0,1,.454-.157.163.163,0,0,1,.129.011c.159.123.361.021.529.115a6.468,6.468,0,0,1,.73.375,2.228,2.228,0,0,0,.692.289.177.177,0,0,0,.16-.1c0-.022.016-.045.013-.066-.079-.592-.054-1.191-.1-1.785a4.786,4.786,0,0,0-.334-1.261c-.028-.078-.111-.136-.176-.211-.183.083-.347.166-.516.232-.15.059-.313.085-.458.152a4.448,4.448,0,0,1-1.074.22.73.73,0,0,1-.47-.078,1.158,1.158,0,0,0-.865-.039,11.512,11.512,0,0,1-1.156.185c-.25.035-.5.059-.753.081a1.181,1.181,0,0,0-.455.149.446.446,0,0,0-.227.248c-.067.195-.128.392-.193.595a3.119,3.119,0,0,1-1.62.185,1.733,1.733,0,0,0-.274-.016c-.069,0-.138.019-.206.019a2.659,2.659,0,0,1-.344-.021c-.523-.075-1.054-.037-1.576-.118a6.3,6.3,0,0,1-.743-.153c-.309-.087-.612-.2-.915-.3a9.037,9.037,0,0,1-1.724-.694.781.781,0,0,0-.251-.113,2.24,2.24,0,0,1-.783-.417.446.446,0,0,1-.156-.134,6.332,6.332,0,0,0-.793-.858,2.986,2.986,0,0,0-.25-.233.982.982,0,0,1-.185-.2,4.293,4.293,0,0,1-.31-.614c-.159-.43-.3-.868-.435-1.3a.438.438,0,0,1-.007-.2,3.871,3.871,0,0,1,.123-.537,1.346,1.346,0,0,1,.2-.358,5.608,5.608,0,0,1,.4-.476.992.992,0,0,0,.27-.549,4.929,4.929,0,0,1,.35-1.111c.025-.063.081-.125.08-.187a.548.548,0,0,1,.4-.572.627.627,0,0,0,.4-.519c.009-.067.044-.131.059-.2a.308.308,0,0,1,.351-.254.285.285,0,0,0,.324-.282.3.3,0,0,1,.134-.229c.166-.123.335-.241.505-.358.15-.1.3-.2.459-.31a1.449,1.449,0,0,0-.055-.207c-.075-.168-.174-.326-.232-.5a1.16,1.16,0,0,0-.319-.521,2.322,2.322,0,0,1-.472-2.313,3.017,3.017,0,0,1,.141-.388c.167-.3.068-.633.145-.945a.433.433,0,0,0-.1-.32,2.223,2.223,0,0,1-.37-1.233c-.016-.137-.032-.274-.044-.411a.383.383,0,0,1,.085-.322.8.8,0,0,0,.2-.431,5.046,5.046,0,0,1,.327-1.123A6.5,6.5,0,0,1,44.09,68.7a3.487,3.487,0,0,0,.738-.72c.112-.163.317-.183.435-.326a.933.933,0,0,1,.567-.363.263.263,0,0,0,.2-.17.372.372,0,0,1,.245-.218,1.454,1.454,0,0,1,.673-.088.3.3,0,0,0,.338-.274c.03-.251.058-.5.064-.754a.586.586,0,0,0-.328-.557,3.541,3.541,0,0,1-1.572-1.4,4.365,4.365,0,0,1-.639-1.287,1.54,1.54,0,0,1,.012-1.013,11.349,11.349,0,0,1,.493-1.43,3.879,3.879,0,0,0,.143-.388,1.431,1.431,0,0,0,.07-.876,7.079,7.079,0,0,1-.07-2.129.594.594,0,0,1,.145-.379c.063-.067.129-.15.228-.13.273.058.481-.123.72-.186.078-.02.146-.108.2-.179.316-.4.633-.789.937-1.194A1.719,1.719,0,0,1,48.481,54a2.445,2.445,0,0,0,.84-.592,2.117,2.117,0,0,1,.561-.389,17.607,17.607,0,0,0,2.011-1.193.382.382,0,0,1,.389-.037c.106.046.214.12.325.069a2.968,2.968,0,0,0,.408-.25.265.265,0,0,0,.038-.258,1.333,1.333,0,0,0-.119-.167q-.48-.54-.962-1.078c-.03-.034-.075-.071-.077-.11-.017-.262-.244-.377-.381-.552a4.558,4.558,0,0,1-.4-.55,10.65,10.65,0,0,0-.629-.983c-.217-.3-.335-.652-.55-.952a3.276,3.276,0,0,1-.232-.5,1,1,0,0,0-.167-.3,1.343,1.343,0,0,1-.307-.532,4.47,4.47,0,0,1-.329-2.021c.011-.113-.01-.229,0-.342a3,3,0,0,1,.052-.614,5.448,5.448,0,0,0,.194-1.221.5.5,0,0,1,.241-.467.145.145,0,0,0,.054-.042,9.422,9.422,0,0,1,1.634-1.566,3.494,3.494,0,0,1,.688-.455c.731-.39,1.475-.747,2.23-1.087.674-.3,1.376-.519,2.068-.764a2.337,2.337,0,0,0,1.025-.669c.106-.122.223-.234.318-.363a3.476,3.476,0,0,1,.774-.68.539.539,0,0,1,.393-.1,2.411,2.411,0,0,1,.341.051,3.541,3.541,0,0,0,1.02.084,4.277,4.277,0,0,1,1.161.128,2.845,2.845,0,0,0,1.448-.008,1.538,1.538,0,0,0,.4-.521.828.828,0,0,0,.121-.319,4.42,4.42,0,0,1,.392-1.379.669.669,0,0,0,.06-.334,1.9,1.9,0,0,1,.174-.871,4.693,4.693,0,0,0,.314-1.2,2.185,2.185,0,0,1,.321-.973.676.676,0,0,0,.111-.393,2.429,2.429,0,0,1,.167-.736c.047-.153.09-.308.125-.464.052-.227.1-.275.312-.27a1.067,1.067,0,0,1,.206.009c.269.059.536.125.8.188a.316.316,0,0,1,.223.309,1.234,1.234,0,0,1-.02.136c-.243,1.053-.454,2.114-.768,3.15a1.947,1.947,0,0,0-.067.267c-.127.817-.253,1.634-.373,2.453-.042.293-.064.59-.1.9a1.017,1.017,0,0,0,.2.07,5.217,5.217,0,0,0,1.307-.019.281.281,0,0,1,.239.107c.164.16.181.412.385.561a2.234,2.234,0,0,1,.389.478c.04.053.1.117.1.175a.777.777,0,0,0,.279.531,7.28,7.28,0,0,1,.628.983.522.522,0,0,1,.062.262.853.853,0,0,0,.475.782,1.691,1.691,0,0,1,.63.522.9.9,0,0,0,.262.22A13.573,13.573,0,0,1,71.4,41.432a1.876,1.876,0,0,1,.557.778.86.86,0,0,0,.12.247,5.111,5.111,0,0,1,.619,1.3c.049.128.117.25.166.378a2.039,2.039,0,0,1,.121.393c.081.5.133,1,.247,1.495a1.283,1.283,0,0,1-.1.809.308.308,0,0,1-.128.155,3.117,3.117,0,0,0-.61.446,5.33,5.33,0,0,1-.453.314,4.2,4.2,0,0,0-.423.224,8.745,8.745,0,0,0-.667.593c-.2.191-.37.411-.575.6a1.379,1.379,0,0,0-.5.95.975.975,0,0,1-.077.264.384.384,0,0,1-.232.24,7.96,7.96,0,0,1-.964.36,1.382,1.382,0,0,0-.562.251c-.205.151-.3.237-.087.5a2.994,2.994,0,0,1,.435.7,4.512,4.512,0,0,0,.282.474,3.293,3.293,0,0,1,.233.421,2.351,2.351,0,0,0,.516.885,1.9,1.9,0,0,1,.286,1.383,10.534,10.534,0,0,0-.208,1.774,2.353,2.353,0,0,0,.053.684,9.654,9.654,0,0,0,.272,1.139,2.259,2.259,0,0,0,.448.849c.061.067.1.158.152.23.354.443.242.348.332.879a.253.253,0,0,1-.208.3c-.289.073-.579.148-.871.209a2,2,0,0,0-.88.369,1.851,1.851,0,0,1-.3.171.71.71,0,0,0-.242.237,8.256,8.256,0,0,0-.877,1.633c-.053.128-.1.258-.164.38a.735.735,0,0,0-.075.533,1.206,1.206,0,0,1-.292,1.09,2.466,2.466,0,0,1-.486.572,2.9,2.9,0,0,1-.658.373.884.884,0,0,0-.185.094.278.278,0,0,0-.151.286.548.548,0,0,1-.143.44,4.671,4.671,0,0,0-.336.521.769.769,0,0,0-.124.314.808.808,0,0,1-.505.689,3.329,3.329,0,0,0-.567.38c-.119.093-.344.075-.355.275-.009.175.184.25.27.384.174.271.382.521.544.8a3.784,3.784,0,0,1,.4.951c.1.378.249.742.349,1.119.155.577.312,1.153.521,1.714.065.172.12.348.171.524.082.287.145.58.24.863.087.261.294.466.362.742a1.543,1.543,0,0,0,.163.3c.095.183.186.368.278.553a.942.942,0,0,1,.067.54.347.347,0,0,1-.178.279,2.437,2.437,0,0,1-.441.2c-.263.077-.536.1-.8.2a3.621,3.621,0,0,1-.739.161,1.685,1.685,0,0,1-.481.024.837.837,0,0,0-.581.168,3.638,3.638,0,0,0-.634.4c-.184.183-.428.264-.608.448s-.377.335-.537.533a.8.8,0,0,1-.218.166.9.9,0,0,0-.345.329.831.831,0,0,1-.413.35,1.072,1.072,0,0,0-.3.166,1.606,1.606,0,0,1-.788.4.14.14,0,0,0-.06.223c.03.033.06.068.093.1.133.127.27.25.4.379a3.342,3.342,0,0,1,.694,1.019,1.624,1.624,0,0,1,.128.463,4.68,4.68,0,0,1,.011,1.236,1.447,1.447,0,0,1-.449.908c-.137.122-.285.232-.428.346a2.121,2.121,0,0,0-.469.495,1.236,1.236,0,0,1-.889.59.4.4,0,0,0-.191.072.5.5,0,0,1-.451.091c-.168-.038-.172-.023-.483.172M50.042,65.365c-.026.078.027.121.07.173s.072.059.091.006a.067.067,0,0,0-.017-.061c-.052-.039-.109-.072-.164-.107a.136.136,0,0,0-.145-.161.225.225,0,0,0,.078-.245,1.891,1.891,0,0,0-.1-.256,10.954,10.954,0,0,1-.732-1.78,4.329,4.329,0,0,1-.186-.589,3.274,3.274,0,0,1,.034-.612.952.952,0,0,1,0-.137c.09-.4.179-.807.277-1.208a.226.226,0,0,1,.256-.177.37.37,0,0,0,.2-.025.292.292,0,0,1,.375.038c.108.084.226.153.333.238a5.263,5.263,0,0,1,.913,1.113c.134.185.272.366.4.517.062.32.116.612.176.9a.313.313,0,0,0,.159.215,5.25,5.25,0,0,0,1.618.573,1.433,1.433,0,0,0,.342,0,.458.458,0,0,0,.4-.218.351.351,0,0,1,.349-.183.425.425,0,0,0,.466-.2c.082-.1.191-.191.285-.291a7.463,7.463,0,0,1,1.121-1.114,2.163,2.163,0,0,0,.614-.642c.078-.126.173-.123.279-.009s.211.243.327.353c.284.267.568.535.864.788a1.261,1.261,0,0,1,.307.359.413.413,0,0,0,.463.214c.178-.034.356-.071.535-.106.033-.031.078-.056.1-.094a5.741,5.741,0,0,1,1.022-1.292c.551-.554,1.031-1.173,1.566-1.741a.655.655,0,0,0,.175-.29c.051-.254.218-.454.288-.7.045-.155.134-.192.235-.082a4.516,4.516,0,0,0,.635.629.5.5,0,0,1,.141.148,4.608,4.608,0,0,1,.657,1.2.627.627,0,0,0,.243.4,3.731,3.731,0,0,0,1.491-.671.272.272,0,0,0,.089-.31,2.578,2.578,0,0,1-.108-1.354c.014-.114.043-.226.052-.34a1.491,1.491,0,0,0,.005-.41c-.07-.343.009-.689-.034-1.031a.4.4,0,0,1,.028-.2c.188-.421.211-.9.429-1.308a.592.592,0,0,0-.015-.535,2.738,2.738,0,0,0-.227-.424,2.968,2.968,0,0,1-.244-.488,12.171,12.171,0,0,0-.57-1.1,1.355,1.355,0,0,0-.5-.53,3.608,3.608,0,0,0-1.434,1.184,2.758,2.758,0,0,1-1.418.926,1.614,1.614,0,0,1-1.262-.1,4.885,4.885,0,0,0-.748-.352,1.813,1.813,0,0,1-.837-.58,1.189,1.189,0,0,0-.141-.151.506.506,0,0,0-.51-.125c-.153.049-.307.094-.458.15a2.489,2.489,0,0,1-1.426.058,5.728,5.728,0,0,1-1.237-.42c-.457-.223-.942-.362-1.407-.557a.325.325,0,0,0-.422.12,1.946,1.946,0,0,1-.689.557c-.054.027-.093.087-.182.175a1.225,1.225,0,0,1,.237,1.1,4.172,4.172,0,0,0,.009.481.849.849,0,0,1-.11.462,1.823,1.823,0,0,1-.209.356,9.127,9.127,0,0,0-.974,1.06.818.818,0,0,1-.156.132A3.824,3.824,0,0,0,50.86,58.04a.852.852,0,0,1-.18.206,1.707,1.707,0,0,0-.185.2,16.193,16.193,0,0,1-1.416,1.679,1.044,1.044,0,0,1-.273.2.922.922,0,0,0-.517.687.81.81,0,0,1-.091.184,3.375,3.375,0,0,1-1.116,1.285c-.091.07-.2.12-.282.2a.5.5,0,0,0-.108.727.94.94,0,0,0,.323.352,11.013,11.013,0,0,0,1.154.612,5.889,5.889,0,0,1,1.22.628,1.41,1.41,0,0,0,.512.2c.026.073.056.141.142.16m6.3,14.176.028.031-.016-.03c-.177.01-.362,0-.454.2-.134-.017-.267-.038-.4-.049a.214.214,0,0,0-.128.029.188.188,0,0,0-.058.1c0,.014.017.048.033.053a.457.457,0,0,0,.193.039.617.617,0,0,0,.35-.19c.265.057.323.033.453-.183m1.868-11.8c.037.051.08.074.136.028,0,0-.015-.035-.02-.034-.037,0-.073.014-.11.022a.708.708,0,0,0-.195-.06.664.664,0,0,1-.486-.218c-.11-.11-.232-.206-.342-.3-.152.08-.269.113-.382-.032-.182-.234-.376-.458-.577-.7-.227.1-.456.194-.68.3a1.886,1.886,0,0,0-.221.159,1.384,1.384,0,0,1-.232.141,3.176,3.176,0,0,0-1.039.771.155.155,0,0,0,.049.271c.265.071.538.119.8.209a2.2,2.2,0,0,0,.878.116A6.906,6.906,0,0,0,58,67.968a.621.621,0,0,0,.176-.1c.027-.024.027-.079.04-.118m-20.8,71.143a2.359,2.359,0,0,0,.292.131c.708.2,1.412.409,2.128.578a3.224,3.224,0,0,0,.478.049c.089.007.183.033.263-.039a.482.482,0,0,0,.078-.108c.4-1.053.828-2.1,1.194-3.161a11.318,11.318,0,0,0,.607-2.189,3.406,3.406,0,0,1,.157-.6,12.755,12.755,0,0,0,.474-1.8c.019-.113.051-.223.078-.335.059-.246.118-.491.179-.736.028-.11.054-.221.088-.33q.254-.825.511-1.648a5.45,5.45,0,0,1,.192-.59,12.677,12.677,0,0,0,.76-2.358.833.833,0,0,1,.061-.139.711.711,0,0,0,.42-.494,2.445,2.445,0,0,1,.123-.343.63.63,0,0,1-.023-.517c.076-.24.113-.493.178-.737a3.658,3.658,0,0,0-.026-1.906c-.087-.333-.156-.67-.225-1.008-.157-.766-.286-1.537-.51-2.289a10.99,10.99,0,0,0-.488-1.282,3.307,3.307,0,0,1-.4-1.235.88.88,0,0,0-.115-.393,1.858,1.858,0,0,1-.175-.518,1.025,1.025,0,0,0-.148-.382,1.122,1.122,0,0,1-.194-.786,2.556,2.556,0,0,0-.069-.819.586.586,0,0,1-.023-.2,5.151,5.151,0,0,1,.34-1.474,2.853,2.853,0,0,0,.237-.564c.044-.221.113-.441.156-.666a1.757,1.757,0,0,1,.1-.4,2.835,2.835,0,0,0,.215-.937,1.553,1.553,0,0,0-.131-1.006.539.539,0,0,1,.045-.517c.174-.348.373-.683.538-1.036q.438-.935.879-1.87a.318.318,0,0,0-.117-.363,7.008,7.008,0,0,0-1.834-.764.153.153,0,0,0-.116.049.684.684,0,0,0-.184.364,5,5,0,0,0-.114.68,5.605,5.605,0,0,1-.192,1.083,3.452,3.452,0,0,0-.139.814,1.815,1.815,0,0,1-.059.338c-.21,1.058-.478,2.1-.6,3.18-.079.684-.2,1.364-.272,2.049a2.147,2.147,0,0,1-.1.677,5.526,5.526,0,0,0-.077,1.229.556.556,0,0,1-.018.2c-.023.159-.054.317-.07.476-.078.777-.152,1.554-.23,2.331-.046.457-.118.914-.134,1.372a3.108,3.108,0,0,1-.22,1.279.8.8,0,0,0-.047.2c-.1.565-.309,1.109-.363,1.685a3.853,3.853,0,0,0-.2,1.01,2.613,2.613,0,0,1-.091.4c-.2.756-.3,1.534-.526,2.285-.032.109-.026.228-.049.34a4.368,4.368,0,0,1-.354,1.4.676.676,0,0,0-.054.2q-.241,1.076-.479,2.153a2.437,2.437,0,0,1-.085.472,3.635,3.635,0,0,0-.221.936,8.451,8.451,0,0,1-.192,1.015c-.194.664-.28,1.349-.423,2.022-.091.427-.156.861-.273,1.281a20.156,20.156,0,0,0-.436,2.231,4.16,4.16,0,0,0,.006,1.574,3.061,3.061,0,0,1,.028.454M61.164,77.173a1.153,1.153,0,0,1,.415-.6.281.281,0,0,0,.081-.108,1.372,1.372,0,0,0,.11-.6,5.341,5.341,0,0,1-.075-.546c-.026-.388-.039-.778-.056-1.167a8.487,8.487,0,0,0,.178-.945,1.126,1.126,0,0,0-.049-.744,9.347,9.347,0,0,1-.292-.919c-.049-.153-.1-.3-.165-.453a.353.353,0,0,0-.436-.245c-.408.066-.814.161-1.224.195a3.779,3.779,0,0,0-1.13.288,3.914,3.914,0,0,1-2.829.061,7.9,7.9,0,0,1-.829-.338,1.283,1.283,0,0,0-.8-.146c-.295.059-.6.055-.887.114-.606.122-1.208.267-1.861.414-.307-.094-.657-.2-1.009-.308a1.767,1.767,0,0,1-.76-.46,3.948,3.948,0,0,1-.891-1.039,1.231,1.231,0,0,0-.127-.163.81.81,0,0,0-.632-.369q-.205-.015-.411-.02a3.245,3.245,0,0,0-1.147.212,3.839,3.839,0,0,1-.582.2c-.385.066-.517.341-.605.661a1.351,1.351,0,0,0-.009.272,2.284,2.284,0,0,1-.045.547c-.166.526-.253,1.072-.433,1.594-.12.347-.225.7-.328,1.053a1.494,1.494,0,0,0,.251,1.368c.009.013.045.012.067.008s.046-.022.046-.034a2.115,2.115,0,0,1,.183-.859.433.433,0,0,1,.168-.208,1.612,1.612,0,0,0,.354-.318.293.293,0,0,1,.264-.019,5.828,5.828,0,0,1,.507.354,1.492,1.492,0,0,1,.581.908c.031.2.1.4.143.6a.441.441,0,0,0,.245.314,2.132,2.132,0,0,0,1.108.333,2.267,2.267,0,0,1,.41.046,1.287,1.287,0,0,0,.743-.051.8.8,0,0,1,.542.023,2.254,2.254,0,0,0,1.151.106.3.3,0,0,1,.136.009c.378.1.756.2,1.132.3a.146.146,0,0,1,.077.105.544.544,0,0,1-.214.549,1.481,1.481,0,0,1-.682.314,3.807,3.807,0,0,0-.472.1.125.125,0,0,0-.08.084.15.15,0,0,0,.059.118c.279.159.568.3.843.468a3.1,3.1,0,0,0,1.034.367c.39.075.445-.047.464-.32a.69.69,0,0,1,.034-.128,1.33,1.33,0,0,0,.678-.653c.073-.116.143-.235.212-.355.143-.247.313-.33.554-.153a2.183,2.183,0,0,0,.485.26,2.1,2.1,0,0,1,.624.422c.154.138.3.285.452.424a2.43,2.43,0,0,1,.724.988c.046.132.134.151.275.114.335-.088.588-.363.944-.4a.309.309,0,0,0,.121-.063c.057-.038.111-.081.167-.123.183-.139.378-.266.546-.42a3.35,3.35,0,0,1,.885-.524c.354-.165.708-.327,1.068-.493M58.526,48.491,58.1,47.411c-.034-.086-.07-.17-.1-.256a.915.915,0,0,1-.035-.133.492.492,0,0,1,.131-.445.191.191,0,0,1,.114-.067.8.8,0,0,1,.274.021.992.992,0,0,0,.8-.1,2.015,2.015,0,0,1,.649-.209,3.975,3.975,0,0,0,.467-.12,1.114,1.114,0,0,0,.575-.36c.117-.141.219-.294.334-.437a.593.593,0,0,1,.194-.188c.219-.093.353-.294.546-.409a1.621,1.621,0,0,0,.547-.6.967.967,0,0,0,.082-.979c-.01-.021-.015-.044-.025-.064a1.446,1.446,0,0,1-.036-1.079,4.69,4.69,0,0,0,.222-1.344.721.721,0,0,1,.081-.331.742.742,0,0,0,.065-.461c-.019-.18.082-.358.019-.545a.224.224,0,0,0-.28-.12c-.019.012-.048.015-.061.031a3.637,3.637,0,0,0-.6.745,3.1,3.1,0,0,1-.907,1.108c-.017.014-.036.037-.055.038a.3.3,0,0,1-.109-.014c-.007,0-.009-.045,0-.063a2.566,2.566,0,0,0,.2-.508,5.831,5.831,0,0,0,.022-1.235.235.235,0,0,0-.157-.209q-.614-.224-1.233-.436a.421.421,0,0,0-.334.038.769.769,0,0,0-.349.321,4.805,4.805,0,0,0-.554,1.255,2.156,2.156,0,0,0-.083.61,1.4,1.4,0,0,1-.035.339,15.226,15.226,0,0,1-.45,1.66.648.648,0,0,1-.134.238,3.442,3.442,0,0,1-1.351,1.036,2.21,2.21,0,0,0-.495.239,1.251,1.251,0,0,1-.575.215,2.86,2.86,0,0,0-.917.283c-.375.185-.8.227-1.173.4a.288.288,0,0,1-.135.021,1.892,1.892,0,0,1-1.065-.2c-.029-.021-.086-.006-.13,0s-.079.107-.054.178a6.348,6.348,0,0,0,.653,1.8.712.712,0,0,1,.07.192,2.534,2.534,0,0,0,.473.905,1.231,1.231,0,0,1,.22.346c.206.521.675.8,1.051,1.159a.18.18,0,0,0,.061.031,3.256,3.256,0,0,0,1.59.356,4.727,4.727,0,0,1,.551-.017,7.2,7.2,0,0,1,2.176.261c.066.02.134.034.2.047a1.384,1.384,0,0,0,1.256-.159c.042-.019.082-.041.123-.062.862-.433,1.752-.808,2.624-1.217a6.378,6.378,0,0,0,2.139-1.479,5.423,5.423,0,0,1,1.044-.895,7.843,7.843,0,0,0,.646-.514c.1-.086.221-.167.214-.328,0-.09-.167-.079-.433.03-.042.018-.086.033-.127.053-.556.264-.709.224-.9.935a.317.317,0,0,1-.459.156c-.1-.052-.192-.122-.284-.18a1.218,1.218,0,0,0-.142.027.415.415,0,0,0-.3.339.629.629,0,0,0-.025.135.91.91,0,0,1-.28.673,1.876,1.876,0,0,1-.841.57c-.3.1-.6.232-.9.354a9.61,9.61,0,0,1-1.555.554,5.169,5.169,0,0,0-1.217.47c-.26.133-.372.1-.493-.156a4.365,4.365,0,0,1-.245-.642,1.749,1.749,0,0,1-.021-.4l-.328-.133M56.8,83.1a1.316,1.316,0,0,0-.255-.023,4.549,4.549,0,0,0-.476.074,2.015,2.015,0,0,1-.954-.061C54.8,83,54.5,82.9,54.19,82.8a2.594,2.594,0,0,1-.379-.16,3.176,3.176,0,0,1-1.05-.767c-.072-.088-.176-.148-.256-.23A1,1,0,0,0,52.1,81.4c-.433-.15-.857-.328-1.3-.461a4.648,4.648,0,0,0-1.334-.317c-.436,0-.87-.056-1.306-.073-.39-.014-.781-.026-1.17-.007a8.77,8.77,0,0,1-1.308.012,1.036,1.036,0,0,0-.342.025.224.224,0,0,0-.138.136,2.859,2.859,0,0,0-.052.408.575.575,0,0,1-.183.36.869.869,0,0,1-.4.257,1.4,1.4,0,0,0-.251.108.213.213,0,0,0-.07.244,1.864,1.864,0,0,0,.492.658.942.942,0,0,1,.255.321c.09.211.195.415.277.629a3.428,3.428,0,0,1,.156.526.721.721,0,0,1-.15.647.6.6,0,0,0-.171.292c-.013.077.055.212.131.211a1.508,1.508,0,0,0,.477-.026,1.114,1.114,0,0,1,.8.014c.149.054.316.059.471.1a1.647,1.647,0,0,1,.453.159c.291.184.565.394.842.6a2.538,2.538,0,0,1,.654.793.743.743,0,0,1,.1.53c-.013.068-.033.134-.044.2a.148.148,0,0,0,.121.141,1.489,1.489,0,0,0,.272-.028,10.654,10.654,0,0,0,1.946-.69,11,11,0,0,1,2-.917.159.159,0,0,0,.061-.03c.082-.069.254-.048.253-.191s-.158-.118-.258-.155c-.606-.223-1.251-.29-1.87-.462a3.038,3.038,0,0,0-.477-.056.992.992,0,0,0-.652-.16.217.217,0,0,1-.183-.18c-.015-.087-.017-.175-.026-.284-.116-.025-.228-.043-.336-.077-.03-.009-.051-.061-.066-.1A.071.071,0,0,1,49.8,84.5a.69.69,0,0,1,.506-.179,2.318,2.318,0,0,0,.879-.143c.455-.158.9-.342,1.344-.529a.68.68,0,0,1,.6,0,3.638,3.638,0,0,1,.923.6c.246.242.495.481.753.709.385.342.38.4.807.09a.929.929,0,0,1,.236-.142,2.37,2.37,0,0,0,.66-.488.475.475,0,0,0,.19-.425,1.766,1.766,0,0,1,.093-.54A.472.472,0,0,0,56.8,83.1m-2.978,16.1c.122-.162.188-.34.42-.334a.712.712,0,0,0,.486-.223,1.381,1.381,0,0,0,.376-.469q.437-.935.892-1.861a2.754,2.754,0,0,0,.222-1.6,2.972,2.972,0,0,1-.027-.476,1.929,1.929,0,0,0-.043-.34.132.132,0,0,0-.16-.078,1.322,1.322,0,0,0-.174.107c-.176.146-.339.311-.526.441a6.688,6.688,0,0,1-.589.333c-.178.537-.178.537.091.959a.494.494,0,0,0,.04.056.938.938,0,0,1,.195.654l-.593.094a.136.136,0,0,1-.068-.006c-.126-.051-.25-.1-.387-.161-.1.057-.2.111-.3.168a2.173,2.173,0,0,0-.888.739c-.117.14-.229.285-.349.422a.945.945,0,0,0-.26.544.817.817,0,0,1-.421.671.85.85,0,0,0-.2.181,2.334,2.334,0,0,0-.33.435c-.157.277-.349.535-.524.8a.082.082,0,0,0,.006.063c.007.016.03.039.041.037a1.311,1.311,0,0,0,.627-.257,1.756,1.756,0,0,1,.8-.389c.134-.028.263-.077.4-.1a.524.524,0,0,0,.31-.134.774.774,0,0,1,.553-.234c.136-.011.272-.028.39-.041M67.039,41.745c.163-.042.3-.065.429-.113a.459.459,0,0,1,.56.13,10.542,10.542,0,0,0,1.067.862c.041.038.158-.007.166-.061.038-.249.079-.5.108-.749a.47.47,0,0,0-.114-.387,1.342,1.342,0,0,1-.307-.531,1.356,1.356,0,0,0-.376-.486.554.554,0,0,0-.45-.1.7.7,0,0,1-.524-.117c-.1-.061-.208-.1-.306-.159a3.9,3.9,0,0,0-1.568-.5c-.434-.054-.86-.14-1.287-.229a1.151,1.151,0,0,0-.272-.031.164.164,0,0,0-.169.1,6.523,6.523,0,0,0-.342,1.187.273.273,0,0,0,.148.283,1.4,1.4,0,0,0,.6.137,6.688,6.688,0,0,0,1.1.01.963.963,0,0,1,.6.128.443.443,0,0,1,.3.42,1.332,1.332,0,0,0,.037.338.272.272,0,0,0,.126.15.908.908,0,0,0,.259.078c.082.015.123-.05.149-.113s.038-.131.07-.248M42.332,87.052a3.261,3.261,0,0,1-.58-.57,1.074,1.074,0,0,1-.3-.944c0-.023,0-.046,0-.069a1.071,1.071,0,0,1,.171-.514,9.571,9.571,0,0,0,.472-.84.912.912,0,0,0,.058-.263c0-.018-.012-.055-.023-.058A.5.5,0,0,0,42,83.786a.091.091,0,0,0-.059.03,5.144,5.144,0,0,1-.611.653.591.591,0,0,0-.146.228.384.384,0,0,1-.3.25,1.239,1.239,0,0,0-.2.063.212.212,0,0,0-.122.28c.106.2.214.406.335.6a2.592,2.592,0,0,1,.278.389,1.45,1.45,0,0,0,.5.642,1.483,1.483,0,0,1,.359.414.785.785,0,0,0,.413.349.455.455,0,0,1,.257.217.89.89,0,0,0,.281.3,4.379,4.379,0,0,0,1.215.632c.326.107.661.181.982.31a1.049,1.049,0,0,0,1.048-.136c.075-.054.163-.09.232-.15a3.357,3.357,0,0,1,.81-.514.156.156,0,0,0,.074-.176,2.639,2.639,0,0,0-.659-.869.137.137,0,0,0-.181.047.749.749,0,0,0-.12.237.519.519,0,0,1-.142.3c-.1.094-.195.2-.295.29a.243.243,0,0,1-.258.049,1.228,1.228,0,0,0-.865-.1c-.048.016-.133-.03-.182-.07-.07-.057-.11-.164-.185-.2a.541.541,0,0,1-.31-.428,3.1,3.1,0,0,0-.365-.958.342.342,0,0,0-.425.132.908.908,0,0,1-.813.42,2,2,0,0,0-.215.032m2.742,13.59c-.229-.287-.433-.535-.626-.79-.111-.146-.209-.3-.307-.458-.193-.3-.18-.286-.471-.082a6.013,6.013,0,0,0-.5.452.2.2,0,0,0,.007.068,12.422,12.422,0,0,1,.585,1.246,1.4,1.4,0,0,0,.855.846c.108.04.215.081.323.12a7.654,7.654,0,0,0,1.965.311.929.929,0,0,0,.527-.129,6.628,6.628,0,0,1,1.458-.608.1.1,0,0,0,.052-.044.1.1,0,0,0,.009-.062c0-.02-.013-.051-.026-.054a1.693,1.693,0,0,0-.265-.06,1.791,1.791,0,0,1-1.112-.491,2.332,2.332,0,0,0-.209-.179.633.633,0,0,0-.121-.065.342.342,0,0,0-.414.144c-.041.082-.068.171-.109.252a.2.2,0,0,1-.243.072c-.152-.1-.3-.2-.445-.3a.736.736,0,0,1-.659-.063l-.273-.123M67.736,45.314A1.341,1.341,0,0,0,68.478,45a2.049,2.049,0,0,0,.684-.761,1.819,1.819,0,0,0,.125-.46c.011-.047-.073-.156-.117-.151a1.771,1.771,0,0,1-.934-.15.631.631,0,0,0-.338-.014c-.5.083-.995.177-1.491.269a.251.251,0,0,0-.217.147c-.033.111.072.137.153.181.242.129.482.263.712.41a1.441,1.441,0,0,1,.365.31,4.625,4.625,0,0,1,.314.53M63.024,63.84c.04-.143.059-.209.076-.276a.182.182,0,0,0-.149-.194.477.477,0,0,0-.265.01,6.7,6.7,0,0,1-1.1.553,1.762,1.762,0,0,0-.3.174.211.211,0,0,0-.064.3c.031.061.078.114.108.175a1,1,0,0,1-.042,1.1.352.352,0,0,0-.064.121.674.674,0,0,0-.016.2c0,.043.106.045.179,0,.1-.056.2-.12.3-.172a2.488,2.488,0,0,0,.954-1.052,6.292,6.292,0,0,0,.38-.943M63.86,43.4c0,.042-.01.11-.011.178a2.241,2.241,0,0,0,.529,1.31c.018.026.081.023.124.027a.123.123,0,0,0,.066-.016c.551-.3.631-.456.516-1.031-.04-.2-.083-.4-.124-.605-.009-.045-.017-.09-.027-.134a.243.243,0,0,0-.2-.164,1.168,1.168,0,0,0-.6.113.512.512,0,0,0-.275.324m-13,24.543c.215,0,.419-.006.622-.014.182-.008.241-.115.159-.266a5.609,5.609,0,0,1-.513-.882.293.293,0,0,0-.139-.142c-.141-.073-.289-.132-.436-.194a.239.239,0,0,0-.24.083.5.5,0,0,0-.155.5c.041.154.083.307.136.457a.363.363,0,0,0,.112.165c.146.106.3.2.455.3m-4.981,8.4c-.073.094-.124.17-.185.236a.372.372,0,0,0-.1.377.836.836,0,0,1,.028.134.3.3,0,0,0,.249.285,9.733,9.733,0,0,0,1.629.161c.028,0,.066-.051.091-.085a.078.078,0,0,0-.026-.12,1.016,1.016,0,0,0-.239-.122.694.694,0,0,1-.5-.428c-.093-.235-.22-.379-.512-.326-.12.022-.259-.063-.437-.112M40.621,96.919c-.141.052-.288.1-.429.163a.135.135,0,0,0-.055.108.144.144,0,0,0,.061.105c.117.061.24.113.362.163.051.021.14-.041.145-.1.014-.151.059-.309-.085-.439m7.4-19.428a1.085,1.085,0,0,0,.862.147c.011,0,.029-.031.026-.04a.088.088,0,0,0-.043-.05,2.754,2.754,0,0,0-.845-.057m6.659,2.372c.04-.009.1-.006.116-.032a.135.135,0,0,0-.008-.116.174.174,0,0,0-.091-.072c-.055-.019-.15.051-.138.1a.251.251,0,0,0,.064.1c.012.014.038.015.057.022m4.463-12.448a.248.248,0,0,0,.018.052,1.12,1.12,0,0,0,.115-.025c-.007-.017-.015-.049-.02-.049a.971.971,0,0,0-.113.021" transform="translate(-19.835 -16.485)" fill="#fff"/>
    <path id="パス_5340" data-name="パス 5340" d="M146.862,120.065a.344.344,0,0,0-.1-.343.49.49,0,0,1-.176-.443,4.784,4.784,0,0,0,.009-1.506c-.057-.247-.087-.495-.35-.631a.236.236,0,0,1-.089-.2,3.613,3.613,0,0,0-.27-2.081,4.073,4.073,0,0,1-.209-.72,4.746,4.746,0,0,0-1.309-2.108.6.6,0,0,0-.211-.133c-.3-.154-.6-.3-.9-.457a2.718,2.718,0,0,0-1.334-.31,4.757,4.757,0,0,0-3.247,1.152,9.135,9.135,0,0,1-.868.728,21.275,21.275,0,0,1-3.353,1.739.523.523,0,0,1-.365,0,1.033,1.033,0,0,1-.709-.666,6.15,6.15,0,0,0-1.187-2.2,3.972,3.972,0,0,0-.479-.58,2.41,2.41,0,0,0-.789-.61c-.35.227-.005.654-.267.906-.328.024-.5-.282-.777-.373a.3.3,0,0,0-.4.162,17.587,17.587,0,0,0-.226,1.872,7.357,7.357,0,0,0,.025,1.63,4.74,4.74,0,0,0,3.252,3.81l1.468.359a.39.39,0,0,0,.441-.152.815.815,0,0,1,.514-.332,1.27,1.27,0,0,0,.8-.566c1.066-1.506,2.038-3.077,3.141-4.558.075-.1.129-.217.2-.323a1.3,1.3,0,0,1,.213-.309,5.128,5.128,0,0,1,.7-.525.55.55,0,0,1,.8.332c.02.081.039.162.054.244a4.3,4.3,0,0,1-.157,2.238.817.817,0,0,0,.1.834.708.708,0,0,1,.138.6c-.144.7-.274,1.4-.457,2.082a11.653,11.653,0,0,1-.5,1.816c-.036.081.051.236.112.338.039.065.138.09.2.142a.338.338,0,0,1-.014.6c-.163.122-.347.216-.5.307-.023.171-.034.3-.059.42a2.139,2.139,0,0,1-.453,1.277.857.857,0,0,0-.142.472c-.055.417-.1.835-.131,1.254a2.489,2.489,0,0,1-.279,1.09,1.764,1.764,0,0,0-.226.957,1.216,1.216,0,0,1-.391,1.023c-.278.233-.209.625-.373.919a.852.852,0,0,0-.02.612,1.636,1.636,0,0,1-.15,1.1,6,6,0,0,0-.469,1.43,4.165,4.165,0,0,1-.729,1.727,1.845,1.845,0,0,0-.365.928,5.1,5.1,0,0,1-.764,1.982,3.216,3.216,0,0,0-.2.323c-.194.42-.458.8-.67,1.209a2.335,2.335,0,0,1-.8,1.065.5.5,0,0,0-.14.206c-.273.518-.544,1.037-.862,1.644a5.336,5.336,0,0,1,.019,1.4.263.263,0,0,0,.094.218c.253.144.533.33.821.17a1.673,1.673,0,0,1,1.078-.238.909.909,0,0,0,.37-.068,1.535,1.535,0,0,1,.988.033,1.458,1.458,0,0,0,1.422-.264c.1-.076.212-.138.31-.217a3.357,3.357,0,0,1,1.318-.713.879.879,0,0,0,.579-.457,2.788,2.788,0,0,1,.816-.945,2.235,2.235,0,0,0,.577-.659,1.45,1.45,0,0,0,.116-.223c.036-.1-.009-.19-.1-.179-.053.006-.1.09-.145.148-.021-.155-.095-.34.07-.441.354-.217.457-.705.9-.816a1.974,1.974,0,0,1,.844-1.047c.061-.032.08-.143.121-.216.144-.256.275-.519.437-.762a1.509,1.509,0,0,0,.273-.823,7.145,7.145,0,0,1,.614-2.029,5.425,5.425,0,0,0,.8-2.221c.126-.621.378-1.2.474-1.82a8.412,8.412,0,0,1,.552-1.8,1.069,1.069,0,0,0,0-.838.859.859,0,0,1,.092-.73,4.675,4.675,0,0,0,.511-2.051c.014-.21.014-.422.043-.629a1.532,1.532,0,0,1,.145-.605c.349-.535.159-1.156.318-1.717a.374.374,0,0,0-.063-.236.893.893,0,0,1-.1-.606m-6.068,19.4c-.17-.022-.278.1-.4.183-.026.017-.087.028-.1.015-.061-.075-.046-.18.049-.2a2.267,2.267,0,0,1,.452,0m39.728-7.231a.485.485,0,0,0-.572.047.7.7,0,0,0-.3.8c.1.267.324.381.737.422a.875.875,0,0,0,.167,0,.586.586,0,0,0,.5-.3.475.475,0,0,0-.094-.563,2.023,2.023,0,0,0-.444-.412M180.379,131a2.493,2.493,0,0,1,.074-2.089.665.665,0,0,0-.023-.443,1.487,1.487,0,0,0-.72-.966.909.909,0,0,1-.494-.56,1.076,1.076,0,0,0-.484-.58.725.725,0,0,1-.337-.5,1.477,1.477,0,0,0-.424-.8,13.175,13.175,0,0,0-2.326-2.014,19.614,19.614,0,0,1-1.613-1.2,2.246,2.246,0,0,1-.945-1.539,1.49,1.49,0,0,0-.214-.57,3.032,3.032,0,0,1-.349-1.018,4.312,4.312,0,0,0-.227-.9,9.079,9.079,0,0,1-.589-3.028,2.778,2.778,0,0,0-.79-1.933,10.965,10.965,0,0,1-1.521-1.746,1.115,1.115,0,0,0-.326-.329,11.888,11.888,0,0,0-2.286-1.557.611.611,0,0,0-.535.488,1.376,1.376,0,0,0-.057.606c.247.98-.162,1.949-.026,2.924a27.205,27.205,0,0,0-.375,6.3,11.715,11.715,0,0,0,.572,3.182,9.271,9.271,0,0,0,2.286,3.968,10.4,10.4,0,0,1,1.6,1.876,2.817,2.817,0,0,0,1.648,1.288,2.891,2.891,0,0,1,.415.2,1.255,1.255,0,0,1,.673,1.021c.3.148.611.327.943.46.235.093.507.094.741.189s.417.309.651.372a7.184,7.184,0,0,0,.763.016,1.277,1.277,0,0,1,.55.234,2.586,2.586,0,0,1,.4.46c.466.563.662.607,1.468.318a5.638,5.638,0,0,1-.056-1.567,4.744,4.744,0,0,0,.863.026,8.091,8.091,0,0,0,1.013-.269.916.916,0,0,0,.052-.321M190.787,86.5c.052-.084-.028-.319-.122-.41a4.54,4.54,0,0,0-.729-.565,18.317,18.317,0,0,1-1.954-1.238,1.752,1.752,0,0,0-1.763-.247,7.16,7.16,0,0,0-2.2,1.11,1.367,1.367,0,0,1-.684.338,10.868,10.868,0,0,0-2.521.7,1.689,1.689,0,0,1-1.858-.412c-.631-.61-1.233-1.254-1.9-1.822-.7-.6-1.462-1.126-2.2-1.681-.577-.434-1.152-.872-1.744-1.285a.452.452,0,0,0-.422-.011.489.489,0,0,0-.107.418q.431,1.807.9,3.6c.169.65.373,1.29.543,1.939a.787.787,0,0,1-.009.456,11.192,11.192,0,0,1-.515,1.113.289.289,0,0,1-.274.065.788.788,0,0,0-.59-.1,6.17,6.17,0,0,0-1.475.438,2.2,2.2,0,0,1-1.489.318.836.836,0,0,0-.584.151,4.551,4.551,0,0,1-1.713.68,17.345,17.345,0,0,0-1.762.569,5.813,5.813,0,0,0-.807.451c-.353.663-1,.629-1.616.7a2.337,2.337,0,0,0-.752.146,4.305,4.305,0,0,1-1.781.458,7.018,7.018,0,0,0-1.358.28.569.569,0,0,0-.41.425,1.366,1.366,0,0,0-.1.6,10.984,10.984,0,0,0,.5,1.944c.217.53.333,1.082.521,1.615.1.291.173.593.272.885a.983.983,0,0,0,1.034.767,2.425,2.425,0,0,1,.889.238.483.483,0,0,0,.533-.218q.328-.527.642-1.062a1.17,1.17,0,0,1,.571-.5c.477-.2.953-.406,1.444-.563a4.719,4.719,0,0,0,1.379-.69c1.085-.8,2.369-1.27,3.453-2.075a2.609,2.609,0,0,1,.853-.362,9.478,9.478,0,0,0,2.225-1.049,7.985,7.985,0,0,1,3.165-1.1,8.757,8.757,0,0,1,1.352,2.617.482.482,0,0,1-.4.687,2.738,2.738,0,0,0-1.278.512,1.019,1.019,0,0,1-1,.212.772.772,0,0,0-.444.077,9.869,9.869,0,0,0-1.93.978A11.277,11.277,0,0,1,170,97.61a3.766,3.766,0,0,0-1.781.453,12.588,12.588,0,0,1-2.826.8,1.94,1.94,0,0,0-.574.2c-.078.039-.176.17-.164.241a12.525,12.525,0,0,0,1.6,4.633.564.564,0,0,0,.216.217,13.45,13.45,0,0,0,1.283.538.918.918,0,0,0,.748-.113c.356-.21.694-.453,1.061-.64,1.749-.887,3.545-1.684,5.242-2.673a2.279,2.279,0,0,1,.429-.179,16.12,16.12,0,0,0,2.137-.895,12.233,12.233,0,0,1,2.2-.749c.472-.134.687-.045.878.373.171.375.316.762.461,1.148a2.074,2.074,0,0,1-.219,1.785,5.588,5.588,0,0,1-.645.87c-.365.434-.733.858-1.062,1.327a3.129,3.129,0,0,1-1.214,1.172c-.163.073-.252.31-.376.47-.411.535-.495,1.241-.945,1.765a.535.535,0,0,0,.364.826,3.776,3.776,0,0,0,1.379.133,5.622,5.622,0,0,1,1.231-.04,9.451,9.451,0,0,1,2.692.694.56.56,0,0,1,.367.453c.032.149.07.3.094.4.538.289,1.031.563,1.533.82a.884.884,0,0,0,.75.055,1.546,1.546,0,0,1,1.341-.135.851.851,0,0,0,.457-.016,1.824,1.824,0,0,0,.942-.5.376.376,0,0,0,.047-.425.451.451,0,0,0-.244-.152c-.257-.019-.516,0-.773-.007a.15.15,0,0,1-.109-.1.48.48,0,0,1,.026-.284.4.4,0,0,1,.521-.2,2.04,2.04,0,0,0,.9.2,1.383,1.383,0,0,0,1.327-.891,2.855,2.855,0,0,0,.308-1.5,1.258,1.258,0,0,1-.016-.307c.035-.359.256-.659.276-1.039.023-.447-.451-.687-.375-1.137a.535.535,0,0,0-.136-.416,1.547,1.547,0,0,1-.474-.938,18.055,18.055,0,0,0-1-3.077,15.539,15.539,0,0,0-1.282-2.643c-.161-.264-.291-.547-.447-.815-.245-.421-.042-.917-.232-1.347-.013-.029.023-.1.056-.127.314-.26.553-.638,1.006-.685a7.21,7.21,0,0,0,2.317-.848.574.574,0,0,0,.3-.506,1.5,1.5,0,0,0-.434-1.267,4.458,4.458,0,0,0-1.988-1.256c-.573.19-1.054.377-1.55.507a1.976,1.976,0,0,0-1.02.663c-.1.111-.2.213-.292.308-.323-.094-.475-.4-.816-.428a.738.738,0,0,1-.474-.35c-.336-.578-.633-1.178-.936-1.775a.485.485,0,0,1,.218-.654,3.045,3.045,0,0,1,1.18-.358,8.09,8.09,0,0,0,1.516-.292c.4-.11.821-.11,1.222-.2a5.668,5.668,0,0,1,2.286.266c.462.075.69.424,1.021.654a.884.884,0,0,0,.28.109.235.235,0,0,0,.151-.023.963.963,0,0,0,.537-1.012,1.451,1.451,0,0,0-.089-.3.506.506,0,0,1,.216-.665c.134-.1.266-.241.192-.383a.76.76,0,0,1-.023-.842M173.9,26.418a3.876,3.876,0,0,1,2.032.921c.322.276.321.276.6.083.5-.346.667-.328,1.066.146.1.123.167.265.354.3a2.174,2.174,0,0,1,.771.221,2.251,2.251,0,0,0,2.177.107c.356-.131.7-.281,1.055-.424a2.289,2.289,0,0,1,1.417-.181,1.088,1.088,0,0,0,1.143-.457,3.565,3.565,0,0,1,.635-.536c.08-.277.17-.586.26-.9a1.4,1.4,0,0,0,.124-.467,2.774,2.774,0,0,0-.492-1.688c-.458-.513-.687-1.224-1.36-1.557a.848.848,0,0,1-.287-.376c-.151-.288-.291-.582-.415-.882-.164-.4-.293-.813-.465-1.208-.195-.446-.75-.642-.837-1.172a12.589,12.589,0,0,0-2.247-2.765c-.76-.606-1.537-1.191-2.316-1.773a.313.313,0,0,0-.274.061c-.071.312-.176.464-.545.328-.33-.12-.525.031-.548.338a12.2,12.2,0,0,1-.989,4.57,2.712,2.712,0,0,0-.129.47c-.3,1.1-.583,2.2-.91,3.288a5.223,5.223,0,0,1-1.418,2.69.188.188,0,0,0-.07.14c.022.1.044.233.115.282a3.419,3.419,0,0,0,1.547.434m-25.222-2.371c.075,0,.187-.1.227-.176a.329.329,0,0,0-.011-.279.355.355,0,0,0-.406-.155c-.04.011-.065.076-.1.116a1.04,1.04,0,0,0,.068.3c.048.084.14.192.219.2m35.581,55.208c-.021-.033-.037-.087-.063-.094-.115-.026-.177.018-.153.106.007.025.071.035.11.051l.107-.064m11.473-41.89a2.742,2.742,0,0,0-.842-1.892,7.281,7.281,0,0,0-.867-.738,7.9,7.9,0,0,0-1.826-1.064,11.77,11.77,0,0,0-4-1.756c-.758-.254-1.6-.237-2.368-.54a.3.3,0,0,0-.162,0,24.352,24.352,0,0,1-2.6.054,22.952,22.952,0,0,0-3.889.294,19.479,19.479,0,0,0-3.383.47,9.425,9.425,0,0,0-1.4.4c-.155.045-.331.143-.467.106a2.5,2.5,0,0,0-1.865.395,18.475,18.475,0,0,1-2.257.925c-.251.09-.48.24-.726.345a2.988,2.988,0,0,1-.608.2c-.32.059-.646.082-.97.12l.03-.051h-.056c.005.012.012.023.017.034-.418.377-.477.378-.968,0,0-.01.007-.02.011-.03h-.05l.032.05a3.4,3.4,0,0,0-1.577.334,5.265,5.265,0,0,1-.771.245.719.719,0,0,1-.786-.436c-.052-.151-.062-.316-.105-.47a2.006,2.006,0,0,0-.2-.6c-.4-.578-.815-1.147-1.257-1.693a3.576,3.576,0,0,1-.583-.965,3.272,3.272,0,0,0-1.5-1.649,3.742,3.742,0,0,1-1.726-1.657,2.16,2.16,0,0,0-.4-.5,12.1,12.1,0,0,0-2.774-2.239c-.6-.375-1.185-.765-1.787-1.13a3.53,3.53,0,0,0-.729-.33c-.409-.134-.829-.234-1.228-.344-.364.141-.432.491-.612.753-.214.312-.711.3-.831.751.039.138.079.3.127.451.063.207.133.412.2.618.094.294.035.462-.261.672-.128.092-.275.156-.4.246a.177.177,0,0,0-.038.146.141.141,0,0,0,.217.113.725.725,0,0,1,.614-.122c.093.033.227.1.245.169a3.485,3.485,0,0,1,.076.644.616.616,0,0,1-.411.632c-.148.066-.311.094-.462.152-.31.118-.431.352-.307.62.594,1.278,1.058,2.615,1.739,3.853a.328.328,0,0,0,.28.1c.085-.014.218-.112.224-.181.027-.352.026-.705.031-1.059a1.241,1.241,0,0,1,.249.342c.16.461.3.929.426,1.4A7.693,7.693,0,0,0,152.6,35.1c.239.461.814.683,1.111,1.144a3.691,3.691,0,0,0,.327.362,2.366,2.366,0,0,1,.62,1.129c.063.373.429.662.33,1.067-.13.531-.729.39-1.043.673a1.764,1.764,0,0,1-.415.258,11.035,11.035,0,0,1-2.9,1.065,2.806,2.806,0,0,0-1.578.732,13.673,13.673,0,0,1-2.572,1.974,10.33,10.33,0,0,0-1.965,1.409,1.093,1.093,0,0,1-1.2.267,1.335,1.335,0,0,0-.16-.029.781.781,0,0,0-.738.24,1.593,1.593,0,0,0-.338.35,1.424,1.424,0,0,1-.857.682,1.936,1.936,0,0,0-.643.478c-.157.146-.257.356-.417.5-.6.538-1.177,1.141-2.123.961a1,1,0,0,0-.614.169,7.313,7.313,0,0,1-2.628,1.234,6.99,6.99,0,0,0-.738.624.729.729,0,0,0-.037.771A1.205,1.205,0,0,1,134,51.8a6.816,6.816,0,0,0-.119,1.13.923.923,0,0,0,.171.606,5.888,5.888,0,0,1,.94,1.8c.568.523,1.084,1,1.6,1.476a9.335,9.335,0,0,0,.862.746,1.7,1.7,0,0,0,.733.322,4.73,4.73,0,0,0,1.621-.013,1.646,1.646,0,0,0,.864-.421,3.5,3.5,0,0,1,1.279-.982,1.128,1.128,0,0,0,.454-.443,9.455,9.455,0,0,1,1.034-1.254c.908-.93,1.594-2.054,2.551-2.949a4.179,4.179,0,0,0,.622-.947,4.546,4.546,0,0,1,1.028-1.25c.591-.477,1.163-.979,1.72-1.5a11.2,11.2,0,0,1,1.168-.878c.435-.309.726-.82,1.313-.915a9.531,9.531,0,0,1,2.066-1.551,12.646,12.646,0,0,1,2.068-1.142c.649.267.719,1.012,1.283,1.285.065.031.081.2.091.3a.832.832,0,0,0,.328.711,1.532,1.532,0,0,1,.724,1.383,14.119,14.119,0,0,0,.287,1.594,1.252,1.252,0,0,0,.306.73,3.289,3.289,0,0,1,.917,1.49,1.576,1.576,0,0,1,.493,1,3.716,3.716,0,0,0,.413,1.039c.416.82.749,1.684,1.089,2.542a2.006,2.006,0,0,1,.162,1.427,1.332,1.332,0,0,0,.181,1.091c.233.429.451.868.648,1.314a1.419,1.419,0,0,0,.467.651,1.479,1.479,0,0,1,.649,1.083,4.345,4.345,0,0,0,.6,1.672,10.085,10.085,0,0,0,.926,1.707c.072.751.66,1.233.971,1.859a3.653,3.653,0,0,1,.278.588,8.081,8.081,0,0,0,1.525,2.673q1.841,2.384,3.711,4.746a7.967,7.967,0,0,0,1.8,1.874,2.706,2.706,0,0,1,.513.618,15.743,15.743,0,0,0,1.124,1.381c.694.687,1.453,1.309,2.169,1.976a2.828,2.828,0,0,0,1.92.785,5.068,5.068,0,0,1,2.2.436.312.312,0,0,0,.374-.211c.059-.208.091-.426.169-.626a.617.617,0,0,0-.083-.611c-.154-.222-.349-.415-.5-.64a.325.325,0,0,1,.019-.293.576.576,0,0,1,.732-.054,1.559,1.559,0,0,1,.21.357c.013-.013.023-.028.035-.042a.165.165,0,0,0-.007.054l.066-.015c-.022-.038-.038-.052-.049-.05a3.828,3.828,0,0,0,.592-1.04.411.411,0,0,1,.551-.189c.2.084.389.191.585.286.267.129.348.125.555-.1.141-.156.21-.371.469-.406.359-.048.252-.428.411-.623a.49.49,0,0,1,.1-.123c.706-.431,1.143-1.151,1.793-1.6a5.236,5.236,0,0,0,.034-.53c-.011-.279-.213-.415-.411-.284-.089.059-.158.15-.246.211-.387.268-.636.191-.711-.2a4.677,4.677,0,0,1-.066-1.3.884.884,0,0,0-.286-.727c-.3-.3-.584-.631-.864-.957a4.721,4.721,0,0,1-1.12-1.583c-.07-.223-.286-.308-.457-.441a5.153,5.153,0,0,1-.715-.654c-.213-.242-.359-.542-.565-.792-.761-.92-1.566-1.806-2.289-2.755a6.266,6.266,0,0,0-1.324-1.182.362.362,0,0,0-.42.132,3.107,3.107,0,0,0-.065.317,1.6,1.6,0,0,1-.077.307c-.05.113-.152.123-.272.052a1.341,1.341,0,0,1-.633-.713,1.632,1.632,0,0,0-.655-.7,2.194,2.194,0,0,1-.705-1.072c-.088-.247-.081-.389.067-.384a.581.581,0,0,1,.3.086c.111.078.2.1.277-.006a.193.193,0,0,0,0-.157c-.365-.912-1.027-1.652-1.471-2.521a3.608,3.608,0,0,0-.665-.7,2.006,2.006,0,0,1-.593-1.135c-.027-.216-.078-.427-.113-.642a1.035,1.035,0,0,0-.392-.687,1.88,1.88,0,0,1-.742-1.208,9.534,9.534,0,0,0-1.382-2.741,1.258,1.258,0,0,0-.546-.314.629.629,0,0,1-.269-1.042c.139-.2.226-.355.114-.574-.1-.192-.228-.37-.309-.569-.185-.451-.333-.918-.524-1.366s-.555-.774-.6-1.311c-.043-.508-.619-.731-.844-1.165a9.273,9.273,0,0,1-.65-1.307,11.913,11.913,0,0,1-.882-2.44,1.961,1.961,0,0,0-.259-.593c-.382-.779-.767-1.557-1.135-2.3a1.4,1.4,0,0,1,.98-1.23c.509-.185,1.015-.379,1.528-.552.718-.243,1.44-.475,2.163-.7a12.962,12.962,0,0,1,3.6-.97,5.731,5.731,0,0,0,.938-.258,12.832,12.832,0,0,1,1.917-.361c.921-.048,1.842-.124,2.76-.221a48.089,48.089,0,0,1,6.341-.156,6.507,6.507,0,0,1,3.733,1.43,1.367,1.367,0,0,1,.314.369c.056.086.124.233.088.3-.232.422-.213.965-.61,1.3a1.771,1.771,0,0,0-.662,1.086,1.042,1.042,0,0,1-.193.441,18.747,18.747,0,0,0-1.3,1.444c-.1.167-.346.245-.519.371a.632.632,0,0,0-.34.523c.027.436-.284.81-.181,1.273a.52.52,0,0,1-.443.582,8.275,8.275,0,0,0-2.891,1.431.493.493,0,0,0-.21.237,1.1,1.1,0,0,1-.7.644c-.64.266-.953.868-1.433,1.3-.183.164-.129.394-.174.6-.067.314-.252.424-.583.443a1.111,1.111,0,0,1-.929-.394c.063-.03.059-.048-.008-.055,0,.015,0,.03,0,.045-.01-.012-.022-.021-.032-.033a.66.66,0,0,1-.148.189.73.73,0,0,0-.339.81.825.825,0,0,1-.059.306c-.465.235-.943.456-1.4.716a1.877,1.877,0,0,0-.4.384,1.441,1.441,0,0,1,1.016.171,1.553,1.553,0,0,0,.741.307,2.467,2.467,0,0,0,1.852-.443,1.482,1.482,0,0,1,1.358-.342,4.007,4.007,0,0,0,.812.053,1.207,1.207,0,0,0,.9-.326,2.2,2.2,0,0,1,1.27-.669,1.77,1.77,0,0,0,.736-.325,2.457,2.457,0,0,1,1.04-.429,1.36,1.36,0,0,0,.589-.26,6.287,6.287,0,0,1,1.454-.716,13,13,0,0,0,2.326-1.159,19.93,19.93,0,0,1,2.42-1.322c.288-.152.592-.275.877-.433a1.841,1.841,0,0,0,.868-.94c.177-.455.334-.917.493-1.378.213-.616.406-1.239.631-1.85a13.725,13.725,0,0,0,.175-2.1,6.806,6.806,0,0,0,.047-1.46m-44.386-11.16c-.029.033-.095.078-.118.066-.124-.061-.241-.138-.355-.208A2.271,2.271,0,0,1,151,25.77c.014-.022.088-.017.13-.007a.341.341,0,0,1,.132.064.258.258,0,0,1,.076.378m2.373,15a2.684,2.684,0,0,1-.227.166c-.007,0-.091-.081-.083-.1a1.319,1.319,0,0,1,.174-.254c.012-.014.1.009.122.039s.012.1.014.145m23.6,37.139.079-.054s0,.016,0,.038Zm1.4-3.086a5.907,5.907,0,0,1,1.085,1.791c.012.033-.03.1-.066.131a.193.193,0,0,1-.141.038,1.449,1.449,0,0,1-1.067-.914,7.676,7.676,0,0,1-.566-1.788,2.435,2.435,0,0,1,.754.742m-2.185-2.19c.031.033.056.071.084.076.628.1.636.1.864.408.2.274.547.486.437.9a1.418,1.418,0,0,1-.407.115.633.633,0,0,1-.415-.124,5.709,5.709,0,0,1-.6-.7.58.58,0,0,1,.034-.675m-.612-.1,0,.019h-.012l.007-.018m-.1-.509v0l0,0h0m-.1,3.9a.232.232,0,0,0,0,.036l-.07.007Zm-.9-4.507c-.081-.2-.216-.391-.12-.623.258.218.272.251.12.623m-.012-1.075c-.041.139-.082.277-.124.414a.435.435,0,0,1-.524-.2.417.417,0,0,1,.021-.274c.008-.028.1-.054.147-.045.157.031.312.077.467.118,0-.016,0-.032,0-.048.006.012.007.024.014.036m-1.073-2.278c.138.04.284.081.424.136a.714.714,0,0,1,.5.681,5.9,5.9,0,0,0,.127.741c0,.013-.006.027-.009.04v-.045a1.343,1.343,0,0,1-1-1.518c-.012-.011-.082.037-.036-.035m-4.152-3.324c-.065-.067-.167-.125-.183-.2-.023-.109.073-.171.194-.141.04.01.1.076.1.1a1.377,1.377,0,0,1-.106.241m.27-1.542c-.038-.006-.069-.058-.1-.09q.146-.14.224.033c-.041.021-.085.063-.121.057m1.706,8.118.008-.095.095.056Zm-.8-7.32a.32.32,0,0,1,.281.06c.214.239.406.5.6.753a.308.308,0,0,1,.017.425.561.561,0,0,1-.732.017,1.893,1.893,0,0,1-.363-1.039c.065-.076.117-.189.2-.216m-1.4-9.361a6.629,6.629,0,0,1,1.058,1.817.454.454,0,0,1-.021.314.4.4,0,0,1-.2.221.34.34,0,0,1-.3-.033,10.676,10.676,0,0,1-.663-.912.373.373,0,0,1-.044-.306c.2-.427-.05-.818-.071-1.224a.633.633,0,0,1,.241.123m-1.022-1.584a.562.562,0,0,1,.27.152c.261.377.6.731.479,1.249-.524-.115-.733-.523-.889-.978-.047-.135.061-.452.141-.423m-1.316,5.785c.044,0,.116-.019.131,0a1.8,1.8,0,0,1,.42,1c0,.028-.078.072-.126.081s-.145,0-.155-.023c-.114-.3-.218-.608-.317-.915-.012-.037.028-.09.047-.141m10.742-8.136-.045-.139.124.015Zm-1.691-.09c.015-.015.029-.033.044-.049-.029,0-.058,0-.087.009ZM152.741,36.514c.107-.116.052-.391-.075-.4a.376.376,0,0,0-.266.093.364.364,0,0,0-.108.267c.009.069.124.123.192.183a.915.915,0,0,0,.258-.141m29.933,43c-.007.007-.012.015-.019.022l.047.035,0,0c0-.018,0-.029,0-.043l-.019,0-.008-.016m-4.168-30.942c0-.014,0-.029,0-.044l-.056.036,0,0,0,0h0l.016.016.009-.014.025,0m-2.774,2.563s.08.056.1.045a1.97,1.97,0,0,0,.177-.151c-.106-.012-.212-.03-.272.106m-8.379-16.729c-.247-.338-.461-.341-.72-.006a.846.846,0,0,0-.105.23h.94a1.259,1.259,0,0,0-.114-.223m8.728,16.629L176.04,51l-.037.032a.611.611,0,0,0,.077.006m-33.5,51.459c-.023-.008-.059.016-.091.033l.074.024c-.022-.028.286.038.016-.056m-.091.033-.04-.013,0,0a.6.6,0,0,1-.044.047l.071-.023.016-.008m-.087.031-.6.194a.574.574,0,0,0,.6-.194m15.015-5.478c-.155-.069-.434.159-.45.38a.835.835,0,0,0,.1.319,1.1,1.1,0,0,0,.854.451.3.3,0,0,0,.2-.113.53.53,0,0,0-.054-.685,4.182,4.182,0,0,0-.654-.353m-.192-.98a.125.125,0,0,0-.035.077c.055.037.117.1.172.09a.485.485,0,0,0,.182-.086,1.964,1.964,0,0,0-.209-.1.153.153,0,0,0-.11.014m.341.071.007-.007-.029.017.008,0-.033.109c.014-.04.028-.079.047-.123m-6.6-7.521c.04-.038.059-.177.031-.2a5.245,5.245,0,0,0-.507-.323.9.9,0,0,0-.066.087.653.653,0,0,0,.328.483.238.238,0,0,0,.213-.048m-9.208,14.189v-.07l.052-.017c-.017,0-.034,0-.052-.007l-.023.032h0s.021.062.021.062m14.208-7.218c-.218-.1-.4.012-.6.09a1.025,1.025,0,0,1-.367.064.294.294,0,0,1-.218-.091.222.222,0,0,1,.058-.207c.2-.152.426-.267.612-.431a.4.4,0,0,0,.095-.337.43.43,0,0,0-.246-.242,2.046,2.046,0,0,0-.483-.054c.3-.2.509-.412.827-.425.071,0,.141-.08.209-.127.122-.083.173-.376.061-.45a4.121,4.121,0,0,1-1.014-1.09,2.318,2.318,0,0,0-1.169-.918.761.761,0,0,1-.469-.555c-.025-.08-.043-.162-.062-.244a2.337,2.337,0,0,0-1.421-1.494.259.259,0,0,0-.231.051c-.152.141-.268.326-.43.452-.078.061-.289.082-.335.03a2.048,2.048,0,0,0-.667-.552.485.485,0,0,1-.258-.528.626.626,0,0,0-.04-.246.407.407,0,0,0-.63-.134,1.174,1.174,0,0,0-.163.191,1.9,1.9,0,0,1-.993.709,1.808,1.808,0,0,0-.751.445,1.009,1.009,0,0,1-.44.217c-.2.066-.411.091-.61.155a.914.914,0,0,1-.8-.222,9.533,9.533,0,0,1-1.738.68,25.622,25.622,0,0,0-4.077,1.284,2.665,2.665,0,0,1-.484.139c-.524.155-1.054.295-1.569.476a1.323,1.323,0,0,1-.853.052.777.777,0,0,0-.481.063,20.511,20.511,0,0,1-3.862,1.13c-.369.08-.746.132-1.109.235-.565.161-1.116.366-1.68.532-.847.249-1.7.49-2.551.715a3.809,3.809,0,0,1-.744.078c-.157.009-.336-.2-.29-.339a6.821,6.821,0,0,1,.463-1.3,13.327,13.327,0,0,0,1.1-3.073,2.142,2.142,0,0,1,.56-1.1.926.926,0,0,0,.253-.421,8.423,8.423,0,0,1,1.794-2.711,3.857,3.857,0,0,0,1.223-1.417.723.723,0,0,1,.161-.192c.457-.431.891-.893,1.381-1.283a9.918,9.918,0,0,0,1.956-2.123c.048-.068.078-.151.131-.215A5.664,5.664,0,0,1,137.171,79a3.262,3.262,0,0,0,.53-.339,2.618,2.618,0,0,0,.978-1.126c.137-.3.327-.583.488-.877a.7.7,0,0,0-.125-.815,3.794,3.794,0,0,0-1.12-.8,9.269,9.269,0,0,0-2.626-.857,2.041,2.041,0,0,0-.992.016,5.35,5.35,0,0,1-1.237.225c-1.214.107-2.425.248-3.639.359-.333.031-.671,0-1.016,0l-.9-.6c-.275-.476-.5-.928-.782-1.343a24.92,24.92,0,0,1-1.419-2.379,3.008,3.008,0,0,0-.233-.444,14.676,14.676,0,0,0-2.472-2.675.76.76,0,0,0-.216-.126.579.579,0,0,0-.484.047.4.4,0,0,0-.192.42c.115.356.389.639.4,1.051.015.924.074,1.848.116,2.772.009.208.013.415.03.622.033.417.077.835.109,1.252.026.334.021.672.063,1a14.136,14.136,0,0,0,1.42,4.274,1.987,1.987,0,0,0,.36.514,11.91,11.91,0,0,1,1.289,1.706,2.053,2.053,0,0,0,.706.7,2,2,0,0,1,.745.7c-.066.092-.115.238-.21.279a2.748,2.748,0,0,0-.961.8,3.24,3.24,0,0,1-1.186,1.092.147.147,0,0,0-.079.09c-.086.427-.466.578-.764.788a5.041,5.041,0,0,0-1.512,1.663,6.731,6.731,0,0,1-1.557,1.951c-.041.259-.072.507-.122.752a.942.942,0,0,1-.581.766.24.24,0,0,0-.169.293.592.592,0,0,1-.213.56c-.15.144-.348.291-.4.472-.148.521-.6.933-.538,1.528a.682.682,0,0,1-.127.348,1.665,1.665,0,0,0-.2.972,5.024,5.024,0,0,1-.176,1.618,3.072,3.072,0,0,0,.129,2.1,4.9,4.9,0,0,0,.793,1.559.853.853,0,0,1,.175.333A7.523,7.523,0,0,0,121.1,102.9a4.654,4.654,0,0,0,1.169.955c.845.465,1.694.922,2.5,1.356.433-.06.8-.124,1.178-.157a.417.417,0,0,1,.431.205.82.82,0,0,0,.693.474,11.053,11.053,0,0,0,2.384.195,2.931,2.931,0,0,1,.618.041c.04.007.07.131.088.206.008.034-.027.077-.038.117-.021.076-.073.168-.048.226s.13.088.2.093c.56.033,1-.42,1.571-.383a.782.782,0,0,0,.346-.141.638.638,0,0,0,.2-.15,1.343,1.343,0,0,1,1-.469,2.276,2.276,0,0,0,1.183-.387,1.988,1.988,0,0,1,.97-.532c.13-.014.249-.2.361-.318a2.212,2.212,0,0,1,.92-.64c.68-.218,1.355-.449,2.038-.657a6.609,6.609,0,0,0,1.617-.685,6.318,6.318,0,0,1,.889-.473,17.537,17.537,0,0,1,1.755-.678,4.783,4.783,0,0,1,1.365-.219,3.27,3.27,0,0,0,2.145-.562,1.34,1.34,0,0,1,.476-.157c.284-.075.569-.154.857-.211a2.406,2.406,0,0,0,1.35-.62,1.125,1.125,0,0,1,.436-.245.442.442,0,0,1,.354,0c.131.113-.034.2-.1.295a2.009,2.009,0,0,0-.138.354,9.964,9.964,0,0,0,1.751-.512.966.966,0,0,1,.736-.066,2.515,2.515,0,0,0,1.107-.023,1.5,1.5,0,0,0,1.007-.423,3.03,3.03,0,0,1,.637-.4.517.517,0,0,0,.287-.386c.026-.171.056-.338.23-.417.408-.185.52-.65.863-.9a.286.286,0,0,0,.047-.344,1.083,1.083,0,0,0-.571-.64m-11.737,3.961a.369.369,0,0,1,0-.052c.01.029.02.059.03.089-.011-.012-.032-.023-.033-.036m1.393-.162a1.824,1.824,0,0,1-1.364.045,2.336,2.336,0,0,1,1.373-.314c.031.006.081.061.076.082-.016.068-.041.175-.085.187" transform="translate(-69.385 -8.116)"/>
  </g>
</svg>
